<svg version="1.1" xmlns="http://www.w3.org/2000/svg" xmlns:xlink="http://www.w3.org/1999/xlink" width="81" height="73.74627" viewBox="0,0,81,73.74627"><defs><linearGradient x1="59.90021" y1="114.87093" x2="59.90021" y2="165.92438" gradientUnits="userSpaceOnUse" id="color-1"><stop offset="0" stop-color="#999999"/><stop offset="1" stop-color="#828e95"/></linearGradient><linearGradient x1="60.01919" y1="109.27938" x2="60.01919" y2="172.34864" gradientUnits="userSpaceOnUse" id="color-2"><stop offset="0" stop-color="#727c80"/><stop offset="1" stop-color="#55636b"/></linearGradient></defs><g transform="translate(-22,-105.21666)"><g data-paper-data="{&quot;isPaintingLayer&quot;:true}" fill-rule="nonzero" stroke-linecap="butt" stroke-linejoin="miter" stroke-miterlimit="10" stroke-dasharray="" stroke-dashoffset="0" style="mix-blend-mode: normal"><path d="M22,178.96293v-73.74627h81v73.74627z" fill="none" stroke="none" stroke-width="NaN"/><path d="M29.99249,130.06024l15.53927,0.52964c0,0 3.37044,6.57004 7.73734,2.64399c4.81415,-4.32814 -1.1262,-8.63533 -1.1262,-8.63533l2.15404,-15.31916l7.01313,13.70717c0,0 -2.45712,7.12212 1.35841,8.58445c5.98789,2.29489 7.66751,-5.51717 7.66751,-5.51717l14.00139,-5.81442l-8.30176,12.86399c0,0 -7.4195,-0.36399 -6.61035,5.70272c0.7361,5.51899 8.21334,3.83011 8.21334,3.83011l12.40726,8.91334l-15.7586,-0.44511c0,0 -4.71483,-6.73163 -8.60011,-2.41304c-3.79521,4.21847 2.00986,8.64059 2.00986,8.64059l-2.00266,15.01664l-7.25828,-13.33882c0,0 3.87479,-6.95792 -1.89712,-9.05071c-5.44095,-1.97278 -6.8859,5.60981 -6.8859,5.60981l-13.80776,5.7119l7.80503,-12.90598c0,0 7.39334,0.68508 6.82939,-5.32061c-0.55154,-5.87353 -8.09272,-3.75114 -8.09272,-3.75114zM60.88186,145.32231c2.46392,-0.44526 4.10037,-2.80362 3.6551,-5.26754c-0.44526,-2.46392 -2.80362,-4.10036 -5.26754,-3.6551c-2.46392,0.44526 -4.10037,2.80362 -3.6551,5.26754c0.44526,2.46392 2.80362,4.10036 5.26754,3.6551z" fill="#b3b3b3" stroke="none" stroke-width="0"/><path d="M35.62412,131.99103l8.89997,0.50092c0,0 4.3781,4.66799 8.74501,0.74194c4.81415,-4.32814 1.03674,-8.90334 1.03674,-8.90334l1.00157,-9.45962l4.21813,8.43813c0,0 -0.67259,6.79963 3.14294,8.26196c5.98789,2.29489 9.20119,-3.82866 9.20119,-3.82866l7.63012,-3.68022l-4.68391,7.05035c0,0 -6.19975,1.62696 -5.39059,7.69366c0.7361,5.51899 7.24867,5.97009 7.24867,5.97009l7.50237,4.88556l-9.09781,-0.29741c0,0 -5.50606,-4.99156 -9.39134,-0.67296c-3.79521,4.21847 -0.26201,9.66542 -0.26201,9.66542l-0.89174,7.56752l-3.65346,-6.9876c0,0 1.43092,-6.88485 -4.34099,-8.97764c-5.44095,-1.97278 -8.85245,4.24523 -8.85245,4.24523l-7.55545,3.5992l4.54409,-7.15683c0,0 6.36851,-1.5868 5.80456,-7.59248c-0.55154,-5.87353 -7.88486,-6.00007 -7.88486,-6.00007zM60.88186,145.32231c2.46392,-0.44526 4.10037,-2.80362 3.6551,-5.26754c-0.44526,-2.46392 -2.80362,-4.10036 -5.26754,-3.6551c-2.46392,0.44526 -4.10037,2.80362 -3.6551,5.26754c0.44526,2.46392 2.80362,4.10036 5.26754,3.6551z" fill="url(#color-1)" stroke="none" stroke-width="0"/><path d="M29.99249,130.06024l15.53927,0.52964c0,0 3.37044,6.57004 7.73734,2.64399c4.81415,-4.32814 -1.1262,-8.63533 -1.1262,-8.63533l2.15404,-15.31916l7.01313,13.70717c0,0 -2.45712,7.12212 1.35841,8.58445c5.98789,2.29489 7.66751,-5.51717 7.66751,-5.51717l14.00139,-5.81442l-8.30176,12.86399c0,0 -7.4195,-0.36399 -6.61035,5.70272c0.7361,5.51899 8.21334,3.83011 8.21334,3.83011l12.40726,8.91334l-15.7586,-0.44511c0,0 -4.71483,-6.73163 -8.60011,-2.41304c-3.79521,4.21847 2.00986,8.64059 2.00986,8.64059l-2.00266,15.01664l-7.25828,-13.33882c0,0 3.87479,-6.95792 -1.89712,-9.05071c-5.44095,-1.97278 -6.8859,5.60981 -6.8859,5.60981l-13.80776,5.7119l7.80503,-12.90598c0,0 7.39334,0.68508 6.82939,-5.32061c-0.55154,-5.87353 -8.09272,-3.75114 -8.09272,-3.75114zM60.88186,145.32231c2.46392,-0.44526 4.10037,-2.80362 3.6551,-5.26754c-0.44526,-2.46392 -2.80362,-4.10036 -5.26754,-3.6551c-2.46392,0.44526 -4.10037,2.80362 -3.6551,5.26754c0.44526,2.46392 2.80362,4.10036 5.26754,3.6551z" fill="none" stroke="url(#color-2)" stroke-width="2"/></g></g></svg>