<svg version="1.1" xmlns="http://www.w3.org/2000/svg" xmlns:xlink="http://www.w3.org/1999/xlink" width="137.57468" height="47.11893" viewBox="0,0,137.57468,47.11893"><defs><linearGradient x1="153.19851" y1="213.831" x2="290.77321" y2="213.831" gradientUnits="userSpaceOnUse" id="color-1"><stop offset="0" stop-color="#fbb040"/><stop offset="1" stop-color="#f15a29"/></linearGradient><linearGradient x1="158.3609" y1="213.8301" x2="285.60956" y2="213.8301" gradientUnits="userSpaceOnUse" id="color-2"><stop offset="0" stop-color="#ed7340"/><stop offset="0.5181" stop-color="#f4aa46"/><stop offset="1" stop-color="#f29746"/></linearGradient></defs><g transform="translate(-153.19861,-190.2718)"><g data-paper-data="{&quot;isPaintingLayer&quot;:true}" fill-rule="nonzero" stroke="none" stroke-width="1" stroke-linecap="butt" stroke-linejoin="miter" stroke-miterlimit="10" stroke-dasharray="" stroke-dashoffset="0" style="mix-blend-mode: normal"><path d="M290.7733,213.83127c0,12.98997 -13.44792,23.55946 -29.97523,23.55946h-77.62766c-16.52616,0 -29.97179,-10.56859 -29.97179,-23.55946c0,-12.99087 13.44449,-23.55947 29.97179,-23.55947h77.62766c16.52731,0 29.97408,10.5677 29.97523,23.55947z" fill="url(#color-1)"/><path d="M285.6097,213.82947c0,10.77136 -11.10801,19.50162 -24.8116,19.50162h-77.62766c-13.70244,0 -24.8093,-8.73027 -24.8093,-19.50162v0c0,-10.76955 11.10687,-19.50072 24.8093,-19.50072h77.62766c13.70244,0 24.8116,8.73117 24.8116,19.50072z" fill="url(#color-2)"/><text transform="translate(192.76802,218.80492) scale(0.5,0.5)" font-size="40" xml:space="preserve" fill="#000000" fill-rule="nonzero" stroke="none" stroke-width="1" stroke-linecap="butt" stroke-linejoin="miter" stroke-miterlimit="10" stroke-dasharray="" stroke-dashoffset="0" font-family="Sans Serif" font-weight="normal" text-anchor="start" style="mix-blend-mode: normal"><tspan x="0" dy="0">Menu</tspan></text></g></g></svg>