<svg version="1.1" xmlns="http://www.w3.org/2000/svg" xmlns:xlink="http://www.w3.org/1999/xlink" width="272" height="272" viewBox="0,0,272,272"><defs><radialGradient cx="236.5548" cy="185.10185" r="101.9253" gradientUnits="userSpaceOnUse" id="color-1"><stop offset="0" stop-color="#006622"/><stop offset="1" stop-color="#006622" stop-opacity="0"/></radialGradient><radialGradient cx="239.99995" cy="180" r="146.2636" gradientUnits="userSpaceOnUse" id="color-2"><stop offset="0" stop-color="#00ff55"/><stop offset="1" stop-color="#00ff55" stop-opacity="0"/></radialGradient><radialGradient cx="240" cy="180.3994" r="18.8022" gradientUnits="userSpaceOnUse" id="color-3"><stop offset="0" stop-color="#ffff00"/><stop offset="1" stop-color="#ffff00" stop-opacity="0"/></radialGradient></defs><g transform="translate(-104,-44)"><g data-paper-data="{&quot;isPaintingLayer&quot;:true}" fill-rule="nonzero" stroke-linejoin="miter" stroke-miterlimit="10" stroke-dasharray="" stroke-dashoffset="0" style="mix-blend-mode: normal"><path d="M240,106.69775c20.2225,0 38.5481,8.2143 51.818,21.4843c13.27,13.2699 21.4842,31.5954 21.4842,51.818c0,20.2225 -8.2142,38.5481 -21.4842,51.818c-13.2699,13.2699 -31.5955,21.4842 -51.818,21.4842c-20.2225,0 -38.5481,-8.2143 -51.818,-21.4842c-13.2699,-13.2699 -21.4842,-31.5955 -21.4842,-51.818c0,-20.2226 8.2143,-38.5481 21.4842,-51.818c13.2699,-13.27 31.5955,-21.4843 51.818,-21.4843z" fill="url(#color-1)" stroke="none" stroke-width="2.22128" stroke-linecap="butt"/><path d="M239.99995,67.4896c31.0393,0 59.1669,12.608 79.5347,32.9758c20.3678,20.3678 32.9758,48.4954 32.9758,79.5346c0,31.0393 -12.608,59.1669 -32.9758,79.5347c-20.3678,20.3678 -48.4954,32.9757 -79.5347,32.9757c-31.0392,0 -59.1668,-12.6079 -79.5346,-32.9757c-20.3678,-20.3678 -32.9758,-48.4954 -32.9758,-79.5347c0,-31.0392 12.608,-59.1668 32.9758,-79.5346c20.3678,-20.3678 48.4954,-32.9758 79.5346,-32.9758z" fill="url(#color-2)" stroke="none" stroke-width="3.40941" stroke-linecap="butt"/><g fill="none" stroke="#00ffff" stroke-width="6.81882" stroke-linecap="round"><path d="M308.18815,94.7648l-30.6847,12.7853l2.09787,55.90007l-39.65837,17.3306"/><path d="M131.75135,177.443l19.604,11.9329l47.3223,-28.31333l41.2653,19.7182"/><path d="M296.25515,273.7587l-8.5235,-25.5706l-40.54154,-23.41836l-7.24716,-43.98897"/></g><path d="M240,165.9362c3.8816,0 7.3976,1.5751 9.9411,4.1227c2.5476,2.5435 4.1227,6.0595 4.1227,9.9411c0,3.8816 -1.5751,7.3976 -4.1227,9.9411c-2.5435,2.5476 -6.0595,4.1227 -9.9411,4.1227c-3.8816,0 -7.3975,-1.5751 -9.9411,-4.1227c-2.5475,-2.5435 -4.1227,-6.0595 -4.1227,-9.9411c0,-3.8816 1.5752,-7.3976 4.1227,-9.9411c2.5436,-2.5476 6.0595,-4.1227 9.9411,-4.1227z" fill="url(#color-3)" stroke="none" stroke-width="4.01823" stroke-linecap="butt"/><path d="M104,316v-272h272v272z" fill="none" stroke="none" stroke-width="0" stroke-linecap="butt"/></g></g></svg>