<svg version="1.1" xmlns="http://www.w3.org/2000/svg" xmlns:xlink="http://www.w3.org/1999/xlink" width="63.94629" height="67.68704"><g transform="translate(-213.57431,-137.85861)"><g data-paper-data="{&quot;isPaintingLayer&quot;:true}" fill-rule="nonzero" stroke="none" stroke-width="0" stroke-linecap="butt" stroke-linejoin="miter" stroke-miterlimit="10" stroke-dasharray="" stroke-dashoffset="0" style="mix-blend-mode: normal"><path d="M213.57432,151.72685c0,-7.65408 5.87304,-13.86824 13.86824,-13.86824c7.99519,0 13.86824,5.84804 13.86824,13.86824c0,8.02019 -5.84617,13.86824 -13.86824,13.86824c-8.02206,0 -13.86824,-6.21416 -13.86824,-13.86824z" data-paper-data="{&quot;origPos&quot;:null}" fill="#cc5252"/><path d="M249.78414,178.80006c0,-7.65408 5.87304,-13.86823 13.86824,-13.86823c7.99519,0 13.86823,5.84804 13.86823,13.86823c0,8.02019 -5.84617,13.86823 -13.86823,13.86823c-8.02206,0 -13.86824,-6.21416 -13.86824,-13.86823z" data-paper-data="{&quot;origPos&quot;:null}" fill="#e6e6e6"/><path d="M216.16373,191.67742c0,-7.65408 5.87304,-13.86823 13.86823,-13.86823c7.99519,0 13.86823,5.84804 13.86823,13.86823c0,8.02019 -5.84617,13.86823 -13.86823,13.86823c-8.02206,0 -13.86823,-6.21416 -13.86823,-13.86823z" data-paper-data="{&quot;origPos&quot;:null}" fill="#cc5252"/></g></g></svg>