<svg version="1.1" xmlns="http://www.w3.org/2000/svg" xmlns:xlink="http://www.w3.org/1999/xlink" width="480.25526" height="369.10623" viewBox="0,0,480.25526,369.10623"><defs><linearGradient x1="240" y1="23.91704" x2="240" y2="336.08296" gradientUnits="userSpaceOnUse" id="color-1"><stop offset="0" stop-color="#dcffff"/><stop offset="1" stop-color="#72c2ff"/></linearGradient><radialGradient cx="137" cy="208" r="95.5" gradientUnits="userSpaceOnUse" id="color-2"><stop offset="0" stop-color="#fff9ab"/><stop offset="1" stop-color="#fff9ab" stop-opacity="0"/></radialGradient><radialGradient cx="137" cy="208" r="44.22483" gradientUnits="userSpaceOnUse" id="color-3"><stop offset="0" stop-color="#feffd2"/><stop offset="1" stop-color="#fff9ab"/></radialGradient><linearGradient x1="174.17573" y1="91.2496" x2="174.17573" y2="216.55912" gradientTransform="translate(-7.78547,-101.82465) scale(0.73652,0.73652)" gradientUnits="userSpaceOnUse" id="color-4"><stop offset="0" stop-color="#266b8d"/><stop offset="1" stop-color="#00108d"/></linearGradient><linearGradient x1="174.17683" y1="31.25385" x2="174.17683" y2="156.56399" gradientTransform="translate(-7.78547,-57.63324) scale(0.73652,0.73652)" gradientUnits="userSpaceOnUse" id="color-5"><stop offset="0" stop-color="#266b8d"/><stop offset="1" stop-color="#00108d"/></linearGradient><linearGradient x1="171.17586" y1="90.2496" x2="171.17586" y2="215.55912" gradientTransform="translate(-5.5759,-101.08813) scale(0.73652,0.73652)" gradientUnits="userSpaceOnUse" id="color-6"><stop offset="0" stop-color="#45c2ff"/><stop offset="1" stop-color="#001dff"/></linearGradient><linearGradient x1="171.17696" y1="30.25389" x2="171.17696" y2="155.564" gradientTransform="translate(-5.5759,-56.89672) scale(0.73652,0.73652)" gradientUnits="userSpaceOnUse" id="color-7"><stop offset="0" stop-color="#45c2ff"/><stop offset="1" stop-color="#001dff"/></linearGradient><linearGradient x1="240" y1="23.91704" x2="240" y2="336.08296" gradientUnits="userSpaceOnUse" id="color-8"><stop offset="0" stop-color="#adf1ff"/><stop offset="1" stop-color="#73bbff"/></linearGradient><linearGradient x1="240" y1="23.91704" x2="240" y2="336.08296" gradientUnits="userSpaceOnUse" id="color-9"><stop offset="0" stop-color="#d1f7ff"/><stop offset="1" stop-color="#a6d4ff"/></linearGradient><linearGradient x1="240" y1="23.91704" x2="240" y2="336.08296" gradientUnits="userSpaceOnUse" id="color-10"><stop offset="0" stop-color="#d1f7ff"/><stop offset="1" stop-color="#a6d4ff"/></linearGradient><linearGradient x1="240" y1="261.08108" x2="240" y2="369.18919" gradientUnits="userSpaceOnUse" id="color-11"><stop offset="0" stop-color="#614739"/><stop offset="1" stop-color="#423833"/></linearGradient><linearGradient x1="240" y1="233.3033" x2="240" y2="261.83183" gradientUnits="userSpaceOnUse" id="color-12"><stop offset="0" stop-color="#6e984c"/><stop offset="1" stop-color="#53593f"/></linearGradient></defs><g transform="translate(0.12763,-0.08296)"><g data-paper-data="{&quot;isPaintingLayer&quot;:true}" fill-rule="nonzero" stroke="none" stroke-linecap="butt" stroke-linejoin="miter" stroke-miterlimit="10" stroke-dasharray="" stroke-dashoffset="0" style="mix-blend-mode: normal"><path d="M-0.12763,336.08296v-312.16592h480.25526v312.16592z" fill="url(#color-1)" stroke-width="0"/><g stroke-width="0"><path d="M41.5,208c0,-52.7432 42.7568,-95.5 95.5,-95.5c52.7432,0 95.5,42.7568 95.5,95.5c0,52.7432 -42.7568,95.5 -95.5,95.5c-52.7432,0 -95.5,-42.7568 -95.5,-95.5z" fill="url(#color-2)"/><path d="M92.77517,208c0,-24.4247 19.80013,-44.22483 44.22483,-44.22483c24.4247,0 44.22483,19.80013 44.22483,44.22483c0,24.4247 -19.80013,44.22483 -44.22483,44.22483c-24.4247,0 -44.22483,-19.80013 -44.22483,-44.22483z" fill="url(#color-3)"/></g><g stroke-width="1" font-family="Sans Serif" font-weight="normal" font-size="40" text-anchor="start"><g><text transform="translate(10.57057,138.25038) scale(1.35773,1.35773)" font-size="40" xml:space="preserve" fill="url(#color-4)" fill-rule="nonzero" stroke="none" stroke-width="1" stroke-linecap="butt" stroke-linejoin="miter" stroke-miterlimit="10" stroke-dasharray="" stroke-dashoffset="0" font-family="Sans Serif" font-weight="normal" text-anchor="start" style="mix-blend-mode: normal"><tspan x="0" dy="0">Platformers</tspan></text><text transform="translate(10.57057,78.25038) scale(1.35773,1.35773)" font-size="40" xml:space="preserve" fill="url(#color-5)" fill-rule="nonzero" stroke="none" stroke-width="1" stroke-linecap="butt" stroke-linejoin="miter" stroke-miterlimit="10" stroke-dasharray="" stroke-dashoffset="0" font-family="Sans Serif" font-weight="normal" text-anchor="start" style="mix-blend-mode: normal"><tspan x="0" dy="0">Non-Generic</tspan></text></g><g><text transform="translate(7.57057,137.25038) scale(1.35773,1.35773)" font-size="40" xml:space="preserve" fill="url(#color-6)" fill-rule="nonzero" stroke="none" stroke-width="1" stroke-linecap="butt" stroke-linejoin="miter" stroke-miterlimit="10" stroke-dasharray="" stroke-dashoffset="0" font-family="Sans Serif" font-weight="normal" text-anchor="start" style="mix-blend-mode: normal"><tspan x="0" dy="0">Platformers</tspan></text><text transform="translate(7.57057,77.25038) scale(1.35773,1.35773)" font-size="40" xml:space="preserve" fill="url(#color-7)" fill-rule="nonzero" stroke="none" stroke-width="1" stroke-linecap="butt" stroke-linejoin="miter" stroke-miterlimit="10" stroke-dasharray="" stroke-dashoffset="0" font-family="Sans Serif" font-weight="normal" text-anchor="start" style="mix-blend-mode: normal"><tspan x="0" dy="0">Non-Generic</tspan></text></g></g><g stroke-width="0"><path d="M-0.12763,336.08296v-145.16592c0,0 15.03767,-2.42328 32.42266,-7.67197c18.14779,-5.47898 42.80683,-14.62904 42.80683,-14.62904c0,0 34.31583,24.00385 67.60713,38.83502c23.45826,10.45058 43.19279,14.26549 43.19279,14.26549c0,0 11.94606,-1.67824 32.27309,-10.77857c17.36231,-7.77304 29.96735,-15.49373 29.96735,-15.49373c0,0 8.0124,6.57803 21.54109,13.50768c24.50521,12.55202 50.16714,24.80027 50.16714,24.80027l79.19844,-24.02427l81.07874,57.18911v69.16592z" data-paper-data="{&quot;index&quot;:null}" fill="url(#color-8)"/><path d="M15.82158,187.2912c0,0 13.89288,-3.26703 16.47345,-4.04613c18.14779,-5.47898 42.80683,-14.62904 42.80683,-14.62904c0,0 14.40005,10.07281 33.59344,21.1999c5.20607,3.01815 16.48448,9.10717 16.48448,9.10717l-17.83629,-2.31296l-11.02475,1.79195l-19.01348,-6.03543l-21.00286,1.15785l-14.95449,-4.78409z" data-paper-data="{&quot;index&quot;:null}" fill="url(#color-9)"/><path d="M225.46333,207.55463c0,0 5.8459,-2.87034 8.38746,-4.18656c8.76904,-4.54131 14.29143,-7.92382 14.29143,-7.92382c0,0 4.03169,3.30994 11.20411,7.7074c2.93881,1.80181 10.33698,5.80027 10.33698,5.80027l-14.74702,-2.53527l-7.96216,1.48654l-7.55017,-2.45482z" data-paper-data="{&quot;index&quot;:null}" fill="url(#color-10)"/></g><g stroke-width="0"><g><g><path d="M286.92042,236.61999l-24.25483,-3.21279l24.25483,-45.25483l24.25483,45.25483z" fill="#808080"/><path d="M286.92042,236.61999v-48.46763l24.25483,45.25484z" fill="#999999"/></g><g><path d="M339.42043,236.61999l-24.25483,-3.21279l24.25483,-45.25483l24.25483,45.25483z" fill="#808080"/><path d="M339.42043,236.62v-48.46763l24.25483,45.25483z" fill="#999999"/></g><g><path d="M391.92043,236.61999l-24.25484,-3.21279l24.25484,-45.25483l24.25483,45.25483z" fill="#808080"/><path d="M391.92043,236.62v-48.46763l24.25483,45.25483z" fill="#999999"/></g></g><g><path d="M32.04204,369.18919v-108.10811h415.91591v108.10811z" fill="url(#color-11)"/><path d="M24.53454,261.83183v-28.52853h430.93093v28.52853z" fill="url(#color-12)"/></g></g><g fill="#000000" stroke-width="0"><path d="M480.12763,0.08296v23.83408h-480.25526v-23.83408z"/><path d="M480.12763,336.08296v25.83408h-480.25526v-25.83408z"/></g></g></g></svg>