<svg version="1.1" xmlns="http://www.w3.org/2000/svg" xmlns:xlink="http://www.w3.org/1999/xlink" width="31.78171" height="49.5" viewBox="0,0,31.78171,49.5"><g transform="translate(-222.96829,-155.25)"><g data-paper-data="{&quot;isPaintingLayer&quot;:true}" fill-rule="nonzero" stroke-linejoin="miter" stroke-miterlimit="10" stroke-dasharray="" stroke-dashoffset="0" style="mix-blend-mode: normal"><path d="M254,183.2c0,15.02215 -6.26802,20.8 -14,20.8c-7.73198,0 -14,-5.77785 -14,-20.8c0,-15.02215 6.26802,-27.2 14,-27.2c7.73198,0 14,12.17785 14,27.2z" fill="#a5acba" stroke="none" stroke-width="0" stroke-linecap="butt"/><path d="M240,173.91195l-11.12961,-4.16649l1.36177,-1.43436l9.76784,-1.54612l9.44647,1.47581l1.68314,1.50467z" fill="#efd2bb" stroke="#1a2443" stroke-width="1" stroke-linecap="butt"/><path d="M235.48301,168.71796c0.1567,0 0.2991,0.0838 0.4021,0.219c0.1029,0.1359 0.1663,0.3225 0.1663,0.529c0,0.2064 -0.0634,0.3931 -0.1663,0.5289c-0.103,0.1352 -0.2454,0.219 -0.4021,0.219c-0.1568,0 -0.2992,-0.0838 -0.4021,-0.219c-0.1029,-0.1358 -0.1664,-0.3225 -0.1664,-0.5289c0,-0.2065 0.0635,-0.3931 0.1664,-0.529c0.1029,-0.1352 0.2453,-0.219 0.4021,-0.219z" id="ID0.6937623028643429" fill="#000000" stroke="#192443" stroke-width="1.1967" stroke-linecap="butt"/><path d="M244.5171,168.71796c0.1567,0 0.2991,0.0838 0.4021,0.219c0.1029,0.1359 0.1663,0.3225 0.1663,0.529c0,0.2064 -0.0634,0.3931 -0.1663,0.5289c-0.103,0.1352 -0.2454,0.219 -0.4021,0.219c-0.1568,0 -0.2992,-0.0838 -0.4021,-0.219c-0.1029,-0.1358 -0.1664,-0.3225 -0.1664,-0.5289c0,-0.2065 0.0635,-0.3931 0.1664,-0.529c0.1029,-0.1352 0.2453,-0.219 0.4021,-0.219z" id="ID0.6937623028643429" fill="#000000" stroke="#192443" stroke-width="1.1967" stroke-linecap="butt"/><path d="M252.15455,195.83203l-25.94545,-13.06666" data-paper-data="{&quot;index&quot;:null}" fill="none" stroke="#b8bfce" stroke-width="0.75" stroke-linecap="round"/><path d="M253.7,182.76538l-11.85072,5.96827" data-paper-data="{&quot;index&quot;:null}" fill="none" stroke="#b8bfce" stroke-width="0.75" stroke-linecap="round"/><path d="M226.2091,181.19394l25.94545,13.06666" data-paper-data="{&quot;index&quot;:null}" fill="none" stroke="#1a2443" stroke-width="1" stroke-linecap="round"/><path d="M253.7,181.19395l-13.69102,6.89508" data-paper-data="{&quot;index&quot;:null}" fill="none" stroke="#1a2443" stroke-width="1" stroke-linecap="round"/><path d="M251.94779,171.03634l-11.94779,4.47278l-11.94779,-4.47278" fill="none" stroke="#b8bfce" stroke-width="0.75" stroke-linecap="butt"/><path d="M254,183.2c0,15.02215 -6.26802,20.8 -14,20.8c-7.73198,0 -14,-5.77785 -14,-20.8c0,-15.02215 6.26802,-27.2 14,-27.2c7.73198,0 14,12.17785 14,27.2z" fill="none" stroke="#1a2443" stroke-width="1.5" stroke-linecap="butt"/><g fill="#3a5196" stroke="none" stroke-width="1"><path d="M230.3389,161.65976l19.37638,-0.60918l2.00819,3.24688l-23.29289,-0.44579z" id="ID0.2769088461063802" stroke-linecap="butt"/><g id="ID0.1292598764412105" stroke-linecap="round"><path d="M227.01489,161.82091l-0.98335,-3.50799l3.30736,0.84416l1.75174,4.24547z" id="ID0.6301852762699127"/><path d="M226.02814,164.42136l-3.05985,-1.97731l3.03738,-1.55774l4.1239,2.02125z" id="ID0.6301852762699127"/></g></g></g></g></svg>