<svg version="1.1" xmlns="http://www.w3.org/2000/svg" xmlns:xlink="http://www.w3.org/1999/xlink" width="493.99399" height="370.87087" viewBox="0,0,493.99399,370.87087"><defs><linearGradient x1="406.91659" y1="267.22782" x2="422.24696" y2="291.47034" gradientUnits="userSpaceOnUse" id="color-1"><stop offset="0" stop-color="#b3b3b3"/><stop offset="1" stop-color="#b3b3b3"/></linearGradient><linearGradient x1="298.61172" y1="283.35269" x2="292.30987" y2="311.33495" gradientUnits="userSpaceOnUse" id="color-2"><stop offset="0" stop-color="#b3b3b3"/><stop offset="1" stop-color="#b3b3b3"/></linearGradient><linearGradient x1="188.46085" y1="307.64237" x2="164.21832" y2="322.97274" gradientUnits="userSpaceOnUse" id="color-3"><stop offset="0" stop-color="#b3b3b3"/><stop offset="1" stop-color="#b3b3b3"/></linearGradient><linearGradient x1="71.2042" y1="336.48766" x2="43.22194" y2="330.18581" gradientUnits="userSpaceOnUse" id="color-4"><stop offset="0" stop-color="#b3b3b3"/><stop offset="1" stop-color="#b3b3b3"/></linearGradient></defs><g transform="translate(7.82589,6.35769)"><g data-paper-data="{&quot;isPaintingLayer&quot;:true}" fill-rule="nonzero" stroke-linejoin="miter" stroke-miterlimit="10" stroke-dasharray="" stroke-dashoffset="0" style="mix-blend-mode: normal"><path d="M-7.82589,364.51319v-370.87087h493.99399v370.87087z" fill="#000000" stroke="none" stroke-width="0" stroke-linecap="butt"/><g><path d="M435.77809,164.56796c25.92422,29.21046 23.70713,51.26236 8.67235,64.60569c-15.03478,13.34333 -37.19393,12.92528 -63.11815,-16.28518c-25.92422,-29.21046 -34.75182,-63.70712 -19.71703,-77.05046c15.03479,-13.34333 48.2386,-0.48053 74.16283,28.72993z" fill="#a5acba" stroke="none" stroke-width="0" stroke-linecap="butt"/><path d="M392.5265,170.6677l-28.83168,11.10501l0.17263,-5.13916l16.32531,-19.86309l20.91544,-13.43238l5.8695,0.02115z" fill="#efd2bb" stroke="#1a2443" stroke-width="3" stroke-linecap="butt"/><path d="M374.7798,168.36313c0.30471,-0.27042 0.72622,-0.35322 1.15982,-0.26806c0.4346,0.08669 0.87993,0.3401 1.23629,0.74164c0.35618,0.40134 0.55511,0.87378 0.58936,1.31544c0.03303,0.44065 -0.09924,0.84933 -0.40394,1.11975c-0.30489,0.27059 -0.7264,0.35338 -1.15982,0.26808c-0.43444,-0.08649 -0.88011,-0.33992 -1.23631,-0.74128c-0.35636,-0.40153 -0.55489,-0.87396 -0.58934,-1.3158c-0.03323,-0.44047 0.09904,-0.84918 0.40394,-1.11978z" fill="#000000" stroke="#192443" stroke-width="3.6" stroke-linecap="butt"/><path d="M392.34653,152.77272c0.30471,-0.27042 0.72622,-0.35322 1.15983,-0.26808c0.4346,0.08669 0.87991,0.34011 1.23629,0.74164c0.35618,0.40134 0.5551,0.87379 0.58938,1.31543c0.03303,0.44065 -0.09924,0.84934 -0.40395,1.11976c-0.30489,0.27059 -0.72641,0.35337 -1.15983,0.26807c-0.43444,-0.08649 -0.8801,-0.33994 -1.2363,-0.74128c-0.35636,-0.40154 -0.5549,-0.87397 -0.58935,-1.31579c-0.03323,-0.44047 0.09903,-0.84917 0.40394,-1.11975z" fill="#000000" stroke="#192443" stroke-width="3.6" stroke-linecap="butt"/><path d="M380.98885,211.68253l73.00029,-19.3669" data-paper-data="{&quot;index&quot;:null}" fill="none" stroke="#b8bfce" stroke-width="2.25" stroke-linecap="round"/><path d="M421.70072,196.29701l12.74399,-32.05642" data-paper-data="{&quot;index&quot;:null}" fill="none" stroke="#b8bfce" stroke-width="2.25" stroke-linecap="round"/><path d="M378.27697,208.62687l73.00028,-19.36688" data-paper-data="{&quot;index&quot;:null}" fill="none" stroke="#1a2443" stroke-width="3" stroke-linecap="round"/><path d="M431.73283,161.18496l-14.72303,37.03447" data-paper-data="{&quot;index&quot;:null}" fill="none" stroke="#1a2443" stroke-width="3" stroke-linecap="round"/><path d="M410.79635,144.45738l-15.51357,29.31599l-30.95121,11.9214" fill="none" stroke="#b8bfce" stroke-width="2.25" stroke-linecap="butt"/><path d="M435.77809,164.56796c25.92422,29.21046 23.70713,51.26236 8.67235,64.60569c-15.03478,13.34333 -37.19393,12.92528 -63.11815,-16.28518c-25.92422,-29.21046 -34.75182,-63.70712 -19.71703,-77.05046c15.03479,-13.34333 48.2386,-0.48053 74.16283,28.72993z" fill="none" stroke="#1a2443" stroke-width="4.5" stroke-linecap="butt"/><g fill="#3a5196" stroke="none" stroke-width="1"><path d="M352.59657,163.51589l36.62594,-34.623l9.50814,2.84794l-46.06215,39.33047z" stroke-linecap="butt"/><g stroke-linecap="round"><path d="M346.41115,169.5656l-7.96597,-5.12426l7.88792,-4.06617l10.73279,5.23225z"/><path d="M348.98011,176.32502l-9.36217,1.43562l3.21793,-8.27073l11.50702,-3.18644z"/></g></g></g><text transform="translate(200.02501,156.36972) scale(0.5,0.5)" font-size="40" xml:space="preserve" fill="#ffffff" fill-rule="nonzero" stroke="none" stroke-width="1" stroke-linecap="butt" stroke-linejoin="miter" stroke-miterlimit="10" stroke-dasharray="" stroke-dashoffset="0" font-family="Sans Serif" font-weight="normal" text-anchor="start" style="mix-blend-mode: normal"><tspan x="0" dy="0">all other</tspan></text><text transform="translate(128.06851,212.25002) scale(0.78169,0.78169)" font-size="40" xml:space="preserve" fill="#ffffff" fill-rule="nonzero" stroke="none" stroke-width="1" stroke-linecap="butt" stroke-linejoin="miter" stroke-miterlimit="10" stroke-dasharray="" stroke-dashoffset="0" font-family="Sans Serif" font-weight="normal" text-anchor="start" style="mix-blend-mode: normal"><tspan x="0" dy="0">TheGreenFlash</tspan></text><text transform="translate(184.16668,178.86974) scale(0.5,0.5)" font-size="40" xml:space="preserve" fill="#ffffff" fill-rule="nonzero" stroke="none" stroke-width="1" stroke-linecap="butt" stroke-linejoin="miter" stroke-miterlimit="10" stroke-dasharray="" stroke-dashoffset="0" font-family="Sans Serif" font-weight="normal" text-anchor="start" style="mix-blend-mode: normal"><tspan x="0" dy="0">scripting by</tspan></text><g stroke-linecap="butt"><path d="M400.32034,279.93887l6.53413,-2.39278c0,0 2.50247,2.15837 3.65365,-0.20416c1.26908,-2.60449 -1.91887,-3.39227 -1.91887,-3.39227l-1.68204,-6.71592l5.2132,4.50616c0,0 0.17825,3.36705 2.00663,3.33211c2.86935,-0.05485 2.25264,-3.57736 2.25264,-3.57736l4.82972,-4.7655l-1.28056,6.73116c0,0 -3.13853,1.09639 -1.78298,3.47659c1.23315,2.1653 4.05049,0.20776 4.05049,0.20776l6.64454,1.611l-6.61088,2.46471c0,0 -3.08723,-1.99937 -3.97266,0.445c-0.86491,2.3877 2.28626,3.24588 2.28626,3.24588l1.69396,6.565l-5.25296,-4.31216c0,0 0.43735,-3.5373 -2.30846,-3.43494c-2.58835,0.0965 -1.91289,3.48438 -1.91289,3.48438l-4.76664,4.69041l1.06748,-6.66506c0,0 3.18165,-0.95882 1.93807,-3.35494c-1.21622,-2.34338 -3.98718,-0.19529 -3.98718,-0.19529zM415.6979,281.07588c0.94708,-0.59891 1.22933,-1.85218 0.63041,-2.79926c-0.59891,-0.94708 -1.85217,-1.22932 -2.79925,-0.63041c-0.94708,0.59891 -1.22934,1.85218 -0.63042,2.79926c0.59891,0.94708 1.85218,1.22932 2.79926,0.63041z" fill="url(#color-1)" stroke="none" stroke-width="0"/><path d="M402.98072,279.7929l3.77557,-1.2885c0,0 2.60064,1.20005 3.75182,-1.16248c1.26908,-2.60449 -1.06682,-3.86705 -1.06682,-3.86705l-1.17493,-4.09186l3.16813,2.79066c0,0 0.86419,2.93329 2.69257,2.89834c2.86935,-0.05485 3.17262,-3.13486 3.17262,-3.13486l2.54596,-2.80919l-0.7574,3.71166c0,0 -2.29789,1.7171 -0.94236,4.09729c1.23315,2.1653 4.01016,1.25752 4.01016,1.25752l3.93304,0.76504l-3.82342,1.40617c0,0 -3.12287,-1.14463 -4.00829,1.29974c-0.86491,2.3877 1.51627,4.05288 1.51627,4.05288l0.90238,3.28863l-2.69007,-2.28397c0,0 -0.56399,-3.09613 -3.30978,-2.99376c-2.58835,0.0965 -2.95794,3.24903 -2.95794,3.24903l-2.52862,2.76301l0.68151,-3.73232c0,0 2.37464,-1.72882 1.13108,-4.12493c-1.21622,-2.34338 -4.27906,-1.16299 -4.27906,-1.16299zM415.6979,281.07588c0.94708,-0.59891 1.22933,-1.85218 0.63041,-2.79926c-0.59891,-0.94708 -1.85217,-1.22932 -2.79925,-0.63041c-0.94708,0.59891 -1.22934,1.85218 -0.63042,2.79926c0.59891,0.94708 1.85218,1.22932 2.79926,0.63041z" fill="#8c8c8c" stroke="none" stroke-width="0"/><path d="M400.32034,279.93887l6.53413,-2.39278c0,0 2.50247,2.15837 3.65365,-0.20416c1.26908,-2.60449 -1.91887,-3.39227 -1.91887,-3.39227l-1.68204,-6.71592l5.2132,4.50616c0,0 0.17825,3.36705 2.00663,3.33211c2.86935,-0.05485 2.25264,-3.57736 2.25264,-3.57736l4.82972,-4.7655l-1.28056,6.73116c0,0 -3.13853,1.09639 -1.78298,3.47659c1.23315,2.1653 4.05049,0.20776 4.05049,0.20776l6.64454,1.611l-6.61088,2.46471c0,0 -3.08723,-1.99937 -3.97266,0.445c-0.86491,2.3877 2.28626,3.24588 2.28626,3.24588l1.69396,6.565l-5.25296,-4.31216c0,0 0.43735,-3.5373 -2.30846,-3.43494c-2.58835,0.0965 -1.91289,3.48438 -1.91289,3.48438l-4.76664,4.69041l1.06748,-6.66506c0,0 3.18165,-0.95882 1.93807,-3.35494c-1.21622,-2.34338 -3.98718,-0.19529 -3.98718,-0.19529zM415.6979,281.07588c0.94708,-0.59891 1.22933,-1.85218 0.63041,-2.79926c-0.59891,-0.94708 -1.85217,-1.22932 -2.79925,-0.63041c-0.94708,0.59891 -1.22934,1.85218 -0.63042,2.79926c0.59891,0.94708 1.85218,1.22932 2.79926,0.63041z" fill="none" stroke="#737373" stroke-width="0.5"/></g><g stroke-linecap="butt"><path d="M284.95941,287.67652l6.31228,2.92837c0,0 0.24332,3.29571 2.72789,2.43916c2.73903,-0.94428 1.04185,-3.75554 1.04185,-3.75554l3.55949,-5.93826l0.49995,6.87263c0,0 -2.25483,2.50691 -0.93726,3.77506c2.06772,1.99016 4.12244,-0.93672 4.12244,-0.93672l6.78484,0.04541l-5.66514,3.85416c0,0 -2.99454,-1.44401 -3.71909,1.19756c-0.65913,2.40308 2.71722,3.01104 2.71722,3.01104l3.55926,5.83755l-6.41741,-2.93178c0,0 -0.76924,-3.59678 -3.12376,-2.49444c-2.29994,1.07678 -0.67855,3.91182 -0.67855,3.91182l-3.44435,5.83996l-0.66524,-6.76356c0,0 2.8105,-2.192 0.79654,-4.06119c-1.89848,-1.762 -3.81644,1.11121 -3.81644,1.11121l-6.68714,-0.0539l5.46772,-3.95809c0,0 2.92775,1.57177 3.74272,-1.00188c0.79703,-2.51702 -2.68127,-2.95745 -2.68127,-2.95745zM295.02899,299.35408c1.09317,0.2462 2.17895,-0.44042 2.42514,-1.5336c0.2462,-1.09317 -0.44043,-2.17895 -1.5336,-2.42515c-1.09317,-0.2462 -2.17895,0.44042 -2.42514,1.5336c-0.2462,1.09317 0.44043,2.17896 1.5336,2.42515z" fill="url(#color-2)" stroke="none" stroke-width="0"/><path d="M286.9438,289.45447l3.58083,1.75862c0,0 0.99036,2.6875 3.47494,1.83094c2.73903,-0.94428 1.98006,-3.48878 1.98006,-3.48878l2.06259,-3.72418l0.26691,4.21349c0,0 -1.46308,2.68523 -0.14551,3.95337c2.06772,1.99016 4.46007,0.0267 4.46007,0.0267l3.78666,-0.18613l-3.16011,2.08898c0,0 -2.83902,-0.41069 -3.56356,2.23087c-0.65913,2.40308 1.94642,3.72481 1.94642,3.72481l2.24011,3.32205l-3.69787,-1.70926c0,0 -1.39884,-3.01758 -3.75335,-1.91523c-2.29994,1.07678 -1.79366,3.93799 -1.79366,3.93799l-1.68733,2.9635l-0.28715,-3.51718c0,0 1.7905,-2.5881 -0.22346,-4.45728c-1.89848,-1.762 -4.38899,0.20584 -4.38899,0.20584l-3.74176,0.16575l3.12106,-2.15726c0,0 2.90158,0.45667 3.71655,-2.11698c0.79703,-2.51702 -2.20338,-3.84812 -2.20338,-3.84812zM295.02899,299.35408c1.09317,0.2462 2.17895,-0.44042 2.42514,-1.5336c0.2462,-1.09317 -0.44043,-2.17895 -1.5336,-2.42515c-1.09317,-0.2462 -2.17895,0.44042 -2.42514,1.5336c-0.2462,1.09317 0.44043,2.17896 1.5336,2.42515z" fill="#8c8c8c" stroke="none" stroke-width="0"/><path d="M284.95941,287.67652l6.31228,2.92837c0,0 0.24332,3.29571 2.72789,2.43916c2.73903,-0.94428 1.04185,-3.75554 1.04185,-3.75554l3.55949,-5.93826l0.49995,6.87263c0,0 -2.25483,2.50691 -0.93726,3.77506c2.06772,1.99016 4.12244,-0.93672 4.12244,-0.93672l6.78484,0.04541l-5.66514,3.85416c0,0 -2.99454,-1.44401 -3.71909,1.19756c-0.65913,2.40308 2.71722,3.01104 2.71722,3.01104l3.55926,5.83755l-6.41741,-2.93178c0,0 -0.76924,-3.59678 -3.12376,-2.49444c-2.29994,1.07678 -0.67855,3.91182 -0.67855,3.91182l-3.44435,5.83996l-0.66524,-6.76356c0,0 2.8105,-2.192 0.79654,-4.06119c-1.89848,-1.762 -3.81644,1.11121 -3.81644,1.11121l-6.68714,-0.0539l5.46772,-3.95809c0,0 2.92775,1.57177 3.74272,-1.00188c0.79703,-2.51702 -2.68127,-2.95745 -2.68127,-2.95745zM295.02899,299.35408c1.09317,0.2462 2.17895,-0.44042 2.42514,-1.5336c0.2462,-1.09317 -0.44043,-2.17895 -1.5336,-2.42515c-1.09317,-0.2462 -2.17895,0.44042 -2.42514,1.5336c-0.2462,1.09317 0.44043,2.17896 1.5336,2.42515z" fill="none" stroke="#737373" stroke-width="0.5"/></g><g stroke-linecap="butt"><path d="M175.74979,301.04612l2.39278,6.53413c0,0 -2.15837,2.50248 0.20416,3.65366c2.60449,1.26908 3.39227,-1.91886 3.39227,-1.91886l6.71592,-1.68205l-4.50616,5.21321c0,0 -3.36706,0.17825 -3.33211,2.00663c0.05485,2.86935 3.57736,2.25265 3.57736,2.25265l4.7655,4.82971l-6.73116,-1.28056c0,0 -1.0964,-3.13853 -3.4766,-1.78298c-2.1653,1.23315 -0.20776,4.0505 -0.20776,4.0505l-1.611,6.64454l-2.46471,-6.61088c0,0 1.99936,-3.08724 -0.44501,-3.97266c-2.38771,-0.86491 -3.24588,2.28626 -3.24588,2.28626l-6.565,1.69396l4.31216,-5.25296c0,0 3.5373,0.43735 3.43494,-2.30846c-0.0965,-2.58835 -3.48437,-1.91289 -3.48437,-1.91289l-4.69042,-4.76663l6.66506,1.06748c0,0 0.95882,3.18165 3.35494,1.93807c2.34338,-1.21622 0.19528,-3.98718 0.19528,-3.98718zM174.61278,316.42368c0.59891,0.94708 1.85218,1.22934 2.79926,0.63042c0.94708,-0.59891 1.22932,-1.85218 0.63041,-2.79926c-0.59891,-0.94708 -1.85217,-1.22934 -2.79925,-0.63042c-0.94708,0.59891 -1.22933,1.85218 -0.63042,2.79926z" fill="url(#color-3)" stroke="none" stroke-width="0"/><path d="M175.89577,303.7065l1.2885,3.77557c0,0 -1.20005,2.60064 1.16248,3.75182c2.60449,1.26908 3.86705,-1.06683 3.86705,-1.06683l4.09187,-1.17492l-2.79066,3.16812c0,0 -2.93328,0.86419 -2.89834,2.69257c0.05485,2.86935 3.13487,3.17262 3.13487,3.17262l2.80918,2.54596l-3.71166,-0.7574c0,0 -1.7171,-2.29789 -4.09729,-0.94236c-2.1653,1.23315 -1.25751,4.01016 -1.25751,4.01016l-0.76505,3.93305l-1.40616,-3.82342c0,0 1.14463,-3.12288 -1.29974,-4.00829c-2.38771,-0.86491 -4.05288,1.51627 -4.05288,1.51627l-3.28863,0.90238l2.28397,-2.69007c0,0 3.09613,-0.56399 2.99376,-3.30978c-0.0965,-2.58835 -3.24903,-2.95794 -3.24903,-2.95794l-2.76301,-2.52862l3.73233,0.68151c0,0 1.72881,2.37464 4.12492,1.13107c2.34338,-1.21622 1.163,-4.27906 1.163,-4.27906zM174.61278,316.42368c0.59891,0.94708 1.85218,1.22934 2.79926,0.63042c0.94708,-0.59891 1.22932,-1.85218 0.63041,-2.79926c-0.59891,-0.94708 -1.85217,-1.22934 -2.79925,-0.63042c-0.94708,0.59891 -1.22933,1.85218 -0.63042,2.79926z" fill="#8c8c8c" stroke="none" stroke-width="0"/><path d="M175.74979,301.04612l2.39278,6.53413c0,0 -2.15837,2.50248 0.20416,3.65366c2.60449,1.26908 3.39227,-1.91886 3.39227,-1.91886l6.71592,-1.68205l-4.50616,5.21321c0,0 -3.36706,0.17825 -3.33211,2.00663c0.05485,2.86935 3.57736,2.25265 3.57736,2.25265l4.7655,4.82971l-6.73116,-1.28056c0,0 -1.0964,-3.13853 -3.4766,-1.78298c-2.1653,1.23315 -0.20776,4.0505 -0.20776,4.0505l-1.611,6.64454l-2.46471,-6.61088c0,0 1.99936,-3.08724 -0.44501,-3.97266c-2.38771,-0.86491 -3.24588,2.28626 -3.24588,2.28626l-6.565,1.69396l4.31216,-5.25296c0,0 3.5373,0.43735 3.43494,-2.30846c-0.0965,-2.58835 -3.48437,-1.91289 -3.48437,-1.91289l-4.69042,-4.76663l6.66506,1.06748c0,0 0.95882,3.18165 3.35494,1.93807c2.34338,-1.21622 0.19528,-3.98718 0.19528,-3.98718zM174.61278,316.42368c0.59891,0.94708 1.85218,1.22934 2.79926,0.63042c0.94708,-0.59891 1.22932,-1.85218 0.63041,-2.79926c-0.59891,-0.94708 -1.85217,-1.22934 -2.79925,-0.63042c-0.94708,0.59891 -1.22933,1.85218 -0.63042,2.79926z" fill="none" stroke="#737373" stroke-width="0.5"/></g><g stroke-linecap="butt"><path d="M66.88038,322.83533l-2.92837,6.31227c0,0 -3.29572,0.24333 -2.43915,2.72789c0.94428,2.73903 3.75553,1.04185 3.75553,1.04185l5.93825,3.55949l-6.87263,0.49996c0,0 -2.50692,-2.25483 -3.77507,-0.93726c-1.99016,2.06772 0.93672,4.12243 0.93672,4.12243l-0.04541,6.78485l-3.85417,-5.66515c0,0 1.444,-2.99453 -1.19756,-3.71908c-2.40308,-0.65913 -3.01104,2.71722 -3.01104,2.71722l-5.83756,3.55926l2.93179,-6.41741c0,0 3.59678,-0.76924 2.49443,-3.12377c-1.07678,-2.29994 -3.91182,-0.67856 -3.91182,-0.67856l-5.83996,-3.44434l6.76357,-0.66525c0,0 2.192,2.8105 4.06119,0.79654c1.76201,-1.89848 -1.11121,-3.81644 -1.11121,-3.81644l0.05389,-6.68715l3.9581,5.46773c0,0 -1.57178,2.92775 1.00187,3.74272c2.51702,0.79703 2.95745,-2.68128 2.95745,-2.68128zM55.20282,332.90492c-0.2462,1.09317 0.44042,2.17896 1.5336,2.42515c1.09318,0.2462 2.17895,-0.44043 2.42515,-1.5336c0.2462,-1.09317 -0.44042,-2.17896 -1.5336,-2.42515c-1.09318,-0.2462 -2.17895,0.44043 -2.42515,1.5336z" fill="url(#color-4)" stroke="none" stroke-width="0"/><path d="M65.10242,324.81973l-1.75862,3.58083c0,0 -2.68751,0.99037 -1.83094,3.47493c0.94428,2.73903 3.48878,1.98006 3.48878,1.98006l3.72418,2.06259l-4.21349,0.26691c0,0 -2.68523,-1.46308 -3.95338,-0.14551c-1.99016,2.06772 -0.02669,4.46008 -0.02669,4.46008l0.18613,3.78665l-2.08899,-3.1601c0,0 0.41068,-2.83903 -2.23088,-3.56357c-2.40308,-0.65913 -3.72481,1.94641 -3.72481,1.94641l-3.32205,2.24012l1.70925,-3.69787c0,0 3.01758,-1.39883 1.91523,-3.75335c-1.07678,-2.29994 -3.93799,-1.79366 -3.93799,-1.79366l-2.96349,-1.68733l3.51717,-0.28715c0,0 2.58809,1.7905 4.45728,-0.22346c1.76201,-1.89848 -0.20583,-4.38899 -0.20583,-4.38899l-0.16576,-3.74175l2.15725,3.12105c0,0 -0.45666,2.90158 2.11698,3.71654c2.51702,0.79703 3.84812,-2.20339 3.84812,-2.20339zM55.20282,332.90492c-0.2462,1.09317 0.44042,2.17896 1.5336,2.42515c1.09318,0.2462 2.17895,-0.44043 2.42515,-1.5336c0.2462,-1.09317 -0.44042,-2.17896 -1.5336,-2.42515c-1.09318,-0.2462 -2.17895,0.44043 -2.42515,1.5336z" fill="#8c8c8c" stroke="none" stroke-width="0"/><path d="M66.88038,322.83533l-2.92837,6.31227c0,0 -3.29572,0.24333 -2.43915,2.72789c0.94428,2.73903 3.75553,1.04185 3.75553,1.04185l5.93825,3.55949l-6.87263,0.49996c0,0 -2.50692,-2.25483 -3.77507,-0.93726c-1.99016,2.06772 0.93672,4.12243 0.93672,4.12243l-0.04541,6.78485l-3.85417,-5.66515c0,0 1.444,-2.99453 -1.19756,-3.71908c-2.40308,-0.65913 -3.01104,2.71722 -3.01104,2.71722l-5.83756,3.55926l2.93179,-6.41741c0,0 3.59678,-0.76924 2.49443,-3.12377c-1.07678,-2.29994 -3.91182,-0.67856 -3.91182,-0.67856l-5.83996,-3.44434l6.76357,-0.66525c0,0 2.192,2.8105 4.06119,0.79654c1.76201,-1.89848 -1.11121,-3.81644 -1.11121,-3.81644l0.05389,-6.68715l3.9581,5.46773c0,0 -1.57178,2.92775 1.00187,3.74272c2.51702,0.79703 2.95745,-2.68128 2.95745,-2.68128zM55.20282,332.90492c-0.2462,1.09317 0.44042,2.17896 1.5336,2.42515c1.09318,0.2462 2.17895,-0.44043 2.42515,-1.5336c0.2462,-1.09317 -0.44042,-2.17896 -1.5336,-2.42515c-1.09318,-0.2462 -2.17895,0.44043 -2.42515,1.5336z" fill="none" stroke="#737373" stroke-width="0.5"/></g></g></g></svg>