<svg version="1.1" xmlns="http://www.w3.org/2000/svg" xmlns:xlink="http://www.w3.org/1999/xlink" width="782.93201" height="521.97804" viewBox="0,0,782.93201,521.97804"><g transform="translate(260.38697,-11.20085)"><g data-paper-data="{&quot;isPaintingLayer&quot;:true}" fill-rule="nonzero" stroke-linejoin="miter" stroke-miterlimit="10" stroke-dasharray="" stroke-dashoffset="0" style="mix-blend-mode: normal"><g data-paper-data="{&quot;index&quot;:null}" stroke="none" stroke-width="0" stroke-linecap="butt"><path d="M161.09265,135.12206c0.14685,-19.82881 2.84365,-26.17946 8.9318,-26.21458c8.78522,-0.05065 1.58642,21.40382 4.50319,21.17764c2.1573,-0.16729 2.57364,-29.36769 11.80264,-28.21982c8.74742,1.08797 1.39948,19.23403 3.83322,19.38653c1.59495,0.09994 0.72447,-24.64122 11.68549,-22.68107c7.48046,1.33772 1.718,12.05872 4.38877,9.2128c4.41542,-4.70495 5.97699,-22.63763 14.22505,-20.32925c9.97161,2.79076 -1.48942,15.36208 3.88252,26.02278c3.37605,6.69979 20.66326,-6.7845 20.09633,-0.05403c-0.92854,11.02349 -10.32538,25.32762 -20.16733,30.287c-7.45277,3.75547 -39.58797,41.18795 -49.39041,40.58484c-7.32832,-0.4509 -3.2042,15.13125 -12.23352,-0.23861c-4.58057,-7.79714 -3.65431,-13.95685 -4.313,-24.99853c-0.65867,-11.04167 2.64121,-8.53957 2.75525,-23.9357z" fill="#efd2bb"/><path d="M224.18944,114.19822c0,0 -3.66553,4.18432 -4.39059,12.54667c-0.52192,6.01933 2.00919,17.98216 2.00919,17.98216l-18.85369,21.36875l-46.19162,-7.40217c0,0 0.23492,-9.91304 0.66002,-13.60922c0.42508,-3.69617 3.75801,-10.38164 2.74795,-16.02342c-1.12402,-6.27819 1.35735,-9.7683 1.35735,-9.7683c0,0 3.37338,1.41763 6.67667,1.48815c4.39184,0.09377 5.03247,-4.2114 5.03247,-4.2114c0,0 0.6092,4.76362 7.4468,4.45392c5.79567,-0.26251 9.20542,-4.8024 9.20542,-4.8024c0,0 1.37163,4.90767 6.73065,4.66938c5.60624,-0.24926 8.63412,-3.5581 8.63412,-3.5581c0,0 2.92291,3.62328 7.6478,3.66322c6.09076,0.05146 8.70283,-1.78012 8.70283,-1.78012z" fill="#3a0000"/></g><path d="M206.69237,172.81876c0,0 1.65919,43.82196 -3.27371,72.57267c-4.29725,25.04594 9.28264,52.82456 1.44169,108.15411c-5.48965,38.73764 -6.12115,78.93609 -6.12115,78.93609l41.78539,-13.28233l52.6297,69.14597c0,0 -57.8111,26.13445 -91.19023,33.87505c-45.34723,10.51601 -70.81688,1.87152 -79.35625,-14.91438c-8.01787,-15.7608 -2.78628,-124.86952 6.5086,-183.64877c5.91049,-37.37693 13.44308,-97.02412 19.97755,-131.42186c3.74168,-19.69643 8.84753,-27.34512 8.84753,-27.34512l48.75089,7.92857z" data-paper-data="{&quot;index&quot;:null}" fill="#8c0000" stroke="none" stroke-width="0" stroke-linecap="butt"/><g data-paper-data="{&quot;index&quot;:null}"><path d="M228.45282,109.46735c0.94633,5.09012 -0.29987,10.84252 -3.8032,14.31099c-6.02896,5.98075 -15.34111,8.6088 -23.11278,12.70637c-11.12565,5.86485 -71.18515,39.67887 -82.59224,44.90786c-3.89472,-0.6524 -7.68435,-1.4684 -11.4858,-8.01451c-3.16383,-5.44816 -2.03476,-12.88773 -0.93122,-13.88823c4.4947,-2.18236 79.42698,-43.59424 86.44369,-46.98532c8.80587,-4.29421 16.44462,-12.47215 26.39571,-13.02476c4.48004,-0.24653 8.25559,5.56858 9.08585,9.9876z" id="ID0.7746463636867702" fill="#660000" stroke="#450000" stroke-width="3.18812" stroke-linecap="round"/><g stroke="none" stroke-width="0" stroke-linecap="butt"><path d="M220.31729,123.16376c-1.69051,0.9379 -8.33138,-2.94617 -9.91376,-5.79831c-1.58238,-2.85214 -1.36299,-10.54233 0.32751,-11.48024c1.6905,-0.93791 8.33136,2.94617 9.91375,5.79832c1.58238,2.85214 1.36299,10.54232 -0.32751,11.48022z" fill="#e6c65c"/><path d="M220.31729,123.16376c-1.69051,0.9379 -8.33138,-2.94617 -9.91376,-5.79831c-0.00129,-0.00232 10.24005,-5.68408 10.24126,-5.68191c1.58238,2.85214 1.363,10.54231 -0.32749,11.48021z" data-paper-data="{&quot;index&quot;:null}" fill="#f2d061"/><path d="M210.73104,105.88524c0.00129,-0.00071 9.58764,17.27776 9.58625,17.27854c-1.69051,0.9379 -8.33137,-2.94617 -9.91376,-5.79831c-1.58238,-2.85214 -1.36299,-10.54232 0.32751,-11.48023z" data-paper-data="{&quot;index&quot;:null}" fill="#f2d061"/><path d="M220.31728,123.16376c-1.6905,0.93791 -8.33137,-2.94617 -9.91375,-5.79832c-0.00089,-0.00162 5.11363,-2.84969 5.11526,-2.85061c0.00153,-0.00085 4.79998,8.64808 4.79848,8.64892z" fill="#ffdb66"/></g><g stroke="none" stroke-width="0" stroke-linecap="butt"><path d="M206.13708,130.90466c-1.69051,0.9379 -8.33138,-2.94617 -9.91376,-5.79831c-1.58238,-2.85214 -1.363,-10.54233 0.32751,-11.48024c1.6905,-0.93791 8.33136,2.94617 9.91375,5.79832c1.58238,2.85214 1.363,10.54232 -0.32751,11.48022z" fill="#e6c65c"/><path d="M206.13707,130.90466c-1.69051,0.9379 -8.33138,-2.94617 -9.91376,-5.79831c-0.00129,-0.00232 10.24006,-5.68408 10.24126,-5.68191c1.58238,2.85214 1.36301,10.54231 -0.32749,11.48021z" data-paper-data="{&quot;index&quot;:null}" fill="#f2d061"/><path d="M196.55083,113.62614c0.00129,-0.00071 9.58764,17.27776 9.58625,17.27854c-1.69051,0.9379 -8.33137,-2.94618 -9.91376,-5.79832c-1.58238,-2.85214 -1.363,-10.54232 0.32751,-11.48022z" data-paper-data="{&quot;index&quot;:null}" fill="#f2d061"/><path d="M206.13707,130.90466c-1.6905,0.93791 -8.33137,-2.94617 -9.91375,-5.79832c-0.00089,-0.00162 5.11363,-2.84969 5.11527,-2.85061c0.00153,-0.00085 4.79998,8.64809 4.79848,8.64892z" fill="#ffdb66"/></g><g stroke="none" stroke-width="0" stroke-linecap="butt"><path d="M191.95685,138.64556c-1.69051,0.9379 -8.33137,-2.94618 -9.91376,-5.79832c-1.58238,-2.85214 -1.363,-10.54232 0.32751,-11.48024c1.6905,-0.93791 8.33137,2.94617 9.91375,5.79832c1.58238,2.85214 1.363,10.54231 -0.32751,11.48023z" fill="#e6c65c"/><path d="M191.95685,138.64556c-1.69051,0.9379 -8.33137,-2.94618 -9.91376,-5.79832c-0.00129,-0.00233 10.24005,-5.68408 10.24126,-5.68191c1.58238,2.85214 1.363,10.54231 -0.32749,11.48022z" data-paper-data="{&quot;index&quot;:null}" fill="#f2d061"/><path d="M182.37061,121.36703c0.00129,-0.00071 9.58764,17.27776 9.58625,17.27854c-1.69051,0.9379 -8.33138,-2.94618 -9.91376,-5.79832c-1.58238,-2.85214 -1.36299,-10.54232 0.32751,-11.48022z" data-paper-data="{&quot;index&quot;:null}" fill="#f2d061"/><path d="M191.95685,138.64557c-1.6905,0.93791 -8.33137,-2.94618 -9.91375,-5.79833c-0.00089,-0.00161 5.11363,-2.84968 5.11526,-2.85061c0.00153,-0.00085 4.79998,8.64809 4.79847,8.64891z" fill="#ffdb66"/></g><g stroke="none" stroke-width="0" stroke-linecap="butt"><path d="M177.77664,146.38646c-1.69051,0.9379 -8.33137,-2.94617 -9.91375,-5.79831c-1.58238,-2.85214 -1.36301,-10.54234 0.32751,-11.48025c1.6905,-0.93791 8.33137,2.94619 9.91375,5.79834c1.58238,2.85214 1.36299,10.54232 -0.32752,11.48022z" fill="#e6c65c"/><path d="M177.77663,146.38646c-1.69051,0.9379 -8.33137,-2.94617 -9.91375,-5.79831c-0.00129,-0.00233 10.24006,-5.68409 10.24126,-5.68191c1.58238,2.85214 1.363,10.54231 -0.32751,11.48021z" data-paper-data="{&quot;index&quot;:null}" fill="#f2d061"/><path d="M168.1904,129.10793c0.00129,-0.00072 9.58763,17.27775 9.58624,17.27853c-1.69051,0.9379 -8.33137,-2.94617 -9.91375,-5.79831c-1.58238,-2.85214 -1.36299,-10.54232 0.32751,-11.48022z" data-paper-data="{&quot;index&quot;:null}" fill="#f2d061"/><path d="M177.77663,146.38646c-1.6905,0.93789 -8.33136,-2.94617 -9.91374,-5.79832c-0.00089,-0.00161 5.11362,-2.8497 5.11526,-2.85061c0.00153,-0.00085 4.79998,8.6481 4.79848,8.64892z" fill="#ffdb66"/></g><g stroke="none" stroke-width="0" stroke-linecap="butt"><path d="M163.59642,154.12733c-1.69051,0.9379 -8.33137,-2.94617 -9.91376,-5.79831c-1.58238,-2.85214 -1.363,-10.54233 0.32751,-11.48024c1.6905,-0.93791 8.33136,2.94617 9.91375,5.79832c1.58238,2.85214 1.36299,10.54232 -0.32751,11.48022z" fill="#e6c65c"/><path d="M163.59642,154.12733c-1.69051,0.9379 -8.33137,-2.94617 -9.91376,-5.79831c-0.00129,-0.00233 10.24005,-5.68407 10.24126,-5.68191c1.58238,2.85214 1.363,10.54231 -0.32749,11.48021z" data-paper-data="{&quot;index&quot;:null}" fill="#f2d061"/><path d="M154.01019,136.84883c0.00129,-0.00072 9.58764,17.27776 9.58625,17.27854c-1.69051,0.9379 -8.33137,-2.94618 -9.91376,-5.79832c-1.58238,-2.85214 -1.363,-10.54232 0.3275,-11.48022z" data-paper-data="{&quot;index&quot;:null}" fill="#f2d061"/><path d="M163.59641,154.12733c-1.6905,0.93789 -8.33136,-2.94617 -9.91375,-5.79832c-0.00089,-0.00161 5.11363,-2.8497 5.11527,-2.85061c0.00153,-0.00085 4.79997,8.6481 4.79848,8.64892z" fill="#ffdb66"/></g><g stroke="none" stroke-width="0" stroke-linecap="butt"><path d="M149.41622,161.86826c-1.69051,0.9379 -8.33137,-2.94617 -9.91375,-5.79831c-1.58238,-2.85214 -1.36301,-10.54234 0.3275,-11.48024c1.69049,-0.93789 8.33136,2.94617 9.91374,5.79832c1.58238,2.85214 1.363,10.54232 -0.32751,11.48022z" fill="#e6c65c"/><path d="M149.41621,161.86826c-1.69051,0.9379 -8.33137,-2.94618 -9.91375,-5.79832c-0.00129,-0.00233 10.24004,-5.68408 10.24125,-5.68191c1.58238,2.85214 1.36301,10.54232 -0.32749,11.48022z" data-paper-data="{&quot;index&quot;:null}" fill="#f2d061"/><path d="M139.82996,144.58972c0.00129,-0.00072 9.58764,17.27776 9.58625,17.27854c-1.69051,0.9379 -8.33137,-2.94617 -9.91375,-5.79831c-1.58238,-2.85214 -1.36301,-10.54232 0.3275,-11.48022z" data-paper-data="{&quot;index&quot;:null}" fill="#f2d061"/><path d="M149.41621,161.86826c-1.6905,0.93789 -8.33136,-2.94617 -9.91374,-5.79832c-0.00089,-0.00161 5.11362,-2.8497 5.11526,-2.85061c0.00153,-0.00085 4.79998,8.6481 4.79848,8.64892z" fill="#ffdb66"/></g><g stroke="none" stroke-width="0" stroke-linecap="butt"><path d="M135.23599,169.60915c-1.69051,0.9379 -8.33137,-2.94617 -9.91375,-5.79831c-1.58239,-2.85214 -1.363,-10.54233 0.3275,-11.48025c1.6905,-0.93789 8.33136,2.94617 9.91374,5.79832c1.58238,2.85214 1.363,10.54232 -0.32751,11.48022z" fill="#e6c65c"/><path d="M135.23599,169.60915c-1.69051,0.9379 -8.33137,-2.94617 -9.91375,-5.79831c-0.00129,-0.00233 10.24004,-5.68408 10.24126,-5.68191c1.58238,2.85214 1.363,10.54231 -0.32749,11.48021z" data-paper-data="{&quot;index&quot;:null}" fill="#f2d061"/><path d="M125.64976,152.33062c0.00129,-0.00072 9.58764,17.27776 9.58625,17.27853c-1.69051,0.9379 -8.33137,-2.94617 -9.91374,-5.79831c-1.58239,-2.85214 -1.36301,-10.54232 0.32751,-11.48022z" data-paper-data="{&quot;index&quot;:null}" fill="#f2d061"/><path d="M135.23598,169.60915c-1.6905,0.93789 -8.33137,-2.94617 -9.91375,-5.79832c-0.00088,-0.00161 5.11362,-2.84971 5.11527,-2.85061c0.00153,-0.00085 4.79999,8.6481 4.79848,8.64892z" fill="#ffdb66"/></g><g stroke="none" stroke-width="0" stroke-linecap="butt"><path d="M121.05579,177.35004c-1.69051,0.9379 -8.33138,-2.94618 -9.91375,-5.79832c-1.58239,-2.85214 -1.363,-10.54232 0.32751,-11.48022c1.6905,-0.93789 8.33136,2.94618 9.91374,5.79832c1.58239,2.85214 1.36301,10.54233 -0.32751,11.48024z" fill="#e6c65c"/><path d="M121.05579,177.35005c-1.69051,0.9379 -8.33138,-2.94618 -9.91375,-5.79832c-0.00128,-0.00234 10.24004,-5.68409 10.24125,-5.68191c1.58239,2.85214 1.36301,10.54233 -0.32751,11.48024z" data-paper-data="{&quot;index&quot;:null}" fill="#f2d061"/><path d="M111.46954,160.07151c0.00129,-0.00072 9.58763,17.27777 9.58625,17.27854c-1.69051,0.9379 -8.33138,-2.94618 -9.91375,-5.79832c-1.58239,-2.85214 -1.363,-10.54232 0.32751,-11.48022z" data-paper-data="{&quot;index&quot;:null}" fill="#f2d061"/><path d="M121.05578,177.35005c-1.6905,0.93789 -8.33137,-2.94619 -9.91374,-5.79834c-0.0009,-0.00161 5.11363,-2.84971 5.11527,-2.85062c0.00153,-0.00085 4.79998,8.64811 4.79847,8.64893z" fill="#ffdb66"/></g></g><path d="M223.75601,134.97082c-4.7961,-1.75942 -2.60077,-19.76855 0.44255,-28.0645c3.04333,-8.29595 7.67644,-8.90076 12.47252,-7.14133c4.7961,1.75942 7.93901,5.21682 4.89567,13.51277c-3.04333,8.29595 -13.01466,23.45249 -17.81076,21.69307z" fill="#efd2bb" stroke="none" stroke-width="0" stroke-linecap="butt"/><path d="M168.10783,109.20217c2.90079,-1.28691 10.06293,10.74488 12.46954,17.286c2.40662,6.54111 0.64428,9.18581 -2.2565,10.47272c-2.90079,1.28691 -5.84153,0.72872 -8.24815,-5.81238c-1.45219,-3.94702 -5.65346,-11.23506 -5.9547,-16.21597c-0.19798,-3.27358 2.83941,-5.21999 3.98981,-5.73036z" fill="#efd2bb" stroke="none" stroke-width="0" stroke-linecap="butt"/><path d="M185.08046,101.28044c3.01849,-1.16981 11.48942,14.40438 14.50305,22.67014c3.01363,8.26577 1.3045,11.23779 -1.71399,12.40759c-3.01849,1.16981 -6.20329,0.09443 -9.21691,-8.17134c-1.81849,-4.98772 -6.80287,-14.40293 -7.45873,-20.49001c-0.43104,-4.00057 2.68952,-5.95245 3.8866,-6.41639z" fill="#efd2bb" stroke="none" stroke-width="0" stroke-linecap="butt"/><path d="M201.03986,96.11726c3.04361,-1.50151 11.86688,13.73945 15.04661,21.97302c3.17972,8.23357 1.49087,11.4666 -1.55274,12.96811c-3.04361,1.50151 -6.28942,0.70289 -9.46914,-7.53068c-1.9187,-4.9683 -7.11418,-14.19539 -7.87027,-20.41137c-0.49693,-4.08529 2.6385,-6.40361 3.84554,-6.99908z" fill="#efd2bb" stroke="none" stroke-width="0" stroke-linecap="butt"/><path d="M216.65209,87.66102c3.04361,-1.50151 11.86688,13.73944 15.04661,21.97301c3.17972,8.23357 1.49087,11.46661 -1.55274,12.96811c-3.04361,1.50151 -6.28942,0.70289 -9.46914,-7.53068c-1.9187,-4.9683 -7.11418,-14.1954 -7.87027,-20.41138c-0.49693,-4.08529 2.6385,-6.40361 3.84554,-6.99907z" fill="#efd2bb" stroke="none" stroke-width="0" stroke-linecap="butt"/><path d="M249.57674,103.33535c3.70928,11.05564 5.25596,21.6801 4.76459,29.91706c-0.49513,8.23764 -3.02903,14.08308 -7.49016,15.57998c-4.46206,1.49684 -10.00842,-1.63808 -15.3716,-7.9105c-5.35933,-6.27403 -10.53291,-15.68079 -14.24213,-26.73737c-3.70923,-11.05657 -5.25591,-21.68107 -4.76552,-29.91712c0.4952,-8.23856 3.02907,-14.08399 7.49113,-15.58083c4.46205,-1.49683 10.00844,1.63808 15.3716,7.91049c5.35837,6.27396 10.53284,15.68168 14.24205,26.73828z" data-paper-data="{&quot;index&quot;:null}" id="ID0.28988144639879465" fill="#660000" stroke="#450000" stroke-width="3.18812" stroke-linecap="butt"/><path d="M507.21446,17.45265c5.66146,7.85183 12.83864,16.25058 13.73652,25.63524c0.31181,3.37295 -6.39597,1.66649 -10.02324,1.8429c-14.50927,0.70844 -29.22744,-1.60841 -43.61968,0.46475c-27.87852,4.00031 -55.44691,11.17954 -82.87164,18.04715c-17.21144,4.51001 -34.34154,9.85762 -51.04675,16.0944c-21.18462,7.905 -42.27274,17.33656 -63.54181,25.70702c-9.52713,4.09857 -18.39122,10.7318 -28.97932,11.79138c-3.72919,0.37321 -7.29219,-3.75978 -8.4607,-7.22135c-1.66922,-5.09848 -2.97572,-12.88402 1.05956,-16.77478c9.76408,-9.34045 23.44406,-13.47871 35.41484,-19.55872c18.00429,-8.5319 36.11938,-17.00186 54.53578,-24.29489c20.65763,-8.18066 41.76912,-15.78359 63.26227,-21.26672c24.97683,-6.45636 50.41144,-11.30463 75.96194,-14.51971c12.27832,-1.5476 25.00322,-1.47285 37.4368,-0.60825c3.08098,0.547 5.4812,2.38219 7.13551,4.66161z" data-paper-data="{&quot;index&quot;:null}" id="ID0.9556389166973531" fill="#b3b3b3" stroke="#6f6f6f" stroke-width="3.18812" stroke-linecap="round"/><path d="M494.0105,15.22025l-20.74777,14.78825l-33.05096,-10.01347z" data-paper-data="{&quot;index&quot;:null}" id="ID0.2536769728176296" fill="#999999" stroke="none" stroke-width="0.53136" stroke-linecap="round"/><path d="M442.90714,20.35919l-18.61112,17.40107l-34.08474,-5.55743z" data-paper-data="{&quot;index&quot;:null}" id="ID0.2536769728176296" fill="#999999" stroke="none" stroke-width="0.53136" stroke-linecap="round"/><path d="M391.82073,30.76445l-16.65385,19.28199l-34.48283,-1.89747z" data-paper-data="{&quot;index&quot;:null}" id="ID0.2536769728176296" fill="#999999" stroke="none" stroke-width="0.53136" stroke-linecap="round"/><path d="M341.57938,47.15485l-15.16757,20.47308l-34.52736,0.68203z" data-paper-data="{&quot;index&quot;:null}" id="ID0.2536769728176296" fill="#999999" stroke="none" stroke-width="0.53136" stroke-linecap="round"/><path d="M295.08154,66.70897l-14.40656,21.01431l-34.48048,1.94723z" data-paper-data="{&quot;index&quot;:null}" id="ID0.2536769728176296" fill="#999999" stroke="none" stroke-width="0.53136" stroke-linecap="round"/><g data-paper-data="{&quot;index&quot;:null}" stroke="none" stroke-width="0" stroke-linecap="butt"><path d="M117.34828,163.201c-1.96979,-19.73127 0.43124,-20.84741 4.22423,-22.53486c4.05698,-1.80489 2.42712,6.02726 5.30308,5.49113c2.12713,-0.39654 0.01578,-10.29795 6.10818,-14.02917c4.77053,-2.92165 3.86247,11.34123 6.29859,11.23318c1.59652,-0.07082 0.34699,-13.95126 7.12429,-16.35582c5.16439,-1.83231 2.8534,19.89847 5.20524,16.78382c3.88818,-5.14924 0.66345,-23.36192 9.17287,-22.38773c8.28596,0.94861 -0.57903,16.63315 5.89978,26.65977c4.07166,6.3013 16.94305,-7.26942 17.09752,-0.51686c0.25301,11.05963 -0.01172,7.35895 -9.26829,13.34017c-7.0095,4.52928 -33.76982,49.34164 -43.58064,49.78792c-7.33459,0.33364 -1.57136,15.38677 -12.18913,1.06812c-5.38641,-7.26387 -5.12268,-13.48724 -6.9558,-24.3956c-1.83311,-10.90836 5.5601,-24.14407 5.5601,-24.14407z" fill="#efd2bb"/><path d="M167.26875,148.87138c0,0 0.72451,-0.36461 0.89587,8.02737c0.12335,6.04065 3.11393,7.17066 3.11393,7.17066c0,0 -4.60049,9.3128 -7.71212,13.57232c-3.14088,4.29957 -11.04626,12.10607 -11.04626,12.10607l-42.37476,-2.2656c0,0 1.81222,-6.55745 1.8405,-10.27787c0.02826,-3.72043 5.39251,-11.41116 3.78621,-16.91294c-1.7875,-6.1224 0.11627,-8.20167 0.11627,-8.20167c0,0 2.21904,0.56563 5.511,0.28328c4.37677,-0.37539 4.63076,-5.38662 4.63076,-5.38662c0,0 -0.23604,1.8313 6.52948,0.79378c5.73457,-0.87943 5.99133,-6.06286 5.99133,-6.06286c0,0 1.88747,4.73331 7.19046,3.92453c5.54763,-0.84606 6.39668,-3.32555 6.39668,-3.32555c0,0 3.76397,5.02275 8.23705,6.54516c4.47296,1.52237 6.89357,0.00996 6.89357,0.00996z" fill="#3a0000"/></g><path d="M83.00929,258.2935c-22.7826,11.25693 -37.25974,38.57869 -86.61746,64.78277c-34.55663,18.34615 -109.47905,68.50744 -109.47905,68.50744c0,0 -18.21697,52.65305 -29.40468,74.87165c-12.01495,23.86149 -34.37445,66.72353 -34.37445,66.72353l-83.52062,-14.36331c0,0 15.87371,-62.24503 36.08338,-94.36163c25.28917,-40.18879 39.41419,-60.6741 47.96623,-77.45353c8.02978,-15.75473 99.3445,-75.70223 152.34726,-102.75964c33.70372,-17.20543 81.15729,-38.70017 112.81875,-53.64864c18.12961,-8.55961 21.91664,-16.29402 21.91664,-16.29402l50.83416,36.2963c0,0 -52.41754,34.77705 -78.57014,47.69908z" data-paper-data="{&quot;index&quot;:null}" fill="#990000" stroke="none" stroke-width="0" stroke-linecap="butt"/></g></g></svg>