<svg version="1.1" xmlns="http://www.w3.org/2000/svg" xmlns:xlink="http://www.w3.org/1999/xlink" width="58.42128" height="20.69494" viewBox="0,0,58.42128,20.69494"><defs><linearGradient x1="-576.95222" y1="192.86718" x2="796.69448" y2="192.86718" gradientUnits="userSpaceOnUse" id="color-1"><stop offset="0" stop-color="#fffccc"/><stop offset="1" stop-color="#fffccc" stop-opacity="0"/></linearGradient><radialGradient cx="235.10734" cy="176.65194" r="11.42347" gradientUnits="userSpaceOnUse" id="color-2"><stop offset="0" stop-color="#fffccc"/><stop offset="1" stop-color="#ffea4c"/></radialGradient></defs><g transform="translate(-210.78936,-171.37288)"><g data-paper-data="{&quot;isPaintingLayer&quot;:true}" fill-rule="nonzero" stroke="none" stroke-width="0" stroke-linecap="butt" stroke-linejoin="miter" stroke-miterlimit="10" stroke-dasharray="" stroke-dashoffset="0" style="mix-blend-mode: normal"><path d="M269.20563,184.56144c0.32028,5.6745 -14.77946,7.40719 -29.64182,7.50363c-17.8504,0.11583 -27.76767,-3.44636 -28.73251,-8.19857c-0.54978,-2.70786 4.04364,-8.19991 29.4028,-8.43433c25.38925,0.39553 28.78302,5.78939 28.97153,9.12926z" fill="url(#color-1)"/><path d="M251.42347,180c0,4.76465 -5.11449,8.62712 -11.42347,8.62712c-6.30903,0 -11.42347,-3.86253 -11.42347,-8.62712c0,-4.76464 5.11449,-8.62712 11.42347,-8.62712c6.30903,0 11.42347,3.86253 11.42347,8.62712z" data-paper-data="{&quot;index&quot;:null}" fill="url(#color-2)"/></g></g></svg>