<svg version="1.1" xmlns="http://www.w3.org/2000/svg" xmlns:xlink="http://www.w3.org/1999/xlink" width="24.8416" height="41.54706" viewBox="0,0,24.8416,41.54706"><g transform="translate(-226.99644,-157.01665)"><g data-paper-data="{&quot;isPaintingLayer&quot;:true}" fill-rule="nonzero" stroke-linejoin="miter" stroke-miterlimit="10" stroke-dasharray="" stroke-dashoffset="0" style="mix-blend-mode: normal"><g fill="#6d6761" stroke-linecap="round"><path d="M234.07329,180.87237c-0.14727,0.53269 -0.61073,0.40624 -0.90913,0.64148c-0.41267,0.32522 -0.74898,1.23058 -1.14788,0.98926c-1.43045,-0.86687 -2.72131,-2.40879 -3.94291,-3.9973c-0.32519,-0.41637 -0.28316,-0.85009 -0.33881,-1.54972c-0.22335,-2.79853 -0.34474,-5.59476 -0.48861,-8.4529c-0.03612,-0.71467 -0.15157,-1.0101 -0.00459,-1.42213c0.172,-0.48495 0.19539,-1.98519 0.75031,-1.01357c2.22175,3.89052 4.22384,8.56864 6.00081,13.00255c0.4445,1.10906 0.28819,1.28903 0.08082,1.80232z" stroke="#19282b" stroke-width="0.49901"/><path d="M234.2145,182.68279c-1.77696,4.43391 -3.77905,9.11203 -6.00081,13.00256c-0.55492,0.97162 -0.5783,-0.52864 -0.75031,-1.01357c-0.14698,-0.41202 -0.03153,-0.70744 0.00459,-1.42213c0.14387,-2.85814 0.19153,-5.68128 0.48861,-8.45291c0.07504,-0.69587 0.29308,-0.82057 0.61161,-1.23117c1.17526,-1.52514 2.30021,-3.35871 3.67011,-4.31586c0.39328,-0.27429 0.7352,0.66404 1.14787,0.98926c0.2984,0.23524 0.76185,0.10879 0.90913,0.64147c0.20737,0.51329 0.36368,0.69327 -0.08082,1.80233z" stroke="#19282b" stroke-width="0.49901"/><path d="M230.35033,178.13255l2.42365,-0.38686l1.53332,3.57746l-3.80851,2.03033z" stroke="none" stroke-width="0.66831"/></g><path d="M230.10003,184.92821c0,-5.46762 4.43238,-9.9 9.9,-9.9c5.46762,0 9.9,4.43238 9.9,9.9c0,5.46762 -4.43238,9.9 -9.9,9.9c-5.46762,0 -9.9,-4.43238 -9.9,-9.9z" fill="#8c2a2a" stroke="none" stroke-width="0" stroke-linecap="butt"/><path d="M232.55386,183.77061c0,-2.77494 3.33375,-5.02446 7.44615,-5.02446c4.1124,0 7.44615,2.24952 7.44615,5.02446c0,2.77494 -3.33375,8.40631 -7.44615,8.40631c-4.1124,0 -7.44615,-5.63137 -7.44615,-8.40631z" fill="none" stroke="#722222" stroke-width="0.5" stroke-linecap="butt"/><path d="M236.50001,185c0,-1.933 1.567,-3.5 3.5,-3.5c1.933,0 3.5,1.567 3.5,3.5c0,1.933 -1.567,3.5 -3.5,3.5c-1.933,0 -3.5,-1.567 -3.5,-3.5z" fill="#722222" stroke="none" stroke-width="0" stroke-linecap="butt"/><g fill="#ffffff" stroke="none" stroke-width="1" stroke-linecap="round"><path d="M237.72801,187.4819l-0.10419,7.77668l-2.70356,-0.49644z"/><path d="M234.09934,186.84666l-0.85382,3.53661l-1.18178,-0.50677z"/><path d="M234.7609,185.43414l-2.0685,-5.33281l1.98057,-0.40521z"/><path d="M237.84615,184.25204l-1.08987,-5.61513l2.02103,-0.04751z"/><path d="M245.07979,194.76214l-2.70356,0.49644l-0.10419,-7.77668z" data-paper-data="{&quot;index&quot;:null}"/><path d="M247.93632,189.87651l-1.18178,0.50677l-0.85383,-3.53661z" data-paper-data="{&quot;index&quot;:null}"/><path d="M245.32709,179.69612l1.98057,0.40521l-2.0685,5.33281z" data-paper-data="{&quot;index&quot;:null}"/><path d="M241.22273,178.5894l2.02103,0.04751l-1.08986,5.61513z" data-paper-data="{&quot;index&quot;:null}"/></g><path d="M237.8628,166.07575c0,0 0.84205,-1.06577 1.17522,-2.23362c0.37442,-1.31244 0.96203,-5.25799 0.96203,-5.25799c0,0 0.62463,3.92146 1.00403,5.25135c0.32435,1.13693 1.13322,2.24026 1.13322,2.24026l-2.13725,1.33187z" fill="#6d6761" stroke="#19282b" stroke-width="0.47748" stroke-linecap="butt"/><path d="M240.00005,198.32497c-5.9879,0 -10.84204,-11.98062 -10.84204,-13.97347c0,-1.99285 4.85414,10.12483 10.84204,10.12483c5.9879,0 10.84204,-12.11769 10.84204,-10.12483c0,1.99285 -4.85414,13.97347 -10.84204,13.97347z" data-paper-data="{&quot;index&quot;:null}" fill="#908880" stroke="#19282b" stroke-width="0.47748" stroke-linecap="butt"/><path d="M250.84209,181.48072c0,9.89045 -4.85414,-2.15762 -10.84204,-2.15762c-5.9879,0 -10.84204,12.04807 -10.84204,2.15762c0,-9.89045 4.85414,-17.90824 10.84204,-17.90824c5.9879,0 10.84204,8.0178 10.84204,17.90824z" fill="#908880" stroke="#19282b" stroke-width="0.47748" stroke-linecap="butt"/><g stroke="none" stroke-linecap="butt"><path d="M230.96044,173.23496c0.05472,-1.19675 0.85258,-1.79824 1.43729,-2.42787c0.58464,-0.62495 1.32104,-1.15006 2.11813,-0.93848c0.9705,0.24753 1.93244,1.1282 2.56551,2.33266c0.73354,1.25782 1.22053,2.95284 1.18706,4.43325c-0.02187,1.19615 -0.46087,2.25154 -1.11925,2.8104c-0.65838,0.55888 -1.63561,0.65169 -2.51029,0.27883c-0.91038,-0.39298 -1.84252,-1.16272 -2.48421,-2.2976c-0.6795,-1.19509 -1.25237,-2.88326 -1.19426,-4.19118z" fill="#ff0000" stroke-width="1.88724"/><path d="M235.13272,170.20857c0.20187,0.07206 0.38814,0.65765 0.5249,1.54979c0.13642,0.8892 0.22339,2.07925 0.22854,3.3638c0.00498,1.28452 -0.07261,2.41572 -0.20258,3.20983c-0.12999,0.79697 -0.3122,1.25089 -0.51408,1.17882c-0.20171,-0.07202 -0.38814,-0.65765 -0.52474,-1.54975c-0.13659,-0.88924 -0.22337,-2.07924 -0.22853,-3.36379c-0.00515,-1.28456 0.07259,-2.41573 0.20257,-3.20982c0.12999,-0.79697 0.3122,-1.25089 0.5139,-1.17886z" fill="#000000" stroke-width="1.13658"/></g><g data-paper-data="{&quot;index&quot;:null}" stroke="none" stroke-linecap="butt"><path d="M249.03966,173.23497c0.05811,1.30792 -0.51477,2.9961 -1.19427,4.19118c-0.64169,1.13488 -1.57383,1.90463 -2.48421,2.29761c-0.87467,0.37286 -1.85191,0.28005 -2.51029,-0.27883c-0.65838,-0.55886 -1.09738,-1.61425 -1.11925,-2.8104c-0.03347,-1.48041 0.45352,-3.17543 1.18706,-4.43325c0.63306,-1.20445 1.59501,-2.08512 2.56551,-2.33266c0.79709,-0.21159 1.53348,0.31352 2.11812,0.93848c0.58471,0.62963 1.38258,1.23112 1.4373,2.42787z" fill="#ff0000" stroke-width="1.88724"/><path d="M244.86738,170.20858c0.2017,-0.07202 0.38392,0.38189 0.5139,1.17886c0.12998,0.79409 0.20772,1.92526 0.20257,3.20982c-0.00516,1.28455 -0.09193,2.47454 -0.22852,3.36379c-0.13661,0.8921 -0.32304,1.47773 -0.52474,1.54975c-0.20189,0.07207 -0.38409,-0.38184 -0.51408,-1.17881c-0.12997,-0.79411 -0.20755,-1.92532 -0.20258,-3.20983c0.00515,-1.28455 0.09212,-2.47459 0.22853,-3.36379c0.13675,-0.89213 0.32302,-1.47773 0.52489,-1.54979z" fill="#000000" stroke-width="1.13658"/></g><path d="M232.00296,169.91608c0,0 1.55811,-1.30604 3.46409,-1.05468c1.90597,0.25137 2.63687,2.10936 4.53299,2.10936c1.89611,0 3.14695,-1.92657 4.53299,-2.10936c1.38604,-0.18279 3.46409,1.05468 3.46409,1.05468" fill="none" stroke="#827b74" stroke-width="0.5" stroke-linecap="round"/><path d="M229.51909,182.95481c-0.61765,0 -1.11835,-1.49437 -1.11835,-3.33777c0,-1.8434 0.50071,-3.33778 1.11835,-3.33778" fill="#908880" stroke="#19282b" stroke-width="0.47748" stroke-linecap="butt"/><path d="M230.33727,183.50026c-0.61765,0 -1.11835,-1.77928 -1.11835,-3.97414c0,-2.19486 0.5007,-3.97414 1.11835,-3.97414" fill="#908880" stroke="#19282b" stroke-width="0.47748" stroke-linecap="butt"/><path d="M231.15081,184.12601c-0.61765,0 -1.11835,-1.98279 -1.11835,-4.42869c0,-2.4459 0.5007,-4.42869 1.11835,-4.42869" fill="#908880" stroke="#19282b" stroke-width="0.47748" stroke-linecap="butt"/><path d="M250.48095,176.27925c0.61765,0 1.11835,1.49438 1.11835,3.33778c0,1.8434 -0.50071,3.33777 -1.11835,3.33777" data-paper-data="{&quot;index&quot;:null}" fill="#908880" stroke="#19282b" stroke-width="0.47748" stroke-linecap="butt"/><path d="M249.66277,175.55198c0.61765,0 1.11835,1.77928 1.11835,3.97414c0,2.19486 -0.5007,3.97414 -1.11835,3.97414" data-paper-data="{&quot;index&quot;:null}" fill="#908880" stroke="#19282b" stroke-width="0.47748" stroke-linecap="butt"/><path d="M248.84923,175.26864c0.61765,0 1.11835,1.98279 1.11835,4.42869c0,2.4459 -0.5007,4.42869 -1.11835,4.42869" data-paper-data="{&quot;index&quot;:null}" fill="#908880" stroke="#19282b" stroke-width="0.47748" stroke-linecap="butt"/><path d="M249.29639,177.15604c0,0 -0.94375,1.29381 -1.80573,1.94831c-1.64411,1.24837 -2.912,1.284 -2.912,1.284" fill="none" stroke="#827b74" stroke-width="0.5" stroke-linecap="round"/><path d="M235.42138,180.38834c0,0 -1.26789,-0.03563 -2.912,-1.284c-0.86199,-0.65449 -1.80573,-1.94831 -1.80573,-1.94831" data-paper-data="{&quot;index&quot;:null}" fill="none" stroke="#827b74" stroke-width="0.5" stroke-linecap="round"/></g></g></svg>