<svg version="1.1" xmlns="http://www.w3.org/2000/svg" xmlns:xlink="http://www.w3.org/1999/xlink" width="730.78124" height="1010.08335" viewBox="0,0,730.78124,1010.08335"><defs><linearGradient x1="238.65156" y1="-232.29422" x2="238.65156" y2="345.11724" gradientUnits="userSpaceOnUse" id="color-1"><stop offset="0" stop-color="#dcffff"/><stop offset="1" stop-color="#ffcf7c"/></linearGradient><linearGradient x1="238.65156" y1="180.03172" x2="238.65156" y2="564.29429" gradientUnits="userSpaceOnUse" id="color-2"><stop offset="0" stop-color="#787a6c"/><stop offset="1" stop-color="#37453e"/></linearGradient><linearGradient x1="238.65156" y1="-239.29422" x2="238.65156" y2="82.11724" gradientUnits="userSpaceOnUse" id="color-3"><stop offset="0" stop-color="#6baeff"/><stop offset="1" stop-color="#6baeff" stop-opacity="0"/></linearGradient><linearGradient x1="238.18499" y1="167.11979" x2="238.18499" y2="196.11979" gradientUnits="userSpaceOnUse" id="color-4"><stop offset="0" stop-color="#787a6e" stop-opacity="0"/><stop offset="1" stop-color="#787a6e"/></linearGradient><radialGradient cx="240.00003" cy="-189.78906" r="365.39062" gradientUnits="userSpaceOnUse" id="color-5"><stop offset="0" stop-color="#bfe6ff"/><stop offset="1" stop-color="#bfe6ff" stop-opacity="0"/></radialGradient></defs><g transform="translate(125.3906,445.78906)"><g data-paper-data="{&quot;isPaintingLayer&quot;:true}" fill-rule="nonzero" stroke="none" stroke-width="0" stroke-linecap="butt" stroke-linejoin="miter" stroke-miterlimit="10" stroke-dasharray="" stroke-dashoffset="0" style="mix-blend-mode: normal"><path d="M-118.48988,345.11724v-577.41147h714.28288v577.41148z" data-paper-data="{&quot;origPos&quot;:null}" fill="url(#color-1)"/><path d="M-118.48988,564.29429v-384.26259h714.28288v384.26259z" data-paper-data="{&quot;origPos&quot;:null}" fill="url(#color-2)"/><path d="M-118.48988,82.11724v-321.41147h714.28288v321.41147z" fill="url(#color-3)"/><path d="M-120.07252,196.11979v-29h716.51502v29z" fill="url(#color-4)"/><path d="M-125.39059,-189.78906c0,-141.3849 163.59095,-256 365.39062,-256c201.79967,0 365.39062,114.6151 365.39062,256c0,141.3849 -163.59095,337.57813 -365.39062,337.57813c-201.79967,0 -365.39062,-196.19323 -365.39062,-337.57812z" fill="url(#color-5)"/></g></g></svg>