<svg version="1.1" xmlns="http://www.w3.org/2000/svg" xmlns:xlink="http://www.w3.org/1999/xlink" width="209.74167" height="193.70741" viewBox="0,0,209.74167,193.70741"><defs><linearGradient x1="169.06148" y1="137.04259" x2="169.06148" y2="162.95741" gradientUnits="userSpaceOnUse" id="color-1"><stop offset="0" stop-color="#ffb766"/><stop offset="1" stop-color="#ff6666"/></linearGradient><linearGradient x1="188.69391" y1="137.04259" x2="188.69391" y2="162.95741" gradientUnits="userSpaceOnUse" id="color-2"><stop offset="0" stop-color="#ffb766"/><stop offset="1" stop-color="#ff6666"/></linearGradient><linearGradient x1="208.32634" y1="137.04259" x2="208.32634" y2="162.95741" gradientUnits="userSpaceOnUse" id="color-3"><stop offset="0" stop-color="#ffb766"/><stop offset="1" stop-color="#ff6666"/></linearGradient><linearGradient x1="169.06148" y1="143.25952" x2="169.06148" y2="156.74046" gradientUnits="userSpaceOnUse" id="color-4"><stop offset="0" stop-color="#cc7f66"/><stop offset="1" stop-color="#cc8766"/></linearGradient><linearGradient x1="188.69391" y1="143.25952" x2="188.69391" y2="156.74046" gradientUnits="userSpaceOnUse" id="color-5"><stop offset="0" stop-color="#cc7f66"/><stop offset="1" stop-color="#cc8766"/></linearGradient><linearGradient x1="208.32634" y1="143.25952" x2="208.32634" y2="156.74046" gradientUnits="userSpaceOnUse" id="color-6"><stop offset="0" stop-color="#cc7f66"/><stop offset="1" stop-color="#cc8766"/></linearGradient><linearGradient x1="169.06148" y1="257.04259" x2="169.06148" y2="282.95741" gradientUnits="userSpaceOnUse" id="color-7"><stop offset="0" stop-color="#ffb766"/><stop offset="1" stop-color="#ff6666"/></linearGradient><linearGradient x1="188.69391" y1="257.04259" x2="188.69391" y2="282.95741" gradientUnits="userSpaceOnUse" id="color-8"><stop offset="0" stop-color="#ffb766"/><stop offset="1" stop-color="#ff6666"/></linearGradient><linearGradient x1="208.32634" y1="257.04259" x2="208.32634" y2="282.95741" gradientUnits="userSpaceOnUse" id="color-9"><stop offset="0" stop-color="#ffb766"/><stop offset="1" stop-color="#ff6666"/></linearGradient><linearGradient x1="169.06148" y1="263.25952" x2="169.06148" y2="276.74046" gradientUnits="userSpaceOnUse" id="color-10"><stop offset="0" stop-color="#cc7f66"/><stop offset="1" stop-color="#cc8766"/></linearGradient><linearGradient x1="188.69391" y1="263.25952" x2="188.69391" y2="276.74046" gradientUnits="userSpaceOnUse" id="color-11"><stop offset="0" stop-color="#cc7f66"/><stop offset="1" stop-color="#cc8766"/></linearGradient><linearGradient x1="208.32634" y1="263.25952" x2="208.32634" y2="276.74046" gradientUnits="userSpaceOnUse" id="color-12"><stop offset="0" stop-color="#cc7f66"/><stop offset="1" stop-color="#cc8766"/></linearGradient><linearGradient x1="178.925" y1="93.69375" x2="178.925" y2="116.76875" gradientTransform="translate(-346.36667,-222) scale(2,2)" gradientUnits="userSpaceOnUse" id="color-13"><stop offset="0" stop-color="#ffb766"/><stop offset="1" stop-color="#ff6666"/></linearGradient><linearGradient x1="141.87083" y1="213.69375" x2="141.87083" y2="236.76875" gradientTransform="translate(-272.25833,-462) scale(2,2)" gradientUnits="userSpaceOnUse" id="color-14"><stop offset="0" stop-color="#ffb766"/><stop offset="1" stop-color="#ff6666"/></linearGradient></defs><g transform="translate(-135.37917,-89.25)"><g data-paper-data="{&quot;isPaintingLayer&quot;:true}" fill-rule="nonzero" stroke="none" stroke-linecap="butt" stroke-linejoin="miter" stroke-miterlimit="10" stroke-dasharray="" stroke-dashoffset="0" style="mix-blend-mode: normal"><g stroke-width="0"><path d="M156.10405,150c0,-7.15618 5.80123,-12.95741 12.95741,-12.95741c7.15618,0 12.95741,5.80123 12.95741,12.95741c0,7.15618 -5.80123,12.95741 -12.95741,12.95741c-7.15618,0 -12.95741,-5.80123 -12.95741,-12.95741z" fill="url(#color-1)"/><path d="M169.06148,162.95741v-25.91482h141.87711v25.91482z" fill="url(#color-2)"/><path d="M297.98114,150c0,-7.15618 5.80123,-12.95741 12.95741,-12.95741c7.15618,0 12.95742,5.80123 12.95742,12.95741c0,7.15618 -5.80124,12.95741 -12.95742,12.95741c-7.15618,0 -12.95741,-5.80123 -12.95741,-12.95741z" fill="url(#color-3)"/><path d="M162.32099,150c0,-3.72266 3.01781,-6.74047 6.74047,-6.74047c3.72266,0 6.74047,3.01781 6.74047,6.74047c0,3.72266 -3.01781,6.74047 -6.74047,6.74047c-3.72266,0 -6.74047,-3.01781 -6.74047,-6.74047z" fill="url(#color-4)"/><path d="M169.06148,156.74046v-13.48094h141.87711v13.48094z" fill="url(#color-5)"/><path d="M304.19809,150c0,-3.72266 3.0178,-6.74047 6.74046,-6.74047c3.72266,0 6.74049,3.01781 6.74049,6.74047c0,3.72266 -3.01783,6.74047 -6.74049,6.74047c-3.72266,0 -6.74046,-3.01781 -6.74046,-6.74047z" fill="url(#color-6)"/></g><g stroke-width="0"><path d="M156.10405,270c0,-7.15618 5.80123,-12.95741 12.95741,-12.95741c7.15618,0 12.95741,5.80123 12.95741,12.95741c0,7.15618 -5.80123,12.95741 -12.95741,12.95741c-7.15618,0 -12.95741,-5.80123 -12.95741,-12.95741z" fill="url(#color-7)"/><path d="M169.06148,282.95741v-25.91482h141.87711v25.91482z" fill="url(#color-8)"/><path d="M297.98114,270c0,-7.15618 5.80123,-12.95741 12.95741,-12.95741c7.15618,0 12.95742,5.80123 12.95742,12.95741c0,7.15618 -5.80124,12.95741 -12.95742,12.95741c-7.15618,0 -12.95741,-5.80123 -12.95741,-12.95741z" fill="url(#color-9)"/><path d="M162.32099,270c0,-3.72266 3.01781,-6.74047 6.74047,-6.74047c3.72266,0 6.74047,3.01781 6.74047,6.74047c0,3.72266 -3.01781,6.74047 -6.74047,6.74047c-3.72266,0 -6.74047,-3.01781 -6.74047,-6.74047z" fill="url(#color-10)"/><path d="M169.06148,276.74046v-13.48094h141.87711v13.48094z" fill="url(#color-11)"/><path d="M304.19809,270c0,-3.72266 3.0178,-6.74047 6.74046,-6.74047c3.72266,0 6.74049,3.01781 6.74049,6.74047c0,3.72266 -3.01783,6.74047 -6.74049,6.74047c-3.72266,0 -6.74046,-3.01781 -6.74046,-6.74047z" fill="url(#color-12)"/></g><text transform="translate(173.18333,111) scale(0.5,0.5)" font-size="40" xml:space="preserve" fill="url(#color-13)" fill-rule="nonzero" stroke="none" stroke-width="1" stroke-linecap="butt" stroke-linejoin="miter" stroke-miterlimit="10" stroke-dasharray="" stroke-dashoffset="0" font-family="Sans Serif" font-weight="normal" text-anchor="start" style="mix-blend-mode: normal"><tspan x="0" dy="0">Music Volume</tspan></text><text transform="translate(136.12917,231) scale(0.5,0.5)" font-size="40" xml:space="preserve" fill="url(#color-14)" fill-rule="nonzero" stroke="none" stroke-width="1" stroke-linecap="butt" stroke-linejoin="miter" stroke-miterlimit="10" stroke-dasharray="" stroke-dashoffset="0" font-family="Sans Serif" font-weight="normal" text-anchor="start" style="mix-blend-mode: normal"><tspan x="0" dy="0">Sound Effects Volume</tspan></text></g></g></svg>