<svg version="1.1" xmlns="http://www.w3.org/2000/svg" xmlns:xlink="http://www.w3.org/1999/xlink" width="160" height="199.11666" viewBox="0,0,160,199.11666"><defs><linearGradient x1="240.00002" y1="258.51559" x2="240.00002" y2="277.25849" gradientUnits="userSpaceOnUse" id="color-1"><stop offset="0" stop-color="#808080"/><stop offset="1" stop-color="#666666"/></linearGradient><linearGradient x1="240.12399" y1="150.05411" x2="240.12399" y2="168.79701" gradientUnits="userSpaceOnUse" id="color-2"><stop offset="0" stop-color="#808080"/><stop offset="1" stop-color="#666666"/></linearGradient></defs><g transform="translate(-160,-80.44167)"><g data-paper-data="{&quot;isPaintingLayer&quot;:true}" fill-rule="nonzero" stroke="none" stroke-width="0" stroke-linecap="butt" stroke-linejoin="miter" stroke-miterlimit="10" stroke-dasharray="" stroke-dashoffset="0" style="mix-blend-mode: normal"><path d="M160,279.55833v-199.11666h160v199.11666z" fill="#5e5e5e"/><path d="M162.56282,261.01984c-0.0543,-2.91667 4.4245,-2.48122 4.4245,-2.48122h145.76862c0,0 4.38545,-0.40106 4.66839,2.42275l0.01057,13.85069c0.00019,0.00385 0.00038,0.00771 0.00056,0.01159c0.12169,2.65129 -4.67952,2.40949 -4.67952,2.40949h-145.7686c0,0 -4.22187,0.44111 -4.41796,-2.35642z" fill="url(#color-1)"/><path d="M162.68678,152.55835c-0.0543,-2.91667 4.4245,-2.48122 4.4245,-2.48122h145.76862c0,0 4.38545,-0.40106 4.66839,2.42275l0.01057,13.85069c0.00019,0.00385 0.00038,0.00771 0.00056,0.01159c0.12169,2.65129 -4.67951,2.40949 -4.67951,2.40949h-145.7686c0,0 -4.22187,0.44111 -4.41797,-2.35641z" fill="url(#color-2)"/></g></g></svg>