<svg version="1.1" xmlns="http://www.w3.org/2000/svg" xmlns:xlink="http://www.w3.org/1999/xlink" width="83.88188" height="77.73852"><g transform="translate(-202.63194,-135.69897)"><g data-paper-data="{&quot;isPaintingLayer&quot;:true}" fill-rule="nonzero" stroke="none" stroke-width="0" stroke-linecap="butt" stroke-linejoin="miter" stroke-miterlimit="10" stroke-dasharray="" stroke-dashoffset="0" style="mix-blend-mode: normal"><path d="M219.9966,140.13216c0,-2.44675 1.8774,-4.43319 4.4332,-4.43319c2.55578,0 4.43319,1.86942 4.43319,4.43319c0,2.56378 -1.86882,4.43319 -4.43319,4.43319c-2.56437,0 -4.4332,-1.98645 -4.4332,-4.43319z" data-paper-data="{&quot;origPos&quot;:null}" fill="#e6e6e6"/><path d="M233.63443,174.7556c0,-2.44674 1.8774,-4.43319 4.43319,-4.43319c2.55579,0 4.43319,1.86942 4.43319,4.43319c0,2.56378 -1.86882,4.43319 -4.43319,4.43319c-2.56437,0 -4.43319,-1.98645 -4.43319,-4.43319z" data-paper-data="{&quot;origPos&quot;:null}" fill="#e6e6e6"/><path d="M240.56218,146.59852c0,-2.44674 1.8774,-4.43319 4.43319,-4.43319c2.55579,0 4.43319,1.86942 4.43319,4.43319c0,2.56378 -1.86882,4.43319 -4.43319,4.43319c-2.56437,0 -4.43319,-1.98645 -4.43319,-4.43319z" data-paper-data="{&quot;origPos&quot;:null}" fill="#e6e6e6"/><path d="M202.63194,178.07471c0,-2.44674 1.87741,-4.4332 4.4332,-4.4332c2.55579,0 4.43319,1.86942 4.43319,4.4332c0,2.56377 -1.86881,4.43319 -4.43319,4.43319c-2.56438,0 -4.4332,-1.98645 -4.4332,-4.43319z" data-paper-data="{&quot;origPos&quot;:null}" fill="#e6e6e6"/><path d="M210.90881,160.32777c0,-3.01332 2.31215,-5.45975 5.45976,-5.45975c3.14761,0 5.45976,2.30229 5.45976,5.45975c0,3.15745 -2.30157,5.45976 -5.45976,5.45976c-3.15819,0 -5.45976,-2.44644 -5.45976,-5.45976z" data-paper-data="{&quot;origPos&quot;:null}" fill="#cc5252"/><path d="M219.61422,201.39356c0,-3.01332 2.31215,-5.45976 5.45976,-5.45976c3.14761,0 5.45976,2.3023 5.45976,5.45976c0,3.15745 -2.30156,5.45976 -5.45976,5.45976c-3.15819,0 -5.45976,-2.44644 -5.45976,-5.45976z" data-paper-data="{&quot;origPos&quot;:null}" fill="#cc5252"/><path d="M264.31863,144.76073c0,-3.01332 2.31214,-5.45976 5.45976,-5.45976c3.14761,0 5.45975,2.3023 5.45975,5.45976c0,3.15745 -2.30156,5.45976 -5.45975,5.45976c-3.15819,0 -5.45976,-2.44644 -5.45976,-5.45976z" data-paper-data="{&quot;origPos&quot;:null}" fill="#cc5252"/><path d="M275.59432,162.68494c0,-3.01332 2.31213,-5.45976 5.45975,-5.45976c3.14761,0 5.45976,2.30231 5.45976,5.45976c0,3.15745 -2.30158,5.45974 -5.45976,5.45974c-3.15819,0 -5.45975,-2.44644 -5.45975,-5.45974z" data-paper-data="{&quot;origPos&quot;:null}" fill="#cc5252"/><path d="M250.54233,163.04775c0,-3.01332 2.31214,-5.45976 5.45974,-5.45976c3.14761,0 5.45976,2.30231 5.45976,5.45976c0,3.15745 -2.30158,5.45974 -5.45976,5.45974c-3.15819,0 -5.45974,-2.44643 -5.45974,-5.45974z" data-paper-data="{&quot;origPos&quot;:null}" fill="#cc5252"/><path d="M252.23623,207.97774c0,-3.01332 2.31215,-5.45974 5.45975,-5.45974c3.14761,0 5.45975,2.30229 5.45975,5.45974c0,3.15745 -2.30157,5.45976 -5.45975,5.45976c-3.15819,0 -5.45975,-2.44644 -5.45975,-5.45976z" data-paper-data="{&quot;origPos&quot;:null}" fill="#cc5252"/><path d="M267.64804,187.31124c0,-2.44674 1.8774,-4.4332 4.43319,-4.4332c2.55579,0 4.4332,1.86942 4.4332,4.4332c0,2.56377 -1.86882,4.43319 -4.4332,4.43319c-2.56438,0 -4.43319,-1.98645 -4.43319,-4.43319z" data-paper-data="{&quot;origPos&quot;:null}" fill="#e6e6e6"/><path d="M247.67776,189.67887c0,-2.44674 1.8774,-4.43319 4.43319,-4.43319c2.55579,0 4.43319,1.86942 4.43319,4.43319c0,2.56377 -1.86882,4.43319 -4.43319,4.43319c-2.56438,0 -4.43319,-1.98645 -4.43319,-4.43319z" data-paper-data="{&quot;origPos&quot;:null}" fill="#e6e6e6"/></g></g></svg>