<svg version="1.1" xmlns="http://www.w3.org/2000/svg" xmlns:xlink="http://www.w3.org/1999/xlink" width="94.85802" height="94.85802" viewBox="0,0,94.85802,94.85802"><defs><radialGradient cx="240" cy="180" r="47.42901" gradientUnits="userSpaceOnUse" id="color-1"><stop offset="0" stop-color="#000000"/><stop offset="1" stop-color="#000000" stop-opacity="0"/></radialGradient></defs><g transform="translate(-192.57099,-132.57099)"><g data-paper-data="{&quot;isPaintingLayer&quot;:true}" fill-rule="nonzero" stroke="none" stroke-width="0" stroke-linecap="butt" stroke-linejoin="miter" stroke-miterlimit="10" stroke-dasharray="" stroke-dashoffset="0" style="mix-blend-mode: normal"><path d="M192.57099,180c0,-26.19432 21.23469,-47.42901 47.42901,-47.42901c26.19432,0 47.42901,21.23469 47.42901,47.42901c0,26.19432 -21.23469,47.42901 -47.42901,47.42901c-26.19432,0 -47.42901,-21.23469 -47.42901,-47.42901z" fill="url(#color-1)"/><path d="M197.28554,180c0,-23.57474 18.08909,-42.71448 42.71448,-42.71448c24.62539,0 42.71445,18.0121 42.71445,42.71448c0,24.70238 -18.00635,42.71448 -42.71445,42.71448c-24.7081,0 -42.71448,-19.13971 -42.71448,-42.71448z" fill="#805233"/><path d="M200.00557,180c0,-22.07352 16.93719,-39.99445 39.99445,-39.99445c23.05726,0 39.99443,16.8651 39.99443,39.99445c0,23.12935 -16.85972,39.99445 -39.99443,39.99445c-23.13471,0 -39.99445,-17.92091 -39.99445,-39.99445z" fill="#cc5252"/><path d="M208.00668,180c0,-17.65759 13.5488,-31.99334 31.99334,-31.99334c18.44452,0 31.99334,13.49113 31.99334,31.99334c0,18.50219 -13.48685,31.99334 -31.99334,31.99334c-18.50649,0 -31.99334,-14.33573 -31.99334,-31.99334z" fill="#e6e6e6"/><path d="M216.00779,180c0,-13.24166 10.16043,-23.99223 23.99223,-23.99223c13.8318,0 23.99223,10.11718 23.99223,23.99223c0,13.87505 -10.11396,23.99223 -23.99223,23.99223c-13.87827,0 -23.99223,-10.75055 -23.99223,-23.99223z" fill="#cc5252"/><path d="M224.00892,180.00002c0,-8.82574 6.77206,-15.99112 15.99112,-15.99112c9.21906,0 15.99112,6.74324 15.99112,15.99112c0,9.24788 -6.74108,15.99112 -15.99112,15.99112c-9.25004,0 -15.99112,-7.16537 -15.99112,-15.99112z" fill="#e6e6e6"/><path d="M232.01003,180.00002c0,-4.40979 3.38367,-7.98999 7.98999,-7.98999c4.60632,0 7.98999,3.36927 7.98999,7.98999c0,4.62072 -3.36819,7.98999 -7.98999,7.98999c-4.6218,0 -7.98999,-3.5802 -7.98999,-7.98999z" fill="#cc5252"/></g></g></svg>