<svg version="1.1" xmlns="http://www.w3.org/2000/svg" xmlns:xlink="http://www.w3.org/1999/xlink" width="199" height="118.5" viewBox="0,0,199,118.5"><defs><linearGradient x1="337.77327" y1="151.26452" x2="337.77327" y2="228.73556" gradientTransform="translate(-196.13804,-129.72143) scale(0.61959,0.61959)" gradientUnits="userSpaceOnUse" id="color-1"><stop offset="0" stop-color="#4d4d4d"/><stop offset="1" stop-color="#33271c"/></linearGradient><linearGradient x1="300.94105" y1="173.52362" x2="300.94105" y2="221.81738" gradientTransform="translate(-288.25216,-208.46812) scale(0.99392,0.99392)" gradientUnits="userSpaceOnUse" id="color-2"><stop offset="0" stop-color="#4d4d4d"/><stop offset="1" stop-color="#33271c"/></linearGradient><radialGradient cx="240" cy="180" r="47.42901" gradientUnits="userSpaceOnUse" id="color-3"><stop offset="0" stop-color="#000000"/><stop offset="1" stop-color="#000000" stop-opacity="0"/></radialGradient><radialGradient cx="240" cy="180" r="47.42901" gradientUnits="userSpaceOnUse" id="color-4"><stop offset="0" stop-color="#000000"/><stop offset="1" stop-color="#000000" stop-opacity="0"/></radialGradient></defs><g transform="translate(-174,-120.75)"><g data-paper-data="{&quot;isPaintingLayer&quot;:true}" fill-rule="nonzero" stroke="none" stroke-linecap="butt" stroke-linejoin="miter" stroke-miterlimit="10" stroke-dasharray="" stroke-dashoffset="0" style="mix-blend-mode: normal"><path d="M174,239.25v-118.5h199v118.5z" fill="none" stroke-width="0"/><text transform="translate(316.56288,209.3678) scale(1.61398,1.61398)" font-size="40" xml:space="preserve" fill="url(#color-1)" fill-rule="nonzero" stroke="none" stroke-width="1" stroke-linecap="butt" stroke-linejoin="miter" stroke-miterlimit="10" stroke-dasharray="" stroke-dashoffset="0" font-family="&quot;ヒラギノ角ゴ Pro W3&quot;, &quot;Hiragino Kaku Gothic Pro&quot;, Osaka, &quot;メイリオ&quot;, Meiryo, &quot;ＭＳ Ｐゴシック&quot;, &quot;MS PGothic&quot;" font-weight="normal" text-anchor="start" style="mix-blend-mode: normal"><tspan x="0" dy="0">1</tspan></text><text transform="translate(290.01626,209.74394) scale(1.00612,1.00612)" font-size="40" xml:space="preserve" fill="url(#color-2)" fill-rule="nonzero" stroke="none" stroke-width="1" stroke-linecap="butt" stroke-linejoin="miter" stroke-miterlimit="10" stroke-dasharray="" stroke-dashoffset="0" font-family="Sans Serif" font-weight="normal" text-anchor="start" style="mix-blend-mode: normal"><tspan x="0" dy="0">x</tspan></text><g stroke-width="0"><path d="M192.57099,180c0,-26.19432 21.23469,-47.42901 47.42901,-47.42901c26.19432,0 47.42901,21.23469 47.42901,47.42901c0,26.19432 -21.23469,47.42901 -47.42901,47.42901c-26.19432,0 -47.42901,-21.23469 -47.42901,-47.42901z" fill="url(#color-3)"/><path d="M192.57099,180c0,-26.19432 21.23469,-47.42901 47.42901,-47.42901c26.19432,0 47.42901,21.23469 47.42901,47.42901c0,26.19432 -21.23469,47.42901 -47.42901,47.42901c-26.19432,0 -47.42901,-21.23469 -47.42901,-47.42901z" fill="url(#color-4)"/><path d="M196.78554,179.5c0,-23.57474 18.08909,-42.71448 42.71448,-42.71448c24.62539,0 42.71445,18.0121 42.71445,42.71448c0,24.70238 -18.00635,42.71448 -42.71445,42.71448c-24.7081,0 -42.71448,-19.13971 -42.71448,-42.71448z" data-paper-data="{&quot;origPos&quot;:null}" fill="#805233"/><path d="M199.50557,179.5c0,-22.07352 16.93719,-39.99445 39.99445,-39.99445c23.05726,0 39.99443,16.8651 39.99443,39.99445c0,23.12935 -16.85972,39.99445 -39.99443,39.99445c-23.13471,0 -39.99445,-17.92091 -39.99445,-39.99445z" data-paper-data="{&quot;origPos&quot;:null}" fill="#cc5252"/><path d="M207.50668,179.5c0,-17.65759 13.5488,-31.99334 31.99334,-31.99334c18.44452,0 31.99334,13.49113 31.99334,31.99334c0,18.50219 -13.48685,31.99334 -31.99334,31.99334c-18.50649,0 -31.99334,-14.33573 -31.99334,-31.99334z" data-paper-data="{&quot;origPos&quot;:null}" fill="#e6e6e6"/><path d="M215.50779,179.5c0,-13.24166 10.16043,-23.99223 23.99223,-23.99223c13.8318,0 23.99223,10.11718 23.99223,23.99223c0,13.87505 -10.11396,23.99223 -23.99223,23.99223c-13.87827,0 -23.99223,-10.75055 -23.99223,-23.99223z" data-paper-data="{&quot;origPos&quot;:null}" fill="#cc5252"/><path d="M223.50892,179.50002c0,-8.82574 6.77206,-15.99112 15.99112,-15.99112c9.21906,0 15.99112,6.74324 15.99112,15.99112c0,9.24788 -6.74108,15.99112 -15.99112,15.99112c-9.25004,0 -15.99112,-7.16537 -15.99112,-15.99112z" data-paper-data="{&quot;origPos&quot;:null}" fill="#e6e6e6"/><path d="M231.51003,179.50002c0,-4.40979 3.38367,-7.98999 7.98999,-7.98999c4.60632,0 7.98999,3.36927 7.98999,7.98999c0,4.62072 -3.36819,7.98999 -7.98999,7.98999c-4.6218,0 -7.98999,-3.5802 -7.98999,-7.98999z" data-paper-data="{&quot;origPos&quot;:null}" fill="#cc5252"/></g></g></g></svg>