<svg version="1.1" xmlns="http://www.w3.org/2000/svg" xmlns:xlink="http://www.w3.org/1999/xlink" width="70.34104" height="139.82105" viewBox="0,0,70.34104,139.82105"><g transform="translate(-204.84753,-109.74828)"><g data-paper-data="{&quot;isPaintingLayer&quot;:true}" fill-rule="nonzero" stroke-linejoin="miter" stroke-miterlimit="10" stroke-dasharray="" stroke-dashoffset="0" style="mix-blend-mode: normal"><g data-paper-data="{&quot;index&quot;:null}"><g data-paper-data="{&quot;index&quot;:null}"><path d="M246.33265,208.50183c1.69633,-0.45488 3.67471,-0.18582 4.94051,0.90705c2.18231,1.88045 3.31778,4.96003 4.9094,7.47973c2.27814,3.60714 15.30461,23.02245 17.37517,26.7416c-0.11746,1.33441 -0.29301,2.63763 -2.40609,4.09663c-1.75866,1.21429 -4.30451,1.02956 -4.6721,0.68286c-0.85712,-1.46222 -16.84707,-25.70598 -18.17976,-27.98907c-1.68552,-2.86424 -4.65354,-5.23088 -5.10405,-8.58154c-0.20207,-1.50854 1.66449,-2.93944 3.13693,-3.33729z" id="ID0.7746463636867702" fill="#660000" stroke="#450000" stroke-width="3.18812" stroke-linecap="round"/><g stroke="none" stroke-width="0" stroke-linecap="butt"><path d="M251.18009,210.89029c0.36197,0.54685 -0.77562,2.89559 -1.69825,3.50629c-0.92263,0.61069 -3.52913,0.74023 -3.8911,0.19337c-0.36198,-0.54685 0.77562,-2.89558 1.69825,-3.50628c0.92263,-0.61069 3.52913,-0.74023 3.8911,-0.19339z" fill="#e6c65c"/><path d="M251.18008,210.89029c0.36197,0.54685 -0.77562,2.89559 -1.69825,3.50629c-0.00074,0.0005 -2.19355,-3.31243 -2.19285,-3.31291c0.92263,-0.61069 3.52912,-0.74023 3.89109,-0.19339z" data-paper-data="{&quot;index&quot;:null}" fill="#f2d061"/><path d="M245.59074,214.58995c-0.00028,-0.00042 5.58905,-3.70011 5.58935,-3.69966c0.36198,0.54686 -0.77563,2.89559 -1.69825,3.50628c-0.92263,0.61069 -3.52913,0.74023 -3.8911,0.19338z" data-paper-data="{&quot;index&quot;:null}" fill="#f2d061"/><path d="M251.18008,210.89029c0.36198,0.54685 -0.77563,2.89558 -1.69825,3.50627c-0.00052,0.00035 -1.09918,-1.65385 -1.09954,-1.65437c-0.00033,-0.0005 2.79747,-1.85239 2.7978,-1.8519z" fill="#ffdb66"/></g><g stroke="none" stroke-width="0" stroke-linecap="butt"><path d="M250.2825,215.67412c0.92263,-0.61069 3.52912,-0.74023 3.89109,-0.19338c0.36197,0.54685 -0.77562,2.89558 -1.69824,3.50627c-0.92263,0.61069 -3.52913,0.74023 -3.89111,0.19338c-0.36198,-0.54685 0.77563,-2.89559 1.69826,-3.50628z" fill="#e6c65c"/><path d="M254.1736,215.48071c0.36197,0.54685 -0.77563,2.89559 -1.69826,3.50629c-0.00074,0.0005 -2.19353,-3.31243 -2.19284,-3.31289c0.92263,-0.61069 3.52912,-0.74024 3.89109,-0.19339z" data-paper-data="{&quot;index&quot;:null}" fill="#f2d061"/><path d="M252.47534,218.98699c-0.92263,0.61069 -3.52912,0.74024 -3.89109,0.19339c-0.00028,-0.00041 5.58904,-3.70011 5.58935,-3.69966c0.36197,0.54686 -0.77564,2.89559 -1.69826,3.50628z" data-paper-data="{&quot;index&quot;:null}" fill="#f2d061"/><path d="M254.1736,215.48071c0.36197,0.54685 -0.77563,2.89559 -1.69826,3.50629c-0.00052,0.00035 -1.09918,-1.65385 -1.09954,-1.65438c-0.00033,-0.0005 2.79748,-1.85238 2.79779,-1.8519z" fill="#ffdb66"/></g><g stroke="none" stroke-width="0" stroke-linecap="butt"><path d="M255.46885,223.57746c-0.92263,0.61069 -3.52913,0.74023 -3.89111,0.19338c-0.36197,-0.54685 0.77563,-2.89558 1.69826,-3.50627c0.92263,-0.61069 3.52912,-0.74024 3.8911,-0.19339c0.36197,0.54685 -0.77563,2.89559 -1.69825,3.50628z" fill="#e6c65c"/><path d="M257.16712,220.07118c0.36197,0.54686 -0.77563,2.89559 -1.69826,3.50629c-0.00075,0.00049 -2.19355,-3.31243 -2.19285,-3.3129c0.92263,-0.6107 3.52912,-0.74024 3.89109,-0.1934z" data-paper-data="{&quot;index&quot;:null}" fill="#f2d061"/><path d="M251.57776,223.77082c-0.00028,-0.00042 5.58906,-3.70012 5.58936,-3.69967c0.36197,0.54685 -0.77563,2.89559 -1.69826,3.50628c-0.92263,0.61069 -3.52912,0.74023 -3.89109,0.19339z" data-paper-data="{&quot;index&quot;:null}" fill="#f2d061"/><path d="M257.16712,220.07118c0.36197,0.54685 -0.77564,2.89558 -1.69827,3.50627c-0.00051,0.00034 -1.09918,-1.65384 -1.09954,-1.65437c-0.00033,-0.0005 2.79747,-1.8524 2.79779,-1.8519z" fill="#ffdb66"/></g><g stroke="none" stroke-width="0" stroke-linecap="butt"><path d="M256.26954,224.85499c0.92263,-0.61069 3.52913,-0.74023 3.8911,-0.19338c0.36196,0.54685 -0.77564,2.89559 -1.69826,3.50628c-0.92262,0.61069 -3.52913,0.74023 -3.8911,0.19338c-0.36198,-0.54686 0.77564,-2.89559 1.69826,-3.50628z" fill="#e6c65c"/><path d="M256.26952,224.85499c0.92262,-0.61069 3.52913,-0.74023 3.8911,-0.19338c0.36197,0.54685 -0.77563,2.89558 -1.69826,3.50627c-0.00076,0.0005 -2.19354,-3.31243 -2.19284,-3.31289z" data-paper-data="{&quot;index&quot;:null}" fill="#f2d061"/><path d="M254.57128,228.36126c-0.00027,-0.00042 5.58906,-3.70011 5.58936,-3.69966c0.36196,0.54685 -0.77564,2.89559 -1.69826,3.50628c-0.92262,0.61069 -3.52912,0.74023 -3.8911,0.19338z" data-paper-data="{&quot;index&quot;:null}" fill="#f2d061"/><path d="M260.16063,224.66159c0.36196,0.54684 -0.77563,2.89558 -1.69825,3.50628c-0.00052,0.00035 -1.09919,-1.65384 -1.09954,-1.65438c-0.00034,-0.0005 2.79749,-1.85238 2.7978,-1.85189z" fill="#ffdb66"/></g><g stroke="none" stroke-width="0" stroke-linecap="butt"><path d="M263.15414,229.25205c0.36197,0.54685 -0.77563,2.89559 -1.69825,3.50628c-0.92263,0.61069 -3.52914,0.74023 -3.89111,0.19338c-0.36198,-0.54686 0.77563,-2.89559 1.69825,-3.50628c0.92262,-0.61069 3.52912,-0.74023 3.89109,-0.19338z" fill="#e6c65c"/><path d="M261.45587,232.75832c-0.00076,0.00049 -2.19353,-3.31243 -2.19284,-3.3129c0.92262,-0.61069 3.52913,-0.74023 3.89109,-0.19339c0.36197,0.54685 -0.77563,2.89559 -1.69825,3.50628z" data-paper-data="{&quot;index&quot;:null}" fill="#f2d061"/><path d="M261.45589,232.75831c-0.92262,0.61069 -3.52913,0.74024 -3.8911,0.19339c-0.00027,-0.00042 5.58904,-3.70011 5.58935,-3.69967c0.36196,0.54685 -0.77564,2.89559 -1.69826,3.50628z" data-paper-data="{&quot;index&quot;:null}" fill="#f2d061"/><path d="M263.15414,229.25205c0.36197,0.54685 -0.77564,2.89558 -1.69826,3.50627c-0.00052,0.00035 -1.09919,-1.65384 -1.09955,-1.65438c-0.00033,-0.0005 2.79748,-1.85237 2.79779,-1.85189z" fill="#ffdb66"/></g><g stroke="none" stroke-width="0" stroke-linecap="butt"><path d="M266.14765,233.84249c0.36197,0.54685 -0.77563,2.89558 -1.69825,3.50627c-0.92262,0.61069 -3.52914,0.74024 -3.8911,0.19339c-0.36197,-0.54684 0.77564,-2.89558 1.69826,-3.50627c0.92262,-0.61069 3.52913,-0.74024 3.8911,-0.19339z" fill="#e6c65c"/><path d="M266.14766,233.84247c0.36196,0.54685 -0.77563,2.89558 -1.69825,3.50627c-0.00076,0.0005 -2.19356,-3.31242 -2.19285,-3.31289c0.92262,-0.61069 3.52913,-0.74024 3.8911,-0.19339z" data-paper-data="{&quot;index&quot;:null}" fill="#f2d061"/><path d="M260.55831,237.54215c-0.00027,-0.00043 5.58904,-3.70011 5.58935,-3.69967c0.36196,0.54685 -0.77563,2.89558 -1.69825,3.50628c-0.92262,0.61069 -3.52913,0.74024 -3.8911,0.19338z" data-paper-data="{&quot;index&quot;:null}" fill="#f2d061"/><path d="M263.34986,235.69437c-0.00033,-0.0005 2.79748,-1.85237 2.7978,-1.85189c0.36196,0.54685 -0.77563,2.89558 -1.69826,3.50627c-0.00051,0.00035 -1.09919,-1.65384 -1.09954,-1.65437z" fill="#ffdb66"/></g><g stroke="none" stroke-width="0" stroke-linecap="butt"><path d="M269.14116,238.43293c0.36197,0.54685 -0.77562,2.89558 -1.69825,3.50627c-0.92262,0.61069 -3.52914,0.74024 -3.89111,0.19339c-0.36196,-0.54685 0.77564,-2.89558 1.69826,-3.50627c0.92262,-0.61069 3.52913,-0.74024 3.8911,-0.19339z" fill="#e6c65c"/><path d="M269.14116,238.43292c0.36197,0.54685 -0.77562,2.89558 -1.69825,3.50627c-0.00076,0.00049 -2.19354,-3.31242 -2.19284,-3.31289c0.92262,-0.61069 3.52912,-0.74025 3.89109,-0.19339z" data-paper-data="{&quot;index&quot;:null}" fill="#f2d061"/><path d="M267.44291,241.93918c-0.92262,0.61069 -3.52913,0.74024 -3.8911,0.19339c-0.00027,-0.00042 5.58906,-3.70011 5.58936,-3.69966c0.36197,0.54685 -0.77563,2.89558 -1.69825,3.50627z" data-paper-data="{&quot;index&quot;:null}" fill="#f2d061"/><path d="M269.14117,238.4329c0.36196,0.54684 -0.77563,2.89559 -1.69826,3.50628c-0.00052,0.00035 -1.0992,-1.65383 -1.09956,-1.65437c-0.00032,-0.0005 2.79749,-1.85238 2.7978,-1.8519z" fill="#ffdb66"/></g><g stroke="none" stroke-width="0" stroke-linecap="butt"><path d="M272.13467,243.02336c0.36196,0.54685 -0.77563,2.89558 -1.69826,3.50627c-0.92262,0.61069 -3.52913,0.74024 -3.8911,0.19338c-0.36196,-0.54684 0.77564,-2.89558 1.69826,-3.50627c0.92262,-0.61069 3.52913,-0.74024 3.8911,-0.19339z" fill="#e6c65c"/><path d="M272.13468,243.02336c0.36196,0.54685 -0.77564,2.89558 -1.69826,3.50627c-0.00076,0.0005 -2.19355,-3.31243 -2.19285,-3.31289c0.92263,-0.61069 3.52913,-0.74023 3.8911,-0.19338z" data-paper-data="{&quot;index&quot;:null}" fill="#f2d061"/><path d="M266.54533,246.72302c-0.00027,-0.00042 5.58906,-3.70011 5.58935,-3.69966c0.36196,0.54685 -0.77564,2.89558 -1.69826,3.50627c-0.92262,0.61069 -3.52913,0.74024 -3.89109,0.19339z" data-paper-data="{&quot;index&quot;:null}" fill="#f2d061"/><path d="M272.13468,243.02336c0.36196,0.54684 -0.77564,2.89558 -1.69826,3.50627c-0.00052,0.00036 -1.0992,-1.65384 -1.09955,-1.65437c-0.00033,-0.0005 2.79748,-1.85238 2.7978,-1.8519z" fill="#ffdb66"/></g></g><path d="M243.69929,201.52053c3.64057,-1.54731 7.19261,-2.35184 9.99123,-2.40388c2.79895,-0.05079 4.84292,0.65127 5.46733,2.12029c0.62441,1.46935 -0.28883,3.42809 -2.26798,5.408c-1.97978,1.97866 -5.02394,3.97747 -8.66482,5.52479c-3.64088,1.54731 -7.19294,2.35184 -9.99123,2.4042c-2.79926,0.05079 -4.8432,-0.65126 -5.46763,-2.12061c-0.62441,-1.46934 0.28883,-3.42809 2.26797,-5.40799c1.97979,-1.97833 5.02423,-3.97748 8.66513,-5.52479z" data-paper-data="{&quot;index&quot;:null}" id="ID0.28988144639879465" fill="#660000" stroke="#450000" stroke-width="3.18812" stroke-linecap="butt"/><path d="M207.82972,116.66695c2.50537,-2.12262 5.15555,-4.77233 8.3055,-5.3246c1.13242,-0.19482 0.73302,2.11886 0.88878,3.34087c0.62396,4.88802 0.23037,9.92685 1.31276,14.73914c2.09141,9.32208 5.24966,18.45505 8.29872,27.5477c1.98119,5.70115 4.24347,11.35259 6.79521,16.83679c3.23458,6.95487 6.98285,13.83665 10.37707,20.80774c1.63846,3.11334 4.11655,5.9353 4.75538,9.48794c0.225,1.25125 -1.07831,2.5657 -2.218,3.05258c-1.68,0.69958 -4.27832,1.34767 -5.70102,0.08608c-3.41745,-3.0546 -5.17937,-7.5713 -7.55266,-11.45855c-3.36232,-5.86273 -6.70664,-11.76456 -9.66091,-17.79946c-3.31384,-6.76934 -6.44432,-13.70748 -8.86803,-20.83085c-2.84513,-8.2757 -5.15856,-16.74883 -6.92275,-25.30441c-0.84866,-4.11132 -1.16049,-8.41665 -1.1975,-12.64438c0.10337,-1.05643 0.66041,-1.91675 1.38744,-2.5366z" data-paper-data="{&quot;index&quot;:null}" id="ID0.9556389166973531" fill="#b3b3b3" stroke="#808080" stroke-width="3.18812" stroke-linecap="round"/><path d="M207.42456,121.19147l5.5508,6.62477l-2.51079,11.44257z" data-paper-data="{&quot;index&quot;:null}" id="ID0.2536769728176296" fill="#999999" stroke="none" stroke-width="0.53136" stroke-linecap="round"/><path d="M210.51632,138.33763l6.3778,5.83298l-0.97645,11.67413z" data-paper-data="{&quot;index&quot;:null}" id="ID0.2536769728176296" fill="#999999" stroke="none" stroke-width="0.53136" stroke-linecap="round"/><path d="M215.38861,155.33855l6.96206,5.12123l0.27185,11.71178z" data-paper-data="{&quot;index&quot;:null}" id="ID0.2536769728176296" fill="#999999" stroke="none" stroke-width="0.53136" stroke-linecap="round"/><path d="M222.26259,171.89513l7.32548,4.58704l1.14538,11.65851z" data-paper-data="{&quot;index&quot;:null}" id="ID0.2536769728176296" fill="#999999" stroke="none" stroke-width="0.53136" stroke-linecap="round"/><path d="M230.10732,187.10188l7.48836,4.31534l1.57199,11.60915z" data-paper-data="{&quot;index&quot;:null}" id="ID0.2536769728176296" fill="#999999" stroke="none" stroke-width="0.53136" stroke-linecap="round"/></g></g></g></svg>