<svg version="1.1" xmlns="http://www.w3.org/2000/svg" xmlns:xlink="http://www.w3.org/1999/xlink" width="483" height="362" viewBox="0,0,483,362"><defs><radialGradient cx="178.04447" cy="95.23854" r="11.10046" gradientUnits="userSpaceOnUse" id="color-1"><stop offset="0" stop-color="#7c7c69"/><stop offset="1" stop-color="#7c7c69" stop-opacity="0"/></radialGradient><radialGradient cx="216.75732" cy="86.21942" r="14.29185" gradientUnits="userSpaceOnUse" id="color-2"><stop offset="0" stop-color="#7c7c69"/><stop offset="1" stop-color="#7c7c69" stop-opacity="0"/></radialGradient><radialGradient cx="212.45589" cy="138.53033" r="11.10046" gradientUnits="userSpaceOnUse" id="color-3"><stop offset="0" stop-color="#7c7c69"/><stop offset="1" stop-color="#7c7c69" stop-opacity="0"/></radialGradient><radialGradient cx="172.49424" cy="141.86047" r="11.10046" gradientUnits="userSpaceOnUse" id="color-4"><stop offset="0" stop-color="#7c7c69"/><stop offset="1" stop-color="#7c7c69" stop-opacity="0"/></radialGradient><radialGradient cx="195.66644" cy="197.50152" r="15.6794" gradientUnits="userSpaceOnUse" id="color-5"><stop offset="0" stop-color="#7c7c69"/><stop offset="1" stop-color="#7c7c69" stop-opacity="0"/></radialGradient><radialGradient cx="221.33626" cy="161.8413" r="11.10046" gradientUnits="userSpaceOnUse" id="color-6"><stop offset="0" stop-color="#7c7c69"/><stop offset="1" stop-color="#7c7c69" stop-opacity="0"/></radialGradient><radialGradient cx="170.96792" cy="190.56373" r="16.23442" gradientUnits="userSpaceOnUse" id="color-7"><stop offset="0" stop-color="#7c7c69"/><stop offset="1" stop-color="#7c7c69" stop-opacity="0"/></radialGradient><radialGradient cx="171.38419" cy="222.89382" r="11.10046" gradientUnits="userSpaceOnUse" id="color-8"><stop offset="0" stop-color="#7c7c69"/><stop offset="1" stop-color="#7c7c69" stop-opacity="0"/></radialGradient><radialGradient cx="211.34585" cy="233.99428" r="11.10045" gradientUnits="userSpaceOnUse" id="color-9"><stop offset="0" stop-color="#7c7c69"/><stop offset="1" stop-color="#7c7c69" stop-opacity="0"/></radialGradient><radialGradient cx="219.25491" cy="267.98943" r="22.89469" gradientUnits="userSpaceOnUse" id="color-10"><stop offset="0" stop-color="#7c7c69"/><stop offset="1" stop-color="#7c7c69" stop-opacity="0"/></radialGradient><radialGradient cx="172.49424" cy="268.40569" r="11.10046" gradientUnits="userSpaceOnUse" id="color-11"><stop offset="0" stop-color="#7c7c69"/><stop offset="1" stop-color="#7c7c69" stop-opacity="0"/></radialGradient><radialGradient cx="204.68557" cy="262.85546" r="11.10046" gradientUnits="userSpaceOnUse" id="color-12"><stop offset="0" stop-color="#7c7c69"/><stop offset="1" stop-color="#7c7c69" stop-opacity="0"/></radialGradient><radialGradient cx="184.70474" cy="246.20478" r="11.10046" gradientUnits="userSpaceOnUse" id="color-13"><stop offset="0" stop-color="#7c7c69"/><stop offset="1" stop-color="#7c7c69" stop-opacity="0"/></radialGradient><radialGradient cx="219.94868" cy="221.22875" r="11.10046" gradientUnits="userSpaceOnUse" id="color-14"><stop offset="0" stop-color="#7c7c69"/><stop offset="1" stop-color="#7c7c69" stop-opacity="0"/></radialGradient><radialGradient cx="205.79562" cy="221.50626" r="11.10046" gradientUnits="userSpaceOnUse" id="color-15"><stop offset="0" stop-color="#7c7c69"/><stop offset="1" stop-color="#7c7c69" stop-opacity="0"/></radialGradient><radialGradient cx="185.95355" cy="210.26705" r="16.23442" gradientUnits="userSpaceOnUse" id="color-16"><stop offset="0" stop-color="#7c7c69"/><stop offset="1" stop-color="#7c7c69" stop-opacity="0"/></radialGradient><radialGradient cx="192.6138" cy="229.69285" r="19.28704" gradientUnits="userSpaceOnUse" id="color-17"><stop offset="0" stop-color="#7c7c69"/><stop offset="1" stop-color="#7c7c69" stop-opacity="0"/></radialGradient><radialGradient cx="207.18317" cy="207.07566" r="11.10046" gradientUnits="userSpaceOnUse" id="color-18"><stop offset="0" stop-color="#7c7c69"/><stop offset="1" stop-color="#7c7c69" stop-opacity="0"/></radialGradient><radialGradient cx="225.49891" cy="189.59244" r="15.54064" gradientUnits="userSpaceOnUse" id="color-19"><stop offset="0" stop-color="#7c7c69"/><stop offset="1" stop-color="#7c7c69" stop-opacity="0"/></radialGradient><radialGradient cx="205.93435" cy="188.34364" r="20.95211" gradientUnits="userSpaceOnUse" id="color-20"><stop offset="0" stop-color="#7c7c69"/><stop offset="1" stop-color="#7c7c69" stop-opacity="0"/></radialGradient><radialGradient cx="166.11146" cy="237.32441" r="11.10046" gradientUnits="userSpaceOnUse" id="color-21"><stop offset="0" stop-color="#7c7c69"/><stop offset="1" stop-color="#7c7c69" stop-opacity="0"/></radialGradient><radialGradient cx="170.27415" cy="248.70238" r="11.10046" gradientUnits="userSpaceOnUse" id="color-22"><stop offset="0" stop-color="#7c7c69"/><stop offset="1" stop-color="#7c7c69" stop-opacity="0"/></radialGradient><radialGradient cx="205.24058" cy="245.37225" r="16.09566" gradientUnits="userSpaceOnUse" id="color-23"><stop offset="0" stop-color="#7c7c69"/><stop offset="1" stop-color="#7c7c69" stop-opacity="0"/></radialGradient><radialGradient cx="222.4463" cy="247.03732" r="11.10046" gradientUnits="userSpaceOnUse" id="color-24"><stop offset="0" stop-color="#7c7c69"/><stop offset="1" stop-color="#7c7c69" stop-opacity="0"/></radialGradient><radialGradient cx="206.07313" cy="252.03252" r="14.15308" gradientUnits="userSpaceOnUse" id="color-25"><stop offset="0" stop-color="#7c7c69"/><stop offset="1" stop-color="#7c7c69" stop-opacity="0"/></radialGradient><radialGradient cx="182.20714" cy="262.30045" r="11.10046" gradientUnits="userSpaceOnUse" id="color-26"><stop offset="0" stop-color="#7c7c69"/><stop offset="1" stop-color="#7c7c69" stop-opacity="0"/></radialGradient><radialGradient cx="184.70474" cy="269.51574" r="11.10046" gradientUnits="userSpaceOnUse" id="color-27"><stop offset="0" stop-color="#7c7c69"/><stop offset="1" stop-color="#7c7c69" stop-opacity="0"/></radialGradient><radialGradient cx="189.14493" cy="274.51095" r="11.10046" gradientUnits="userSpaceOnUse" id="color-28"><stop offset="0" stop-color="#7c7c69"/><stop offset="1" stop-color="#7c7c69" stop-opacity="0"/></radialGradient><radialGradient cx="194.55639" cy="88.99454" r="17.06696" gradientUnits="userSpaceOnUse" id="color-29"><stop offset="0" stop-color="#7c7c69"/><stop offset="1" stop-color="#7c7c69" stop-opacity="0"/></radialGradient><radialGradient cx="221.29" cy="116.93069" r="22.24718" gradientUnits="userSpaceOnUse" id="color-30"><stop offset="0" stop-color="#7c7c69"/><stop offset="1" stop-color="#7c7c69" stop-opacity="0"/></radialGradient><radialGradient cx="227.99653" cy="95.51605" r="23.58848" gradientUnits="userSpaceOnUse" id="color-31"><stop offset="0" stop-color="#7c7c69"/><stop offset="1" stop-color="#7c7c69" stop-opacity="0"/></radialGradient><radialGradient cx="206.90566" cy="98.01366" r="11.10046" gradientUnits="userSpaceOnUse" id="color-32"><stop offset="0" stop-color="#7c7c69"/><stop offset="1" stop-color="#7c7c69" stop-opacity="0"/></radialGradient><radialGradient cx="169.30286" cy="90.10458" r="17.89949" gradientUnits="userSpaceOnUse" id="color-33"><stop offset="0" stop-color="#7c7c69"/><stop offset="1" stop-color="#7c7c69" stop-opacity="0"/></radialGradient><radialGradient cx="171.10668" cy="83.02804" r="11.10046" gradientUnits="userSpaceOnUse" id="color-34"><stop offset="0" stop-color="#7c7c69"/><stop offset="1" stop-color="#7c7c69" stop-opacity="0"/></radialGradient><radialGradient cx="187.3411" cy="93.71223" r="21.50714" gradientUnits="userSpaceOnUse" id="color-35"><stop offset="0" stop-color="#7c7c69"/><stop offset="1" stop-color="#7c7c69" stop-opacity="0"/></radialGradient><radialGradient cx="226.60896" cy="108.00407" r="18.59327" gradientUnits="userSpaceOnUse" id="color-36"><stop offset="0" stop-color="#7c7c69"/><stop offset="1" stop-color="#7c7c69" stop-opacity="0"/></radialGradient><radialGradient cx="193.4001" cy="106.4315" r="20.90586" gradientUnits="userSpaceOnUse" id="color-37"><stop offset="0" stop-color="#7c7c69"/><stop offset="1" stop-color="#7c7c69" stop-opacity="0"/></radialGradient><radialGradient cx="176.93442" cy="121.87964" r="22.20092" gradientUnits="userSpaceOnUse" id="color-38"><stop offset="0" stop-color="#7c7c69"/><stop offset="1" stop-color="#7c7c69" stop-opacity="0"/></radialGradient><radialGradient cx="192.19755" cy="116.32941" r="16.37318" gradientUnits="userSpaceOnUse" id="color-39"><stop offset="0" stop-color="#7c7c69"/><stop offset="1" stop-color="#7c7c69" stop-opacity="0"/></radialGradient><radialGradient cx="210.65207" cy="113.97057" r="19.00954" gradientUnits="userSpaceOnUse" id="color-40"><stop offset="0" stop-color="#7c7c69"/><stop offset="1" stop-color="#7c7c69" stop-opacity="0"/></radialGradient><radialGradient cx="178.18323" cy="128.40116" r="14.84686" gradientUnits="userSpaceOnUse" id="color-41"><stop offset="0" stop-color="#7c7c69"/><stop offset="1" stop-color="#7c7c69" stop-opacity="0"/></radialGradient><radialGradient cx="164.0301" cy="127.29112" r="13.45931" gradientUnits="userSpaceOnUse" id="color-42"><stop offset="0" stop-color="#7c7c69"/><stop offset="1" stop-color="#7c7c69" stop-opacity="0"/></radialGradient><radialGradient cx="178.32197" cy="135.75522" r="11.10045" gradientUnits="userSpaceOnUse" id="color-43"><stop offset="0" stop-color="#7c7c69"/><stop offset="1" stop-color="#7c7c69" stop-opacity="0"/></radialGradient><radialGradient cx="188.03488" cy="144.08056" r="11.10046" gradientUnits="userSpaceOnUse" id="color-44"><stop offset="0" stop-color="#7c7c69"/><stop offset="1" stop-color="#7c7c69" stop-opacity="0"/></radialGradient><radialGradient cx="198.71907" cy="155.8748" r="16.23442" gradientUnits="userSpaceOnUse" id="color-45"><stop offset="0" stop-color="#7c7c69"/><stop offset="1" stop-color="#7c7c69" stop-opacity="0"/></radialGradient><radialGradient cx="192.3363" cy="132.84134" r="19.56455" gradientUnits="userSpaceOnUse" id="color-46"><stop offset="0" stop-color="#7c7c69"/><stop offset="1" stop-color="#7c7c69" stop-opacity="0"/></radialGradient><radialGradient cx="218.23737" cy="146.06939" r="26.13233" gradientUnits="userSpaceOnUse" id="color-47"><stop offset="0" stop-color="#7c7c69"/><stop offset="1" stop-color="#7c7c69" stop-opacity="0"/></radialGradient><radialGradient cx="232.71423" cy="128.26241" r="20.53585" gradientUnits="userSpaceOnUse" id="color-48"><stop offset="0" stop-color="#7c7c69"/><stop offset="1" stop-color="#7c7c69" stop-opacity="0"/></radialGradient><radialGradient cx="231.74292" cy="150.60208" r="17.62198" gradientUnits="userSpaceOnUse" id="color-49"><stop offset="0" stop-color="#7c7c69"/><stop offset="1" stop-color="#7c7c69" stop-opacity="0"/></radialGradient><radialGradient cx="229.10658" cy="163.50636" r="22.20092" gradientUnits="userSpaceOnUse" id="color-50"><stop offset="0" stop-color="#7c7c69"/><stop offset="1" stop-color="#7c7c69" stop-opacity="0"/></radialGradient><radialGradient cx="182.90092" cy="166.69775" r="15.40188" gradientUnits="userSpaceOnUse" id="color-51"><stop offset="0" stop-color="#7c7c69"/><stop offset="1" stop-color="#7c7c69" stop-opacity="0"/></radialGradient><radialGradient cx="170.82915" cy="142.693" r="19.98083" gradientUnits="userSpaceOnUse" id="color-52"><stop offset="0" stop-color="#7c7c69"/><stop offset="1" stop-color="#7c7c69" stop-opacity="0"/></radialGradient><radialGradient cx="166.25019" cy="160.31498" r="15.6794" gradientUnits="userSpaceOnUse" id="color-53"><stop offset="0" stop-color="#7c7c69"/><stop offset="1" stop-color="#7c7c69" stop-opacity="0"/></radialGradient><radialGradient cx="172.07797" cy="171.97046" r="19.56456" gradientUnits="userSpaceOnUse" id="color-54"><stop offset="0" stop-color="#7c7c69"/><stop offset="1" stop-color="#7c7c69" stop-opacity="0"/></radialGradient><radialGradient cx="174.57556" cy="154.48724" r="18.73202" gradientUnits="userSpaceOnUse" id="color-55"><stop offset="0" stop-color="#7c7c69"/><stop offset="1" stop-color="#7c7c69" stop-opacity="0"/></radialGradient><radialGradient cx="190.39371" cy="179.18576" r="23.17221" gradientUnits="userSpaceOnUse" id="color-56"><stop offset="0" stop-color="#7c7c69"/><stop offset="1" stop-color="#7c7c69" stop-opacity="0"/></radialGradient><radialGradient cx="202.88175" cy="169.47286" r="17.06696" gradientUnits="userSpaceOnUse" id="color-57"><stop offset="0" stop-color="#7c7c69"/><stop offset="1" stop-color="#7c7c69" stop-opacity="0"/></radialGradient><radialGradient cx="214.81472" cy="181.12834" r="25.11479" gradientUnits="userSpaceOnUse" id="color-58"><stop offset="0" stop-color="#7c7c69"/><stop offset="1" stop-color="#7c7c69" stop-opacity="0"/></radialGradient><radialGradient cx="206.90566" cy="215.67852" r="21.36839" gradientUnits="userSpaceOnUse" id="color-59"><stop offset="0" stop-color="#7c7c69"/><stop offset="1" stop-color="#7c7c69" stop-opacity="0"/></radialGradient><radialGradient cx="230.9104" cy="213.8747" r="20.3971" gradientUnits="userSpaceOnUse" id="color-60"><stop offset="0" stop-color="#7c7c69"/><stop offset="1" stop-color="#7c7c69" stop-opacity="0"/></radialGradient><radialGradient cx="226.33146" cy="233.16174" r="24.1435" gradientUnits="userSpaceOnUse" id="color-61"><stop offset="0" stop-color="#7c7c69"/><stop offset="1" stop-color="#7c7c69" stop-opacity="0"/></radialGradient><radialGradient cx="173.60429" cy="199.86037" r="21.64589" gradientUnits="userSpaceOnUse" id="color-62"><stop offset="0" stop-color="#7c7c69"/><stop offset="1" stop-color="#7c7c69" stop-opacity="0"/></radialGradient><radialGradient cx="169.58037" cy="219.97995" r="19.00954" gradientUnits="userSpaceOnUse" id="color-63"><stop offset="0" stop-color="#7c7c69"/><stop offset="1" stop-color="#7c7c69" stop-opacity="0"/></radialGradient><radialGradient cx="176.10188" cy="225.11391" r="24.42101" gradientUnits="userSpaceOnUse" id="color-64"><stop offset="0" stop-color="#7c7c69"/><stop offset="1" stop-color="#7c7c69" stop-opacity="0"/></radialGradient><radialGradient cx="172.49424" cy="247.03732" r="22.20092" gradientUnits="userSpaceOnUse" id="color-65"><stop offset="0" stop-color="#7c7c69"/><stop offset="1" stop-color="#7c7c69" stop-opacity="0"/></radialGradient><radialGradient cx="174.15929" cy="268.40569" r="23.03346" gradientUnits="userSpaceOnUse" id="color-66"><stop offset="0" stop-color="#7c7c69"/><stop offset="1" stop-color="#7c7c69" stop-opacity="0"/></radialGradient><radialGradient cx="179.43202" cy="273.67841" r="17.48322" gradientUnits="userSpaceOnUse" id="color-67"><stop offset="0" stop-color="#7c7c69"/><stop offset="1" stop-color="#7c7c69" stop-opacity="0"/></radialGradient><radialGradient cx="192.6138" cy="272.98464" r="18.73202" gradientUnits="userSpaceOnUse" id="color-68"><stop offset="0" stop-color="#7c7c69"/><stop offset="1" stop-color="#7c7c69" stop-opacity="0"/></radialGradient><radialGradient cx="224.94391" cy="268.96072" r="21.92341" gradientUnits="userSpaceOnUse" id="color-69"><stop offset="0" stop-color="#7c7c69"/><stop offset="1" stop-color="#7c7c69" stop-opacity="0"/></radialGradient><radialGradient cx="228.32028" cy="250.96873" r="22.15467" gradientUnits="userSpaceOnUse" id="color-70"><stop offset="0" stop-color="#7c7c69"/><stop offset="1" stop-color="#7c7c69" stop-opacity="0"/></radialGradient><radialGradient cx="192.75258" cy="243.98469" r="22.20092" gradientUnits="userSpaceOnUse" id="color-71"><stop offset="0" stop-color="#7c7c69"/><stop offset="1" stop-color="#7c7c69" stop-opacity="0"/></radialGradient><radialGradient cx="301.95563" cy="95.23854" r="11.10046" gradientUnits="userSpaceOnUse" id="color-72"><stop offset="0" stop-color="#7c7c69"/><stop offset="1" stop-color="#7c7c69" stop-opacity="0"/></radialGradient><radialGradient cx="263.24278" cy="86.21942" r="14.29185" gradientUnits="userSpaceOnUse" id="color-73"><stop offset="0" stop-color="#7c7c69"/><stop offset="1" stop-color="#7c7c69" stop-opacity="0"/></radialGradient><radialGradient cx="267.5442" cy="138.53033" r="11.10046" gradientUnits="userSpaceOnUse" id="color-74"><stop offset="0" stop-color="#7c7c69"/><stop offset="1" stop-color="#7c7c69" stop-opacity="0"/></radialGradient><radialGradient cx="307.50586" cy="141.86047" r="11.10046" gradientUnits="userSpaceOnUse" id="color-75"><stop offset="0" stop-color="#7c7c69"/><stop offset="1" stop-color="#7c7c69" stop-opacity="0"/></radialGradient><radialGradient cx="284.33367" cy="197.50152" r="15.6794" gradientUnits="userSpaceOnUse" id="color-76"><stop offset="0" stop-color="#7c7c69"/><stop offset="1" stop-color="#7c7c69" stop-opacity="0"/></radialGradient><radialGradient cx="258.66382" cy="161.8413" r="11.10046" gradientUnits="userSpaceOnUse" id="color-77"><stop offset="0" stop-color="#7c7c69"/><stop offset="1" stop-color="#7c7c69" stop-opacity="0"/></radialGradient><radialGradient cx="309.03218" cy="190.56373" r="16.23442" gradientUnits="userSpaceOnUse" id="color-78"><stop offset="0" stop-color="#7c7c69"/><stop offset="1" stop-color="#7c7c69" stop-opacity="0"/></radialGradient><radialGradient cx="308.61591" cy="222.89382" r="11.10046" gradientUnits="userSpaceOnUse" id="color-79"><stop offset="0" stop-color="#7c7c69"/><stop offset="1" stop-color="#7c7c69" stop-opacity="0"/></radialGradient><radialGradient cx="268.65425" cy="233.99428" r="11.10046" gradientUnits="userSpaceOnUse" id="color-80"><stop offset="0" stop-color="#7c7c69"/><stop offset="1" stop-color="#7c7c69" stop-opacity="0"/></radialGradient><radialGradient cx="260.74514" cy="267.98943" r="22.89469" gradientUnits="userSpaceOnUse" id="color-81"><stop offset="0" stop-color="#7c7c69"/><stop offset="1" stop-color="#7c7c69" stop-opacity="0"/></radialGradient><radialGradient cx="307.50586" cy="268.40569" r="11.10046" gradientUnits="userSpaceOnUse" id="color-82"><stop offset="0" stop-color="#7c7c69"/><stop offset="1" stop-color="#7c7c69" stop-opacity="0"/></radialGradient><radialGradient cx="275.31452" cy="262.85546" r="11.10045" gradientUnits="userSpaceOnUse" id="color-83"><stop offset="0" stop-color="#7c7c69"/><stop offset="1" stop-color="#7c7c69" stop-opacity="0"/></radialGradient><radialGradient cx="295.29535" cy="246.20478" r="11.10046" gradientUnits="userSpaceOnUse" id="color-84"><stop offset="0" stop-color="#7c7c69"/><stop offset="1" stop-color="#7c7c69" stop-opacity="0"/></radialGradient><radialGradient cx="260.05137" cy="221.22875" r="11.10046" gradientUnits="userSpaceOnUse" id="color-85"><stop offset="0" stop-color="#7c7c69"/><stop offset="1" stop-color="#7c7c69" stop-opacity="0"/></radialGradient><radialGradient cx="274.20448" cy="221.50626" r="11.10046" gradientUnits="userSpaceOnUse" id="color-86"><stop offset="0" stop-color="#7c7c69"/><stop offset="1" stop-color="#7c7c69" stop-opacity="0"/></radialGradient><radialGradient cx="294.04652" cy="210.26705" r="16.23442" gradientUnits="userSpaceOnUse" id="color-87"><stop offset="0" stop-color="#7c7c69"/><stop offset="1" stop-color="#7c7c69" stop-opacity="0"/></radialGradient><radialGradient cx="287.38625" cy="229.69285" r="19.28704" gradientUnits="userSpaceOnUse" id="color-88"><stop offset="0" stop-color="#7c7c69"/><stop offset="1" stop-color="#7c7c69" stop-opacity="0"/></radialGradient><radialGradient cx="272.81692" cy="207.07566" r="11.10046" gradientUnits="userSpaceOnUse" id="color-89"><stop offset="0" stop-color="#7c7c69"/><stop offset="1" stop-color="#7c7c69" stop-opacity="0"/></radialGradient><radialGradient cx="254.50116" cy="189.59244" r="15.54064" gradientUnits="userSpaceOnUse" id="color-90"><stop offset="0" stop-color="#7c7c69"/><stop offset="1" stop-color="#7c7c69" stop-opacity="0"/></radialGradient><radialGradient cx="274.0657" cy="188.34364" r="20.95212" gradientUnits="userSpaceOnUse" id="color-91"><stop offset="0" stop-color="#7c7c69"/><stop offset="1" stop-color="#7c7c69" stop-opacity="0"/></radialGradient><radialGradient cx="313.88859" cy="237.32441" r="11.10046" gradientUnits="userSpaceOnUse" id="color-92"><stop offset="0" stop-color="#7c7c69"/><stop offset="1" stop-color="#7c7c69" stop-opacity="0"/></radialGradient><radialGradient cx="309.72596" cy="248.70238" r="11.10046" gradientUnits="userSpaceOnUse" id="color-93"><stop offset="0" stop-color="#7c7c69"/><stop offset="1" stop-color="#7c7c69" stop-opacity="0"/></radialGradient><radialGradient cx="274.75951" cy="245.37225" r="16.09566" gradientUnits="userSpaceOnUse" id="color-94"><stop offset="0" stop-color="#7c7c69"/><stop offset="1" stop-color="#7c7c69" stop-opacity="0"/></radialGradient><radialGradient cx="257.55377" cy="247.03732" r="11.10046" gradientUnits="userSpaceOnUse" id="color-95"><stop offset="0" stop-color="#7c7c69"/><stop offset="1" stop-color="#7c7c69" stop-opacity="0"/></radialGradient><radialGradient cx="273.92697" cy="252.03252" r="14.15309" gradientUnits="userSpaceOnUse" id="color-96"><stop offset="0" stop-color="#7c7c69"/><stop offset="1" stop-color="#7c7c69" stop-opacity="0"/></radialGradient><radialGradient cx="297.79295" cy="262.30045" r="11.10046" gradientUnits="userSpaceOnUse" id="color-97"><stop offset="0" stop-color="#7c7c69"/><stop offset="1" stop-color="#7c7c69" stop-opacity="0"/></radialGradient><radialGradient cx="295.29535" cy="269.51574" r="11.10046" gradientUnits="userSpaceOnUse" id="color-98"><stop offset="0" stop-color="#7c7c69"/><stop offset="1" stop-color="#7c7c69" stop-opacity="0"/></radialGradient><radialGradient cx="290.85517" cy="274.51095" r="11.10046" gradientUnits="userSpaceOnUse" id="color-99"><stop offset="0" stop-color="#7c7c69"/><stop offset="1" stop-color="#7c7c69" stop-opacity="0"/></radialGradient><radialGradient cx="285.4437" cy="88.99454" r="17.06696" gradientUnits="userSpaceOnUse" id="color-100"><stop offset="0" stop-color="#7c7c69"/><stop offset="1" stop-color="#7c7c69" stop-opacity="0"/></radialGradient><radialGradient cx="258.71009" cy="116.93069" r="22.24718" gradientUnits="userSpaceOnUse" id="color-101"><stop offset="0" stop-color="#7c7c69"/><stop offset="1" stop-color="#7c7c69" stop-opacity="0"/></radialGradient><radialGradient cx="252.00356" cy="95.51605" r="23.58848" gradientUnits="userSpaceOnUse" id="color-102"><stop offset="0" stop-color="#7c7c69"/><stop offset="1" stop-color="#7c7c69" stop-opacity="0"/></radialGradient><radialGradient cx="273.09443" cy="98.01366" r="11.10046" gradientUnits="userSpaceOnUse" id="color-103"><stop offset="0" stop-color="#7c7c69"/><stop offset="1" stop-color="#7c7c69" stop-opacity="0"/></radialGradient><radialGradient cx="310.69723" cy="90.10458" r="17.89949" gradientUnits="userSpaceOnUse" id="color-104"><stop offset="0" stop-color="#7c7c69"/><stop offset="1" stop-color="#7c7c69" stop-opacity="0"/></radialGradient><radialGradient cx="308.89341" cy="83.02804" r="11.10046" gradientUnits="userSpaceOnUse" id="color-105"><stop offset="0" stop-color="#7c7c69"/><stop offset="1" stop-color="#7c7c69" stop-opacity="0"/></radialGradient><radialGradient cx="292.65899" cy="93.71223" r="21.50714" gradientUnits="userSpaceOnUse" id="color-106"><stop offset="0" stop-color="#7c7c69"/><stop offset="1" stop-color="#7c7c69" stop-opacity="0"/></radialGradient><radialGradient cx="253.39114" cy="108.00407" r="18.59327" gradientUnits="userSpaceOnUse" id="color-107"><stop offset="0" stop-color="#7c7c69"/><stop offset="1" stop-color="#7c7c69" stop-opacity="0"/></radialGradient><radialGradient cx="286.59997" cy="106.4315" r="20.90586" gradientUnits="userSpaceOnUse" id="color-108"><stop offset="0" stop-color="#7c7c69"/><stop offset="1" stop-color="#7c7c69" stop-opacity="0"/></radialGradient><radialGradient cx="303.06568" cy="121.87964" r="22.20092" gradientUnits="userSpaceOnUse" id="color-109"><stop offset="0" stop-color="#7c7c69"/><stop offset="1" stop-color="#7c7c69" stop-opacity="0"/></radialGradient><radialGradient cx="287.80254" cy="116.32941" r="16.37318" gradientUnits="userSpaceOnUse" id="color-110"><stop offset="0" stop-color="#7c7c69"/><stop offset="1" stop-color="#7c7c69" stop-opacity="0"/></radialGradient><radialGradient cx="269.34802" cy="113.97057" r="19.00954" gradientUnits="userSpaceOnUse" id="color-111"><stop offset="0" stop-color="#7c7c69"/><stop offset="1" stop-color="#7c7c69" stop-opacity="0"/></radialGradient><radialGradient cx="301.81686" cy="128.40116" r="14.84686" gradientUnits="userSpaceOnUse" id="color-112"><stop offset="0" stop-color="#7c7c69"/><stop offset="1" stop-color="#7c7c69" stop-opacity="0"/></radialGradient><radialGradient cx="315.96995" cy="127.29112" r="13.45931" gradientUnits="userSpaceOnUse" id="color-113"><stop offset="0" stop-color="#7c7c69"/><stop offset="1" stop-color="#7c7c69" stop-opacity="0"/></radialGradient><radialGradient cx="301.67812" cy="135.75522" r="11.10046" gradientUnits="userSpaceOnUse" id="color-114"><stop offset="0" stop-color="#7c7c69"/><stop offset="1" stop-color="#7c7c69" stop-opacity="0"/></radialGradient><radialGradient cx="291.96522" cy="144.08056" r="11.10046" gradientUnits="userSpaceOnUse" id="color-115"><stop offset="0" stop-color="#7c7c69"/><stop offset="1" stop-color="#7c7c69" stop-opacity="0"/></radialGradient><radialGradient cx="281.28103" cy="155.8748" r="16.23442" gradientUnits="userSpaceOnUse" id="color-116"><stop offset="0" stop-color="#7c7c69"/><stop offset="1" stop-color="#7c7c69" stop-opacity="0"/></radialGradient><radialGradient cx="287.66376" cy="132.84134" r="19.56455" gradientUnits="userSpaceOnUse" id="color-117"><stop offset="0" stop-color="#7c7c69"/><stop offset="1" stop-color="#7c7c69" stop-opacity="0"/></radialGradient><radialGradient cx="261.76269" cy="146.06939" r="26.13233" gradientUnits="userSpaceOnUse" id="color-118"><stop offset="0" stop-color="#7c7c69"/><stop offset="1" stop-color="#7c7c69" stop-opacity="0"/></radialGradient><radialGradient cx="247.28589" cy="128.26241" r="20.53585" gradientUnits="userSpaceOnUse" id="color-119"><stop offset="0" stop-color="#7c7c69"/><stop offset="1" stop-color="#7c7c69" stop-opacity="0"/></radialGradient><radialGradient cx="248.25716" cy="150.60208" r="17.62198" gradientUnits="userSpaceOnUse" id="color-120"><stop offset="0" stop-color="#7c7c69"/><stop offset="1" stop-color="#7c7c69" stop-opacity="0"/></radialGradient><radialGradient cx="250.89352" cy="163.50636" r="22.20092" gradientUnits="userSpaceOnUse" id="color-121"><stop offset="0" stop-color="#7c7c69"/><stop offset="1" stop-color="#7c7c69" stop-opacity="0"/></radialGradient><radialGradient cx="297.09918" cy="166.69775" r="15.40188" gradientUnits="userSpaceOnUse" id="color-122"><stop offset="0" stop-color="#7c7c69"/><stop offset="1" stop-color="#7c7c69" stop-opacity="0"/></radialGradient><radialGradient cx="309.17089" cy="142.693" r="19.98082" gradientUnits="userSpaceOnUse" id="color-123"><stop offset="0" stop-color="#7c7c69"/><stop offset="1" stop-color="#7c7c69" stop-opacity="0"/></radialGradient><radialGradient cx="313.74987" cy="160.31498" r="15.6794" gradientUnits="userSpaceOnUse" id="color-124"><stop offset="0" stop-color="#7c7c69"/><stop offset="1" stop-color="#7c7c69" stop-opacity="0"/></radialGradient><radialGradient cx="307.92213" cy="171.97046" r="19.56456" gradientUnits="userSpaceOnUse" id="color-125"><stop offset="0" stop-color="#7c7c69"/><stop offset="1" stop-color="#7c7c69" stop-opacity="0"/></radialGradient><radialGradient cx="305.42449" cy="154.48724" r="18.73203" gradientUnits="userSpaceOnUse" id="color-126"><stop offset="0" stop-color="#7c7c69"/><stop offset="1" stop-color="#7c7c69" stop-opacity="0"/></radialGradient><radialGradient cx="289.60635" cy="179.18576" r="23.17221" gradientUnits="userSpaceOnUse" id="color-127"><stop offset="0" stop-color="#7c7c69"/><stop offset="1" stop-color="#7c7c69" stop-opacity="0"/></radialGradient><radialGradient cx="277.11834" cy="169.47286" r="17.06696" gradientUnits="userSpaceOnUse" id="color-128"><stop offset="0" stop-color="#7c7c69"/><stop offset="1" stop-color="#7c7c69" stop-opacity="0"/></radialGradient><radialGradient cx="265.18533" cy="181.12834" r="25.11479" gradientUnits="userSpaceOnUse" id="color-129"><stop offset="0" stop-color="#7c7c69"/><stop offset="1" stop-color="#7c7c69" stop-opacity="0"/></radialGradient><radialGradient cx="273.09443" cy="215.67852" r="21.36839" gradientUnits="userSpaceOnUse" id="color-130"><stop offset="0" stop-color="#7c7c69"/><stop offset="1" stop-color="#7c7c69" stop-opacity="0"/></radialGradient><radialGradient cx="249.0897" cy="213.8747" r="20.3971" gradientUnits="userSpaceOnUse" id="color-131"><stop offset="0" stop-color="#7c7c69"/><stop offset="1" stop-color="#7c7c69" stop-opacity="0"/></radialGradient><radialGradient cx="253.66865" cy="233.16174" r="24.1435" gradientUnits="userSpaceOnUse" id="color-132"><stop offset="0" stop-color="#7c7c69"/><stop offset="1" stop-color="#7c7c69" stop-opacity="0"/></radialGradient><radialGradient cx="306.39581" cy="199.86037" r="21.64589" gradientUnits="userSpaceOnUse" id="color-133"><stop offset="0" stop-color="#7c7c69"/><stop offset="1" stop-color="#7c7c69" stop-opacity="0"/></radialGradient><radialGradient cx="310.41974" cy="219.97995" r="19.00954" gradientUnits="userSpaceOnUse" id="color-134"><stop offset="0" stop-color="#7c7c69"/><stop offset="1" stop-color="#7c7c69" stop-opacity="0"/></radialGradient><radialGradient cx="303.89818" cy="225.11391" r="24.42101" gradientUnits="userSpaceOnUse" id="color-135"><stop offset="0" stop-color="#7c7c69"/><stop offset="1" stop-color="#7c7c69" stop-opacity="0"/></radialGradient><radialGradient cx="307.50586" cy="247.03732" r="22.20092" gradientUnits="userSpaceOnUse" id="color-136"><stop offset="0" stop-color="#7c7c69"/><stop offset="1" stop-color="#7c7c69" stop-opacity="0"/></radialGradient><radialGradient cx="305.84077" cy="268.40569" r="23.03346" gradientUnits="userSpaceOnUse" id="color-137"><stop offset="0" stop-color="#7c7c69"/><stop offset="1" stop-color="#7c7c69" stop-opacity="0"/></radialGradient><radialGradient cx="300.56809" cy="273.67841" r="17.48322" gradientUnits="userSpaceOnUse" id="color-138"><stop offset="0" stop-color="#7c7c69"/><stop offset="1" stop-color="#7c7c69" stop-opacity="0"/></radialGradient><radialGradient cx="287.38625" cy="272.98464" r="18.73202" gradientUnits="userSpaceOnUse" id="color-139"><stop offset="0" stop-color="#7c7c69"/><stop offset="1" stop-color="#7c7c69" stop-opacity="0"/></radialGradient><radialGradient cx="255.05621" cy="268.96072" r="21.92341" gradientUnits="userSpaceOnUse" id="color-140"><stop offset="0" stop-color="#7c7c69"/><stop offset="1" stop-color="#7c7c69" stop-opacity="0"/></radialGradient><radialGradient cx="251.67979" cy="250.96873" r="22.15467" gradientUnits="userSpaceOnUse" id="color-141"><stop offset="0" stop-color="#7c7c69"/><stop offset="1" stop-color="#7c7c69" stop-opacity="0"/></radialGradient><radialGradient cx="287.24753" cy="243.98469" r="22.20092" gradientUnits="userSpaceOnUse" id="color-142"><stop offset="0" stop-color="#7c7c69"/><stop offset="1" stop-color="#7c7c69" stop-opacity="0"/></radialGradient><linearGradient x1="319.89189" y1="179.49091" x2="317.42251" y2="179.49091" gradientUnits="userSpaceOnUse" id="color-143"><stop offset="0" stop-color="#878771"/><stop offset="1" stop-color="#878771" stop-opacity="0"/></linearGradient><linearGradient x1="319.89189" y1="257.49091" x2="317.42251" y2="257.49091" gradientUnits="userSpaceOnUse" id="color-144"><stop offset="0" stop-color="#878771"/><stop offset="1" stop-color="#878771" stop-opacity="0"/></linearGradient><linearGradient x1="319.89189" y1="101.49091" x2="317.42251" y2="101.49091" gradientUnits="userSpaceOnUse" id="color-145"><stop offset="0" stop-color="#878771"/><stop offset="1" stop-color="#878771" stop-opacity="0"/></linearGradient><linearGradient x1="240.00013" y1="238.08898" x2="240.00013" y2="240.55833" gradientUnits="userSpaceOnUse" id="color-146"><stop offset="0" stop-color="#878771"/><stop offset="1" stop-color="#878771" stop-opacity="0"/></linearGradient><linearGradient x1="240.00013" y1="238.15833" x2="240.00013" y2="235.68898" gradientUnits="userSpaceOnUse" id="color-147"><stop offset="0" stop-color="#878771"/><stop offset="1" stop-color="#878771" stop-opacity="0"/></linearGradient><linearGradient x1="240.00013" y1="199.08898" x2="240.00013" y2="201.55833" gradientUnits="userSpaceOnUse" id="color-148"><stop offset="0" stop-color="#878771"/><stop offset="1" stop-color="#878771" stop-opacity="0"/></linearGradient><linearGradient x1="240.00013" y1="199.15833" x2="240.00013" y2="196.68898" gradientUnits="userSpaceOnUse" id="color-149"><stop offset="0" stop-color="#878771"/><stop offset="1" stop-color="#878771" stop-opacity="0"/></linearGradient><linearGradient x1="240.00013" y1="160.08898" x2="240.00013" y2="162.55833" gradientUnits="userSpaceOnUse" id="color-150"><stop offset="0" stop-color="#878771"/><stop offset="1" stop-color="#878771" stop-opacity="0"/></linearGradient><linearGradient x1="240.00013" y1="160.15833" x2="240.00013" y2="157.68898" gradientUnits="userSpaceOnUse" id="color-151"><stop offset="0" stop-color="#878771"/><stop offset="1" stop-color="#878771" stop-opacity="0"/></linearGradient><linearGradient x1="240.00013" y1="121.08898" x2="240.00013" y2="123.55833" gradientUnits="userSpaceOnUse" id="color-152"><stop offset="0" stop-color="#878771"/><stop offset="1" stop-color="#878771" stop-opacity="0"/></linearGradient><linearGradient x1="240.00013" y1="121.15833" x2="240.00013" y2="118.68898" gradientUnits="userSpaceOnUse" id="color-153"><stop offset="0" stop-color="#878771"/><stop offset="1" stop-color="#878771" stop-opacity="0"/></linearGradient><linearGradient x1="200.03478" y1="140.49091" x2="197.56544" y2="140.49091" gradientUnits="userSpaceOnUse" id="color-154"><stop offset="0" stop-color="#878771"/><stop offset="1" stop-color="#878771" stop-opacity="0"/></linearGradient><linearGradient x1="199.96542" y1="140.49091" x2="202.43478" y2="140.49091" gradientUnits="userSpaceOnUse" id="color-155"><stop offset="0" stop-color="#878771"/><stop offset="1" stop-color="#878771" stop-opacity="0"/></linearGradient><linearGradient x1="240.03478" y1="179.49091" x2="237.56542" y2="179.49091" gradientUnits="userSpaceOnUse" id="color-156"><stop offset="0" stop-color="#878771"/><stop offset="1" stop-color="#878771" stop-opacity="0"/></linearGradient><linearGradient x1="239.96543" y1="179.49091" x2="242.43478" y2="179.49091" gradientUnits="userSpaceOnUse" id="color-157"><stop offset="0" stop-color="#878771"/><stop offset="1" stop-color="#878771" stop-opacity="0"/></linearGradient><linearGradient x1="200.03478" y1="218.49091" x2="197.56542" y2="218.49091" gradientUnits="userSpaceOnUse" id="color-158"><stop offset="0" stop-color="#878771"/><stop offset="1" stop-color="#878771" stop-opacity="0"/></linearGradient><linearGradient x1="199.96543" y1="218.49091" x2="202.43478" y2="218.49091" gradientUnits="userSpaceOnUse" id="color-159"><stop offset="0" stop-color="#878771"/><stop offset="1" stop-color="#878771" stop-opacity="0"/></linearGradient><linearGradient x1="240.03478" y1="257.49091" x2="237.56542" y2="257.49091" gradientUnits="userSpaceOnUse" id="color-160"><stop offset="0" stop-color="#878771"/><stop offset="1" stop-color="#878771" stop-opacity="0"/></linearGradient><linearGradient x1="239.96543" y1="257.49091" x2="242.43478" y2="257.49091" gradientUnits="userSpaceOnUse" id="color-161"><stop offset="0" stop-color="#878771"/><stop offset="1" stop-color="#878771" stop-opacity="0"/></linearGradient><linearGradient x1="240.03478" y1="101.49091" x2="237.56542" y2="101.49091" gradientUnits="userSpaceOnUse" id="color-162"><stop offset="0" stop-color="#878771"/><stop offset="1" stop-color="#878771" stop-opacity="0"/></linearGradient><linearGradient x1="239.96542" y1="101.49091" x2="242.43477" y2="101.49091" gradientUnits="userSpaceOnUse" id="color-163"><stop offset="0" stop-color="#878771"/><stop offset="1" stop-color="#878771" stop-opacity="0"/></linearGradient><linearGradient x1="280.03471" y1="140.49091" x2="277.56534" y2="140.49091" gradientUnits="userSpaceOnUse" id="color-164"><stop offset="0" stop-color="#878771"/><stop offset="1" stop-color="#878771" stop-opacity="0"/></linearGradient><linearGradient x1="279.96541" y1="140.49091" x2="282.4347" y2="140.49091" gradientUnits="userSpaceOnUse" id="color-165"><stop offset="0" stop-color="#878771"/><stop offset="1" stop-color="#878771" stop-opacity="0"/></linearGradient><linearGradient x1="280.03471" y1="218.49091" x2="277.56533" y2="218.49091" gradientUnits="userSpaceOnUse" id="color-166"><stop offset="0" stop-color="#878771"/><stop offset="1" stop-color="#878771" stop-opacity="0"/></linearGradient><linearGradient x1="279.96541" y1="218.49091" x2="282.4347" y2="218.49091" gradientUnits="userSpaceOnUse" id="color-167"><stop offset="0" stop-color="#878771"/><stop offset="1" stop-color="#878771" stop-opacity="0"/></linearGradient><linearGradient x1="160.10818" y1="179.49091" x2="162.57755" y2="179.49091" gradientUnits="userSpaceOnUse" id="color-168"><stop offset="0" stop-color="#878771"/><stop offset="1" stop-color="#878771" stop-opacity="0"/></linearGradient><linearGradient x1="160.10818" y1="257.49091" x2="162.57755" y2="257.49091" gradientUnits="userSpaceOnUse" id="color-169"><stop offset="0" stop-color="#878771"/><stop offset="1" stop-color="#878771" stop-opacity="0"/></linearGradient><linearGradient x1="160.10818" y1="101.49091" x2="162.57755" y2="101.49091" gradientUnits="userSpaceOnUse" id="color-170"><stop offset="0" stop-color="#878771"/><stop offset="1" stop-color="#878771" stop-opacity="0"/></linearGradient><linearGradient x1="240" y1="-1" x2="240" y2="361" gradientUnits="userSpaceOnUse" id="color-171"><stop offset="0" stop-color="#000000" stop-opacity="0"/><stop offset="1" stop-color="#000000" stop-opacity="0"/></linearGradient></defs><g transform="translate(1.5,1)"><g data-paper-data="{&quot;isPaintingLayer&quot;:true}" fill-rule="nonzero" stroke="none" stroke-width="0" stroke-linecap="butt" stroke-linejoin="miter" stroke-miterlimit="10" stroke-dasharray="" stroke-dashoffset="0" style="mix-blend-mode: normal"><path d="M160.00001,279.55833c0,0 0,-170.07635 0,-191.40625c0,-4.28105 3.75787,-7.71041 8.1875,-7.71041c16.27212,0 115.26617,0 144,0c4.94795,0 7.8125,3.3678 7.8125,7.58541c0,21.19319 0,191.53125 0,191.53125z" fill="#80806b"/><g><path d="M166.94396,95.23854c0,-6.13062 4.96985,-11.10046 11.10046,-11.10046c6.13061,0 11.10046,4.96984 11.10046,11.10046c0,6.13062 -4.96985,11.10046 -11.10046,11.10046c-6.13061,0 -11.10046,-4.96984 -11.10046,-11.10046z" fill="url(#color-1)"/><path d="M202.46548,86.21942c0,-1.89581 0.36913,-3.7054 1.03943,-5.36083c8.82601,0.001 17.65221,-0.02869 26.47841,-0.06476c0.68701,1.67295 1.06584,3.50503 1.06584,5.42558c0,7.89317 -6.39869,14.29184 -14.29185,14.29184c-7.89316,0 -14.29184,-6.39867 -14.29184,-14.29184z" fill="url(#color-2)"/><path d="M201.35543,138.53033c0,-6.13061 4.96985,-11.10046 11.10046,-11.10046c6.13061,0 11.10046,4.96985 11.10046,11.10046c0,6.13061 -4.96985,11.10046 -11.10046,11.10046c-6.13061,0 -11.10046,-4.96985 -11.10046,-11.10046z" fill="url(#color-3)"/><path d="M161.39372,141.86047c0,-6.13061 4.96985,-11.10046 11.10046,-11.10046c6.13061,0 11.10046,4.96985 11.10046,11.10046c0,6.13061 -4.96985,11.10046 -11.10046,11.10046c-6.13061,0 -11.10046,-4.96985 -11.10046,-11.10046z" fill="url(#color-4)"/><path d="M179.98705,197.50152c0,-8.65949 7.01991,-15.67939 15.6794,-15.67939c8.65949,0 15.6794,7.0199 15.6794,15.6794c0,8.65949 -7.01991,15.6794 -15.6794,15.6794c-8.65949,0 -15.6794,-7.01991 -15.6794,-15.6794z" fill="url(#color-5)"/><path d="M210.2358,161.8413c0,-6.13061 4.96985,-11.10046 11.10046,-11.10046c6.13061,0 11.10046,4.96985 11.10046,11.10046c0,6.13061 -4.96985,11.10046 -11.10046,11.10046c-6.13061,0 -11.10046,-4.96985 -11.10046,-11.10046z" fill="url(#color-6)"/><path d="M170.96792,174.32931c8.96602,0 16.23442,7.2684 16.23442,16.23442c0,8.96602 -7.2684,16.23442 -16.23442,16.23442c-4.03682,0 -7.72952,-1.47339 -10.56965,-3.91175c0.00895,-7.12831 -0.06496,-14.25688 -0.21549,-21.38282c0.07507,-1.0735 0.1255,-2.14777 0.15195,-3.20768c2.84849,-2.47108 6.5662,-3.96659 10.63319,-3.96659z" fill="url(#color-7)"/><path d="M160.28368,222.89382c0,-6.13061 4.96985,-11.10046 11.10046,-11.10046c6.13061,0 11.10046,4.96985 11.10046,11.10046c0,6.13061 -4.96985,11.10046 -11.10046,11.10046c-6.13061,0 -11.10046,-4.96985 -11.10046,-11.10046z" fill="url(#color-8)"/><path d="M200.24539,233.99428c0,-6.13061 4.96985,-11.10046 11.10046,-11.10046c6.13061,0 11.10045,4.96985 11.10045,11.10046c0,6.13061 -4.96985,11.10046 -11.10045,11.10046c-6.13061,0 -11.10046,-4.96985 -11.10046,-11.10046z" fill="url(#color-9)"/><path d="M196.36021,267.98943c0,-12.64437 10.25032,-22.8947 22.8947,-22.8947c12.64437,0 22.89469,10.25032 22.89469,22.8947c0,4.28264 -1.17588,8.29062 -3.2224,11.71873c-4.80578,-0.0456 -9.61196,-0.06375 -14.4181,-0.05558c-1.21247,-0.14981 -2.32337,-0.22026 -3.13406,-0.22342c-7.34908,-0.02862 -14.69976,-0.138 -22.04936,-0.1625c-1.8877,-3.32878 -2.96547,-7.17714 -2.96547,-11.27724z" fill="url(#color-10)"/><path d="M161.39372,268.40569c0,-6.13061 4.96985,-11.10045 11.10046,-11.10045c6.13061,0 11.10046,4.96985 11.10046,11.10045c0,6.13061 -4.96985,11.10046 -11.10046,11.10046c-0.07738,0 -0.15457,-0.00079 -0.23158,-0.00237c-0.24248,-0.01287 -0.48492,-0.0257 -0.72733,-0.03847c-5.68166,-0.48614 -10.14155,-5.25205 -10.14155,-11.05962z" fill="url(#color-11)"/><path d="M193.58511,262.85546c0,-6.13061 4.96985,-11.10045 11.10046,-11.10045c6.13061,0 11.10046,4.96985 11.10046,11.10045c0,6.13061 -4.96985,11.10046 -11.10046,11.10046c-6.13061,0 -11.10046,-4.96985 -11.10046,-11.10046z" fill="url(#color-12)"/><path d="M173.60429,246.20478c0,-6.13061 4.96985,-11.10046 11.10045,-11.10046c6.13061,0 11.10046,4.96985 11.10046,11.10046c0,6.13061 -4.96985,11.10046 -11.10046,11.10046c-6.13061,0 -11.10045,-4.96986 -11.10045,-11.10046z" fill="url(#color-13)"/><path d="M208.84822,221.22875c0,-6.13061 4.96985,-11.10046 11.10046,-11.10046c6.13061,0 11.10046,4.96985 11.10046,11.10046c0,6.13061 -4.96985,11.10046 -11.10046,11.10046c-6.13061,0 -11.10046,-4.96985 -11.10046,-11.10046z" fill="url(#color-14)"/><path d="M194.69516,221.50626c0,-6.13061 4.96985,-11.10046 11.10046,-11.10046c6.13061,0 11.10046,4.96985 11.10046,11.10046c0,6.13061 -4.96985,11.10046 -11.10046,11.10046c-6.13061,0 -11.10046,-4.96985 -11.10046,-11.10046z" fill="url(#color-15)"/><path d="M169.71913,210.26705c0,-8.96602 7.2684,-16.23442 16.23442,-16.23442c8.96602,0 16.23442,7.2684 16.23442,16.23442c0,8.96602 -7.2684,16.23442 -16.23442,16.23442c-8.96602,0 -16.23442,-7.2684 -16.23442,-16.23442z" fill="url(#color-16)"/><path d="M173.32677,229.69285c0,-10.65194 8.63512,-19.28705 19.28705,-19.28705c10.65194,0 19.28704,8.63511 19.28704,19.28705c0,10.65194 -8.63511,19.28705 -19.28704,19.28705c-10.65194,0 -19.28705,-8.63511 -19.28705,-19.28705z" fill="url(#color-17)"/><path d="M196.08272,207.07566c0,-6.13061 4.96985,-11.10046 11.10046,-11.10046c6.13061,0 11.10046,4.96985 11.10046,11.10046c0,6.13061 -4.96985,11.10046 -11.10046,11.10046c-6.13061,0 -11.10046,-4.96985 -11.10046,-11.10046z" fill="url(#color-18)"/><path d="M209.95827,189.59244c0,-8.58286 6.95778,-15.54064 15.54065,-15.54064c8.58286,0 15.54064,6.95778 15.54064,15.54064c0,8.58286 -6.95777,15.54064 -15.54064,15.54064c-8.58286,0 -15.54065,-6.95777 -15.54065,-15.54064z" fill="url(#color-19)"/><path d="M184.98225,188.34364c0,-11.57153 9.38059,-20.95212 20.95212,-20.95212c11.57153,0 20.95211,9.38059 20.95211,20.95212c0,11.57153 -9.38058,20.95212 -20.95211,20.95212c-11.57153,0 -20.95212,-9.38059 -20.95212,-20.95212z" fill="url(#color-20)"/><path d="M166.1114,226.22396c6.13061,0 11.10046,4.96985 11.10046,11.10046c0,6.13061 -4.96985,11.10046 -11.10046,11.10046c-2.38114,0 -4.58716,-0.74973 -6.3949,-2.026c0.4247,-6.10595 0.48243,-12.2403 0.3144,-18.36292c1.74654,-1.14566 3.8357,-1.81199 6.0805,-1.81199z" fill="url(#color-21)"/><path d="M170.27415,237.60193c6.13061,0 11.10046,4.96985 11.10046,11.10046c0,6.13061 -4.96985,11.10046 -11.10046,11.10046c-4.87061,0 -9.00856,-3.13691 -10.50374,-7.50062c0.01371,-1.59699 -0.01659,-3.19284 -0.13842,-4.78375c0.02507,-0.30089 0.04769,-0.59827 0.0685,-0.89104c0.03865,-0.54381 0.07437,-1.08784 0.10726,-1.63208c1.5258,-4.30779 5.63576,-7.39343 10.46639,-7.39343z" fill="url(#color-22)"/><path d="M189.14493,245.37225c0,-8.88939 7.20628,-16.09566 16.09566,-16.09566c8.88939,0 16.09566,7.20628 16.09566,16.09566c0,8.88939 -7.20628,16.09567 -16.09566,16.09567c-8.88939,0 -16.09566,-7.20628 -16.09566,-16.09567z" fill="url(#color-23)"/><path d="M211.34585,247.03732c0,-6.13061 4.96985,-11.10046 11.10045,-11.10046c6.13061,0 11.10046,4.96985 11.10046,11.10046c0,6.13061 -4.96985,11.10045 -11.10046,11.10045c-6.13061,0 -11.10045,-4.96985 -11.10045,-11.10045z" fill="url(#color-24)"/><path d="M191.92002,252.03252c0,-7.81653 6.33656,-14.15309 14.15309,-14.15309c7.81653,0 14.15308,6.33656 14.15308,14.15309c0,7.81653 -6.33655,14.15309 -14.15308,14.15309c-7.81653,0 -14.15309,-6.33655 -14.15309,-14.15309z" fill="url(#color-25)"/><path d="M171.10668,262.30045c0,-6.13061 4.96985,-11.10046 11.10046,-11.10046c6.13061,0 11.10046,4.96986 11.10046,11.10046c0,6.13061 -4.96985,11.10046 -11.10046,11.10046c-6.13061,0 -11.10046,-4.96985 -11.10046,-11.10046z" fill="url(#color-26)"/><path d="M173.60429,269.51574c0,-6.13061 4.96985,-11.10046 11.10045,-11.10046c6.13061,0 11.10046,4.96985 11.10046,11.10046c0,4.22802 -2.36379,7.90394 -5.84192,9.77832c-2.44635,0.02579 -4.89246,0.06879 -7.33822,0.1351c-0.39283,0 -0.78038,0.02265 -1.16141,0.06672c-0.40482,0.03719 -0.77944,0.08813 -1.12725,0.15277c-0.07253,-0.00736 -0.14534,-0.0145 -0.21843,-0.02143c-3.84201,-1.74559 -6.51368,-5.61653 -6.51368,-10.11148z" fill="url(#color-27)"/><path d="M178.04447,274.51095c0,-6.13061 4.96985,-11.10046 11.10046,-11.10046c6.13061,0 11.10046,4.96985 11.10046,11.10046c0,1.70166 -0.3829,3.3139 -1.06724,4.75524c-5.51869,-0.01754 -11.03677,0.01341 -16.55309,0.16298c-0.39283,0 -0.78038,0.02265 -1.16141,0.06672c-0.40481,0.03719 -0.77942,0.08813 -1.12724,0.15277c-0.35415,-0.03591 -0.71524,-0.06688 -1.08149,-0.09188c-0.77392,-1.51388 -1.21045,-3.22887 -1.21045,-5.04583z" fill="url(#color-28)"/><path d="M177.48943,88.99454c0,-2.98478 0.7662,-5.7906 2.11265,-8.23152c9.98591,0.0862 19.97228,0.10505 29.95884,0.09173c1.31526,2.41937 2.06242,5.19232 2.06242,8.13979c0,9.42582 -7.64114,17.06696 -17.06696,17.06696c-9.42582,0 -17.06696,-7.64114 -17.06696,-17.06696z" fill="url(#color-29)"/><path d="M199.04284,116.93069c0,-12.28677 9.9604,-22.24717 22.24717,-22.24717c12.28677,0 22.24718,9.96039 22.24718,22.24717c0,12.28677 -9.9604,22.24718 -22.24717,22.24718c-12.28677,0 -22.24717,-9.9604 -22.24717,-22.24717z" fill="url(#color-30)"/><path d="M204.40804,95.51605c0,-5.54087 1.91044,-10.63555 5.10855,-14.66124c12.28529,-0.01627 24.57086,-0.08128 36.85623,-0.12951c3.26042,4.04568 5.21217,9.19029 5.21217,14.79075c0,13.02756 -10.56093,23.58847 -23.58848,23.58847c-13.02755,0 -23.58847,-10.56092 -23.58847,-23.58847z" fill="url(#color-31)"/><path d="M195.8052,98.01366c0,-6.13062 4.96985,-11.10046 11.10046,-11.10046c6.13061,0 11.10046,4.96984 11.10046,11.10046c0,6.13062 -4.96985,11.10046 -11.10046,11.10046c-6.13061,0 -11.10046,-4.96984 -11.10046,-11.10046z" fill="url(#color-32)"/><path d="M169.90812,80.53234c0.4986,0.08628 1.00986,0.13563 1.53085,0.14513c0.06281,0.00039 0.12487,0.00093 0.18607,0.00169c4.32401,0.05394 8.64811,0.0935 12.9723,0.12152c1.6528,2.7112 2.60498,5.89636 2.60498,9.30389c0,9.88562 -8.01387,17.89949 -17.89949,17.89949c-3.42248,0 -6.62062,-0.96054 -9.33953,-2.62676c0.65559,-6.9262 0.26783,-14.82989 0.01425,-19.37039c1.50508,-1.83397 2.97152,-3.67004 5.05649,-5.06142c0.37558,-0.08266 0.74324,-0.18642 1.10168,-0.30999c1.26556,-0.03157 2.52722,-0.06617 3.7724,-0.10317z" fill="url(#color-33)"/><path d="M169.90812,80.53234c0.4986,0.08628 1.00986,0.13563 1.53085,0.14513c0.06281,0.00039 0.12487,0.00093 0.18607,0.00169c3.45154,0.04306 6.90314,0.07695 10.35479,0.10313c0.14901,0.72528 0.22729,1.47637 0.22729,2.24574c0,6.13062 -4.96985,11.10046 -11.10046,11.10046c-5.24337,0 -9.63765,-3.63544 -10.79973,-8.52323c1.39318,-1.69812 2.7944,-3.36999 4.72711,-4.65977c0.37558,-0.08266 0.74324,-0.18642 1.10168,-0.30999c1.26556,-0.03157 2.52722,-0.06617 3.7724,-0.10317z" fill="url(#color-34)"/><path d="M165.83391,93.71223c0,-4.93918 1.66497,-9.4895 4.46426,-13.12032c0.37412,0.04959 0.75477,0.07851 1.14076,0.08555c0.06281,0.00039 0.12487,0.00093 0.18607,0.00169c10.98656,0.13706 21.97375,0.18123 32.96122,0.17939c2.67703,3.58583 4.26196,8.03466 4.26196,12.85367c0,11.87806 -9.62909,21.50713 -21.50714,21.50713c-11.87805,0 -21.50714,-9.62908 -21.50714,-21.50713z" fill="url(#color-35)"/><path d="M208.01571,108.00407c0,-10.26878 8.32449,-18.59327 18.59327,-18.59327c10.26878,0 18.59327,8.32449 18.59327,18.59327c0,10.26878 -8.32449,18.59327 -18.59327,18.59327c-10.26878,0 -18.59327,-8.32448 -18.59327,-18.59327z" fill="url(#color-36)"/><path d="M172.49424,106.4315c0,-11.54599 9.35987,-20.90586 20.90586,-20.90586c11.54599,0 20.90586,9.35988 20.90586,20.90586c0,11.54599 -9.35988,20.90586 -20.90586,20.90586c-11.54599,0 -20.90586,-9.35988 -20.90586,-20.90586z" fill="url(#color-37)"/><path d="M176.93441,99.67873c12.26121,0 22.20092,9.93969 22.20092,22.20091c0,12.26122 -9.93971,22.20092 -22.20092,22.20092c-6.65742,0 -12.63043,-2.93033 -16.69956,-7.57155c-0.0319,-1.44346 -0.06853,-2.88676 -0.10979,-4.32984c0,-0.41257 -0.02498,-0.81931 -0.07352,-1.21877c-0.02725,-0.28216 -0.06121,-0.5495 -0.10183,-0.80318c0.07015,-7.53431 0.14545,-15.06888 0.0214,-22.60057c4.07244,-4.81826 10.16056,-7.87793 16.9633,-7.87793z" fill="url(#color-38)"/><path d="M175.82438,116.32941c0,-9.04265 7.33052,-16.37317 16.37317,-16.37317c9.04265,0 16.37318,7.33052 16.37318,16.37317c0,9.04264 -7.33053,16.37318 -16.37318,16.37318c-9.04265,0 -16.37317,-7.33052 -16.37317,-16.37318z" fill="url(#color-39)"/><path d="M191.64253,113.97057c0,-10.49868 8.51085,-19.00953 19.00954,-19.00953c10.49868,0 19.00954,8.51085 19.00954,19.00954c0,10.49867 -8.51085,19.00954 -19.00953,19.00954c-10.49868,0 -19.00953,-8.51085 -19.00953,-19.00953z" fill="url(#color-40)"/><path d="M163.33633,128.40116c0,-8.19969 6.64717,-14.84686 14.84687,-14.84686c8.1997,0 14.84686,6.64716 14.84686,14.84686c0,8.1997 -6.64716,14.84687 -14.84686,14.84687c-8.1997,0 -14.84687,-6.64717 -14.84687,-14.84687z" fill="url(#color-41)"/><path d="M164.0301,113.83181c7.43337,0 13.45931,6.02594 13.45931,13.45931c0,7.43336 -6.02594,13.4593 -13.45931,13.4593c-1.29179,0 -2.54106,-0.18198 -3.7236,-0.52172c-0.04407,-2.68371 -0.10477,-5.367 -0.18147,-8.04954c0,-0.41257 -0.02498,-0.81931 -0.07352,-1.21877c-0.02725,-0.28216 -0.06121,-0.54951 -0.10183,-0.8032c0.0488,-5.24104 0.10009,-10.48221 0.08503,-15.72246c1.26231,-0.39186 2.6042,-0.60293 3.99538,-0.60293z" fill="url(#color-42)"/><path d="M167.22151,135.75522c0,-6.13061 4.96985,-11.10046 11.10046,-11.10046c6.13061,0 11.10045,4.96985 11.10045,11.10046c0,6.13061 -4.96985,11.10046 -11.10045,11.10046c-6.13061,0 -11.10046,-4.96985 -11.10046,-11.10046z" fill="url(#color-43)"/><path d="M176.93442,144.08056c0,-6.13061 4.96985,-11.10046 11.10046,-11.10046c6.13061,0 11.10046,4.96985 11.10046,11.10046c0,6.13061 -4.96985,11.10046 -11.10046,11.10046c-6.13061,0 -11.10046,-4.96985 -11.10046,-11.10046z" fill="url(#color-44)"/><path d="M182.48465,155.8748c0,-8.96602 7.2684,-16.23442 16.23442,-16.23442c8.96602,0 16.23442,7.2684 16.23442,16.23442c0,8.96602 -7.2684,16.23442 -16.23442,16.23442c-8.96602,0 -16.23442,-7.2684 -16.23442,-16.23442z" fill="url(#color-45)"/><path d="M172.77174,132.84134c0,-10.8052 8.75936,-19.56456 19.56456,-19.56456c10.8052,0 19.56455,8.75936 19.56455,19.56456c0,10.8052 -8.75935,19.56456 -19.56455,19.56456c-10.8052,0 -19.56456,-8.75936 -19.56456,-19.56456z" fill="url(#color-46)"/><path d="M192.10503,146.06939c0,-14.43248 11.69985,-26.13233 26.13234,-26.13233c14.43248,0 26.13233,11.69985 26.13233,26.13233c0,14.43248 -11.69984,26.13234 -26.13233,26.13234c-14.43248,0 -26.13234,-11.69985 -26.13234,-26.13234z" fill="url(#color-47)"/><path d="M212.17836,128.26241c0,-11.34162 9.19422,-20.53585 20.53584,-20.53585c11.34162,0 20.53585,9.19423 20.53585,20.53585c0,11.34162 -9.19422,20.53585 -20.53585,20.53585c-11.34162,0 -20.53584,-9.19423 -20.53584,-20.53585z" fill="url(#color-48)"/><path d="M214.12095,150.60208c0,-9.73235 7.88962,-17.62198 17.62197,-17.62198c9.73235,0 17.62198,7.88963 17.62198,17.62198c0,9.73235 -7.88963,17.62197 -17.62198,17.62197c-9.73235,0 -17.62197,-7.88962 -17.62197,-17.62197z" fill="url(#color-49)"/><path d="M206.90566,163.50636c0,-12.26122 9.93969,-22.20092 22.20092,-22.20092c12.26122,0 22.20092,9.93969 22.20092,22.20092c0,12.26122 -9.93969,22.20092 -22.20092,22.20092c-12.26122,0 -22.20092,-9.93969 -22.20092,-22.20092z" fill="url(#color-50)"/><path d="M167.49901,166.69775c0,-8.50623 6.89566,-15.40189 15.40189,-15.40189c8.50623,0 15.40188,6.89567 15.40188,15.40189c0,8.50623 -6.89566,15.40188 -15.40188,15.40188c-8.50623,0 -15.40189,-6.89566 -15.40189,-15.40188z" fill="url(#color-51)"/><path d="M170.82914,122.71218c11.0351,0 19.98082,8.94573 19.98082,19.98083c0,11.0351 -8.94572,19.98082 -19.98082,19.98082c-3.85288,0 -7.45105,-1.09052 -10.5027,-2.97974c0.13581,-9.17144 0.06072,-18.34757 -0.2014,-27.51492c0,-0.41257 -0.02498,-0.81931 -0.07352,-1.21877c-0.02725,-0.28216 -0.06121,-0.54949 -0.10183,-0.80318c0.01319,-1.41712 0.02657,-2.83424 0.03877,-4.25136c3.12251,-2.02059 6.84461,-3.19368 10.84068,-3.19368z" fill="url(#color-52)"/><path d="M166.25019,144.63558c8.65949,0 15.6794,7.01991 15.6794,15.6794c0,8.65949 -7.0199,15.6794 -15.67939,15.6794c-2.09281,0 -4.08985,-0.41003 -5.91519,-1.15412c-0.03298,-1.28082 -0.10342,-2.51148 -0.20997,-3.66109c0,-0.4315 -0.02733,-0.85663 -0.08035,-1.27373c0.04058,-0.39422 0.0676,-0.80292 0.08035,-1.22627c0.22986,-7.63136 0.30817,-15.269 0.24869,-22.90519c1.81484,-0.73415 3.79844,-1.1384 5.87647,-1.1384z" fill="url(#color-53)"/><path d="M172.07796,152.4059c10.80521,0 19.56456,8.75935 19.56456,19.56456c0,10.80521 -8.75935,19.56456 -19.56456,19.56456c-4.42538,0 -8.5076,-1.4693 -11.78543,-3.94666c-0.03028,-2.02843 -0.06692,-4.05671 -0.10977,-6.08478c0.25365,-3.6272 0.22604,-7.26318 -0.05771,-10.32441c0,-0.4315 -0.02733,-0.85663 -0.08035,-1.27373c0.04058,-0.39422 0.0676,-0.80292 0.08035,-1.22627c0.12428,-4.12615 0.20426,-8.25413 0.24211,-12.38273c3.26506,-2.44341 7.31894,-3.89053 11.71079,-3.89053z" fill="url(#color-54)"/><path d="M174.57555,135.75522c10.34541,0 18.73202,8.38662 18.73202,18.73203c0,10.34541 -8.38662,18.73202 -18.73202,18.73202c-5.78213,0 -10.95238,-2.6198 -14.38851,-6.73716c0.21196,-8.05275 0.2567,-16.11168 0.15036,-24.16766c3.43563,-4.01476 8.53975,-6.55923 14.23815,-6.55923z" fill="url(#color-55)"/><path d="M167.22151,179.18576c0,-12.79765 10.37456,-23.17221 23.17221,-23.17221c12.79765,0 23.17221,10.37456 23.17221,23.17221c0,12.79765 -10.37456,23.17221 -23.17221,23.17221c-12.79765,0 -23.17221,-10.37456 -23.17221,-23.17221z" fill="url(#color-56)"/><path d="M185.81479,169.47286c0,-9.42582 7.64114,-17.06696 17.06696,-17.06696c9.42582,0 17.06696,7.64114 17.06696,17.06696c0,9.42582 -7.64114,17.06696 -17.06696,17.06696c-9.42582,0 -17.06696,-7.64114 -17.06696,-17.06696z" fill="url(#color-57)"/><path d="M189.69993,181.12834c0,-13.87051 11.24427,-25.11479 25.11478,-25.11479c13.87051,0 25.11479,11.24428 25.11479,25.11479c0,13.87051 -11.24428,25.11479 -25.11479,25.11479c-13.87051,0 -25.11478,-11.24428 -25.11478,-25.11479z" fill="url(#color-58)"/><path d="M185.53728,215.67852c0,-11.80143 9.56695,-21.36838 21.36838,-21.36838c11.80143,0 21.36839,9.56695 21.36839,21.36838c0,11.80143 -9.56696,21.36838 -21.36839,21.36838c-11.80143,0 -21.36838,-9.56695 -21.36838,-21.36838z" fill="url(#color-59)"/><path d="M210.51331,213.8747c0,-11.265 9.13209,-20.3971 20.39709,-20.3971c11.265,0 20.3971,9.13209 20.3971,20.3971c0,11.265 -9.13209,20.39709 -20.3971,20.39709c-11.265,0 -20.39709,-9.13209 -20.39709,-20.39709z" fill="url(#color-60)"/><path d="M202.18797,233.16174c0,-13.33407 10.80943,-24.14349 24.1435,-24.14349c13.33407,0 24.1435,10.80943 24.1435,24.1435c0,13.33407 -10.80943,24.1435 -24.14349,24.1435c-13.33407,0 -24.1435,-10.80943 -24.1435,-24.1435z" fill="url(#color-61)"/><path d="M173.60428,178.21447c11.95469,0 21.64589,9.6912 21.64589,21.64589c0,11.95469 -9.69119,21.64589 -21.64589,21.64589c-5.02901,0 -9.65746,-1.715 -13.3324,-4.59206c0.19173,-11.35157 0.16282,-22.70855 -0.06148,-34.05935c3.68473,-2.90616 8.33679,-4.64038 13.39388,-4.64038z" fill="url(#color-62)"/><path d="M169.58036,200.97041c10.49867,0 19.00954,8.51086 19.00954,19.00954c0,10.49867 -8.51086,19.00954 -19.00953,19.00954c-3.44989,0 -6.68514,-0.919 -9.47429,-2.52554c0.03963,-3.52989 -0.01724,-7.06199 -0.14357,-10.58864c0.09017,-0.6105 0.14538,-1.25897 0.16256,-1.94613c0.1716,-6.86391 0.26058,-13.73068 0.27254,-20.59772c2.72208,-1.50462 5.85241,-2.36104 9.18276,-2.36104z" fill="url(#color-63)"/><path d="M176.10188,200.6929c13.48735,0 24.42101,10.93366 24.42101,24.42101c0,13.48735 -10.93367,24.42101 -24.42101,24.42101c-6.21818,0 -11.89354,-2.32402 -16.20491,-6.15083c0.29341,-5.82805 0.27449,-11.67588 0.06554,-17.50879c0.09017,-0.6105 0.14538,-1.25897 0.16256,-1.94613c0.14587,-5.83479 0.23204,-11.67165 0.26194,-17.50899c4.24714,-3.57407 9.72955,-5.72728 15.71487,-5.72728z" fill="url(#color-64)"/><path d="M172.49423,224.8364c12.26122,0 22.20092,9.9397 22.20092,22.20092c0,12.26122 -9.93969,22.20091 -22.20092,22.20091c-4.79032,0 -9.22628,-1.51717 -12.8536,-4.09721c0.00364,-2.38329 -0.00782,-4.76662 -0.0339,-7.14973c0.00895,-0.10959 0.01508,-0.21382 0.01833,-0.31212c0.11175,-3.38496 0.26552,-6.78395 0.00693,-10.1607c0.02507,-0.30089 0.04769,-0.59827 0.0685,-0.89104c0.42477,-5.97692 0.49613,-11.98152 0.34659,-17.97618c3.55003,-2.40802 7.83429,-3.81485 12.44714,-3.81485z" fill="url(#color-65)"/><path d="M174.15928,245.37225c12.72101,0 23.03345,10.31243 23.03345,23.03345c0,3.9266 -0.98254,7.62371 -2.71517,10.85889c-3.95146,0.01121 -7.90243,0.05748 -11.85252,0.16458c-0.39283,0 -0.78038,0.02265 -1.16141,0.06672c-0.40481,0.03719 -0.77943,0.08813 -1.12724,0.15277c-1.81942,-0.18446 -3.82152,-0.23871 -5.76954,-0.02183c-2.06858,-0.11077 -4.13533,-0.22157 -6.1992,-0.32451c-2.21995,-0.11072 -5.21563,-0.40166 -7.97683,-0.09661c-0.05682,0.00412 -0.11351,0.00872 -0.17005,0.01379c0.25752,-4.933 -0.40766,-9.97994 -0.58345,-12.83006c0.01048,-2.79939 0.00001,-5.59893 -0.03061,-8.39814c0.00895,-0.10959 0.01508,-0.21382 0.01833,-0.31212c0.07975,-2.41558 0.1809,-4.83832 0.13832,-7.25501c3.94332,-3.16109 8.94881,-5.05192 14.39592,-5.05192z" fill="url(#color-66)"/><path d="M161.94878,273.67841c0,-9.65571 7.82752,-17.48322 17.48323,-17.48322c9.65571,0 17.48322,7.82751 17.48322,17.48322c0,1.95247 -0.32006,3.83018 -0.91056,5.58353c-4.46062,0.00293 -8.92069,0.04632 -13.37963,0.16722c-0.39283,0 -0.78038,0.02265 -1.16141,0.06672c-0.40481,0.03719 -0.77943,0.08813 -1.12724,0.15277c-1.81942,-0.18446 -3.82152,-0.23871 -5.76954,-0.02183c-2.06858,-0.11077 -4.13533,-0.22157 -6.1992,-0.32451c-1.58432,-0.07902 -3.56374,-0.24983 -5.57106,-0.23028c-0.5504,-1.69879 -0.84782,-3.51148 -0.84782,-5.39363z" fill="url(#color-67)"/><path d="M173.88179,272.98464c0,-10.34541 8.38662,-18.73203 18.73203,-18.73203c10.34541,0 18.73202,8.38662 18.73202,18.73203c0,2.23305 -0.39074,4.37482 -1.10757,6.3607c-9.20577,-0.0851 -18.41192,-0.16564 -27.61321,0.08383c-0.39283,0 -0.78038,0.02265 -1.16141,0.06672c-0.40482,0.03719 -0.77943,0.08814 -1.12724,0.15277c-1.66171,-0.16848 -3.47579,-0.22832 -5.26189,-0.0722c-0.77099,-2.05045 -1.19273,-4.27188 -1.19273,-6.59181z" fill="url(#color-68)"/><path d="M203.02049,268.96072c0,-12.10796 9.81545,-21.9234 21.92341,-21.9234c12.10796,0 21.92341,9.81544 21.92341,21.9234c0,3.92916 -1.03364,7.61691 -2.84383,10.80615c-6.50414,-0.08819 -13.00929,-0.12534 -19.51436,-0.11428c-1.21247,-0.14981 -2.32337,-0.22026 -3.13406,-0.22342c-5.2548,-0.02046 -10.51041,-0.08222 -15.76586,-0.12471c-1.65186,-3.08121 -2.5887,-6.60307 -2.5887,-10.34374z" fill="url(#color-69)"/><path d="M206.16563,250.96873c0,-12.23567 9.91899,-22.15466 22.15467,-22.15466c12.23567,0 22.15467,9.91899 22.15467,22.15466c0,12.23567 -9.91899,22.15466 -22.15467,22.15466c-12.23567,0 -22.15467,-9.91899 -22.15467,-22.15466z" fill="url(#color-70)"/><path d="M170.55165,243.98469c0,-12.26121 9.9397,-22.20092 22.20091,-22.20092c12.26121,0 22.20092,9.93971 22.20092,22.20092c0,12.26121 -9.93971,22.20092 -22.20092,22.20092c-12.26121,0 -22.20091,-9.93971 -22.20091,-22.20092z" fill="url(#color-71)"/></g><g data-paper-data="{&quot;index&quot;:null}"><path d="M301.95563,106.339c-6.13061,0 -11.10046,-4.96984 -11.10046,-11.10046c0,-6.13062 4.96985,-11.10046 11.10046,-11.10046c6.13061,0 11.10046,4.96984 11.10046,11.10046c0,6.13062 -4.96985,11.10046 -11.10046,11.10046z" fill="url(#color-72)"/><path d="M263.24278,100.51126c-7.89316,0 -14.29185,-6.39867 -14.29185,-14.29184c0,-1.92055 0.37883,-3.75263 1.06584,-5.42558c8.8262,0.03606 17.6524,0.06575 26.47841,0.06476c0.6703,1.65542 1.03943,3.46502 1.03943,5.36083c0,7.89317 -6.39868,14.29184 -14.29184,14.29184z" fill="url(#color-73)"/><path d="M267.5442,149.63079c-6.13061,0 -11.10046,-4.96985 -11.10046,-11.10046c0,-6.13061 4.96985,-11.10046 11.10046,-11.10046c6.13061,0 11.10046,4.96985 11.10046,11.10046c0,6.13061 -4.96985,11.10046 -11.10046,11.10046z" fill="url(#color-74)"/><path d="M307.50586,152.96093c-6.13061,0 -11.10046,-4.96985 -11.10046,-11.10046c0,-6.13061 4.96985,-11.10046 11.10046,-11.10046c6.13061,0 11.10046,4.96985 11.10046,11.10046c0,6.13061 -4.96985,11.10046 -11.10046,11.10046z" fill="url(#color-75)"/><path d="M284.33367,213.18092c-8.65949,0 -15.6794,-7.01991 -15.6794,-15.6794c0,-8.65949 7.01991,-15.67939 15.6794,-15.67939c8.65949,0 15.6794,7.0199 15.6794,15.6794c0,8.65949 -7.01991,15.6794 -15.6794,15.6794z" fill="url(#color-76)"/><path d="M258.66382,172.94175c-6.13061,0 -11.10046,-4.96985 -11.10046,-11.10046c0,-6.13061 4.96986,-11.10046 11.10046,-11.10046c6.13061,0 11.10046,4.96985 11.10046,11.10046c0,6.13061 -4.96985,11.10046 -11.10046,11.10046z" fill="url(#color-77)"/><path d="M319.66535,178.2959c0.02645,1.05991 0.07688,2.13418 0.15195,3.20768c-0.15053,7.12595 -0.22445,14.25451 -0.21549,21.38282c-2.84013,2.43836 -6.53283,3.91175 -10.56966,3.91175c-8.96602,0 -16.23442,-7.2684 -16.23442,-16.23442c0,-8.96602 7.2684,-16.23442 16.23442,-16.23442c4.067,0 7.7847,1.49551 10.6332,3.96659z" fill="url(#color-78)"/><path d="M308.61591,233.99428c-6.13061,0 -11.10046,-4.96985 -11.10046,-11.10046c0,-6.13061 4.96985,-11.10046 11.10046,-11.10046c6.13061,0 11.10046,4.96985 11.10046,11.10046c0,6.13061 -4.96985,11.10046 -11.10046,11.10046z" fill="url(#color-79)"/><path d="M268.65425,245.09474c-6.13061,0 -11.10046,-4.96985 -11.10046,-11.10046c0,-6.13061 4.96985,-11.10046 11.10046,-11.10046c6.13061,0 11.10046,4.96985 11.10046,11.10046c0,6.13061 -4.96985,11.10046 -11.10046,11.10046z" fill="url(#color-80)"/><path d="M280.67439,279.26667c-7.3496,0.0245 -14.70028,0.13388 -22.04936,0.1625c-0.81069,0.00315 -1.9216,0.07361 -3.13406,0.22342c-4.80614,-0.00817 -9.61231,0.00998 -14.4181,0.05558c-2.04651,-3.42811 -3.2224,-7.43609 -3.2224,-11.71873c0,-12.64437 10.25032,-22.8947 22.89469,-22.8947c12.64438,0 22.8947,10.25032 22.8947,22.8947c0,4.1001 -1.07778,7.94846 -2.96548,11.27724z" fill="url(#color-81)"/><path d="M308.46477,279.46531c-0.24241,0.01277 -0.48485,0.0256 -0.72733,0.03847c-0.077,0.00158 -0.1542,0.00237 -0.23158,0.00237c-6.13061,0 -11.10046,-4.96985 -11.10046,-11.10046c0,-6.13061 4.96985,-11.10045 11.10046,-11.10045c6.13061,0 11.10046,4.96985 11.10046,11.10045c0,5.80757 -4.45989,10.57348 -10.14155,11.05962z" fill="url(#color-82)"/><path d="M275.31452,273.95592c-6.13061,0 -11.10045,-4.96985 -11.10045,-11.10046c0,-6.13061 4.96985,-11.10045 11.10045,-11.10045c6.13061,0 11.10046,4.96985 11.10046,11.10045c0,6.13061 -4.96985,11.10046 -11.10046,11.10046z" fill="url(#color-83)"/><path d="M295.29535,257.30524c-6.13061,0 -11.10046,-4.96986 -11.10046,-11.10046c0,-6.13061 4.96985,-11.10046 11.10046,-11.10046c6.13061,0 11.10046,4.96985 11.10046,11.10046c0,6.13061 -4.96985,11.10046 -11.10046,11.10046z" fill="url(#color-84)"/><path d="M260.05137,232.32921c-6.13061,0 -11.10046,-4.96985 -11.10046,-11.10046c0,-6.13061 4.96985,-11.10046 11.10046,-11.10046c6.13061,0 11.10046,4.96985 11.10046,11.10046c0,6.13061 -4.96985,11.10046 -11.10046,11.10046z" fill="url(#color-85)"/><path d="M274.20448,232.60672c-6.13061,0 -11.10046,-4.96985 -11.10046,-11.10046c0,-6.13061 4.96985,-11.10046 11.10046,-11.10046c6.13061,0 11.10046,4.96985 11.10046,11.10046c0,6.13061 -4.96985,11.10046 -11.10046,11.10046z" fill="url(#color-86)"/><path d="M294.04652,226.50147c-8.96602,0 -16.23442,-7.2684 -16.23442,-16.23442c0,-8.96602 7.2684,-16.23442 16.23442,-16.23442c8.96602,0 16.23442,7.2684 16.23442,16.23442c0,8.96602 -7.2684,16.23442 -16.23442,16.23442z" fill="url(#color-87)"/><path d="M287.38625,248.9799c-10.65193,0 -19.28704,-8.63511 -19.28704,-19.28705c0,-10.65194 8.63511,-19.28705 19.28704,-19.28705c10.65193,0 19.28705,8.63511 19.28705,19.28705c0,10.65194 -8.63512,19.28705 -19.28705,19.28705z" fill="url(#color-88)"/><path d="M272.81692,218.17612c-6.13061,0 -11.10046,-4.96985 -11.10046,-11.10046c0,-6.13061 4.96985,-11.10046 11.10046,-11.10046c6.13061,0 11.10046,4.96985 11.10046,11.10046c0,6.13061 -4.96985,11.10046 -11.10046,11.10046z" fill="url(#color-89)"/><path d="M254.50116,205.13308c-8.58286,0 -15.54064,-6.95777 -15.54064,-15.54064c0,-8.58286 6.95777,-15.54064 15.54064,-15.54064c8.58287,0 15.54064,6.95778 15.54064,15.54064c0,8.58286 -6.95778,15.54064 -15.54064,15.54064z" fill="url(#color-90)"/><path d="M274.0657,209.29576c-11.57153,0 -20.95212,-9.38059 -20.95212,-20.95212c0,-11.57153 9.38059,-20.95212 20.95212,-20.95212c11.57153,0 20.95211,9.38059 20.95211,20.95212c0,11.57153 -9.38058,20.95212 -20.95211,20.95212z" fill="url(#color-91)"/><path d="M319.96914,228.03595c-0.16803,6.12262 -0.1103,12.25697 0.3144,18.36292c-1.80774,1.27627 -4.01377,2.026 -6.3949,2.026c-6.13061,0 -11.10046,-4.96985 -11.10046,-11.10046c0,-6.13061 4.96985,-11.10046 11.10046,-11.10046c2.2448,0 4.33396,0.66633 6.0805,1.81199z" fill="url(#color-92)"/><path d="M320.19231,244.99536c0.03289,0.54424 0.06862,1.08827 0.10727,1.63208c0.0208,0.29277 0.04342,0.59015 0.06849,0.89104c-0.12183,1.59091 -0.15213,3.18676 -0.13842,4.78375c-1.49518,4.36371 -5.63313,7.50062 -10.50374,7.50062c-6.13061,0 -11.10046,-4.96985 -11.10046,-11.10046c0,-6.13061 4.96985,-11.10046 11.10046,-11.10046c4.83063,0 8.94059,3.08563 10.46639,7.39343z" fill="url(#color-93)"/><path d="M274.75951,261.46791c-8.88939,0 -16.09566,-7.20628 -16.09566,-16.09567c0,-8.88939 7.20628,-16.09566 16.09566,-16.09566c8.88939,0 16.09566,7.20628 16.09566,16.09566c0,8.88939 -7.20628,16.09567 -16.09566,16.09567z" fill="url(#color-94)"/><path d="M257.55377,258.13777c-6.13061,0 -11.10046,-4.96985 -11.10046,-11.10045c0,-6.13061 4.96985,-11.10046 11.10046,-11.10046c6.13061,0 11.10046,4.96985 11.10046,11.10046c0,6.13061 -4.96985,11.10045 -11.10046,11.10045z" fill="url(#color-95)"/><path d="M273.92697,266.18561c-7.81653,0 -14.15309,-6.33655 -14.15309,-14.15309c0,-7.81653 6.33656,-14.15309 14.15309,-14.15309c7.81653,0 14.15308,6.33656 14.15308,14.15309c0,7.81653 -6.33655,14.15309 -14.15308,14.15309z" fill="url(#color-96)"/><path d="M297.79295,273.40091c-6.13061,0 -11.10046,-4.96985 -11.10046,-11.10046c0,-6.13061 4.96985,-11.10046 11.10046,-11.10046c6.13061,0 11.10046,4.96986 11.10046,11.10046c0,6.13061 -4.96985,11.10046 -11.10046,11.10046z" fill="url(#color-97)"/><path d="M299.88212,279.62723c-0.0731,0.00693 -0.14591,0.01407 -0.21843,0.02143c-0.34782,-0.06464 -0.72244,-0.11558 -1.12725,-0.15277c-0.38102,-0.04407 -0.76857,-0.06672 -1.16141,-0.06672c-2.44576,-0.06631 -4.89187,-0.10931 -7.33822,-0.1351c-3.47812,-1.87439 -5.84192,-5.5503 -5.84192,-9.77832c0,-6.13061 4.96985,-11.10046 11.10046,-11.10046c6.13061,0 11.10046,4.96985 11.10046,11.10046c0,4.49495 -2.67168,8.36589 -6.51369,10.11148z" fill="url(#color-98)"/><path d="M300.74514,279.55678c-0.36626,0.025 -0.72733,0.05597 -1.08149,0.09188c-0.34782,-0.06464 -0.72244,-0.11559 -1.12725,-0.15277c-0.38102,-0.04407 -0.76857,-0.06672 -1.16141,-0.06672c-5.51632,-0.14956 -11.0344,-0.18051 -16.55309,-0.16298c-0.68434,-1.44135 -1.06723,-3.05358 -1.06723,-4.75524c0,-6.13061 4.96985,-11.10046 11.10046,-11.10046c6.13061,0 11.10046,4.96985 11.10046,11.10046c0,1.81696 -0.43654,3.53195 -1.21046,5.04583z" fill="url(#color-99)"/><path d="M285.4437,106.06149c-9.42582,0 -17.06696,-7.64114 -17.06696,-17.06696c0,-2.94746 0.74716,-5.72042 2.06242,-8.13979c9.98656,0.01332 19.97293,-0.00553 29.95884,-0.09173c1.34645,2.44091 2.11265,5.24674 2.11265,8.23152c0,9.42582 -7.64113,17.06696 -17.06695,17.06696z" fill="url(#color-100)"/><path d="M258.71009,139.17787c-12.28678,0 -22.24718,-9.96041 -22.24718,-22.24717c0,-12.28678 9.96041,-22.24717 22.24718,-22.24717c12.28677,0 22.24717,9.9604 22.24717,22.24717c0,12.28678 -9.9604,22.24718 -22.24717,22.24718z" fill="url(#color-101)"/><path d="M252.00356,119.10453c-13.02755,0 -23.58848,-10.56092 -23.58848,-23.58847c0,-5.60046 1.95175,-10.74507 5.21217,-14.79075c12.28537,0.04823 24.57094,0.11324 36.85623,0.12951c3.19811,4.02569 5.10855,9.12037 5.10855,14.66124c0,13.02756 -10.56093,23.58847 -23.58847,23.58847z" fill="url(#color-102)"/><path d="M273.09443,109.11412c-6.13061,0 -11.10046,-4.96984 -11.10046,-11.10046c0,-6.13062 4.96985,-11.10046 11.10046,-11.10046c6.13061,0 11.10046,4.96984 11.10046,11.10046c0,6.13062 -4.96985,11.10046 -11.10046,11.10046z" fill="url(#color-103)"/><path d="M313.86438,80.63551c0.35843,0.12357 0.72609,0.22733 1.10168,0.30999c2.08497,1.39138 3.55141,3.22745 5.05649,5.06143c-0.25358,4.5405 -0.64134,12.44419 0.01425,19.37039c-2.71891,1.66621 -5.91705,2.62676 -9.33953,2.62676c-9.88561,0 -17.89949,-8.01387 -17.89949,-17.89949c0,-3.40754 0.95218,-6.59269 2.60498,-9.30389c4.32419,-0.02802 8.64828,-0.06758 12.97229,-0.12152c0.0612,-0.00077 0.12327,-0.0013 0.18608,-0.00169c0.52099,-0.00951 1.03224,-0.05886 1.53085,-0.14513c1.24518,0.037 2.50684,0.07161 3.7724,0.10317z" fill="url(#color-104)"/><path d="M313.86438,80.63551c0.35843,0.12357 0.72609,0.22733 1.10168,0.30999c1.93271,1.28978 3.33392,2.96165 4.72711,4.65977c-1.16208,4.88779 -5.55636,8.52323 -10.79973,8.52323c-6.13061,0 -11.10046,-4.96984 -11.10046,-11.10046c0,-0.76937 0.07828,-1.52047 0.22729,-2.24574c3.45165,-0.02617 6.90325,-0.06007 10.35479,-0.10313c0.0612,-0.00077 0.12327,-0.0013 0.18608,-0.00169c0.52099,-0.00951 1.03224,-0.05886 1.53085,-0.14513c1.24518,0.037 2.50684,0.07161 3.7724,0.10317z" fill="url(#color-105)"/><path d="M292.65899,115.21937c-11.87806,0 -21.50714,-9.62908 -21.50714,-21.50713c0,-4.81901 1.58493,-9.26785 4.26196,-12.85367c10.98748,0.00183 21.97467,-0.04234 32.96122,-0.17939c0.0612,-0.00077 0.12327,-0.0013 0.18608,-0.00169c0.38599,-0.00705 0.76664,-0.03596 1.14076,-0.08555c2.79929,3.63081 4.46426,8.18113 4.46426,13.12032c0,11.87806 -9.62908,21.50713 -21.50714,21.50713z" fill="url(#color-106)"/><path d="M253.39114,126.59734c-10.26878,0 -18.59327,-8.32448 -18.59327,-18.59327c0,-10.26878 8.32449,-18.59327 18.59327,-18.59327c10.26878,0 18.59327,8.32449 18.59327,18.59327c0,10.26878 -8.32449,18.59327 -18.59327,18.59327z" fill="url(#color-107)"/><path d="M286.59997,127.33736c-11.54598,0 -20.90586,-9.35988 -20.90586,-20.90586c0,-11.54599 9.35988,-20.90586 20.90586,-20.90586c11.54598,0 20.90586,9.35988 20.90586,20.90586c0,11.54599 -9.35988,20.90586 -20.90586,20.90586z" fill="url(#color-108)"/><path d="M320.02899,107.55665c-0.12405,7.53169 -0.04876,15.06626 0.02139,22.60057c-0.04062,0.25368 -0.07457,0.52102 -0.10183,0.80318c-0.04854,0.39946 -0.07352,0.8062 -0.07352,1.21877c-0.04126,1.44308 -0.07789,2.88638 -0.10979,4.32984c-4.06914,4.64122 -10.04215,7.57155 -16.69956,7.57155c-12.26121,0 -22.20092,-9.93969 -22.20092,-22.20092c0,-12.26122 9.93971,-22.20091 22.20092,-22.20091c6.80274,0 12.89087,3.05967 16.9633,7.87793z" fill="url(#color-109)"/><path d="M287.80254,132.70259c-9.04266,0 -16.37318,-7.33053 -16.37318,-16.37318c0,-9.04265 7.33052,-16.37317 16.37318,-16.37317c9.04266,0 16.37318,7.33052 16.37318,16.37317c0,9.04265 -7.33052,16.37318 -16.37318,16.37318z" fill="url(#color-110)"/><path d="M269.34802,132.9801c-10.49868,0 -19.00954,-8.51086 -19.00954,-19.00953c0,-10.49868 8.51086,-19.00953 19.00954,-19.00953c10.49868,0 19.00953,8.51085 19.00953,19.00954c0,10.49868 -8.51085,19.00954 -19.00953,19.00954z" fill="url(#color-111)"/><path d="M301.81686,143.24803c-8.1997,0 -14.84686,-6.64717 -14.84686,-14.84687c0,-8.1997 6.64716,-14.84686 14.84686,-14.84686c8.1997,0 14.84686,6.64718 14.84686,14.84686c0,8.1997 -6.64716,14.84687 -14.84686,14.84687z" fill="url(#color-112)"/><path d="M319.96537,114.43474c-0.01506,5.24025 0.03623,10.48141 0.08503,15.72246c-0.04062,0.25369 -0.07457,0.52103 -0.10183,0.8032c-0.04854,0.39946 -0.07352,0.8062 -0.07352,1.21877c-0.0767,2.68254 -0.13739,5.36583 -0.18147,8.04954c-1.18254,0.33973 -2.43181,0.52172 -3.7236,0.52172c-7.43336,0 -13.45931,-6.02594 -13.45931,-13.4593c0,-7.43336 6.02595,-13.4593 13.45931,-13.4593c1.39119,0 2.73307,0.21107 3.99538,0.60293z" fill="url(#color-113)"/><path d="M301.67812,146.85568c-6.13061,0 -11.10046,-4.96985 -11.10046,-11.10046c0,-6.13061 4.96985,-11.10046 11.10046,-11.10046c6.13061,0 11.10046,4.96985 11.10046,11.10046c0,6.13061 -4.96985,11.10046 -11.10046,11.10046z" fill="url(#color-114)"/><path d="M291.96522,155.18102c-6.13061,0 -11.10046,-4.96985 -11.10046,-11.10046c0,-6.13061 4.96985,-11.10046 11.10046,-11.10046c6.13061,0 11.10046,4.96985 11.10046,11.10046c0,6.13061 -4.96985,11.10046 -11.10046,11.10046z" fill="url(#color-115)"/><path d="M281.28103,172.10922c-8.96602,0 -16.23442,-7.2684 -16.23442,-16.23442c0,-8.96602 7.2684,-16.23442 16.23442,-16.23442c8.96602,0 16.23442,7.2684 16.23442,16.23442c0,8.96602 -7.2684,16.23442 -16.23442,16.23442z" fill="url(#color-116)"/><path d="M287.66376,152.4059c-10.8052,0 -19.56455,-8.75936 -19.56455,-19.56456c0,-10.8052 8.75935,-19.56456 19.56455,-19.56456c10.8052,0 19.56456,8.75936 19.56456,19.56456c0,10.8052 -8.75936,19.56456 -19.56456,19.56456z" fill="url(#color-117)"/><path d="M261.76269,172.20173c-14.43248,0 -26.13233,-11.69985 -26.13233,-26.13234c0,-14.43248 11.69984,-26.13233 26.13233,-26.13233c14.43248,0 26.13234,11.69985 26.13234,26.13233c0,14.43248 -11.69985,26.13234 -26.13234,26.13234z" fill="url(#color-118)"/><path d="M247.28589,148.79826c-11.34162,0 -20.53585,-9.19423 -20.53585,-20.53585c0,-11.34162 9.19422,-20.53585 20.53585,-20.53585c11.34162,0 20.53585,9.19423 20.53585,20.53585c0,11.34162 -9.19422,20.53585 -20.53585,20.53585z" fill="url(#color-119)"/><path d="M248.25716,168.22406c-9.73235,0 -17.62198,-7.88962 -17.62198,-17.62197c0,-9.73235 7.88963,-17.62198 17.62198,-17.62198c9.73235,0 17.62197,7.88963 17.62197,17.62198c0,9.73235 -7.88962,17.62197 -17.62197,17.62197z" fill="url(#color-120)"/><path d="M250.89352,185.70728c-12.26122,0 -22.20092,-9.93969 -22.20092,-22.20092c0,-12.26122 9.9397,-22.20092 22.20092,-22.20092c12.26123,0 22.20092,9.93969 22.20092,22.20092c0,12.26122 -9.93969,22.20092 -22.20092,22.20092z" fill="url(#color-121)"/><path d="M297.09918,182.09963c-8.50623,0 -15.40188,-6.89566 -15.40188,-15.40188c0,-8.50623 6.89566,-15.40189 15.40188,-15.40189c8.50623,0 15.40189,6.89567 15.40189,15.40189c0,8.50623 -6.89567,15.40188 -15.40189,15.40188z" fill="url(#color-122)"/><path d="M320.01161,125.90586c0.0122,1.41712 0.02558,2.83424 0.03877,4.25136c-0.04062,0.25368 -0.07457,0.52102 -0.10183,0.80318c-0.04854,0.39946 -0.07352,0.8062 -0.07352,1.21877c-0.26213,9.16735 -0.3372,18.34348 -0.2014,27.51492c-3.05165,1.88922 -6.64983,2.97974 -10.5027,2.97974c-11.0351,0 -19.98083,-8.94572 -19.98083,-19.98082c0,-11.0351 8.94573,-19.98083 19.98083,-19.98083c3.99608,0 7.71816,1.17309 10.84068,3.19368z" fill="url(#color-123)"/><path d="M319.62631,145.77398c-0.05948,7.63619 0.01883,15.27383 0.24869,22.90519c0.01275,0.42335 0.03978,0.83205 0.08035,1.22627c-0.05302,0.4171 -0.08035,0.84223 -0.08035,1.27373c-0.10656,1.14961 -0.17699,2.38027 -0.20997,3.66109c-1.82533,0.74409 -3.82238,1.15412 -5.91519,1.15412c-8.65949,0 -15.67939,-7.01991 -15.67939,-15.6794c0,-8.65949 7.0199,-15.6794 15.6794,-15.6794c2.07803,0 4.06163,0.40425 5.87647,1.1384z" fill="url(#color-124)"/><path d="M319.63293,156.29644c0.03785,4.1286 0.11783,8.25659 0.24211,12.38273c0.01275,0.42335 0.03978,0.83205 0.08035,1.22627c-0.05302,0.4171 -0.08035,0.84223 -0.08035,1.27373c-0.28375,3.06123 -0.31135,6.69721 -0.05771,10.32441c-0.04284,2.02808 -0.07948,4.05635 -0.10977,6.08478c-3.27783,2.47736 -7.36004,3.94666 -11.78542,3.94666c-10.80521,0 -19.56456,-8.75935 -19.56456,-19.56456c0,-10.8052 8.75935,-19.56456 19.56456,-19.56456c4.39186,0 8.44572,1.44712 11.71079,3.89053z" fill="url(#color-125)"/><path d="M319.66265,142.31445c-0.10634,8.05598 -0.0616,16.11491 0.15036,24.16767c-3.43613,4.11736 -8.60638,6.73716 -14.38851,6.73716c-10.34541,0 -18.73202,-8.38662 -18.73202,-18.73202c0,-10.3454 8.38661,-18.73203 18.73202,-18.73203c5.6984,0 10.80252,2.54448 14.23815,6.55923z" fill="url(#color-126)"/><path d="M289.60635,202.35797c-12.79765,0 -23.17221,-10.37456 -23.17221,-23.17221c0,-12.79765 10.37456,-23.17221 23.17221,-23.17221c12.79765,0 23.17221,10.37456 23.17221,23.17221c0,12.79765 -10.37456,23.17221 -23.17221,23.17221z" fill="url(#color-127)"/><path d="M277.11834,186.53982c-9.42582,0 -17.06696,-7.64114 -17.06696,-17.06696c0,-9.42582 7.64114,-17.06696 17.06696,-17.06696c9.42582,0 17.06696,7.64114 17.06696,17.06696c0,9.42582 -7.64114,17.06696 -17.06696,17.06696z" fill="url(#color-128)"/><path d="M265.18533,206.24313c-13.87051,0 -25.11479,-11.24428 -25.11479,-25.11479c0,-13.87051 11.24428,-25.11479 25.11479,-25.11479c13.87051,0 25.11479,11.24428 25.11479,25.11479c0,13.87051 -11.24428,25.11479 -25.11479,25.11479z" fill="url(#color-129)"/><path d="M273.09443,237.0469c-11.80143,0 -21.36839,-9.56695 -21.36839,-21.36838c0,-11.80143 9.56696,-21.36838 21.36839,-21.36838c11.80143,0 21.36838,9.56695 21.36838,21.36838c0,11.80143 -9.56696,21.36838 -21.36838,21.36838z" fill="url(#color-130)"/><path d="M249.0897,234.27179c-11.265,0 -20.3971,-9.13209 -20.3971,-20.39709c0,-11.265 9.13209,-20.3971 20.3971,-20.3971c11.265,0 20.39709,9.13209 20.39709,20.3971c0,11.265 -9.13209,20.39709 -20.39709,20.39709z" fill="url(#color-131)"/><path d="M253.66865,257.30524c-13.33407,0 -24.14349,-10.80943 -24.14349,-24.1435c0,-13.33407 10.80943,-24.14349 24.1435,-24.14349c13.33407,0 24.1435,10.80943 24.1435,24.1435c0,13.33407 -10.80943,24.1435 -24.1435,24.1435z" fill="url(#color-132)"/><path d="M319.7897,182.85485c-0.22431,11.3508 -0.25322,22.70777 -0.06148,34.05935c-3.67494,2.87706 -8.30339,4.59206 -13.3324,4.59206c-11.9547,0 -21.64589,-9.6912 -21.64589,-21.64589c0,-11.95469 9.69119,-21.64589 21.64589,-21.64589c5.0571,0 9.70915,1.73422 13.39388,4.64038z" fill="url(#color-133)"/><path d="M319.60249,203.33145c0.01196,6.86704 0.10093,13.73381 0.27254,20.59772c0.01718,0.68715 0.07239,1.33563 0.16256,1.94613c-0.12633,3.52665 -0.1832,7.05875 -0.14357,10.58864c-2.78915,1.60655 -6.02439,2.52554 -9.47428,2.52554c-10.49867,0 -19.00954,-8.51086 -19.00954,-19.00953c0,-10.49867 8.51087,-19.00953 19.00954,-19.00953c3.33035,0 6.46067,0.85642 9.18276,2.36104z" fill="url(#color-134)"/><path d="M319.61306,206.42018c0.0299,5.83733 0.11608,11.67419 0.26195,17.50899c0.01718,0.68715 0.07239,1.33563 0.16256,1.94613c-0.20895,5.83291 -0.22787,11.68075 0.06554,17.50879c-4.31137,3.82682 -9.98674,6.15083 -16.20491,6.15083c-13.48735,0 -24.42101,-10.93366 -24.42101,-24.42101c0,-13.48735 10.93367,-24.42101 24.42101,-24.42101c5.98532,0 11.46773,2.15321 15.71487,5.72728z" fill="url(#color-135)"/><path d="M319.95298,228.65125c-0.14954,5.99466 -0.07817,11.99926 0.3466,17.97618c0.0208,0.29277 0.04342,0.59015 0.06849,0.89104c-0.25859,3.37675 -0.10481,6.77573 0.00693,10.1607c0.00324,0.0983 0.00937,0.20253 0.01833,0.31212c-0.02607,2.38311 -0.03753,4.76645 -0.0339,7.14973c-3.62732,2.58004 -8.06327,4.09721 -12.85359,4.09721c-12.26123,0 -22.20092,-9.93969 -22.20092,-22.20091c0,-12.26122 9.93969,-22.20092 22.20092,-22.20092c4.61285,0 8.89711,1.40684 12.44714,3.81485z" fill="url(#color-136)"/><path d="M320.23671,250.42416c-0.04258,2.41669 0.05856,4.83942 0.13831,7.25501c0.00324,0.0983 0.00937,0.20253 0.01833,0.31212c-0.03062,2.79922 -0.04108,5.59875 -0.0306,8.39815c-0.17579,2.85012 -0.84097,7.89706 -0.58345,12.83006c-0.05655,-0.00507 -0.11323,-0.00966 -0.17005,-0.01379c-2.7612,-0.30505 -5.75688,-0.01411 -7.97683,0.09661c-2.06387,0.10294 -4.13063,0.21374 -6.1992,0.32451c-1.94802,-0.21688 -3.95011,-0.16264 -5.76953,0.02183c-0.34782,-0.06464 -0.72244,-0.11558 -1.12725,-0.15277c-0.38102,-0.04407 -0.76857,-0.06672 -1.16141,-0.06672c-3.95008,-0.1071 -7.90105,-0.15337 -11.85251,-0.16458c-1.73263,-3.23519 -2.71517,-6.9323 -2.71517,-10.85889c0,-12.72101 10.31243,-23.03345 23.03345,-23.03345c5.44711,0 10.4526,1.89082 14.39592,5.05192z" fill="url(#color-137)"/><path d="M317.20349,279.07204c-2.00732,-0.01955 -3.98674,0.15126 -5.57106,0.23028c-2.06387,0.10294 -4.13063,0.21374 -6.1992,0.32451c-1.94802,-0.21688 -3.95011,-0.16264 -5.76953,0.02183c-0.34782,-0.06464 -0.72244,-0.11558 -1.12725,-0.15277c-0.38102,-0.04407 -0.76857,-0.06672 -1.16141,-0.06672c-4.45893,-0.1209 -8.91901,-0.16429 -13.37963,-0.16722c-0.5905,-1.75335 -0.91055,-3.63107 -0.91055,-5.58353c0,-9.65571 7.82751,-17.48322 17.48322,-17.48322c9.65571,0 17.48323,7.82751 17.48323,17.48322c0,1.88215 -0.29742,3.69484 -0.84782,5.39363z" fill="url(#color-138)"/><path d="M304.92556,279.57645c-1.78609,-0.15612 -3.60017,-0.09627 -5.26189,0.0722c-0.34782,-0.06464 -0.72243,-0.11558 -1.12725,-0.15277c-0.38102,-0.04407 -0.76857,-0.06672 -1.16141,-0.06672c-9.20129,-0.24948 -18.40744,-0.16893 -27.61321,-0.08383c-0.71684,-1.98588 -1.10757,-4.12765 -1.10757,-6.3607c0,-10.34541 8.38662,-18.73203 18.73202,-18.73203c10.3454,0 18.73203,8.38662 18.73203,18.73203c0,2.31993 -0.42174,4.54137 -1.19273,6.59181z" fill="url(#color-139)"/><path d="M274.3909,279.30446c-5.25545,0.04249 -10.51107,0.10424 -15.76587,0.12471c-0.81069,0.00315 -1.9216,0.07361 -3.13406,0.22342c-6.50508,-0.01106 -13.01022,0.02609 -19.51436,0.11428c-1.81019,-3.18924 -2.84383,-6.87698 -2.84383,-10.80615c0,-12.10796 9.81545,-21.9234 21.92341,-21.9234c12.10796,0 21.92341,9.81544 21.92341,21.9234c0,3.74067 -0.93684,7.26253 -2.58869,10.34374z" fill="url(#color-140)"/><path d="M251.67979,273.12339c-12.23568,0 -22.15467,-9.91899 -22.15467,-22.15466c0,-12.23567 9.919,-22.15466 22.15467,-22.15466c12.23568,0 22.15467,9.91899 22.15467,22.15466c0,12.23567 -9.91899,22.15466 -22.15467,22.15466z" fill="url(#color-141)"/><path d="M287.24753,266.18561c-12.26121,0 -22.20092,-9.93971 -22.20092,-22.20092c0,-12.26121 9.93971,-22.20092 22.20092,-22.20092c12.26121,0 22.20092,9.93971 22.20092,22.20092c0,12.26121 -9.93971,22.20092 -22.20092,22.20092z" fill="url(#color-142)"/></g><g><path d="M317.42251,159.99091h2.46935v39h-2.46935z" fill="url(#color-143)"/><path d="M317.42251,237.99091h2.46935v41.42857h-2.46935z" fill="url(#color-144)"/><path d="M319.89189,87.99091v33h-2.46935v-38.82489c0,0 1.08315,0.96593 1.79673,2.30263c0.91496,1.71392 0.67262,3.52227 0.67262,3.52227z" fill="url(#color-145)"/><g><path d="M160.00001,240.55833v-2.46935h160v2.46935z" fill="url(#color-146)"/><path d="M320.00005,235.68898v2.46936h-160v-2.46936z" data-paper-data="{&quot;index&quot;:null}" fill="url(#color-147)"/></g><g><path d="M160.00001,201.55833v-2.46935h160v2.46935z" fill="url(#color-148)"/><path d="M320.00005,196.68898v2.46936h-160v-2.46936z" data-paper-data="{&quot;index&quot;:null}" fill="url(#color-149)"/></g><g><path d="M160.00001,162.55833v-2.46935h160v2.46935z" fill="url(#color-150)"/><path d="M320.00005,157.68898v2.46936h-160v-2.46936z" data-paper-data="{&quot;index&quot;:null}" fill="url(#color-151)"/></g><g><path d="M160.00001,123.55833v-2.46935h160v2.46935z" fill="url(#color-152)"/><path d="M320.00005,118.68898v2.46936h-160v-2.46936z" data-paper-data="{&quot;index&quot;:null}" fill="url(#color-153)"/></g><g><path d="M197.56544,120.99091h2.46935v39h-2.46935z" fill="url(#color-154)"/><path d="M202.43478,159.99091h-2.46936v-39h2.46936z" data-paper-data="{&quot;index&quot;:null}" fill="url(#color-155)"/></g><g><path d="M237.56542,159.99091h2.46935v39h-2.46935z" fill="url(#color-156)"/><path d="M242.43478,198.99091h-2.46935v-39h2.46935z" data-paper-data="{&quot;index&quot;:null}" fill="url(#color-157)"/></g><g><path d="M197.56542,198.99091h2.46935v39h-2.46935z" fill="url(#color-158)"/><path d="M202.43478,237.99091h-2.46935v-39h2.46935z" data-paper-data="{&quot;index&quot;:null}" fill="url(#color-159)"/></g><g><path d="M237.56542,237.99091h2.46935v41.42857h-2.46935z" fill="url(#color-160)"/><path d="M242.43478,279.41948h-2.46935v-41.42857h2.46935z" data-paper-data="{&quot;index&quot;:null}" fill="url(#color-161)"/></g><g><path d="M237.56542,80.56234h2.46935v40.42857h-2.46935z" fill="url(#color-162)"/><path d="M242.43477,120.99091h-2.46936v-40.42857h2.46936z" data-paper-data="{&quot;index&quot;:null}" fill="url(#color-163)"/></g><g><path d="M277.56534,120.99091h2.46935v39h-2.46935z" fill="url(#color-164)"/><path d="M282.4347,159.99091h-2.46936v-39h2.46936z" data-paper-data="{&quot;index&quot;:null}" fill="url(#color-165)"/></g><g><path d="M277.56533,198.99091h2.46935v39h-2.46935z" fill="url(#color-166)"/><path d="M282.4347,237.99091h-2.46935v-39h2.46935z" data-paper-data="{&quot;index&quot;:null}" fill="url(#color-167)"/></g><path d="M162.57755,198.99091h-2.46935v-39h2.46935z" data-paper-data="{&quot;index&quot;:null}" fill="url(#color-168)"/><path d="M162.57755,279.41948h-2.46935v-41.42857h2.46935z" data-paper-data="{&quot;index&quot;:null}" fill="url(#color-169)"/><path d="M160.78081,84.46865c0.71358,-1.3367 1.79673,-2.30263 1.79673,-2.30263v38.8249h-2.46935v-33c0,0 -0.24234,-1.80834 0.67262,-3.52227z" data-paper-data="{&quot;index&quot;:null}" fill="url(#color-170)"/></g><path d="M-1.5,361v-362h483v362z" fill="url(#color-171)"/></g></g></svg>