<svg version="1.1" xmlns="http://www.w3.org/2000/svg" xmlns:xlink="http://www.w3.org/1999/xlink" width="70.16642" height="40.92675" viewBox="0,0,70.16642,40.92675"><defs><linearGradient x1="258.40103" y1="179.90761" x2="258.40103" y2="198.24191" gradientUnits="userSpaceOnUse" id="color-1"><stop offset="0" stop-color="#ffee7a" stop-opacity="0"/><stop offset="1" stop-color="#ffee7a"/></linearGradient><linearGradient x1="232.32302" y1="183.05683" x2="232.32302" y2="196.61292" gradientUnits="userSpaceOnUse" id="color-2"><stop offset="0" stop-color="#d8641f" stop-opacity="0"/><stop offset="1" stop-color="#d8641f"/></linearGradient><linearGradient x1="252.61272" y1="187.70082" x2="212.63459" y2="187.70082" gradientUnits="userSpaceOnUse" id="color-3"><stop offset="0" stop-color="#d8631f" stop-opacity="0"/><stop offset="1" stop-color="#d8631f"/></linearGradient></defs><g transform="translate(-201.67964,-159.55917)"><g data-paper-data="{&quot;isPaintingLayer&quot;:true}" fill-rule="nonzero" stroke-linejoin="miter" stroke-miterlimit="10" stroke-dasharray="" stroke-dashoffset="0" style="mix-blend-mode: normal"><g data-paper-data="{&quot;index&quot;:null}"><path d="M226.61076,165.53792c6.59271,1.4065 12.83039,4.3202 18.92716,7.18413c4.76376,2.23546 9.51915,4.98482 14.1611,7.66762c1.20744,0.69239 2.56012,1.22133 2.27946,2.07257c-0.06481,0.97942 -1.96321,0.7763 -2.97012,1.58878c-3.5384,2.89143 -6.12862,7.0927 -9.94738,9.46359c-3.85319,2.39143 -8.13172,4.68767 -12.7103,4.90439c-8.86841,0.4589 -18.32216,0.78615 -26.52593,-2.60149c-4.22356,-1.74331 -6.1147,-7.1604 -7.66762,-11.49015c-0.45599,-1.26994 1.18517,-2.85582 2.41777,-3.38504c0.66723,-0.23061 1.37727,2.77423 1.38131,1.86511c0.01795,-3.63475 -2.52828,-7.40779 -1.38131,-10.84521c1.11747,-3.06851 4.26753,-5.51115 7.3913,-6.42432c4.67927,-1.37034 9.80356,-1.03324 14.64458,0z" id="ID0.32891670893877745" fill="#908880" stroke="#19282b" stroke-width="0.47748" stroke-linecap="round"/><path d="M218.59333,175.41817c0.08507,1.18545 -0.6762,2.5092 -1.58329,3.35871c-0.85645,0.80785 -2.10556,1.19789 -3.32717,1.25836c-1.17386,0.05383 -2.48807,-0.34027 -3.37607,-1.04858c-0.888,-0.70832 -1.46321,-1.72101 -1.51964,-2.86393c-0.0567,-1.14321 0.4155,-2.20771 1.22914,-3.00022c0.81365,-0.79252 1.96003,-1.31304 3.25571,-1.37728c1.29598,-0.06423 2.44004,0.33854 3.37607,1.04858c0.91837,0.70252 1.86512,1.53931 1.94526,2.62435z" id="ID0.7117022019810975" fill="#ff923e" stroke="none" stroke-width="1.50979" stroke-linecap="butt"/><path d="M214.09059,173.10833c0.17881,0.74998 0.28934,1.78381 0.28934,2.92816c0,1.14465 -0.11053,2.17847 -0.28934,2.92816c-0.1791,0.7526 -0.42622,1.21554 -0.69733,1.21554c-0.27082,0 -0.51822,-0.46295 -0.69703,-1.21554c-0.1791,-0.74969 -0.28963,-1.78352 -0.28963,-2.92816c0,-1.14435 0.11052,-2.17818 0.28963,-2.92816c0.17882,-0.75231 0.4262,-1.21554 0.69703,-1.21554c0.27111,0 0.51822,0.46325 0.69733,1.21554z" id="ID0.9093607822433114" fill="#000000" stroke="none" stroke-width="0.90927" stroke-linecap="butt"/><path d="M229.48077,165.72225c0.01243,-1.49245 0.24366,-3.23922 1.25953,-4.19088c1.25662,-1.17242 3.18625,-1.5231 4.86272,-1.73346c0.48089,-0.06019 0.5648,0.30352 1.17416,0.86311c2.44034,2.24012 4.89572,4.51176 7.32823,6.72755c0.6085,0.55409 1.00751,0.46208 1.16838,0.93197c0.39263,1.14842 0.99966,2.90444 0.43342,3.85031c-0.39235,0.5321 -1.2896,-0.4861 -2.35004,-0.89436c-4.24323,-1.63567 -8.46593,-3.36537 -12.66691,-5.10433c-1.08619,-0.45051 -1.21758,-0.06394 -1.20947,-0.44993z" id="ID0.32891670893877745" fill="#6d6761" stroke="#19282b" stroke-width="0.47748" stroke-linecap="round"/><path d="M256.16788,184.40344c0.09231,0.60503 2.31824,-0.1869 1.75777,0.55498c-2.24068,2.9678 -5.18476,5.58435 -8.14157,7.95639c-1.9389,1.55437 -4.05573,2.96058 -6.38351,3.88561c-1.9982,0.76792 -4.24265,0.90102 -6.38351,1.11021c-3.04362,0.29774 -6.17257,0.40711 -9.2515,0.27748c-3.86882,-0.1629 -7.95437,-0.19415 -11.7494,-1.20281c-0.97134,-0.26621 -3.21954,-0.22917 0.09258,-1.57259c13.50717,-5.58781 26.9886,-11.59779 40.98419,-15.35752c3.49905,-0.94008 -1.1545,2.86422 -0.92505,4.34826z" id="ID0.1035886537283659" fill="url(#color-1)" stroke="none" stroke-width="0.63948" stroke-linecap="round"/><path d="M231.25824,187.35385c1.61512,0.11111 0.90824,0.45717 0.92503,0.83274c0.01302,0.34404 0.50694,-0.08332 -1.01762,0.55498c-6.09503,2.55345 -11.98638,5.41217 -18.13291,7.58631c-1.59139,0.53094 -2.08531,0.25174 -2.77568,-0.27748c-1.97043,-1.51558 -3.94289,-3.2991 -4.99581,-5.55107c-1.00287,-2.14982 -2.3165,-6.37975 -0.73986,-7.30854c1.7077,-0.92157 4.62574,3.20275 7.30854,3.60812c6.49839,0.9806 12.97073,0.11083 19.42832,0.55498z" id="ID0.1035886537283659" fill="url(#color-2)" stroke="none" stroke-width="0.63948" stroke-linecap="round"/><path d="M251.36764,191.26005c0.40682,0.12413 1.88914,0.27951 0.92505,0.83274c-3.85609,2.21291 -7.91732,4.53142 -12.30465,5.64337c-4.34451,1.17298 -8.93321,1.2138 -13.50717,1.11021c-4.25943,-0.09809 -8.37797,-1.01416 -12.67444,-1.75777c-1.07317,-0.18517 -1.85787,0.05903 -0.27748,-0.64755c6.37801,-3.02165 12.96668,-5.65293 19.42802,-8.32647c1.61541,-0.66809 -0.0683,-0.37007 1.01761,-0.18518c4.34278,0.73669 8.89997,1.60615 13.41489,2.40561c1.27863,0.31076 2.54768,0.49941 3.97819,0.92503z" id="ID0.1035886537283659" fill="url(#color-3)" stroke="none" stroke-width="0.63948" stroke-linecap="round"/><path d="M255.13083,188.80929c1.21207,0.87035 2.5063,2.06622 2.69843,3.44494c0.23352,1.70279 -0.59199,3.48168 -1.38652,4.97267c-0.228,0.42765 -0.57349,0.28675 -1.38191,0.46209c-3.23718,0.70281 -6.50908,1.39985 -9.72196,2.11048c-0.80322,0.17794 -0.95803,0.55698 -1.43486,0.41752c-1.16461,-0.34113 -2.94957,-0.85732 -3.39603,-1.86511c-0.20862,-0.6273 1.14061,-0.7737 2.0856,-1.40506c3.78232,-2.52454 7.62973,-4.97789 11.47222,-7.40867c0.9942,-0.62759 0.75404,-0.95803 1.06508,-0.72886z" id="ID0.32891670893877745" fill="#6d6761" stroke="#19282b" stroke-width="0.47748" stroke-linecap="round"/><path d="M222.34036,174.14101c0.2034,-0.06279 0.83621,0.58852 1.06392,1.01762c0.41811,1.19355 0.82695,2.44814 0.83274,3.70071c-0.00578,1.2433 -0.29803,2.46261 -0.64784,3.60812c-0.29398,0.59577 -0.96758,1.48377 -1.24882,1.48029c-0.25173,-0.00377 0.19069,-0.98435 0.32378,-1.48029c0.06858,-1.2028 0.21845,-2.39431 0.27748,-3.60812c0.05555,-1.13973 -0.09983,-2.28901 -0.18489,-3.42324c-0.1166,-0.44589 -0.61254,-1.23405 -0.41637,-1.29511z" id="ID0.4455803711898625" fill="#19272a" stroke="none" stroke-width="0.63948" stroke-linecap="round"/><path d="M225.66781,174.43035c0.2034,-0.06279 0.83621,0.58852 1.06392,1.01762c0.41811,1.19355 0.82695,2.44814 0.83274,3.70071c-0.00578,1.2433 -0.29803,2.46261 -0.64784,3.60812c-0.29398,0.59577 -0.96758,1.48377 -1.24882,1.48029c-0.25173,-0.00377 0.19069,-0.98435 0.32378,-1.48029c0.06858,-1.2028 0.21845,-2.39431 0.27748,-3.60812c0.05555,-1.13973 -0.09983,-2.28901 -0.18489,-3.42324c-0.1166,-0.44589 -0.61254,-1.23405 -0.41637,-1.29511z" id="ID0.4455803711898625" fill="#19272a" stroke="none" stroke-width="0.63948" stroke-linecap="round"/><path d="M228.84741,176.29606c0.15279,-0.04718 0.6273,0.44125 0.79801,0.76328c0.31365,0.89494 0.62037,1.83589 0.62441,2.77538c-0.00405,0.93256 -0.22338,1.84718 -0.48552,2.70595c-0.22076,0.44703 -0.72595,1.11311 -0.93689,1.11021c-0.18866,-0.00259 0.14295,-0.73812 0.24277,-1.11021c0.05149,-0.90189 0.16376,-1.79567 0.20832,-2.70595c0.04165,-0.85473 -0.07495,-1.71668 -0.13889,-2.56736c-0.08738,-0.33449 -0.45919,-0.92561 -0.3122,-0.97133z" id="ID0.4455803711898625" fill="#19272a" stroke="none" stroke-width="0.47961" stroke-linecap="round"/><path d="M226.61076,165.53792c6.59271,1.4065 12.83039,4.3202 18.92716,7.18413c4.76376,2.23546 9.51915,4.98482 14.1611,7.66762c1.20744,0.69239 2.56012,1.22133 2.27946,2.07257c-0.06481,0.97942 -1.96321,0.7763 -2.97012,1.58878c-3.5384,2.89143 -6.12862,7.0927 -9.94738,9.46359c-3.85319,2.39143 -8.13172,4.68767 -12.7103,4.90439c-8.86841,0.4589 -18.32216,0.78615 -26.52593,-2.60149c-4.22356,-1.74331 -6.1147,-7.1604 -7.66762,-11.49015c-0.45599,-1.26994 1.18517,-2.85582 2.41777,-3.38504c0.66723,-0.23061 1.37727,2.77423 1.38131,1.86511c0.01795,-3.63475 -2.52828,-7.40779 -1.38131,-10.84521c1.11747,-3.06851 4.26753,-5.51115 7.3913,-6.42432c4.67927,-1.37034 9.80356,-1.03324 14.64458,0z" id="ID0.32891670893877745" fill="none" stroke="#13152e" stroke-width="0.95496" stroke-linecap="round"/><g id="ID0.41052951384335756" fill="#6d6761" stroke-linecap="round"><path d="M258.24157,181.38239c-0.40537,-0.51329 -0.7109,-0.69327 0.15799,-1.80232c3.47359,-4.43391 7.38725,-9.11203 11.73031,-13.00255c1.08475,-0.97162 1.13048,0.52863 1.46669,1.01357c0.28732,0.41204 0.06164,0.70745 -0.00896,1.42213c-0.28123,2.85814 -0.5185,5.65439 -0.95512,8.45291c-0.1088,0.69962 -0.02663,1.13335 -0.66231,1.54972c-2.38795,1.5885 -4.91134,3.13042 -7.70756,3.99729c-0.77979,0.24132 -1.43716,-0.66404 -2.24385,-0.98926c-0.58331,-0.23525 -1.48926,-0.10879 -1.77716,-0.64148z" id="ID0.32891670893877745" stroke="#19282b" stroke-width="0.49901"/><path d="M257.96559,183.19281c-0.8689,-1.10905 -0.56333,-1.28903 -0.15796,-1.80232c0.28789,-0.53268 1.19384,-0.40624 1.77715,-0.64148c0.80669,-0.32522 1.47509,-1.26355 2.24386,-0.98926c2.67787,0.95715 4.87689,2.79073 7.17429,4.31586c0.62266,0.41059 1.04887,0.5353 1.19557,1.23117c0.58071,2.77163 0.67387,5.59477 0.95511,8.45291c0.0706,0.71469 0.29629,1.0101 0.00897,1.42213c-0.33623,0.48493 -0.38193,1.98518 -1.46669,1.01357c-4.34307,-3.89052 -8.25674,-8.56864 -11.73031,-13.00255z" id="ID0.32891670893877745" stroke="#19282b" stroke-width="0.49901"/><path d="M265.22899,183.86353l-7.44482,-2.03033l2.99731,-3.57745l4.73772,0.38686z" id="ID0.5711194332689047" stroke="none" stroke-width="0.66831"/></g></g></g></g></svg>