<svg version="1.1" xmlns="http://www.w3.org/2000/svg" xmlns:xlink="http://www.w3.org/1999/xlink" width="70.2354" height="40.90305" viewBox="0,0,70.2354,40.90305"><defs><linearGradient x1="221.59899" y1="179.90761" x2="221.59899" y2="198.24191" gradientUnits="userSpaceOnUse" id="color-1"><stop offset="0" stop-color="#ffee7a" stop-opacity="0"/><stop offset="1" stop-color="#ffee7a"/></linearGradient><linearGradient x1="247.677" y1="183.05683" x2="247.677" y2="196.61292" gradientUnits="userSpaceOnUse" id="color-2"><stop offset="0" stop-color="#d8641f" stop-opacity="0"/><stop offset="1" stop-color="#d8641f"/></linearGradient><linearGradient x1="227.38731" y1="187.70082" x2="267.36544" y2="187.70082" gradientUnits="userSpaceOnUse" id="color-3"><stop offset="0" stop-color="#d8631f" stop-opacity="0"/><stop offset="1" stop-color="#d8631f"/></linearGradient></defs><g transform="translate(-208.16292,-159.55268)"><g data-paper-data="{&quot;isPaintingLayer&quot;:true}" fill-rule="nonzero" stroke-linejoin="miter" stroke-miterlimit="10" stroke-dasharray="" stroke-dashoffset="0" style="mix-blend-mode: normal"><g><path d="M253.38925,165.5379c4.84102,-1.03324 9.96531,-1.37034 14.64458,0c3.12377,0.91317 6.27383,3.35581 7.3913,6.42432c1.14697,3.43742 -1.39926,7.21046 -1.38131,10.84521c0.00404,0.90912 0.71408,-2.09572 1.38131,-1.86511c1.2326,0.52922 2.87376,2.1151 2.41777,3.38504c-1.55292,4.32975 -3.44406,9.74684 -7.66762,11.49015c-8.20377,3.38764 -17.65752,3.06039 -26.52593,2.60149c-4.57858,-0.21672 -8.85711,-2.51296 -12.7103,-4.90439c-3.81876,-2.37089 -6.40898,-6.57216 -9.94738,-9.46359c-1.00691,-0.81248 -2.90531,-0.60936 -2.97012,-1.58878c-0.28066,-0.85124 1.07202,-1.38018 2.27946,-2.07257c4.64195,-2.6828 9.39734,-5.43216 14.1611,-7.66762c6.09677,-2.86393 12.33445,-5.77763 18.92716,-7.18413z" id="ID0.32891670893877745" fill="#908880" stroke="#19282b" stroke-width="0.47748" stroke-linecap="round"/><path d="M261.40668,175.41815c0.08014,-1.08504 1.02689,-1.92183 1.94526,-2.62435c0.93603,-0.71004 2.08009,-1.11281 3.37607,-1.04858c1.29568,0.06424 2.44206,0.58476 3.25571,1.37728c0.81364,0.79251 1.28584,1.85701 1.22914,3.00022c-0.05643,1.14292 -0.63164,2.15561 -1.51964,2.86393c-0.888,0.70831 -2.20221,1.10241 -3.37607,1.04858c-1.22161,-0.06047 -2.47072,-0.45051 -3.32717,-1.25836c-0.90709,-0.84951 -1.66836,-2.17326 -1.58329,-3.35871z" id="ID0.7117022019810975" fill="#ff923e" stroke="none" stroke-width="1.50979" stroke-linecap="butt"/><path d="M266.60677,171.89279c0.27083,0 0.51821,0.46323 0.69703,1.21554c0.17911,0.74998 0.28963,1.78381 0.28963,2.92816c0,1.14464 -0.11053,2.17847 -0.28963,2.92816c-0.17881,0.75259 -0.42621,1.21554 -0.69703,1.21554c-0.27111,0 -0.51823,-0.46294 -0.69733,-1.21554c-0.17881,-0.74969 -0.28934,-1.78351 -0.28934,-2.92816c0,-1.14435 0.11053,-2.17818 0.28934,-2.92816c0.17911,-0.75229 0.42622,-1.21554 0.69733,-1.21554z" id="ID0.9093607822433114" fill="#000000" stroke="none" stroke-width="0.90927" stroke-linecap="butt"/><path d="M250.51923,165.72223c0.00811,0.38599 -0.12328,-0.00058 -1.20947,0.44993c-4.20098,1.73896 -8.42368,3.46866 -12.66691,5.10433c-1.06044,0.40826 -1.95769,1.42646 -2.35004,0.89436c-0.56624,-0.94587 0.04079,-2.70189 0.43342,-3.85031c0.16087,-0.46989 0.55988,-0.37788 1.16838,-0.93197c2.43251,-2.21579 4.88789,-4.48743 7.32823,-6.72755c0.60936,-0.55959 0.69327,-0.9233 1.17416,-0.86311c1.67647,0.21036 3.6061,0.56104 4.86272,1.73346c1.01587,0.95166 1.2471,2.69843 1.25953,4.19088z" id="ID0.32891670893877745" fill="#6d6761" stroke="#19282b" stroke-width="0.47748" stroke-linecap="round"/><path d="M223.83215,184.40345c0.22945,-1.48404 -4.4241,-5.28834 -0.92505,-4.34826c13.99559,3.75973 27.47702,9.76971 40.98419,15.35752c3.31212,1.34342 1.06392,1.30638 0.09258,1.57259c-3.79503,1.00866 -7.88058,1.03991 -11.7494,1.20281c-3.07893,0.12963 -6.20788,0.02026 -9.2515,-0.27748c-2.14086,-0.20919 -4.38531,-0.34229 -6.38351,-1.11021c-2.32778,-0.92503 -4.44461,-2.33124 -6.38351,-3.88561c-2.95681,-2.37204 -5.90089,-4.98859 -8.14157,-7.95639c-0.56047,-0.74188 1.66546,0.05005 1.75777,-0.55498z" id="ID0.1035886537283659" fill="url(#color-1)" stroke="none" stroke-width="0.63948" stroke-linecap="round"/><path d="M248.74178,187.35389c6.45759,-0.44415 12.92993,0.42562 19.42832,-0.55498c2.6828,-0.40537 5.60084,-4.52969 7.30854,-3.60812c1.57664,0.92879 0.26301,5.15872 -0.73986,7.30854c-1.05292,2.25197 -3.02538,4.03549 -4.99581,5.55107c-0.69037,0.52922 -1.18429,0.80842 -2.77568,0.27748c-6.14653,-2.17414 -12.03788,-5.03286 -18.13291,-7.58631c-1.52456,-0.6383 -1.03064,-0.21094 -1.01762,-0.55498c0.01679,-0.37557 -0.69009,-0.72163 0.92503,-0.83274z" id="ID0.1035886537283659" fill="url(#color-2)" stroke="none" stroke-width="0.63948" stroke-linecap="round"/><path d="M228.63237,191.26005c1.43051,-0.42562 2.69956,-0.61427 3.97819,-0.92503c4.51492,-0.79946 9.07211,-1.66892 13.41489,-2.40561c1.08591,-0.18489 -0.5978,-0.48291 1.01761,0.18518c6.46134,2.67354 13.05001,5.30482 19.42802,8.32647c1.58039,0.70658 0.79569,0.46238 -0.27748,0.64755c-4.29647,0.74361 -8.41501,1.65968 -12.67444,1.75777c-4.57396,0.10359 -9.16266,0.06277 -13.50717,-1.11021c-4.38733,-1.11195 -8.44856,-3.43046 -12.30465,-5.64337c-0.96409,-0.55323 0.51823,-0.70861 0.92505,-0.83274z" id="ID0.1035886537283659" fill="url(#color-3)" stroke="none" stroke-width="0.63948" stroke-linecap="round"/><path d="M224.86914,188.80929c0.31104,-0.22917 0.07088,0.10127 1.06508,0.72886c3.84249,2.43078 7.6899,4.88413 11.47222,7.40867c0.94499,0.63136 2.29422,0.77776 2.0856,1.40506c-0.44646,1.00779 -2.23142,1.52398 -3.39603,1.86511c-0.47683,0.13946 -0.63164,-0.23958 -1.43486,-0.41752c-3.21288,-0.71063 -6.48478,-1.40767 -9.72196,-2.11048c-0.80842,-0.17534 -1.15391,-0.03444 -1.38191,-0.46209c-0.79453,-1.49099 -1.62004,-3.26988 -1.38652,-4.97267c0.19213,-1.37872 1.48636,-2.57459 2.69843,-3.44494z" id="ID0.32891670893877745" fill="#6d6761" stroke="#19282b" stroke-width="0.47748" stroke-linecap="round"/><path d="M257.65966,174.14099c0.19617,0.06106 -0.29977,0.84922 -0.41637,1.29511c-0.08506,1.13423 -0.24044,2.28351 -0.18489,3.42324c0.05903,1.21381 0.2089,2.40532 0.27748,3.60812c0.13309,0.49594 0.57551,1.47652 0.32378,1.48029c-0.28124,0.00348 -0.95484,-0.88452 -1.24882,-1.48029c-0.34981,-1.14551 -0.64206,-2.36482 -0.64784,-3.60812c0.00579,-1.25257 0.41463,-2.50716 0.83274,-3.70071c0.22771,-0.4291 0.86052,-1.08041 1.06392,-1.01762z" id="ID0.4455803711898625" fill="#19272a" stroke="none" stroke-width="0.63948" stroke-linecap="round"/><path d="M254.33222,174.43033c0.19617,0.06106 -0.29977,0.84922 -0.41637,1.29511c-0.08506,1.13423 -0.24044,2.28351 -0.18489,3.42324c0.05903,1.21381 0.2089,2.40532 0.27748,3.60812c0.13309,0.49594 0.57551,1.47652 0.32378,1.48029c-0.28124,0.00348 -0.95484,-0.88452 -1.24882,-1.48029c-0.34981,-1.14551 -0.64206,-2.36482 -0.64784,-3.60812c0.00579,-1.25257 0.41463,-2.50716 0.83274,-3.70071c0.22771,-0.4291 0.86052,-1.08041 1.06392,-1.01762z" id="ID0.4455803711898625" fill="#19272a" stroke="none" stroke-width="0.63948" stroke-linecap="round"/><path d="M251.15261,176.29603c0.14699,0.04572 -0.22482,0.63684 -0.3122,0.97133c-0.06394,0.85068 -0.18054,1.71263 -0.13889,2.56736c0.04456,0.91028 0.15683,1.80406 0.20832,2.70595c0.09982,0.37209 0.43143,1.10762 0.24277,1.11021c-0.21094,0.0029 -0.71613,-0.66318 -0.93689,-1.11021c-0.26214,-0.85877 -0.48147,-1.77339 -0.48552,-2.70595c0.00404,-0.93949 0.31076,-1.88044 0.62441,-2.77538c0.17071,-0.32203 0.64522,-0.81046 0.79801,-0.76328z" id="ID0.4455803711898625" fill="#19272a" stroke="none" stroke-width="0.47961" stroke-linecap="round"/><path d="M253.38925,165.5379c4.84102,-1.03324 9.96531,-1.37034 14.64458,0c3.12377,0.91317 6.27383,3.35581 7.3913,6.42432c1.14697,3.43742 -1.39926,7.21046 -1.38131,10.84521c0.00404,0.90912 0.71408,-2.09572 1.38131,-1.86511c1.2326,0.52922 2.87376,2.1151 2.41777,3.38504c-1.55292,4.32975 -3.44406,9.74684 -7.66762,11.49015c-8.20377,3.38764 -17.65752,3.06039 -26.52593,2.60149c-4.57858,-0.21672 -8.85711,-2.51296 -12.7103,-4.90439c-3.81876,-2.37089 -6.40898,-6.57216 -9.94738,-9.46359c-1.00691,-0.81248 -2.90531,-0.60936 -2.97012,-1.58878c-0.28066,-0.85124 1.07202,-1.38018 2.27946,-2.07257c4.64195,-2.6828 9.39734,-5.43216 14.1611,-7.66762c6.09677,-2.86393 12.33445,-5.77763 18.92716,-7.18413z" id="ID0.32891670893877745" fill="none" stroke="#13152e" stroke-width="0.95496" stroke-linecap="round"/><g id="ID0.41052951384335756" fill="#6d6761" stroke-linecap="round"><path d="M221.75843,181.3824c-0.2879,0.53269 -1.19385,0.40623 -1.77716,0.64148c-0.80669,0.32522 -1.46406,1.23058 -2.24385,0.98926c-2.79622,-0.86687 -5.31961,-2.40879 -7.70756,-3.99729c-0.63568,-0.41637 -0.55351,-0.8501 -0.66231,-1.54972c-0.43662,-2.79852 -0.67389,-5.59477 -0.95512,-8.45291c-0.0706,-0.71468 -0.29628,-1.01009 -0.00896,-1.42213c0.33621,-0.48494 0.38194,-1.98519 1.46669,-1.01357c4.34306,3.89052 8.25672,8.56864 11.73031,13.00255c0.86889,1.10905 0.56336,1.28903 0.15799,1.80232z" id="ID0.32891670893877745" stroke="#19282b" stroke-width="0.49901"/><path d="M222.03444,183.19283c-3.47357,4.43391 -7.38724,9.11203 -11.73031,13.00255c-1.08476,0.97161 -1.13046,-0.52864 -1.46669,-1.01357c-0.28732,-0.41203 -0.06163,-0.70744 0.00897,-1.42213c0.28124,-2.85814 0.3744,-5.68128 0.95511,-8.45291c0.1467,-0.69587 0.57291,-0.82058 1.19557,-1.23117c2.2974,-1.52513 4.49642,-3.35871 7.17429,-4.31586c0.76877,-0.27429 1.43717,0.66404 2.24386,0.98926c0.58331,0.23524 1.48926,0.1088 1.77715,0.64148c0.40537,0.51329 0.71094,0.69327 -0.15796,1.80232z" id="ID0.32891670893877745" stroke="#19282b" stroke-width="0.49901"/><path d="M214.48083,178.64261l4.73772,-0.38686l2.99731,3.57745l-7.44482,2.03033z" id="ID0.5711194332689047" stroke="none" stroke-width="0.66831"/></g></g></g></g></svg>