<svg version="1.1" xmlns="http://www.w3.org/2000/svg" xmlns:xlink="http://www.w3.org/1999/xlink" width="82.9277" height="129.29266" viewBox="0,0,82.9277,129.29266"><g transform="translate(-195.72016,-115.35366)"><g data-paper-data="{&quot;isPaintingLayer&quot;:true}" fill-rule="nonzero" stroke-linejoin="miter" stroke-miterlimit="10" stroke-dasharray="" stroke-dashoffset="0" style="mix-blend-mode: normal"><path d="M276.39786,188.31951c0,39.0553 -16.29589,54.07682 -36.39786,54.07682c-20.10197,0 -36.39786,-15.02152 -36.39786,-54.07682c0,-39.0553 16.29589,-70.71584 36.39786,-70.71584c20.10197,0 36.39786,31.66054 36.39786,70.71584z" fill="#a5acba" stroke="none" stroke-width="0" stroke-linecap="butt"/><path d="M240,164.172l-28.93527,-10.83224l3.54039,-3.72911l25.39489,-4.01968l24.55937,3.83689l4.37591,3.91191z" fill="#efd2bb" stroke="#1a2443" stroke-width="3" stroke-linecap="butt"/><path d="M228.25652,150.66842c0.4074,0 0.77761,0.21787 1.04539,0.56937c0.26752,0.35332 0.43236,0.83845 0.43236,1.37532c0,0.53661 -0.16483,1.022 -0.43236,1.37506c-0.26779,0.3515 -0.638,0.56937 -1.04539,0.56937c-0.40765,0 -0.77788,-0.21787 -1.04541,-0.56937c-0.26752,-0.35306 -0.43261,-0.83844 -0.43261,-1.37506c0,-0.53687 0.1651,-1.022 0.43261,-1.37532c0.26752,-0.3515 0.63775,-0.56937 1.04541,-0.56937z" id="ID0.6937623028643429" fill="#000000" stroke="#192443" stroke-width="3.6" stroke-linecap="butt"/><path d="M251.74377,150.66842c0.4074,0 0.77762,0.21787 1.0454,0.56937c0.26752,0.35332 0.43236,0.83845 0.43236,1.37532c0,0.53661 -0.16483,1.022 -0.43236,1.37506c-0.26779,0.3515 -0.638,0.56937 -1.0454,0.56937c-0.40765,0 -0.77787,-0.21787 -1.0454,-0.56937c-0.26752,-0.35306 -0.43261,-0.83844 -0.43261,-1.37506c0,-0.53687 0.1651,-1.022 0.43261,-1.37532c0.26752,-0.3515 0.63774,-0.56937 1.0454,-0.56937z" id="ID0.6937623028643429" fill="#000000" stroke="#192443" stroke-width="3.6" stroke-linecap="butt"/><path d="M271.59996,221.16087l-67.45419,-33.97132" data-paper-data="{&quot;index&quot;:null}" fill="none" stroke="#b8bfce" stroke-width="2.25" stroke-linecap="round"/><path d="M244.80785,202.70616l30.81005,-15.51659" data-paper-data="{&quot;index&quot;:null}" fill="none" stroke="#b8bfce" stroke-width="2.25" stroke-linecap="round"/><path d="M204.14577,183.10406l67.45419,33.97132" data-paper-data="{&quot;index&quot;:null}" fill="none" stroke="#1a2443" stroke-width="3" stroke-linecap="round"/><path d="M240.02334,201.03024l35.59456,-17.92615" data-paper-data="{&quot;index&quot;:null}" fill="none" stroke="#1a2443" stroke-width="3" stroke-linecap="round"/><path d="M271.06243,156.69585l-31.06243,11.62854l-31.06243,-11.62854" fill="none" stroke="#b8bfce" stroke-width="2.25" stroke-linecap="butt"/><path d="M276.39786,188.31951c0,39.0553 -16.29589,54.07682 -36.39786,54.07682c-20.10197,0 -36.39786,-15.02152 -36.39786,-54.07682c0,-39.0553 16.29589,-70.71584 36.39786,-70.71584c20.10197,0 36.39786,31.66054 36.39786,70.71584z" fill="none" stroke="#1a2443" stroke-width="4.5" stroke-linecap="butt"/><g fill="#3a5196" stroke="none" stroke-width="1"><path d="M214.88262,132.31819l50.37563,-1.58377l5.22098,8.44138l-60.55794,-1.15898z" id="ID0.2769088461063802" stroke-linecap="butt"/><g id="ID0.1292598764412105" stroke-linecap="round"><path d="M206.2407,132.73716l-2.55656,-9.12023l8.59863,2.19468l4.55426,11.03757z" id="ID0.6301852762699127"/><path d="M203.6753,139.49793l-7.95514,-5.14071l7.89673,-4.04989l10.72151,5.25494z" id="ID0.6301852762699127"/></g></g></g></g></svg>