<svg version="1.1" xmlns="http://www.w3.org/2000/svg" xmlns:xlink="http://www.w3.org/1999/xlink" width="480" height="360" viewBox="0,0,480,360"><defs><radialGradient cx="240" cy="180" r="240" gradientUnits="userSpaceOnUse" id="color-1"><stop offset="0" stop-color="#1a1a1a"/><stop offset="1" stop-color="#000000"/></radialGradient></defs><g data-paper-data="{&quot;isPaintingLayer&quot;:true}" fill="url(#color-1)" fill-rule="nonzero" stroke="none" stroke-width="0" stroke-linecap="butt" stroke-linejoin="miter" stroke-miterlimit="10" stroke-dasharray="" stroke-dashoffset="0" style="mix-blend-mode: normal"><path d="M0,360v-360h480v360zM283.85201,224.48959l-0.29912,-0.00373c-0.59743,-0.29843 -1.19396,-0.5984 -1.79533,-0.88884c-3.16069,-1.52647 -6.47847,-2.57297 -9.59255,-4.20937c-2.93178,-1.54061 -5.84548,-4.08115 -7.88206,-6.66038c-2.07049,-2.62217 -2.77758,-6.38401 -3.79951,-9.55676c-0.36028,-1.11737 -0.936,-2.45372 -1.65016,-3.77601c2.54239,0.36354 4.82802,2.02928 6.97317,3.40939c2.99049,1.54275 6.26276,3.54911 9.38106,4.6428c1.16156,0.39848 2.10129,1.01338 2.92083,1.75242c0,0.12218 0,0.24096 0,0.35505c0,0 0,0.25 0.25,0.25c0.13975,0 0.20137,-0.07812 0.22855,-0.14702c1.43557,1.45325 2.52898,3.26857 3.92498,4.86048c2.33379,2.66129 4.86065,5.09976 7.84806,7.0036c2.62746,1.66787 6.13041,2.43172 9.20113,2.46475l0.26958,0.0029c0,0 0.24999,0.00269 0.25267,-0.2473c0.00269,-0.24999 -0.2473,-0.25267 -0.2473,-0.25267l-0.26958,-0.0029c-2.97061,-0.03195 -6.39915,-0.76163 -8.93779,-2.38644c-2.94739,-1.87834 -5.43819,-4.28583 -7.74084,-6.91161c-1.51709,-1.72999 -2.6836,-3.67539 -4.27947,-5.1862c0,-0.73253 0,-1.46506 0,-2.19759c0,0 0,-0.25 -0.25,-0.25c0,-2.81817 0,-6.13097 0,-8.95444c2.86458,-0.33891 5.52124,-1.10314 8.25656,-2.09571c3.28927,-1.19395 6.57457,-2.38652 9.89312,-3.49679c3.12594,-1.04584 6.23448,-2.02688 9.41227,-2.88538c0.03067,0.20038 0.24639,0.20038 0.24639,0.20038c2.4905,-0.04405 5.20212,3.75229 6.69825,5.41727c2.19189,2.43922 5.23855,5.03792 6.93773,7.80747c1.46467,2.36945 2.2872,4.59262 3.39952,7.13488l0.0688,0.15725c0,0 0.10021,0.22904 0.32925,0.12883c0.22904,-0.10021 0.12883,-0.32925 0.12883,-0.32925l-0.0688,-0.15725c-1.11942,-2.55849 -1.95724,-4.81112 -3.43229,-7.19736c-1.7414,-2.79834 -4.76959,-5.40645 -6.99112,-7.87876c-1.53902,-1.71273 -3.93431,-4.9977 -6.45094,-5.51427c3.30205,-0.87789 6.5743,-1.84395 9.85143,-2.81143c3.30977,-0.97711 6.79077,-1.73787 10.2221,-2.1471c2.64684,-0.31567 5.29203,-0.2763 7.95614,-0.27694h0.01783c0,0 0.25,-0.00006 0.24994,-0.25006c-0.00006,-0.25 -0.25006,-0.24994 -0.25006,-0.24994h-0.01783c-2.68398,0.00064 -5.34856,-0.03758 -8.01524,0.28046c-3.45893,0.41252 -6.96813,1.17909 -10.30446,2.16405c-3.35617,0.99081 -6.70717,1.98019 -10.09042,2.87458c-3.40192,0.89934 -6.71927,1.94207 -10.05596,3.05841c-3.32255,1.11161 -6.61183,2.30558 -9.90508,3.50096c-2.7215,0.98817 -5.36005,1.74696 -8.2126,2.07712c-0.18124,-1.06593 -0.62841,-2.02923 -1.04625,-3.06462c-1.37061,-3.218 -2.63263,-6.47497 -3.8881,-9.73928c-1.06585,-3.20748 -1.76804,-7.00317 -3.34533,-9.98305c-1.67063,-3.14166 -2.77739,-6.34563 -4.23628,-9.562c-1.23083,-2.71061 -2.73243,-5.31593 -2.73243,-8.35664c0,0 0,-0.22796 -0.21767,-0.24852c0.00052,-0.00093 0.00102,-0.00188 0.00153,-0.00283c0.0292,0.00471 0.05844,0.00939 0.08771,0.01404c1.55969,0.24627 3.28451,0.4113 4.98109,0.66757c0.08475,0.21523 0.30975,0.14023 0.30975,0.14023c0.06197,-0.02066 0.1241,-0.04144 0.18639,-0.06236c1.50351,0.24543 2.96969,0.57648 4.26218,1.11479l0.10959,0.04564c0,0 0.23078,0.09612 0.3269,-0.13466c0.09612,-0.23078 -0.13466,-0.3269 -0.13466,-0.3269l-0.10959,-0.04564c-1.07083,-0.44599 -2.25684,-0.75258 -3.48426,-0.98638c2.43163,-0.85494 5.00254,-1.92044 7.07809,-3.30553c2.94362,-1.96464 5.12921,-4.7679 8.10679,-6.63088c0.36016,-0.34596 0.70187,-0.69415 1.09977,-0.95481c-0.00234,0.01532 -0.0036,0.03181 -0.0036,0.04956c0,0.25 0.25,0.25 0.25,0.25c2.64414,0 5.94467,1.70491 8.46086,2.60829c1.33755,0.40442 2.51758,0.91532 3.63123,1.50682c-0.00578,0.10071 -0.00874,0.20125 -0.00874,0.30158c0,0 0,0.25 0.25,0.25c0.25,0 0.25,-0.25 0.25,-0.25c0,-0.01106 0.00005,-0.02213 0.00012,-0.03319c1.64341,0.92193 3.16798,2.01645 4.88106,3.19624c0.11367,0.11197 0.22733,0.22394 0.34099,0.33591l0.3527,0.34613c0,0 0.17844,0.17511 0.35354,-0.00333c0.1751,-0.17844 -0.00333,-0.35354 -0.00333,-0.35354l-0.3527,-0.34612c-0.12424,-0.12151 -0.2485,-0.24301 -0.37274,-0.36451c-1.80286,-1.25136 -3.41222,-2.40637 -5.16463,-3.36646c0.29575,-2.54546 2.39523,-5.23717 3.6061,-7.38567c1.72136,-3.05431 3.45246,-6.06248 5.36633,-9.00051c1.91173,-2.93474 3.81409,-5.87206 5.67118,-8.84172c0.26459,-0.4231 0.52999,-0.84526 0.79633,-1.26656c2.86946,0 5.73892,0 8.60838,0c3.14186,0 5.3955,-0.98766 8.06327,-2.47838l0.39244,-0.22029c0,0 0.218,-0.12237 0.09563,-0.34037c-0.12237,-0.21801 -0.34037,-0.09563 -0.34037,-0.09563l-0.39244,0.22028c-2.58407,1.4565 -4.77028,2.41439 -7.81853,2.41439c-2.76386,0 -5.52772,0 -8.29158,0c1.50151,-2.3646 3.03344,-4.70201 4.6132,-7.0204c1.42235,-2.08738 3.97809,-6.51721 6.47785,-7.09349l0.25669,-0.05917c0,0 0.24361,-0.05616 0.18745,-0.29977c-0.05616,-0.24361 -0.29977,-0.18745 -0.29977,-0.18745l-0.2567,0.05918c-2.66697,0.61482 -5.27351,5.09018 -6.77871,7.29915c-1.64245,2.41039 -3.23335,4.84135 -4.7921,7.30195c-0.03877,0 -0.07756,0 -0.11633,0c0,0 -0.25,0 -0.25,0.25c0,0.09828 0.03864,0.15793 0.08553,0.19412c-0.22201,0.35182 -0.44338,0.70425 -0.66418,1.05733c-1.85546,2.96705 -3.75616,5.90175 -5.6662,8.83391c-1.91969,2.94697 -3.65638,5.96436 -5.38297,9.02793c-1.22254,2.16922 -3.25191,4.81174 -3.64021,7.38048c-1.087,-0.56458 -2.23845,-1.05326 -3.53092,-1.44358c-2.49168,-0.89551 -5.72573,-2.53591 -8.38358,-2.62937c0.00815,-0.02457 0.01211,-0.04702 0.01403,-0.06303c0.10998,-0.04344 0.22497,-0.07966 0.34606,-0.10737l0.03034,-0.00723c0,0 0.2432,-0.0579 0.1853,-0.3011c-0.0579,-0.2432 -0.3011,-0.1853 -0.3011,-0.1853l-0.03035,0.00722c-0.07839,0.01927 -0.15445,0.0412 -0.22844,0.06561c0,-2.39077 0,-5.00925 0,-7.39556c1.5027,0.18181 3.08511,0.32966 4.47162,0.77148l0.10249,0.03266c0,0 0.2382,0.07591 0.3141,-0.1623c0.0759,-0.2382 -0.16229,-0.31411 -0.16229,-0.31411l-0.10249,-0.03266c-1.43761,-0.4581 -3.08098,-0.60853 -4.63413,-0.79955c-0.0199,-0.07394 -0.07676,-0.1796 -0.23929,-0.1796c-0.12273,0 -0.18522,0.06025 -0.21702,0.1216c-0.1183,-0.01562 -0.23589,-0.03169 -0.35263,-0.04837c-3.38779,-0.47977 -7.10599,-0.07323 -10.53033,-0.07323c-2.64078,0 -5.28157,0 -7.92236,0c0.29293,-0.2115 0.58684,-0.42154 0.88185,-0.62994c2.87619,-2.03191 5.726,-3.83316 8.8227,-5.51054c1.34123,-0.73248 3.11649,-0.98943 4.60298,-1.31976l0.33572,-0.0746c0,0 0.24405,-0.05424 0.18981,-0.29828c-0.05424,-0.24404 -0.29828,-0.18982 -0.29828,-0.18982l-0.33571,0.07461c-1.53906,0.34202 -3.33904,0.61883 -4.73266,1.3682c-3.11354,1.68651 -5.98127,3.49887 -8.87306,5.54181c-0.48409,0.34199 -0.96525,0.68834 -1.44393,1.03832c-0.07569,0 -0.15138,0 -0.22707,0c0,0 -0.25,0 -0.25,0.25c0,0.03491 0.00488,0.06494 0.01326,0.09078c-2.18773,1.61513 -4.32614,3.30128 -6.45765,4.9867c-1.31514,1.03991 -4.62358,3.27903 -5.8356,5.23054c-1.81662,-0.44694 -6.84285,-1.70696 -8.02446,-2.25122c0.88049,-1.50605 1.76278,-3.01507 2.64235,-4.53722c1.47952,-3.20921 3.50312,-5.97452 5.22606,-9.05665c0.93685,-1.63955 2.45513,-5.09591 4.53917,-5.49993c-0.01357,0.07532 -0.00585,0.19017 0.13506,0.26062c0.08758,0.04379 0.15801,0.03612 0.21128,0.0106c-0.01015,0.02766 -0.01614,0.06039 -0.01614,0.09913c0,0.25 0.25,0.25 0.25,0.25c3,0 6,0 9,0c3.61873,0 6.14612,-3.49025 9.27616,-4.59726c2.13576,-0.78094 4.61043,-1.71708 6.14363,-3.37784l0.09723,-0.10532c0,0 0.16958,-0.18369 -0.01411,-0.35327c-0.18369,-0.16958 -0.35327,0.01411 -0.35327,0.01411l-0.09723,0.10532c-1.47868,1.6017 -3.8865,2.49364 -5.94797,3.24741c-3.03143,1.13851 -5.6086,4.56685 -9.10445,4.56685c-3,0 -6,0 -9,0c0,0 -0.05108,0 -0.10706,0.02309c0.0312,-0.06288 0.06225,-0.12589 0.09319,-0.18902l0.02362,-0.00092c0,0 0.24981,-0.00976 0.24005,-0.25957c-0.0029,-0.07439 -0.0271,-0.12577 -0.05964,-0.16123c1.17215,-2.45264 2.18382,-5.06423 3.50658,-7.43103c1.68948,-3.054 2.80448,-6.44939 4.55813,-9.43709c1.8497,-3.15298 4.868,-4.51512 7.9251,-6.37264c3.05203,-1.85581 5.79014,-3.8187 8.435,-6.23092c1.10901,-1.01954 2.42943,-1.72808 3.51156,-2.79754l0.04921,-0.04865c0,0 0.1778,-0.17574 0.00206,-0.35355c-0.17574,-0.17781 -0.35354,-0.00206 -0.35354,-0.00206l-0.04922,0.04864c-1.07677,1.06439 -2.38673,1.77404 -3.49742,2.78411c-2.6155,2.39659 -5.33244,4.33605 -8.35729,6.17267c-1.75296,1.06512 -3.48516,1.97585 -5.00367,3.13832c0,-2.98865 0,-5.97729 0,-8.96594c0,-3.55321 -0.19066,-6.87631 1.41309,-10.09842c0.29909,-0.60266 0.46539,-1.24342 0.75995,-1.84764l0.13514,-0.27797c0,0 0.10931,-0.22484 -0.11553,-0.33414c-0.22484,-0.10931 -0.33415,0.11553 -0.33415,0.11553l-0.13514,0.27797c-0.29276,0.60375 -0.45835,1.24352 -0.75789,1.84346c-1.63934,3.29363 -1.46547,6.69199 -1.46547,10.32121c0,3 0,6 0,9c0,0 0,0.18332 0.15698,0.236c-1.05505,0.85489 -1.99478,1.85249 -2.74999,3.13846c-1.75625,2.99214 -2.87272,6.39011 -4.56444,9.44816c-1.3349,2.43496 -2.37161,5.11689 -3.59158,7.61266c-2.52042,0.27098 -4.08203,3.78598 -5.2223,5.78162c-1.72548,3.0866 -3.75613,5.85631 -5.23473,9.07268c-0.88678,1.53079 -1.77806,3.04951 -2.66566,4.56631c-0.96714,-0.38681 -2.00881,-0.62695 -3.09749,-0.6929c-0.10145,-0.79323 -0.21368,-1.59726 -0.33078,-2.42807c-0.5073,-3.5991 -1.79245,-7.04819 -5.15378,-8.85924c-0.45298,-0.22855 -0.78638,-0.51081 -1.17877,-0.8307l-0.29283,-0.23873c0,0 -0.19377,-0.15797 -0.35174,0.0358c-0.15797,0.19377 0.0358,0.35174 0.0358,0.35174l0.29283,0.23873c0.41794,0.34073 0.78119,0.63971 1.26283,0.88614c3.21655,1.73334 4.40605,5.04864 4.89056,8.48604c0.11295,0.80133 0.22133,1.57638 0.31977,2.34031c-0.03597,-0.00038 -0.07198,-0.00057 -0.10804,-0.00057c-2.39097,0 -10.23978,-0.00011 -10.23978,-0.00011l-0.05831,0.28035c-1.76604,-1.25988 -3.40015,-2.67737 -5.02305,-4.14663c-2.55787,-2.31571 -5.57813,-4.30424 -7.64128,-7.06734c-1.24585,-1.66853 -2.54306,-3.78285 -4.38758,-4.87743c0,-2.88887 0,-5.77774 0,-8.66661c0,-3.48596 -0.13267,-7.00168 0.09922,-10.48005c0.23306,-3.49595 0.289,-6.97688 0.63347,-10.4664c0.34361,-3.48084 0.83297,-6.94323 1.295,-10.41018c0.46247,-3.47027 1.43705,-6.82764 2.15781,-10.24894c0.06401,-0.30804 0.16094,-0.61099 0.28763,-0.89899l0.17265,-0.39542c0,0 0.10004,-0.22911 -0.12908,-0.32915c-0.22911,-0.10004 -0.32915,0.12908 -0.32915,0.12908l-0.17265,0.39542c-0.13869,0.3198 -0.24596,0.65508 -0.31866,0.99599c-0.72338,3.43373 -1.7,6.80297 -2.16417,10.28596c-0.42198,3.16638 -0.86659,6.32897 -1.20263,9.50522c-2.95418,-0.05328 -4.90089,-2.80604 -6.64452,-4.98338c-1.62998,-2.03542 -3.29818,-5.88689 -5.477,-7.1263l-0.33431,-0.19017c0,0 -0.2173,-0.12361 -0.34091,0.09369c-0.12361,0.2173 0.09369,0.34091 0.09369,0.34091l0.33431,0.19017c2.09372,1.191 3.75702,5.03507 5.33394,7.00424c1.8406,2.29842 3.87029,5.08882 6.98294,5.16982c-0.01438,0.14094 -0.02854,0.28191 -0.04246,0.42291c-0.34498,3.49479 -0.40137,6.98108 -0.63478,10.48225c-0.23263,3.48952 -0.10033,7.0162 -0.10033,10.51331c0,2.82238 0,5.64476 0,8.46714l-0.15,-0.0127c0,0 -0.25,0 -0.25,0.25c0,0.01621 0.00105,0.03138 0.00302,0.04556c-2.78434,0 -5.56868,0 -8.35302,0c-3.5,0 -7,0 -10.5,0c-1.95037,0 -4.03585,0.21411 -5.97272,0.00149c-1.52108,-0.16697 -2.76653,-1.12503 -4.24135,-1.38819c-0.66266,-0.11613 -1.29982,-0.31347 -1.94573,-0.4507c-0.03907,-0.10141 -0.14735,-0.14472 -0.14735,-0.14472c-2.51089,-1.00436 -4.9501,-3.61297 -6.55399,-5.79106c-0.40085,-0.53249 -0.87769,-0.97219 -1.34257,-1.46646l-0.0148,-0.01562c0,0 -0.17194,-0.18149 -0.35342,-0.00955c-0.18149,0.17194 -0.00955,0.35342 -0.00955,0.35342l0.0148,0.01562c0.44306,0.46386 0.94015,0.91265 1.30292,1.41907c1.47415,2.00191 3.62513,4.33166 5.90819,5.5544c-0.02779,0.03134 -0.04959,0.07516 -0.05849,0.13628c-0.03603,0.24739 0.21136,0.28342 0.21136,0.28342l0.48262,0.07029c0.8061,0.11292 1.59964,0.39439 2.4197,0.53811c0.88265,0.15153 1.68363,0.55591 2.51111,0.8942c-2.75913,0 -5.51826,0 -8.27739,0c-3.51613,0 -6.98282,0.55891 -10.45397,1.05949c-2.69926,0.38959 -4.42588,1.00699 -6.14776,2.09426c-0.05443,-0.10982 -0.11031,-0.22149 -0.16779,-0.33527l-0.38521,-0.41006c0,0 -0.17492,-0.17861 -0.35353,-0.00369c-0.08243,0.08073 -0.08956,0.16224 -0.07334,0.22662c-1.37582,-1.48815 -2.2019,-2.97599 -3.1821,-4.79557c-0.36684,-0.68098 -1.17687,-1.23206 -1.27352,-1.97756c-0.25878,-3.45698 -0.04611,-7.00293 -0.04611,-10.46976c0,-0.5 0,-1 0,-1.5v-0.30512c0,0 0,-0.25 -0.25,-0.25c-0.25,0 -0.25,0.25 -0.25,0.25c0,0.5 0,1.30512 0,1.80512c0,3.48631 -0.21178,7.05098 0.04944,10.52736c0.42871,2.42048 3.27598,5.76316 5.02378,7.51096c0,0 0.17678,0.17678 0.35355,0c0.04088,-0.04088 0.06285,-0.08176 0.07248,-0.12046c0.02056,0.04121 0.04089,0.0821 0.06101,0.1227c-0.83133,0.56085 -1.67983,1.23508 -2.65336,2.04968c-1.89646,1.5926 -2.78574,3.63655 -4.37447,5.44968l-0.13732,0.15707c0,0 -0.16455,0.18821 0.02367,0.35276c0.18821,0.16455 0.35276,-0.02367 0.35276,-0.02367l0.13732,-0.15707c1.56856,-1.79797 2.44602,-3.82251 4.31959,-5.39588c0.93926,-0.7914 1.75425,-1.44445 2.54988,-1.98691c0.73264,1.51809 1.17832,2.6693 1.80775,4.46789c0.90294,2.53998 1.59129,5.03671 1.72402,7.66065c-0.00169,-0.00004 -0.00338,-0.00007 -0.00508,-0.00011c-0.04139,-0.0116 -0.0786,-0.01053 -0.11121,-0.00227l-0.03874,-0.00079c0,0 -0.24995,-0.0051 -0.25505,0.24484c-0.00063,0.03073 0.0026,0.05775 0.00874,0.08152c-1.63083,2.55728 -4.23726,3.75773 -6.19232,6.00615c-2.3814,2.74523 -4.56007,5.04129 -6.47267,8.22382c-1.80195,2.99842 -3.82714,5.87427 -5.57738,8.89887c-0.84917,1.46745 -2.08762,2.55546 -2.95808,3.98954l-0.04161,0.46796c0,0 -0.00391,0.24997 0.24606,0.25388c0.24997,0.00391 0.25388,-0.24606 0.25388,-0.24606l-0.0309,-0.21634c0.87085,-1.43472 2.11209,-2.52736 2.96342,-3.99855c1.74883,-3.02216 3.77266,-5.89572 5.57318,-8.89174c1.89953,-3.16079 4.05024,-5.43235 6.42142,-8.15329c1.97295,-2.26899 4.58511,-3.48045 6.23668,-6.06574c0.00193,0.10702 0.0029,0.21427 0.0029,0.32176c0,0 0,0.25 0.25,0.25c0.25,0 0.25,-0.25 0.25,-0.25c0,-0.1323 -0.00147,-0.26424 -0.00436,-0.39584c0.29044,0.01691 0.57146,0.05103 0.87626,0.1306c3.33663,0.86077 6.39785,2.76771 9.20691,4.71308c2.87313,1.98893 5.99187,3.66948 9.00904,5.42782c2.83501,1.64913 6.03372,3.90909 8.52587,6.03993c2.04913,1.74898 4.68193,3.73473 7.47459,3.97655c-2.41856,1.0286 -4.82555,2.07502 -7.2045,3.20069c-1.94837,0.92198 -3.88012,1.86982 -5.78357,2.87107l-0.10004,0.05265c0,0 -0.22124,0.11642 -0.1048,0.33766c0.11643,0.22124 0.33766,0.1048 0.33766,0.1048l0.10004,-0.05264c1.89681,-0.9987 3.82252,-1.9427 5.76457,-2.86158c3.16421,-1.49723 6.37814,-2.85383 9.60285,-4.21524c3.22303,-1.3607 6.35328,-2.92906 9.61174,-4.20436c3.26489,-1.27782 6.46928,-2.59134 9.85286,-3.51571c2.24293,-0.61275 4.10307,-0.92266 6.15981,-1.04958c0.59655,0.65141 4.61824,5.0002 7.1572,6.64702c-0.15222,0.11997 -0.30317,0.23938 -0.4526,0.35823c-2.73924,2.17866 -5.47847,4.35733 -8.21771,6.53599c-2.7151,2.15947 -5.07332,4.89947 -7.53006,7.34964c-2.47774,2.47112 -4.82632,5.08128 -7.2248,7.62946c-2.39851,2.54821 -4.80601,5.0851 -7.24077,7.59872c-2.38828,2.46563 -4.67305,5.30251 -7.32282,7.48172c-2.7115,2.23366 -5.40019,4.39573 -8.29387,6.38909c-2.90766,2.003 -6.02137,3.46049 -9.04976,5.25592c-2.28154,1.35313 -4.52209,2.99142 -6.40941,4.8527l-0.1659,0.16361c0,0 -0.178,0.17555 -0.00245,0.35354c0.17555,0.178 0.35354,0.00245 0.35354,0.00245l0.1659,-0.16361c1.85854,-1.83297 4.066,-3.44673 6.31331,-4.7786c3.03795,-1.8011 6.16123,-3.26469 9.07842,-5.27426c2.9054,-2.00144 5.60571,-4.17226 8.32813,-6.41493c0.22993,-0.18971 0.45715,-0.38423 0.68196,-0.58292c-0.12604,2.78495 -1.99638,5.25321 -3.60408,7.54734c-1.33442,3.25464 -2.23183,6.63723 -3.42064,9.93917c-0.69552,1.95308 -0.5964,4.18153 -0.63243,6.3794c-0.11775,-0.14328 -0.29792,-0.0532 -0.29792,-0.0532c-2.70574,1.35287 -5.28524,2.8212 -7.87307,4.3872c-2.97423,1.80283 -5.64131,4.13375 -8.61885,5.97826c-2.99851,1.85749 -5.86518,3.8441 -8.52965,6.16244c-2.65515,2.31024 -5.20088,4.67768 -7.69035,7.16625c-1.71107,1.71046 -2.98233,3.58749 -4.06313,5.74418l-0.29078,0.27604c0,0 -0.17591,0.17764 0.00172,0.35355c0.17764,0.17591 0.35355,-0.00172 0.35355,-0.00172l0.38252,-0.40385c1.05706,-2.1093 2.29598,-3.94154 3.96961,-5.61457c2.48139,-2.4805 5.01853,-4.83993 7.66506,-7.14266c2.64419,-2.30069 5.48911,-4.27126 8.46476,-6.11459c2.97478,-1.84279 5.64082,-4.17928 8.6144,-5.97553c2.57652,-1.55915 5.14395,-3.02082 7.83782,-4.36776c0,0 0.03307,-0.01654 0.06742,-0.04961c-0.03006,1.25144 -0.11993,2.48773 -0.44217,3.65208c-0.6776,2.5092 -0.14977,5.41505 -0.87696,7.89205c-0.27688,0.94313 -1.06864,0.95934 -1.24664,1.94558c-0.00367,0.17694 -0.1892,0.37219 -0.36572,0.38489l-0.36877,0.5013c0,0 -0.11678,0.22105 0.10427,0.33783c0.22105,0.11678 0.33783,-0.10427 0.33783,-0.10427l0.02533,-0.24469c0.35531,-0.09797 0.68192,-0.44171 0.76163,-0.80156c0.07969,-0.7776 0.98892,-0.98991 1.23321,-1.88306c0.68307,-2.49727 0.18552,-5.39056 0.87816,-7.89637c0.88454,-3.27901 -0.06219,-7.22392 1.06966,-10.33842c1.17746,-3.27937 2.08551,-6.62955 3.38888,-9.86855c1.7291,-2.43339 3.67207,-5.08882 3.67207,-8.08414c0,0 0,-0.06591 -0.03384,-0.13004c2.18746,-2.01665 4.16038,-4.39461 6.20919,-6.50978c2.43643,-2.51533 4.84557,-5.05395 7.24572,-7.6039c2.39487,-2.54434 4.73979,-5.15074 7.21379,-7.61813c2.44324,-2.4367 4.78812,-5.16481 7.48822,-7.31235c2.73924,-2.17866 5.47847,-4.35733 8.21771,-6.53599c0.19643,-0.15623 0.39532,-0.31341 0.5961,-0.47152c1.46628,0.84364 3.16668,1.32616 4.97977,1.32616c0.42333,0 0.84052,-0.02631 1.25001,-0.07737c0,0.97764 0,1.9553 0,2.93294c0,3.58802 -0.13234,6.97818 0.70702,10.47551c0.71923,2.99677 2.31682,6.29673 3.99965,8.96779c-0.03222,-0.01639 -0.07263,-0.02667 -0.12332,-0.02667c-0.25,0 -0.25,0.25 -0.25,0.25c0,3.10616 -1.46248,5.5054 -3.22496,7.99719c-2.02817,2.8674 -3.9394,5.78441 -5.82229,8.74902c-1.86989,2.94413 -3.92649,5.83899 -5.61056,8.89261c-1.68951,3.06521 -3.37903,6.13043 -5.06855,9.19564c-1.68598,3.05881 -3.56659,6.0205 -5.36225,9.01631c-1.32727,2.21438 -2.67001,4.4052 -4.06136,6.57191c-0.06467,0.01385 -0.13425,0.05609 -0.17054,0.16493c-0.01553,0.04661 -0.01886,0.08711 -0.01417,0.12211c-0.43651,0.67696 -0.87791,1.35157 -1.32522,2.0238c-1.93975,2.91508 -3.90733,5.81322 -5.78334,8.76978c-1.87484,2.95473 -3.81525,5.87841 -5.61849,8.87728c-1.80419,3.00068 -3.61363,5.99743 -5.37848,9.02146c-1.08798,1.86422 -2.28346,3.66141 -3.56258,5.39997l-0.28192,0.38318c0,0 -0.14816,0.20137 0.05321,0.34953c0.20137,0.14815 0.34952,-0.05322 0.34952,-0.05322l0.28192,-0.38318c1.28959,-1.75278 2.4948,-3.56478 3.59168,-5.44425c1.76376,-3.02214 3.57209,-6.01701 5.37516,-9.01583c1.80095,-2.99554 3.73948,-5.91572 5.61216,-8.86704c1.87407,-2.9535 3.83968,-5.84861 5.77742,-8.76067c0.44663,-0.6712 0.88738,-1.34477 1.32327,-2.02069c2.48177,0.93578 4.70292,3.43477 5.99941,5.75816c1.68043,3.01146 2.68518,6.46831 4.07897,9.63464c1.41327,3.21058 1.70649,6.66949 2.26442,10.12496c0.55716,3.45067 1.22077,6.89242 1.68624,10.35655c0.44095,3.28166 1.15735,6.57371 1.21981,9.88202l0.00488,0.25856c0,0 0.00472,0.24995 0.25467,0.24523c0.24995,-0.00472 0.24524,-0.25467 0.24524,-0.25467l-0.00488,-0.25856c-0.06283,-3.32801 -0.78062,-6.63818 -1.22416,-9.93917c-0.46606,-3.46852 -1.13032,-6.91462 -1.68818,-10.36966c-0.56499,-3.49912 -0.86875,-6.99438 -2.3004,-10.24671c-1.40035,-3.18122 -2.41146,-6.65091 -4.09998,-9.67683c-1.33261,-2.38813 -3.61342,-4.93847 -6.16005,-5.9438c1.36389,-2.12792 2.68173,-4.27902 3.98462,-6.45272c1.79877,-3.001 3.68237,-5.96789 5.37128,-9.032c1.68952,-3.06521 3.37903,-6.13043 5.06855,-9.19565c1.67739,-3.04499 3.73061,-5.93083 5.59474,-8.86589c1.87847,-2.95765 3.78504,-5.86769 5.80844,-8.72835c1.8234,-2.5779 3.31676,-5.07046 3.31676,-8.28592c0,0 -0.00001,-0.01043 -0.00214,-0.02703c0.08887,0.13909 0.17793,0.27636 0.26705,0.4117c1.93041,2.93079 4.51464,5.44475 7.28426,7.59239c0.78405,0.59556 1.02837,1.64363 1.61468,2.41603c0.49307,0.64957 0.95197,1.23054 1.37548,1.79532c-0.0236,0.0352 -0.03935,0.08221 -0.03935,0.14496c0,0.25 0.25,0.25 0.25,0.25c0.0272,0 0.05438,0.00016 0.08152,0.00049c0.86114,1.18545 1.5625,2.35347 2.09266,4.00108c1.04131,3.23292 1.77167,7.03941 3.88302,9.71332c1.3457,1.70425 3.06726,3.39145 4.92613,4.79582c0,2.96865 0,5.9373 0,8.90594c0,3.58127 0.7274,6.91723 1.59229,10.3892c0.84321,3.38495 1.57296,6.80152 1.96039,10.27075c0.3979,3.56293 1.4579,6.82661 2.59596,10.17347c0.05381,0.15774 0.14427,0.42289 0.19808,0.58063c0,0 0.08072,0.23661 0.31733,0.15589c0.23661,-0.08072 0.15589,-0.31733 0.15589,-0.31733c-0.05381,-0.15774 -0.14427,-0.42289 -0.19808,-0.58063c-1.13245,-3.30954 -2.17856,-6.54211 -2.57227,-10.06753c-0.3899,-3.49126 -1.12357,-6.92968 -1.97213,-10.33612c-0.85504,-3.43243 -1.57746,-6.72851 -1.57746,-10.26834c0,-2.84582 0,-5.69164 0,-8.53746c0.85541,0.61463 1.7348,1.1659 2.61576,1.62884c3.11938,1.63919 6.44207,2.68815 9.60769,4.217c0.59937,0.28946 1.1939,0.58846 1.78934,0.8859l0.4852,0.05504c0,0 0.2493,0.01868 0.26798,-0.23062c0.01868,-0.2493 -0.23062,-0.26798 -0.23062,-0.26798zM110.22146,265.98281l0.42719,-0.09596c1.80383,-0.42859 4.08795,-2.13864 5.75749,-3.08844c3.04465,-1.73208 6.21416,-3.22296 9.25337,-4.95661c1.0754,-0.61344 2.16739,-1.2059 3.25968,-1.79955c-0.00252,0.01829 -0.00252,0.02997 -0.00252,0.02997c0,3.08572 -0.83919,5.74315 -1.5062,8.74802c-0.75637,3.40745 -1.94266,6.68745 -3.31468,9.89197c-0.81693,1.90803 -1.32066,6.53816 -2.96411,7.7396l-0.11592,0.08776c0,0 -0.19931,0.15091 -0.04841,0.35022c0.15091,0.19932 0.35023,0.04841 0.35023,0.04841l0.11592,-0.08776c1.79277,-1.39493 2.22077,-5.83669 3.12193,-7.94143c1.38422,-3.233 2.58008,-6.54271 3.34316,-9.98042c0.67458,-3.03901 1.51808,-5.7327 1.51808,-8.85637c0,0 0,-0.16554 -0.1347,-0.22721c1.87025,-1.01751 3.73609,-2.04572 5.51574,-3.19598c2.96613,-1.91714 5.93564,-3.5819 9.0934,-5.16301c3.18005,-1.59287 6.08055,-3.24033 9.42702,-4.49525c2.53415,-0.9503 6.13827,-0.33521 8.84855,-0.33521c0,0 0.25,0 0.25,-0.25c0,-0.25 -0.25,-0.25 -0.25,-0.25c-2.77976,0 -6.42177,-0.60884 -9.02411,0.36704c-3.36224,1.26084 -6.28021,2.91714 -9.47531,4.51633c-3.17363,1.58906 -6.15989,3.26338 -9.14096,5.19017c-2.92611,1.89127 -6.08659,3.45118 -9.11452,5.1784c-3.03899,1.73352 -6.2084,3.22436 -9.25286,4.95632c-1.58238,0.9002 -3.91504,2.68006 -5.61984,3.03519l-0.42718,0.09596c0,0 -0.24392,0.05478 -0.18913,0.29871c0.05479,0.24392 0.29871,0.18914 0.29871,0.18914zM244.48573,126.10676l0.09724,0.43187c0.00025,0.06672 0.00037,0.13348 0.00037,0.20026c0,0 0,0.25 0.25,0.25c0.0335,0 0.0625,-0.00449 0.08763,-0.01226c0.0077,0.00832 0.01539,0.01663 0.02309,0.02495c0.79908,0.85622 0.99982,2.11723 1.73433,3.00753c1.12265,1.36076 2.67475,2.53207 3.8668,3.89442c0,0 0.16463,0.18814 0.35277,0.02352c0.18814,-0.16463 0.02352,-0.35277 0.02352,-0.35277c-1.18797,-1.35767 -2.74019,-2.52919 -3.85741,-3.88336c-0.73955,-0.8964 -0.95077,-2.15463 -1.75295,-3.02883c-0.07625,-0.08244 -0.1525,-0.16487 -0.22874,-0.24732c-0.01711,-2.90991 -0.25762,-5.76378 -0.33164,-8.64951c-0.00078,-2.33206 -0.54557,-5.67746 0.3105,-7.88849c0.32522,-0.83997 0.8986,-1.27204 1.10002,-2.23018c0.73238,-3.48398 1.25532,-6.87721 1.25541,-10.43209l0.00001,-0.47561c0,0 0.00001,-0.25001 -0.24999,-0.25001c-0.25,-0.00001 -0.25001,0.24999 -0.25001,0.24999l-0.00001,0.47561c-0.00009,3.52115 -0.51916,6.87774 -1.24471,10.32925c-0.19679,0.93611 -0.75274,1.31506 -1.07698,2.1525c-0.88436,2.2841 -0.34517,5.6683 -0.34418,8.07552c0.06914,2.70412 0.28504,5.37875 0.32586,8.09896c-0.1124,0.08204 -0.09092,0.23606 -0.09092,0.23606zM164.1838,209.65571c0.94886,0.00828 1.3588,0.45231 2.25876,0.65982c1.80547,0.41631 4.19854,0.00669 6.05744,0.00669c3,0 6,0 9,0c0,0 0.25,0 0.25,-0.25c0,-0.25 -0.25,-0.25 -0.25,-0.25c-3,0 -6,0 -9,0c-1.80026,0 -4.20251,0.42879 -5.94256,0.00669c-0.91944,-0.22304 -1.36292,-0.66437 -2.36926,-0.67318l-0.35472,-0.00018c0,0 -0.25,-0.00012 -0.25012,0.24988c-0.00012,0.25 0.24988,0.25012 0.24988,0.25012z"/></g></svg>