<svg version="1.1" xmlns="http://www.w3.org/2000/svg" xmlns:xlink="http://www.w3.org/1999/xlink" width="493.99399" height="434.41957" viewBox="0,0,493.99399,434.41957"><g transform="translate(7.82587,6.35768)"><g data-paper-data="{&quot;isPaintingLayer&quot;:true}" fill-rule="nonzero" stroke-linejoin="miter" stroke-miterlimit="10" stroke-dasharray="" stroke-dashoffset="0" style="mix-blend-mode: normal"><path d="M-7.82587,364.51319v-370.87087h493.99399v370.87087z" fill="#000000" stroke="none" stroke-width="0" stroke-linecap="butt"/><text transform="translate(131.22919,167.61972) scale(0.5,0.5)" font-size="40" xml:space="preserve" fill="#ffffff" fill-rule="nonzero" stroke="none" stroke-width="1" stroke-linecap="butt" stroke-linejoin="miter" stroke-miterlimit="10" stroke-dasharray="" stroke-dashoffset="0" font-family="Sans Serif" font-weight="normal" text-anchor="start" style="mix-blend-mode: normal"><tspan x="0" dy="0">menu sound effects by</tspan></text><text transform="translate(128.0685,201.00001) scale(0.78169,0.78169)" font-size="40" xml:space="preserve" fill="#ffffff" fill-rule="nonzero" stroke="none" stroke-width="1" stroke-linecap="butt" stroke-linejoin="miter" stroke-miterlimit="10" stroke-dasharray="" stroke-dashoffset="0" font-family="Sans Serif" font-weight="normal" text-anchor="start" style="mix-blend-mode: normal"><tspan x="0" dy="0">TheGreenFlash</tspan></text><g data-paper-data="{&quot;index&quot;:null}"><path d="M183.68541,371.31515c0.45452,39.05265 -15.66544,54.2628 -35.76605,54.49674c-20.10061,0.23395 -36.57022,-14.59692 -37.02474,-53.64957c-0.45452,-39.05265 15.47181,-70.9007 35.57243,-71.13464c20.10061,-0.23393 36.76385,31.23481 37.21837,70.28747z" fill="#a5acba" stroke="none" stroke-width="0" stroke-linecap="butt"/><path d="M147.009,347.59287l-29.05937,-10.49477l3.49676,-3.77007l25.34639,-4.31493l24.60237,3.55081l4.42113,3.8607z" fill="#efd2bb" stroke="#1a2443" stroke-width="3" stroke-linecap="butt"/><path d="M135.10915,334.22686c0.40737,-0.00473 0.78011,0.20881 1.05195,0.55718c0.2716,0.35018 0.4421,0.83336 0.44834,1.37019c0.00624,0.53657 -0.15292,1.02384 -0.41634,1.37999c-0.26369,0.3546 -0.63133,0.57675 -1.0387,0.58149c-0.40762,0.00474 -0.78034,-0.20879 -1.05196,-0.55715c-0.27161,-0.34993 -0.44235,-0.83335 -0.4486,-1.36994c-0.00624,-0.53682 0.1532,-1.02385 0.41659,-1.38026c0.26342,-0.35459 0.63107,-0.57676 1.03871,-0.5815z" fill="#000000" stroke="#192443" stroke-width="3.6" stroke-linecap="butt"/><path d="M157.55613,334.53503c0.26342,-0.35459 0.63106,-0.57677 1.03869,-0.5815c0.40737,-0.00474 0.7801,0.2088 1.05196,0.55716c0.2716,0.35019 0.44208,0.83337 0.44834,1.3702c0.00624,0.53657 -0.15292,1.02385 -0.41632,1.38c-0.26368,0.3546 -0.63133,0.57675 -1.0387,0.58149c-0.40763,0.00474 -0.78035,-0.20881 -1.05196,-0.55718c-0.27161,-0.34992 -0.44233,-0.83335 -0.44858,-1.36993c-0.00624,-0.53683 0.1532,-1.02385 0.41658,-1.38025z" fill="#000000" stroke="#192443" stroke-width="3.6" stroke-linecap="butt"/><path d="M179.27004,404.21013l-67.84499,-33.18399" data-paper-data="{&quot;index&quot;:null}" fill="none" stroke="#b8bfce" stroke-width="2.25" stroke-linecap="round"/><path d="M152.26498,386.06846l30.62739,-15.87409" data-paper-data="{&quot;index&quot;:null}" fill="none" stroke="#b8bfce" stroke-width="2.25" stroke-linecap="round"/><path d="M179.22248,400.12491l-67.84496,-33.18401" data-paper-data="{&quot;index&quot;:null}" fill="none" stroke="#1a2443" stroke-width="3" stroke-linecap="round"/><path d="M182.84481,366.10917l-35.38354,18.33917" data-paper-data="{&quot;index&quot;:null}" fill="none" stroke="#1a2443" stroke-width="3" stroke-linecap="round"/><path d="M177.98231,339.75574l-30.925,11.98925l-31.19565,-11.26626" fill="none" stroke="#b8bfce" stroke-width="2.25" stroke-linecap="butt"/><path d="M183.68541,371.31515c0.45452,39.05265 -15.66544,54.2628 -35.76605,54.49674c-20.10061,0.23395 -36.57022,-14.59692 -37.02474,-53.64957c-0.45452,-39.05265 15.47181,-70.9007 35.57243,-71.13464c20.10061,-0.23393 36.76385,31.23481 37.21837,70.28747z" fill="none" stroke="#1a2443" stroke-width="4.5" stroke-linecap="butt"/><g fill="#3a5196" stroke="none" stroke-width="1"><path d="M121.52261,316.03352l50.35377,-2.16993l5.31887,8.38005l-60.56733,-0.45414z" stroke-linecap="butt"/><g stroke-linecap="round"><path d="M112.88614,316.55304l-2.66253,-9.08986l8.62359,2.09446l4.6824,10.98381z"/><path d="M110.39962,323.34321l-8.01443,-5.04777l7.84907,-4.14152l10.78194,5.12981z"/></g></g></g><g data-paper-data="{&quot;index&quot;:null}"><path d="M367.60517,371.712c-0.45709,39.05263 -16.92767,53.88238 -37.02827,53.64713c-20.10059,-0.23526 -36.21957,-15.44647 -35.76247,-54.4991c0.45709,-39.05263 17.12243,-70.52027 37.22302,-70.28501c20.10059,0.23526 36.02483,32.08436 35.56774,71.13698z" fill="#a5acba" stroke="none" stroke-width="0" stroke-linecap="butt"/><path d="M331.49243,347.14016l-28.80652,-11.17013l3.5838,-3.68742l25.4402,-3.7222l24.51279,4.12407l4.32982,3.96284z" fill="#efd2bb" stroke="#1a2443" stroke-width="3" stroke-linecap="butt"/><path d="M319.90778,333.50005c0.40737,0.00476 0.775,0.22694 1.03865,0.58156c0.26336,0.35643 0.42251,0.84347 0.41622,1.3803c-0.00627,0.53658 -0.17677,1.02 -0.44842,1.3699c-0.27189,0.34834 -0.64461,0.56188 -1.05197,0.5571c-0.40762,-0.00477 -0.77527,-0.22697 -1.03868,-0.58156c-0.26335,-0.35617 -0.42275,-0.84345 -0.41648,-1.38004c0.00628,-0.53683 0.17705,-1.02 0.44868,-1.37016c0.27161,-0.34834 0.64438,-0.56187 1.05202,-0.55709z" fill="#000000" stroke="#192443" stroke-width="3.6" stroke-linecap="butt"/><path d="M343.39343,333.77495c0.40737,0.00476 0.775,0.22695 1.03867,0.58156c0.26337,0.35643 0.42252,0.84346 0.41624,1.38029c-0.00628,0.53657 -0.17677,1.02 -0.44842,1.3699c-0.2719,0.34833 -0.64462,0.56187 -1.052,0.5571c-0.40762,-0.00477 -0.77527,-0.22697 -1.03867,-0.58157c-0.26336,-0.35617 -0.42275,-0.84346 -0.41648,-1.38004c0.00627,-0.53684 0.17705,-1.01998 0.44869,-1.37015c0.27162,-0.34834 0.64437,-0.56188 1.05199,-0.55709z" fill="#000000" stroke="#192443" stroke-width="3.6" stroke-linecap="butt"/><path d="M295.37124,369.73651l67.05199,34.75845" data-paper-data="{&quot;index&quot;:null}" fill="none" stroke="#b8bfce" stroke-width="2.25" stroke-linecap="round"/><path d="M335.84893,385.72796l30.98954,-15.15494" data-paper-data="{&quot;index&quot;:null}" fill="none" stroke="#b8bfce" stroke-width="2.25" stroke-linecap="round"/><path d="M362.47105,400.40975l-67.05198,-34.75846" data-paper-data="{&quot;index&quot;:null}" fill="none" stroke="#1a2443" stroke-width="3" stroke-linecap="round"/><path d="M366.88629,366.48782l-35.80192,17.50834" data-paper-data="{&quot;index&quot;:null}" fill="none" stroke="#1a2443" stroke-width="3" stroke-linecap="round"/><path d="M362.64023,340.02806l-31.19641,11.2642l-30.92418,-11.99128" fill="none" stroke="#b8bfce" stroke-width="2.25" stroke-linecap="butt"/><path d="M367.60517,371.712c-0.45709,39.05263 -16.92767,53.88238 -37.02827,53.64713c-20.10059,-0.23526 -36.21957,-15.44647 -35.76247,-54.4991c0.45709,-39.05263 17.12243,-70.52027 37.22302,-70.28501c20.10059,0.23526 36.02483,32.08436 35.56774,71.13698z" fill="none" stroke="#1a2443" stroke-width="4.5" stroke-linecap="butt"/><g fill="#3a5196" stroke="none" stroke-width="1"><path d="M306.74957,314.99458l50.39072,-0.99409l5.12184,8.50191l-60.54021,-1.86765z" stroke-linecap="butt"/><g stroke-linecap="round"><path d="M298.10333,315.31239l-2.44964,-9.14953l8.57235,2.29516l4.42478,11.09012z"/><path d="M295.45897,322.04265l-7.89443,-5.23345l7.94359,-3.95719l10.65928,5.38007z"/></g></g></g></g></g></svg>