<svg version="1.1" xmlns="http://www.w3.org/2000/svg" xmlns:xlink="http://www.w3.org/1999/xlink" width="35.33841" height="35.3384" viewBox="0,0,35.33841,35.3384"><defs><linearGradient x1="155.75896" y1="162.33081" x2="155.75896" y2="197.6692" gradientUnits="userSpaceOnUse" id="color-1"><stop offset="0" stop-color="#ffb766"/><stop offset="1" stop-color="#ff6666"/></linearGradient><linearGradient x1="240" y1="168.74408" x2="240" y2="191.25594" gradientUnits="userSpaceOnUse" id="color-2"><stop offset="0" stop-color="#ff8c66"/><stop offset="1" stop-color="#ff9666"/></linearGradient></defs><g transform="translate(-222.33079,-162.3308)"><g data-paper-data="{&quot;isPaintingLayer&quot;:true}" fill-rule="nonzero" stroke="none" stroke-width="0" stroke-linecap="butt" stroke-linejoin="miter" stroke-miterlimit="10" stroke-dasharray="" stroke-dashoffset="0" style="mix-blend-mode: normal"><g><path d="M222.3308,180c0,-9.75843 7.91076,-17.6692 17.6692,-17.6692c9.75843,0 17.66921,7.91076 17.66921,17.6692c0,9.75843 -7.91076,17.6692 -17.66921,17.6692c-9.75843,0 -17.6692,-7.91076 -17.6692,-17.6692z" fill="url(#color-1)"/><path d="M228.74405,180c0,-6.21648 5.03946,-11.25593 11.25594,-11.25593c6.21648,0 11.25592,5.03945 11.25592,11.25593c0,6.21648 -5.03945,11.25593 -11.25592,11.25593c-6.21648,0 -11.25594,-5.03946 -11.25594,-11.25593z" data-paper-data="{&quot;index&quot;:null}" fill="url(#color-2)"/></g></g></g></svg>