<svg version="1.1" xmlns="http://www.w3.org/2000/svg" xmlns:xlink="http://www.w3.org/1999/xlink" width="100" height="100" viewBox="0,0,100,100"><g transform="translate(-190,-130)"><g data-paper-data="{&quot;isPaintingLayer&quot;:true}" fill-rule="nonzero" stroke-linecap="butt" stroke-linejoin="miter" stroke-miterlimit="10" stroke-dasharray="" stroke-dashoffset="0" style="mix-blend-mode: normal"><path d="M190,180c0,-27.61424 22.38576,-50 50,-50c27.61424,0 50,22.38576 50,50c0,27.61424 -22.38576,50 -50,50c-27.61424,0 -50,-22.38576 -50,-50z" fill="none" stroke="none" stroke-width="0"/><path d="M216.44599,173.61078l14.06235,1.9212c0,0 0.59178,2.19433 6.09548,1.61209c6.06737,-0.64187 2.25482,-2.50667 2.25482,-2.50667l7.81127,-3.9725l1.2175,4.57593c0,0 -4.96779,1.68057 -2.02228,2.51919c4.62254,1.31608 9.1394,-0.64332 9.1394,-0.64332l15.06669,-0.00154l-12.51947,2.59403c0,0 -6.67201,-0.9479 -8.23965,0.8152c-1.4261,1.60392 6.0807,1.9931 6.0807,1.9931l7.99461,3.87208l-14.29588,-1.92298c0,0 -1.76431,-2.39243 -6.97539,-1.64706c-5.09028,0.72809 -1.44567,2.60908 -1.44567,2.60908l-7.55711,3.90649l-1.58281,-4.5025c0,0 6.2066,-1.47339 1.70534,-2.70914c-4.24315,-1.16489 -8.4572,0.75812 -8.4572,0.75812l-14.8499,-0.00457l12.0795,-2.66235c0,0 6.52572,1.03334 8.29519,-0.68494c1.73054,-1.68047 -6.00005,-1.95758 -6.00005,-1.95758zM238.9882,181.34273c2.43128,0.15888 4.83157,-0.3036 5.36118,-1.03299c0.52961,-0.72938 -1.01201,-1.44947 -3.44329,-1.60836c-2.43128,-0.15888 -4.83158,0.30361 -5.36119,1.03299c-0.52961,0.72938 1.01201,1.44947 3.44329,1.60836z" fill="#595959" stroke="none" stroke-width="0"/><path d="M220.88014,174.78588l7.97885,1.15476c0,0 2.2411,1.78567 7.74481,1.20342c6.06737,-0.64187 4.34232,-2.33336 4.34232,-2.33336l4.52188,-2.49057l0.65848,2.80562c0,0 -3.20689,1.79564 -0.26139,2.63426c4.62254,1.31608 9.90417,-0.00311 9.90417,-0.00311l8.4055,-0.14173l-6.98452,1.4064c0,0 -6.31056,-0.26028 -7.87819,1.50282c-1.4261,1.60392 4.38023,2.4722 4.38023,2.4722l5.02612,2.20253l-8.23795,-1.12132c0,0 -3.15327,-2.00364 -8.36436,-1.25827c-5.09028,0.72809 -3.92139,2.63173 -3.92139,2.63173l-3.7005,1.98207l-0.69255,-2.34165c0,0 3.93544,-1.73248 -0.5658,-2.96822c-4.24315,-1.16489 -9.7427,0.15767 -9.7427,0.15767l-8.3061,0.12795l6.89672,-1.4517c0,0 6.45019,0.29062 8.21966,-1.42766c1.73054,-1.68047 -4.95279,-2.55314 -4.95279,-2.55314zM238.98819,181.34273c2.43128,0.15888 4.83157,-0.3036 5.36118,-1.03299c0.52961,-0.72938 -1.01201,-1.44947 -3.44329,-1.60836c-2.43128,-0.15888 -4.83158,0.30361 -5.36119,1.03299c-0.52961,0.72938 1.01201,1.44947 3.44329,1.60836z" fill="#464646" stroke="none" stroke-width="0"/><path d="M216.44599,173.61078l14.06235,1.9212c0,0 0.59178,2.19433 6.09548,1.61209c6.06737,-0.64187 2.25482,-2.50667 2.25482,-2.50667l7.81127,-3.9725l1.2175,4.57593c0,0 -4.96779,1.68057 -2.02228,2.51919c4.62254,1.31608 9.1394,-0.64332 9.1394,-0.64332l15.06669,-0.00154l-12.51947,2.59403c0,0 -6.67201,-0.9479 -8.23965,0.8152c-1.4261,1.60392 6.0807,1.9931 6.0807,1.9931l7.99461,3.87208l-14.29588,-1.92298c0,0 -1.76431,-2.39243 -6.97539,-1.64706c-5.09028,0.72809 -1.44567,2.60908 -1.44567,2.60908l-7.55711,3.90649l-1.58281,-4.5025c0,0 6.2066,-1.47339 1.70534,-2.70914c-4.24315,-1.16489 -8.4572,0.75812 -8.4572,0.75812l-14.8499,-0.00457l12.0795,-2.66235c0,0 6.52572,1.03334 8.29519,-0.68494c1.73054,-1.68047 -6.00005,-1.95758 -6.00005,-1.95758zM238.9882,181.34273c2.43128,0.15888 4.83157,-0.3036 5.36118,-1.03299c0.52961,-0.72938 -1.01201,-1.44947 -3.44329,-1.60836c-2.43128,-0.15888 -4.83158,0.30361 -5.36119,1.03299c-0.52961,0.72938 1.01201,1.44947 3.44329,1.60836z" fill="none" stroke="#515151" stroke-width="0.75"/></g></g></svg>