<svg version="1.1" xmlns="http://www.w3.org/2000/svg" xmlns:xlink="http://www.w3.org/1999/xlink" width="480" height="360" viewBox="0,0,480,360"><defs><radialGradient cx="240" cy="180" r="240" gradientUnits="userSpaceOnUse" id="color-1"><stop offset="0" stop-color="#000000" stop-opacity="0"/><stop offset="1" stop-color="#000000"/></radialGradient><radialGradient cx="240" cy="180" r="132.13214" gradientUnits="userSpaceOnUse" id="color-2"><stop offset="0" stop-color="#000000"/><stop offset="1" stop-color="#000000" stop-opacity="0"/></radialGradient></defs><g data-paper-data="{&quot;isPaintingLayer&quot;:true}" fill-rule="nonzero" stroke="none" stroke-width="0" stroke-linecap="butt" stroke-linejoin="miter" stroke-miterlimit="10" stroke-dasharray="" stroke-dashoffset="0" style="mix-blend-mode: normal"><path d="M0,360v-360h480v360z" fill="url(#color-1)"/><g fill="url(#color-2)"><path d="M107.86787,180c0,-72.97456 59.15757,-132.13213 132.13214,-132.13213c72.97456,0 132.13214,59.15757 132.13214,132.13214c0,72.97456 -59.15757,132.13214 -132.13213,132.13214c-72.97456,0 -132.13213,-59.15757 -132.13213,-132.13213z"/><path d="M107.86787,180c0,-72.97456 59.15758,-132.13213 132.13214,-132.13213c72.97456,0 132.13214,59.15758 132.13214,132.13214c0,72.97456 -59.15758,132.13214 -132.13213,132.13214c-72.97456,0 -132.13213,-59.15758 -132.13213,-132.13213z"/></g></g></svg>