<svg version="1.1" xmlns="http://www.w3.org/2000/svg" xmlns:xlink="http://www.w3.org/1999/xlink" width="100" height="100" viewBox="0,0,100,100"><g transform="translate(-190,-130)"><g data-paper-data="{&quot;isPaintingLayer&quot;:true}" fill-rule="nonzero" stroke-linecap="butt" stroke-linejoin="miter" stroke-miterlimit="10" stroke-dasharray="" stroke-dashoffset="0" style="mix-blend-mode: normal"><path d="M190,180c0,-27.61424 22.38576,-50 50,-50c27.61424,0 50,22.38576 50,50c0,27.61424 -22.38576,50 -50,50c-27.61424,0 -50,-22.38576 -50,-50z" fill="none" stroke="none" stroke-width="0"/><path d="M212.52201,164.20163l15.10564,3.25276c0,0 2.14037,7.01926 7.10254,3.94774c5.47038,-3.3861 0.41818,-8.64436 0.41818,-8.64436l4.80283,-14.60448l4.4472,14.64111c0,0 -3.65669,6.53367 -0.1821,8.63546c5.45284,3.29841 8.4705,-4.04692 8.4705,-4.04692l14.71794,-3.22298l-10.38379,11.12118c0,0 -7.19291,-1.66175 -7.46914,4.41446c-0.25129,5.52763 7.35936,5.19165 7.35936,5.19165l10.56682,10.90159l-15.33505,-3.20867c0,0 -3.42686,-7.41392 -7.98704,-3.87369c-4.45447,3.45815 0.4452,8.80501 0.4452,8.80501l-4.60153,14.33523l-4.75181,-14.32397c0,0 5.01442,-6.12358 -0.26275,-9.18631c-4.97457,-2.8871 -7.72231,4.27508 -7.72231,4.27508l-14.5105,3.15678l9.90533,-11.24966c0,0 7.11081,1.9712 7.61614,-4.00216c0.4942,-5.84192 -7.25528,-5.09318 -7.25528,-5.09318zM240.04876,184.56549c2.4883,-0.00188 4.50394,-2.0206 4.50205,-4.5089c-0.00188,-2.4883 -2.02059,-4.50393 -4.50889,-4.50205c-2.4883,0.00188 -4.50394,2.0206 -4.50205,4.5089c0.00188,2.4883 2.02059,4.50393 4.50889,4.50205z" fill="#595959" stroke="none" stroke-width="0"/><path d="M217.69046,167.08121l8.61685,2.05623c0,0 3.46068,5.33622 8.42286,2.26469c5.47038,-3.3861 2.5809,-8.52585 2.5809,-8.52585l2.6444,-9.07613l2.64073,8.99562c0,0 -1.85451,6.53231 1.62008,8.63409c5.45284,3.29841 9.67342,-2.1255 9.67342,-2.1255l8.11064,-2.2568l-5.82207,6.0716c0,0 -6.35025,0.50025 -6.62648,6.57645c-0.25129,5.52763 6.03922,7.11498 6.03922,7.11498l6.47822,6.09885l-8.84617,-1.89199c0,0 -4.50699,-5.85121 -9.06717,-2.31098c-4.45447,3.45815 -1.95726,9.40757 -1.95726,9.40757l-2.20399,7.2448l-2.3437,-7.47749c0,0 2.61122,-6.4822 -2.66594,-9.54492c-4.97457,-2.8871 -9.40563,2.59431 -9.40563,2.59431l-8.02335,2.1907l5.70406,-6.20035c0,0 6.50825,-0.43126 7.01358,-6.40463c0.4942,-5.84192 -6.65619,-7.25626 -6.65619,-7.25626zM240.04876,184.56549c2.4883,-0.00188 4.50394,-2.0206 4.50205,-4.5089c-0.00188,-2.4883 -2.02059,-4.50393 -4.50889,-4.50205c-2.4883,0.00188 -4.50394,2.0206 -4.50205,4.5089c0.00188,2.4883 2.02059,4.50393 4.50889,4.50205z" fill="#464646" stroke="none" stroke-width="0"/><path d="M212.52201,164.20163l15.10564,3.25276c0,0 2.14037,7.01926 7.10254,3.94774c5.47038,-3.3861 0.41818,-8.64436 0.41818,-8.64436l4.80283,-14.60448l4.4472,14.64111c0,0 -3.65669,6.53367 -0.1821,8.63546c5.45284,3.29841 8.4705,-4.04692 8.4705,-4.04692l14.71794,-3.22298l-10.38379,11.12118c0,0 -7.19291,-1.66175 -7.46914,4.41446c-0.25129,5.52763 7.35936,5.19165 7.35936,5.19165l10.56682,10.90159l-15.33505,-3.20867c0,0 -3.42686,-7.41392 -7.98704,-3.87369c-4.45447,3.45815 0.4452,8.80501 0.4452,8.80501l-4.60153,14.33523l-4.75181,-14.32397c0,0 5.01442,-6.12358 -0.26275,-9.18631c-4.97457,-2.8871 -7.72231,4.27508 -7.72231,4.27508l-14.5105,3.15678l9.90533,-11.24966c0,0 7.11081,1.9712 7.61614,-4.00216c0.4942,-5.84192 -7.25528,-5.09318 -7.25528,-5.09318zM240.04876,184.56549c2.4883,-0.00188 4.50394,-2.0206 4.50205,-4.5089c-0.00188,-2.4883 -2.02059,-4.50393 -4.50889,-4.50205c-2.4883,0.00188 -4.50394,2.0206 -4.50205,4.5089c0.00188,2.4883 2.02059,4.50393 4.50889,4.50205z" fill="none" stroke="#515151" stroke-width="1"/></g></g></svg>