<svg version="1.1" xmlns="http://www.w3.org/2000/svg" xmlns:xlink="http://www.w3.org/1999/xlink" width="529.71983" height="504.21813" viewBox="0,0,529.71983,504.21813"><g transform="translate(7.82589,80.23037)"><g data-paper-data="{&quot;isPaintingLayer&quot;:true}" fill-rule="nonzero" stroke-linejoin="miter" stroke-miterlimit="10" stroke-dasharray="" stroke-dashoffset="0" style="mix-blend-mode: normal"><path d="M-7.82589,364.51317v-370.87087h493.99399v370.87087z" fill="#000000" stroke="none" stroke-width="0" stroke-linecap="butt"/><g><path d="M11.46903,-22.80252c-1.20925,-39.03657 14.61372,-54.55545 34.70605,-55.17785c20.09233,-0.62241 36.84551,13.88736 38.05477,52.92393c1.20925,39.03657 -14.09854,71.1865 -34.19088,71.8089c-20.09233,0.6224 -37.36069,-30.51839 -38.56995,-69.55497z" fill="#a5acba" stroke="none" stroke-width="0" stroke-linecap="butt"/><path d="M48.59711,0.20645l29.25679,9.93114l-3.42324,3.83695l-25.25825,4.80403l-24.6664,-3.07463l-4.49493,-3.77453z" fill="#efd2bb" stroke="#1a2443" stroke-width="3" stroke-linecap="butt"/><path d="M60.75306,13.33996c-0.4072,0.01261 -0.78399,-0.19369 -1.06252,-0.53674c-0.27832,-0.34487 -0.45812,-0.82466 -0.47474,-1.36127c-0.01661,-0.53635 0.13311,-1.02661 0.38959,-1.38778c0.25678,-0.35963 0.62006,-0.58885 1.02726,-0.60146c0.40746,-0.01262 0.78424,0.19368 1.06254,0.53672c0.27832,0.34461 0.45837,0.82464 0.47499,1.36101c0.01662,0.5366 -0.13338,1.02661 -0.38983,1.38805c-0.25651,0.35961 -0.61981,0.58885 -1.02728,0.60147z" fill="#000000" stroke="#192443" stroke-width="3.6" stroke-linecap="butt"/><path d="M37.27707,14.06717c-0.4072,0.01261 -0.78399,-0.19369 -1.06253,-0.53673c-0.27832,-0.34487 -0.45811,-0.82466 -0.47474,-1.36127c-0.01661,-0.53635 0.13311,-1.02661 0.38957,-1.38779c0.25678,-0.35963 0.62007,-0.58884 1.02727,-0.60146c0.40746,-0.01262 0.78424,0.19369 1.06253,0.53674c0.27832,0.3446 0.45836,0.82464 0.47498,1.361c0.01662,0.53661 -0.13338,1.02662 -0.38982,1.38805c-0.25651,0.35961 -0.6198,0.58885 -1.02726,0.60146z" fill="#000000" stroke="#192443" stroke-width="3.6" stroke-linecap="butt"/><path d="M83.72147,-23.91021l-68.4737,-31.86647" data-paper-data="{&quot;index&quot;:null}" fill="none" stroke="#b8bfce" stroke-width="2.25" stroke-linecap="round"/><path d="M42.59844,-38.16037l-30.31485,16.4631" data-paper-data="{&quot;index&quot;:null}" fill="none" stroke="#b8bfce" stroke-width="2.25" stroke-linecap="round"/><path d="M15.37427,-51.69314l68.47368,31.86648" data-paper-data="{&quot;index&quot;:null}" fill="none" stroke="#1a2443" stroke-width="3" stroke-linecap="round"/><path d="M47.43256,-36.63339l-35.02246,19.01964" data-paper-data="{&quot;index&quot;:null}" fill="none" stroke="#1a2443" stroke-width="3" stroke-linecap="round"/><path d="M17.78105,8.64078l30.68749,-12.58474l31.40758,10.6612" fill="none" stroke="#b8bfce" stroke-width="2.25" stroke-linecap="butt"/><path d="M11.46903,-22.80252c-1.20925,-39.03657 14.61372,-54.55545 34.70605,-55.17785c20.09233,-0.62241 36.84551,13.88736 38.05477,52.92393c1.20925,39.03657 -14.09854,71.1865 -34.19088,71.8089c-20.09233,0.6224 -37.36069,-30.51839 -38.56995,-69.55497z" fill="none" stroke="#1a2443" stroke-width="4.5" stroke-linecap="butt"/><g fill="#3a5196" stroke="none" stroke-width="1"><path d="M74.68871,31.26729l-50.30243,3.14277l-5.47984,-8.27568l60.56479,-0.7166z" stroke-linecap="butt"/><g stroke-linecap="round"><path d="M83.31352,30.58095l2.83772,9.0367l-8.66246,-1.92739l-4.89382,-10.89126z"/><path d="M85.66835,23.74399l8.1105,4.89193l-7.76756,4.29245l-10.87907,-4.92046z"/></g></g></g><g><path d="M505.76694,351.02311c21.28003,32.7487 15.80034,54.22368 -1.05559,65.17663c-16.85592,10.95295 -38.70515,7.23622 -59.98516,-25.51248c-21.28003,-32.74871 -24.8664,-68.17586 -8.01048,-79.12881c16.85592,-10.95294 47.77123,6.71596 69.05125,39.46465z" fill="#a5acba" stroke="none" stroke-width="0" stroke-linecap="butt"/><path d="M462.08934,350.60697l-30.16498,6.68289l0.93682,-5.05599l19.10395,-17.20748l22.68416,-10.16433l5.80077,0.89591z" fill="#efd2bb" stroke="#1a2443" stroke-width="3" stroke-linecap="butt"/><path d="M444.8845,345.6826c0.34161,-0.22199 0.77074,-0.241 1.1868,-0.09217c0.41683,0.15051 0.81939,0.46749 1.1119,0.91766c0.29239,0.44995 0.41864,0.94678 0.38668,1.38859c-0.03303,0.44065 -0.22473,0.82506 -0.56634,1.04702c-0.34182,0.22211 -0.77098,0.24115 -1.18682,0.0922c-0.41668,-0.1503 -0.81959,-0.46734 -1.11199,-0.91732c-0.29253,-0.45018 -0.41841,-0.94693 -0.38662,-1.38896c0.0328,-0.4405 0.22454,-0.82492 0.56639,-1.04704z" fill="#000000" stroke="#192443" stroke-width="3.6" stroke-linecap="butt"/><path d="M464.57905,332.88513c0.34161,-0.22199 0.77075,-0.241 1.18682,-0.09218c0.41683,0.15051 0.81939,0.46748 1.11192,0.91765c0.29239,0.44995 0.41865,0.94678 0.38668,1.38859c-0.03304,0.44065 -0.22474,0.82507 -0.56636,1.04705c-0.34182,0.22212 -0.77097,0.24114 -1.18683,0.09217c-0.41668,-0.15028 -0.81959,-0.46735 -1.11199,-0.91731c-0.29253,-0.45017 -0.4184,-0.94692 -0.38659,-1.38894c0.0328,-0.4405 0.22452,-0.82493 0.56636,-1.04703z" fill="#000000" stroke="#192443" stroke-width="3.6" stroke-linecap="butt"/><path d="M519.63805,381.17551l-75.07169,8.26803" data-paper-data="{&quot;index&quot;:null}" fill="none" stroke="#b8bfce" stroke-width="2.25" stroke-linecap="round"/><path d="M504.49726,350.50061l-17.38036,29.79844" data-paper-data="{&quot;index&quot;:null}" fill="none" stroke="#b8bfce" stroke-width="2.25" stroke-linecap="round"/><path d="M517.41199,377.74974l-75.07169,8.26803" data-paper-data="{&quot;index&quot;:null}" fill="none" stroke="#1a2443" stroke-width="3" stroke-linecap="round"/><path d="M502.27121,347.07485l-20.07939,34.42584" data-paper-data="{&quot;index&quot;:null}" fill="none" stroke="#1a2443" stroke-width="3" stroke-linecap="round"/><path d="M484.06232,327.41311l-19.71047,26.67573l-32.38252,7.17417" fill="none" stroke="#b8bfce" stroke-width="2.25" stroke-linecap="butt"/><path d="M505.76694,351.02311c21.28003,32.7487 15.80034,54.22368 -1.05559,65.17663c-16.85592,10.95295 -38.70515,7.23622 -59.98516,-25.51248c-21.28003,-32.74871 -24.8664,-68.17586 -8.01048,-79.12881c16.85592,-10.95294 47.77123,6.71596 69.05125,39.46465z" fill="none" stroke="#1a2443" stroke-width="4.5" stroke-linecap="butt"/><g fill="#3a5196" stroke="none" stroke-width="1"><path d="M423.67174,337.58257l41.37808,-28.77615l8.97736,4.23352l-51.41059,32.02431z" stroke-linecap="butt"/><g stroke-linecap="round"><path d="M416.65357,342.64262l-7.11305,-6.25452l8.40594,-2.84484l9.83288,6.77377z"/><path d="M418.18617,349.70946l-9.47156,0.02393l4.41492,-7.69861l11.85348,-1.43544z"/></g></g></g><text transform="translate(87.97918,167.68486) scale(0.5,0.5)" font-size="40" xml:space="preserve" fill="#ffffff" fill-rule="nonzero" stroke="none" stroke-width="1" stroke-linecap="butt" stroke-linejoin="miter" stroke-miterlimit="10" stroke-dasharray="" stroke-dashoffset="0" font-family="Sans Serif" font-weight="normal" text-anchor="start" style="mix-blend-mode: normal"><tspan x="0" dy="0">graphic advisor and contributor</tspan></text><text transform="translate(135.20795,200.93486) scale(0.78169,0.78169)" font-size="40" xml:space="preserve" fill="#ffffff" fill-rule="nonzero" stroke="none" stroke-width="1" stroke-linecap="butt" stroke-linejoin="miter" stroke-miterlimit="10" stroke-dasharray="" stroke-dashoffset="0" font-family="Sans Serif" font-weight="normal" text-anchor="start" style="mix-blend-mode: normal"><tspan x="0" dy="0">skyistumbling</tspan></text></g></g></svg>