<svg version="1.1" xmlns="http://www.w3.org/2000/svg" xmlns:xlink="http://www.w3.org/1999/xlink" width="17.20957" height="30.90072" viewBox="0,0,17.20957,30.90072"><g transform="translate(-231.4,-163.09907)"><g data-paper-data="{&quot;isPaintingLayer&quot;:true}" fill="none" fill-rule="nonzero" stroke="none" stroke-width="none" stroke-linecap="none" stroke-linejoin="miter" stroke-miterlimit="10" stroke-dasharray="" stroke-dashoffset="0" font-family="none" font-weight="none" font-size="none" text-anchor="none" style="mix-blend-mode: normal"><path d="M239.15,164.1c2.458,-0.05 5.301,1.919 6.25,4.25c2.077,5.105 2.262,10.911 2.2,16.4c-0.075,2.409 -0.897,5.03 -2.6,6.7c-1.439,1.41 -3.836,1.591 -5.85,1.55c-1.504,-0.033 -3.008,-0.558 -3.9,-1.65c-1.561,-1.912 -2.742,-4.249 -2.85,-6.6c-0.286,-5.441 -0.009,-11.074 1.7,-16.15c0.716,-2.138 2.798,-4.455 5.05,-4.5z" id="ID0.9379957877099514" fill="#7f7f7f" stroke="#1b1b1b" stroke-width="2" stroke-linecap="round"/><path d="M246.6235,177.2981l-10.1098,-2.609l9.1907,-4.8622l0.9191,7.4119z" id="ID0.9408396678045392" fill="#ffe9cc" stroke="#1c1c1c" stroke-width="1.16751" stroke-linecap="round"/><path d="M243.6501,173.1583c0.1567,0 0.2991,0.0838 0.4021,0.219c0.1029,0.1359 0.1663,0.3225 0.1663,0.529c0,0.2064 -0.0634,0.3931 -0.1663,0.5289c-0.103,0.1352 -0.2454,0.219 -0.4021,0.219c-0.1568,0 -0.2992,-0.0838 -0.4021,-0.219c-0.1029,-0.1358 -0.1664,-0.3225 -0.1664,-0.5289c0,-0.2065 0.0635,-0.3931 0.1664,-0.529c0.1029,-0.1352 0.2453,-0.219 0.4021,-0.219z" id="ID0.6937623028643429" fill="#000000" stroke="#001966" stroke-width="1.1967" stroke-linecap="butt"/></g></g></svg>