<svg version="1.1" xmlns="http://www.w3.org/2000/svg" xmlns:xlink="http://www.w3.org/1999/xlink" width="35.89518" height="154.92532" viewBox="0,0,35.89518,154.92532"><defs><linearGradient x1="-251.65649" y1="194.4558" x2="575.04027" y2="194.4558" gradientUnits="userSpaceOnUse" id="color-1"><stop offset="0" stop-color="#fffccc"/><stop offset="1" stop-color="#fffccc" stop-opacity="0"/></linearGradient><radialGradient cx="235.11422" cy="176.67736" r="8.62712" gradientUnits="userSpaceOnUse" id="color-2"><stop offset="0" stop-color="#fffccc"/><stop offset="1" stop-color="#ffea4c"/></radialGradient></defs><g transform="translate(-222.05241,-158.53734)"><g data-paper-data="{&quot;isPaintingLayer&quot;:true}" fill-rule="nonzero" stroke="none" stroke-width="0" stroke-linecap="butt" stroke-linejoin="miter" stroke-miterlimit="10" stroke-dasharray="" stroke-dashoffset="0" style="mix-blend-mode: normal"><path d="M257.83359,198.40732c0.17157,21.59598 -4.3354,62.66143 -6.04617,62.23523c-1.71077,-0.42625 -5.64642,-27.68976 -5.64642,-27.68976c0,0 -3.48805,80.64688 -4.94308,80.5097c-1.45504,-0.13718 -8.95356,-100.29096 -8.95356,-100.29096c0,0 -1.41477,41.90623 -3.03859,41.14561c-1.62383,-0.76067 -5.42252,-38.43688 -6.75339,-59.02249c-0.49775,-7.69907 -3.31643,-36.37903 17.69538,-36.75436c20.52992,-0.36671 17.63596,33.5968 17.68578,39.86713z" fill="url(#color-1)"/><path d="M230.89054,179.65222c0,-6.30898 3.86248,-11.42347 8.62712,-11.42347c4.76459,0 8.62712,5.11444 8.62712,11.42347c0,6.30898 -3.86247,11.42347 -8.62712,11.42347c-4.76459,0 -8.62712,-5.11444 -8.62712,-11.42347z" fill="url(#color-2)"/></g></g></svg>