<svg version="1.1" xmlns="http://www.w3.org/2000/svg" xmlns:xlink="http://www.w3.org/1999/xlink" width="100" height="100" viewBox="0,0,100,100"><g transform="translate(-190,-130)"><g data-paper-data="{&quot;isPaintingLayer&quot;:true}" fill-rule="nonzero" stroke-linecap="butt" stroke-linejoin="miter" stroke-miterlimit="10" stroke-dasharray="" stroke-dashoffset="0" style="mix-blend-mode: normal"><path d="M190,180c0,-27.61424 22.38576,-50 50,-50c27.61424,0 50,22.38576 50,50c0,27.61424 -22.38576,50 -50,50c-27.61424,0 -50,-22.38576 -50,-50z" fill="none" stroke="none" stroke-width="0"/><path d="M233.99298,170.66l7.37893,4.07285c0,0 -3.92828,1.85951 1.63547,2.38789c6.13357,0.5825 6.82839,-1.59516 6.82839,-1.59516l14.20643,-1.76301l-8.20506,3.87472c0,0 -7.33851,0.44562 -6.66778,1.64714c1.05265,1.88559 8.59021,1.13586 8.59021,1.13586l12.03738,2.71838l-15.20236,-0.18788c0,0 -3.42805,-1.96145 -8.21626,-0.83617c-4.35592,1.02369 0.85949,2.68956 0.85949,2.68956l-1.38028,4.53583l-7.56188,-4.11642c0,0 3.38905,-2.22938 -2.26814,-2.57466c-5.52604,-0.33727 -6.38749,1.82301 -6.38749,1.82301l-13.87101,1.75616l7.76601,-3.88202c0,0 7.91247,-0.05653 6.79558,-1.85606c-1.05284,-1.69635 -8.27557,-0.92102 -8.27557,-0.92102l-11.85198,-2.68413l14.98794,0.0539c0,0 3.13986,2.00329 7.99939,0.95023c4.7526,-1.02988 -0.86633,-2.64662 -0.86633,-2.64662zM236.49098,180.90477c1.62329,0.56577 4.46806,0.62962 6.35394,0.14263c1.88588,-0.48699 2.09874,-1.34042 0.47546,-1.90618c-1.62329,-0.56577 -4.46806,-0.62962 -6.35394,-0.14264c-1.88588,0.48699 -2.09874,1.34042 -0.47546,1.90618z" fill="#595959" stroke="none" stroke-width="0"/><path d="M235.1779,172.39899l4.057,2.36257c0,0 -1.7913,1.83081 3.77246,2.35919c6.13357,0.5825 8.14818,-1.07993 8.14818,-1.07993l8.60689,-1.17309l-5.10102,2.35981c0,0 -6.16281,0.85539 -5.49208,2.0569c1.05265,1.88559 7.91706,1.78526 7.91706,1.78526l6.99803,1.40403l-8.39947,-0.1374c0,0 -4.51845,-1.34698 -9.30665,-0.22169c-4.35592,1.02369 -1.45962,2.76529 -1.45962,2.76529l-0.40287,2.66648l-4.33103,-2.38262c0,0 1.49989,-2.16956 -4.15731,-2.51484c-5.52604,-0.33727 -8.41038,1.39423 -8.41038,1.39423l-6.93097,0.91519l4.14327,-1.99537c0,0 6.61805,-0.67343 5.50116,-2.47296c-1.05284,-1.69635 -8.09807,-1.63266 -8.09807,-1.63266l-6.89099,-1.39709l8.42019,0.08537c0,0 4.56913,1.39642 9.42866,0.34336c4.7526,-1.02988 1.16462,-2.93329 1.16462,-2.93329zM236.49098,180.90477c1.62329,0.56577 4.46806,0.62962 6.35394,0.14263c1.88588,-0.48699 2.09874,-1.34042 0.47546,-1.90618c-1.62329,-0.56577 -4.46806,-0.62962 -6.35394,-0.14264c-1.88588,0.48699 -2.09874,1.34042 -0.47546,1.90618z" fill="#464646" stroke="none" stroke-width="0"/><path d="M233.99298,170.66l7.37893,4.07285c0,0 -3.92828,1.85951 1.63547,2.38789c6.13357,0.5825 6.82839,-1.59516 6.82839,-1.59516l14.20643,-1.76301l-8.20506,3.87472c0,0 -7.33851,0.44562 -6.66778,1.64714c1.05265,1.88559 8.59021,1.13586 8.59021,1.13586l12.03738,2.71838l-15.20236,-0.18788c0,0 -3.42805,-1.96145 -8.21626,-0.83617c-4.35592,1.02369 0.85949,2.68956 0.85949,2.68956l-1.38028,4.53583l-7.56188,-4.11642c0,0 3.38905,-2.22938 -2.26814,-2.57466c-5.52604,-0.33727 -6.38749,1.82301 -6.38749,1.82301l-13.87101,1.75616l7.76601,-3.88202c0,0 7.91247,-0.05653 6.79558,-1.85606c-1.05284,-1.69635 -8.27557,-0.92102 -8.27557,-0.92102l-11.85198,-2.68413l14.98794,0.0539c0,0 3.13986,2.00329 7.99939,0.95023c4.7526,-1.02988 -0.86633,-2.64662 -0.86633,-2.64662zM236.49098,180.90477c1.62329,0.56577 4.46806,0.62962 6.35394,0.14263c1.88588,-0.48699 2.09874,-1.34042 0.47546,-1.90618c-1.62329,-0.56577 -4.46806,-0.62962 -6.35394,-0.14264c-1.88588,0.48699 -2.09874,1.34042 -0.47546,1.90618z" fill="none" stroke="#515151" stroke-width="0.75"/></g></g></svg>