<svg version="1.1" xmlns="http://www.w3.org/2000/svg" xmlns:xlink="http://www.w3.org/1999/xlink" width="100" height="100" viewBox="0,0,100,100"><g transform="translate(-190,-130)"><g data-paper-data="{&quot;isPaintingLayer&quot;:true}" fill-rule="nonzero" stroke-linecap="butt" stroke-linejoin="miter" stroke-miterlimit="10" stroke-dasharray="" stroke-dashoffset="0" style="mix-blend-mode: normal"><path d="M190,180c0,-27.61424 22.38576,-50 50,-50c27.61424,0 50,22.38576 50,50c0,27.61424 -22.38576,50 -50,50c-27.61424,0 -50,-22.38576 -50,-50z" fill="none" stroke="none" stroke-width="0"/><path d="M214.30148,174.40103l14.66745,1.45822c0,0 1.37193,2.16269 6.63605,1.40692c5.80326,-0.83317 1.34676,-2.56471 1.34676,-2.56471l6.34783,-4.20068l2.84446,4.51048c0,0 -4.33912,1.83055 -1.1111,2.56969c5.06588,1.15995 8.85709,-0.93333 8.85709,-0.93333l14.97944,-0.48572l-11.52117,2.98144c0,0 -6.97209,-0.72803 -7.90114,1.0753c-0.84517,1.64053 6.7574,1.78622 6.7574,1.78622l9.33124,3.59287l-14.90027,-1.45249c0,0 -2.60844,-2.32196 -7.52338,-1.41342c-4.80101,0.88748 -0.5057,2.64052 -0.5057,2.64052l-6.1187,4.12688l-3.18145,-4.42573c0,0 5.64477,-1.66437 0.72816,-2.74835c-4.63469,-1.02182 -8.13783,1.02555 -8.13783,1.02555l-14.76608,0.47268l11.05933,-3.03522c0,0 6.85715,0.81768 8.00288,-0.94758c1.12052,-1.72641 -6.66453,-1.75349 -6.66453,-1.75349zM239.47489,181.36406c2.47403,0.07983 4.69535,-0.45713 4.96147,-1.19934c0.26612,-0.74221 -1.52376,-1.40861 -3.99778,-1.48844c-2.47403,-0.07983 -4.69536,0.45713 -4.96148,1.19934c-0.26612,0.74221 1.52376,1.40861 3.99778,1.48844z" fill="#595959" stroke="none" stroke-width="0"/><path d="M219.12974,175.42688l8.34527,0.8917c0,0 2.86583,1.70337 8.12996,0.9476c5.80326,-0.83317 3.48414,-2.45949 3.48414,-2.45949l3.60653,-2.62156l1.65651,2.76831c0,0 -2.54726,1.88837 0.68075,2.6275c5.06588,1.15995 9.84606,-0.32138 9.84606,-0.32138l8.30652,-0.41104l-6.44213,1.62277c0,0 -6.36719,-0.05598 -7.29623,1.74735c-0.84517,1.64053 5.23779,2.31721 5.23779,2.31721l5.78368,2.02833l-8.59095,-0.85012c0,0 -3.85058,-1.89078 -8.76554,-0.98223c-4.80101,0.88748 -2.95909,2.74262 -2.95909,2.74262l-2.97145,2.08959l-1.52472,-2.30592c0,0 3.29417,-1.84898 -1.62243,-2.93296c-4.63469,-1.02182 -9.63034,0.46986 -9.63034,0.46986l-8.21262,0.39415l6.33866,-1.66498c0,0 6.51685,0.08166 7.66258,-1.6836c1.12052,-1.72641 -5.83596,-2.37928 -5.83596,-2.37928zM239.47489,181.36406c2.47403,0.07983 4.69535,-0.45713 4.96147,-1.19934c0.26612,-0.74221 -1.52376,-1.40861 -3.99778,-1.48844c-2.47403,-0.07983 -4.69536,0.45713 -4.96148,1.19934c-0.26612,0.74221 1.52376,1.40861 3.99778,1.48844z" fill="#464646" stroke="none" stroke-width="0"/><path d="M214.30148,174.40103l14.66745,1.45822c0,0 1.37193,2.16269 6.63605,1.40692c5.80326,-0.83317 1.34676,-2.56471 1.34676,-2.56471l6.34783,-4.20068l2.84446,4.51048c0,0 -4.33912,1.83055 -1.1111,2.56969c5.06588,1.15995 8.85709,-0.93333 8.85709,-0.93333l14.97944,-0.48572l-11.52117,2.98144c0,0 -6.97209,-0.72803 -7.90114,1.0753c-0.84517,1.64053 6.7574,1.78622 6.7574,1.78622l9.33124,3.59287l-14.90027,-1.45249c0,0 -2.60844,-2.32196 -7.52338,-1.41342c-4.80101,0.88748 -0.5057,2.64052 -0.5057,2.64052l-6.1187,4.12688l-3.18145,-4.42573c0,0 5.64477,-1.66437 0.72816,-2.74835c-4.63469,-1.02182 -8.13783,1.02555 -8.13783,1.02555l-14.76608,0.47268l11.05933,-3.03522c0,0 6.85715,0.81768 8.00288,-0.94758c1.12052,-1.72641 -6.66453,-1.75349 -6.66453,-1.75349zM239.47489,181.36406c2.47403,0.07983 4.69535,-0.45713 4.96147,-1.19934c0.26612,-0.74221 -1.52376,-1.40861 -3.99778,-1.48844c-2.47403,-0.07983 -4.69536,0.45713 -4.96148,1.19934c-0.26612,0.74221 1.52376,1.40861 3.99778,1.48844z" fill="none" stroke="#515151" stroke-width="0.75"/></g></g></svg>