<svg version="1.1" xmlns="http://www.w3.org/2000/svg" xmlns:xlink="http://www.w3.org/1999/xlink" width="493.99399" height="370.87087" viewBox="0,0,493.99399,370.87087"><g transform="translate(7.82588,6.35763)"><g data-paper-data="{&quot;isPaintingLayer&quot;:true}" fill-rule="nonzero" stroke-linejoin="miter" stroke-miterlimit="10" stroke-dasharray="" stroke-dashoffset="0" style="mix-blend-mode: normal"><path d="M-7.82588,364.51325v-370.87087h493.99399v370.87087z" fill="#000000" stroke="none" stroke-width="0" stroke-linecap="butt"/><g><path d="M109.11438,117.72232c-16.51832,35.39014 -37.63819,42.10966 -55.85369,33.60761c-18.21549,-8.50206 -26.62879,-29.00617 -10.11048,-64.39631c16.51831,-35.39014 44.67565,-57.18718 62.89114,-48.68512c18.21549,8.50205 19.59137,44.0837 3.07307,79.47384z" fill="#a5acba" stroke="none" stroke-width="0" stroke-linecap="butt"/><path d="M86.34541,80.44659l-21.63838,-22.05374l4.78536,-1.88175l24.71182,7.09822l20.63179,13.86413l2.31073,5.39556z" fill="#efd2bb" stroke="#1a2443" stroke-width="3" stroke-linecap="butt"/><path d="M81.41529,63.2434c0.36917,0.1723 0.61247,0.5263 0.70646,0.95807c0.09297,0.43331 0.03716,0.94264 -0.18991,1.42912c-0.22696,0.48625 -0.58162,0.85638 -0.97336,1.06315c-0.39132,0.20525 -0.81893,0.24611 -1.18809,0.0738c-0.36938,-0.17242 -0.61272,-0.52643 -0.7065,-0.95808c-0.09307,-0.43307 -0.03739,-0.94273 0.18957,-1.42901c0.22706,-0.48649 0.58186,-0.85627 0.9737,-1.06328c0.39108,-0.20537 0.81873,-0.2462 1.18814,-0.07377z" fill="#000000" stroke="#192443" stroke-width="3.6" stroke-linecap="butt"/><path d="M102.69836,73.17725c0.36917,0.1723 0.61249,0.52631 0.70649,0.95809c0.09297,0.43331 0.03717,0.94263 -0.1899,1.42911c-0.22696,0.48625 -0.58161,0.85637 -0.97335,1.06314c-0.39132,0.20524 -0.81894,0.24611 -1.18811,0.0738c-0.36939,-0.17241 -0.61272,-0.52643 -0.70649,-0.95809c-0.09309,-0.43307 -0.03738,-0.94273 0.18957,-1.429c0.22705,-0.48649 0.58186,-0.85625 0.97371,-1.06327c0.39108,-0.20537 0.8187,-0.24622 1.18809,-0.07379z" fill="#000000" stroke="#192443" stroke-width="3.6" stroke-linecap="butt"/><path d="M90.8766,145.45242l-46.75587,-59.31279" data-paper-data="{&quot;index&quot;:null}" fill="none" stroke="#b8bfce" stroke-width="2.25" stroke-linecap="round"/><path d="M108.88551,116.36854l-34.48136,1.02943" data-paper-data="{&quot;index&quot;:null}" fill="none" stroke="#b8bfce" stroke-width="2.25" stroke-linecap="round"/><path d="M92.60456,141.75033l-46.75587,-59.3128" data-paper-data="{&quot;index&quot;:null}" fill="none" stroke="#1a2443" stroke-width="3" stroke-linecap="round"/><path d="M70.77748,113.85574l39.83598,-1.18927" data-paper-data="{&quot;index&quot;:null}" fill="none" stroke="#1a2443" stroke-width="3" stroke-linecap="round"/><path d="M117.65478,86.8098l-33.06562,-2.60049l-23.22909,-23.675" fill="none" stroke="#b8bfce" stroke-width="2.25" stroke-linecap="butt"/><path d="M109.11438,117.72232c-16.51832,35.39014 -37.63819,42.10966 -55.85369,33.60761c-18.21549,-8.50206 -26.62879,-29.00617 -10.11048,-64.39631c16.51831,-35.39014 44.67565,-57.18718 62.89114,-48.68512c18.21549,8.50205 19.59137,44.0837 3.07307,79.47384z" fill="none" stroke="#1a2443" stroke-width="4.5" stroke-linecap="butt"/><g fill="#3a5196" stroke="none" stroke-width="1"><path d="M77.05765,40.9588l46.31796,19.87106l1.16077,9.85741l-54.38465,-26.66299z" stroke-linecap="butt"/><g stroke-linecap="round"><path d="M69.0495,37.68339l1.54074,-9.34563l6.86344,5.62548l-0.54144,11.92796z"/><path d="M63.86542,42.72465l-5.03435,-8.02286l8.86855,-0.32993l7.49279,9.29642z"/></g></g></g><text transform="translate(197.87501,137.61975) scale(0.5,0.5)" font-size="40" xml:space="preserve" fill="#ffffff" fill-rule="nonzero" stroke="none" stroke-width="1" stroke-linecap="butt" stroke-linejoin="miter" stroke-miterlimit="10" stroke-dasharray="" stroke-dashoffset="0" font-family="Sans Serif" font-weight="normal" text-anchor="start" style="mix-blend-mode: normal"><tspan x="0" dy="0">music by</tspan></text><text transform="translate(128.09456,171.00006) scale(0.78169,0.78169)" font-size="40" xml:space="preserve" fill="#ffffff" fill-rule="nonzero" stroke="none" stroke-width="1" stroke-linecap="butt" stroke-linejoin="miter" stroke-miterlimit="10" stroke-dasharray="" stroke-dashoffset="0" font-family="Sans Serif" font-weight="normal" text-anchor="start" style="mix-blend-mode: normal"><tspan x="0" dy="0">Toshio Masuda</tspan></text><text transform="translate(216.79584,197.61978) scale(0.5,0.5)" font-size="40" xml:space="preserve" fill="#ffffff" fill-rule="nonzero" stroke="none" stroke-width="1" stroke-linecap="butt" stroke-linejoin="miter" stroke-miterlimit="10" stroke-dasharray="" stroke-dashoffset="0" font-family="Sans Serif" font-weight="normal" text-anchor="start" style="mix-blend-mode: normal"><tspan x="0" dy="0">from</tspan></text><text transform="translate(186.89068,231.00006) scale(0.78169,0.78169)" font-size="40" xml:space="preserve" fill="#ffffff" fill-rule="nonzero" stroke="none" stroke-width="1" stroke-linecap="butt" stroke-linejoin="miter" stroke-miterlimit="10" stroke-dasharray="" stroke-dashoffset="0" font-family="Sans Serif" font-weight="normal" text-anchor="start" style="mix-blend-mode: normal"><tspan x="0" dy="0">Naruto</tspan></text><g><g stroke-linecap="butt"><path d="M93.6738,114.51548c5.21109,8.75792 21.86629,10.8115 20.97704,23.32811c-0.40223,5.66149 -3.82147,9.49155 -14.08544,14.08487c-11.97232,5.35783 -17.72402,5.04774 -21.24871,2.30761c-11.34946,-8.82316 -7.16933,-19.83818 -12.50339,-28.41866c-3.24484,-5.21972 -15.75893,-11.30871 -14.99178,-20.45045c0.5579,-6.6482 4.9728,7.5424 11.52335,6.23711c4.92334,-0.98106 2.99787,-4.8811 2.99787,-4.8811l11.71059,3.14985c0,0 2.46888,2.40196 5.14284,0.34083c5.22904,-4.03063 -4.07634,-17.74002 2.78199,-14.18473c4.31094,2.23475 2.87411,10.38333 7.69565,18.48656z" fill="#ff2525" stroke="#7e1313" stroke-width="1.5"/><path d="M81.22218,134.81505l-3.37506,-5.4292l10.62488,-6.60497l3.37506,5.4292z" fill="#44423d" stroke="#32312d" stroke-width="0.5"/><path d="M104.95249,132.36577c-0.40086,-0.64483 -0.20308,-1.49253 0.44175,-1.89339c0.64483,-0.40086 1.49253,-0.20308 1.89339,0.44175c0.40086,0.64483 0.20308,1.49253 -0.44175,1.89339c-0.64483,0.40086 -1.49253,0.20308 -1.89339,-0.44175z" data-paper-data="{&quot;index&quot;:null}" fill="#d3cdbe" stroke="none" stroke-width="0"/><path d="M104.95894,138.75592c-0.40086,-0.64483 -0.20308,-1.49253 0.44175,-1.89339c0.64483,-0.40086 1.49253,-0.20308 1.89339,0.44175c0.40086,0.64483 0.20308,1.49253 -0.44175,1.89339c-0.64483,0.40086 -1.49253,0.20308 -1.89339,-0.44175z" data-paper-data="{&quot;index&quot;:null}" fill="#d3cdbe" stroke="none" stroke-width="0"/><path d="M104.64509,145.02146c-0.40086,-0.64483 -0.20308,-1.49253 0.44175,-1.89339c0.64483,-0.40086 1.49253,-0.20308 1.89339,0.44175c0.40086,0.64483 0.20308,1.49253 -0.44175,1.89339c-0.64483,0.40086 -1.49253,0.20308 -1.89339,-0.44175z" data-paper-data="{&quot;index&quot;:null}" fill="#d3cdbe" stroke="none" stroke-width="0"/><path d="M87.71241,141.65318l-0.68953,-1.10919l7.41406,-4.60895l0.68953,1.10919z" fill="#d3cdbe" stroke="none" stroke-width="0"/></g><g><path d="M74.55286,119.17149l-40.191,-65.69367l4.46411,-3.01793l41.64258,65.03411z" fill="#413f3a" stroke="none" stroke-width="0" stroke-linecap="butt"/><g stroke-linecap="butt"><g fill="#d3cdbe" stroke="none" stroke-width="0"><path d="M26.09246,38.14316l0.67964,-1.29331l0.52691,0.27689l-0.67965,1.29331z"/><path d="M28.22097,36.41922c-0.38231,0.7275 -1.0032,1.15385 -1.38679,0.95228c-0.3836,-0.20158 -0.38464,-0.95476 -0.00233,-1.68226c0.38231,-0.7275 1.0032,-1.15385 1.38679,-0.95227c0.3836,0.20158 0.38464,0.95476 0.00233,1.68226z"/></g><g fill="#d3cdbe" stroke="none" stroke-width="0"><path d="M28.48604,39.64992l0.67965,-1.29331l0.52691,0.27689l-0.67965,1.29331z"/><path d="M30.61456,37.92598c-0.38231,0.72751 -1.00319,1.15385 -1.38679,0.95227c-0.3836,-0.20158 -0.38464,-0.95476 -0.00233,-1.68226c0.38231,-0.7275 1.00319,-1.15385 1.38679,-0.95227c0.3836,0.20158 0.38464,0.95475 0.00233,1.68226z"/></g><g fill="#d3cdbe" stroke="none" stroke-width="0"><path d="M31.12734,41.16457l0.67965,-1.29331l0.52691,0.27689l-0.67965,1.29331z"/><path d="M33.25585,39.44064c-0.38231,0.72751 -1.00319,1.15385 -1.38679,0.95227c-0.3836,-0.20158 -0.38464,-0.95476 -0.00233,-1.68226c0.38231,-0.72751 1.00319,-1.15385 1.38679,-0.95227c0.3836,0.20158 0.38464,0.95475 0.00233,1.68226z"/></g><g fill="#d3cdbe" stroke="none" stroke-width="0"><path d="M33.46254,42.70763l0.67965,-1.29331l0.52691,0.27689l-0.67965,1.29331z"/><path d="M35.59106,40.98369c-0.38231,0.72751 -1.0032,1.15385 -1.38679,0.95228c-0.3836,-0.20158 -0.38464,-0.95476 -0.00233,-1.68226c0.38231,-0.72751 1.0032,-1.15385 1.38679,-0.95228c0.3836,0.20158 0.38464,0.95475 0.00233,1.68226z"/></g><g fill="#d3cdbe" stroke="none" stroke-width="0"><path d="M36.21271,44.39741l0.67965,-1.29331l0.52691,0.27689l-0.67965,1.29331z"/><path d="M38.34123,42.67348c-0.38231,0.72751 -1.0032,1.15385 -1.38679,0.95227c-0.3836,-0.20158 -0.38464,-0.95476 -0.00233,-1.68226c0.38231,-0.72751 1.0032,-1.15385 1.38679,-0.95227c0.3836,0.20158 0.38464,0.95475 0.00233,1.68226z"/></g><g fill="#d3cdbe" stroke="none" stroke-width="0"><path d="M38.40275,45.70695l0.67965,-1.29331l0.52691,0.27689l-0.67965,1.29331z"/><path d="M40.53126,43.98302c-0.38231,0.72751 -1.00319,1.15385 -1.38679,0.95227c-0.3836,-0.20158 -0.38464,-0.95476 -0.00233,-1.68226c0.38231,-0.72751 1.00319,-1.15385 1.38679,-0.95227c0.3836,0.20158 0.38464,0.95475 0.00233,1.68226z"/></g><path d="M34.31506,53.74973c0,0 -1.96598,-3.85914 -6.37136,-8.56329c-3.8171,-4.07598 -6.06136,-5.29048 -6.06136,-5.29048c0,0 0.34577,-1.09635 -0.0446,-2.83462c-0.3568,-1.58875 -1.29007,-3.02772 -1.29007,-3.02772l19.26644,11.54922c0,0 -0.69639,0.71186 -1.01856,2.4234c-0.32082,1.70434 0.26343,2.52465 0.26343,2.52465z" fill="#ff2525" stroke="#7e1313" stroke-width="1"/><path d="M23.79316,38.78793c-0.27058,-0.43526 -0.13708,-1.00745 0.29818,-1.27803c0.43526,-0.27058 1.00746,-0.13708 1.27804,0.29818c0.27058,0.43526 0.13708,1.00746 -0.29818,1.27804c-0.43526,0.27058 -1.00746,0.13708 -1.27804,-0.29818z" fill="#d3cdbe" stroke="none" stroke-width="0"/><path d="M26.20883,40.20002c-0.27058,-0.43526 -0.13708,-1.00745 0.29818,-1.27803c0.43526,-0.27058 1.00746,-0.13708 1.27804,0.29818c0.27058,0.43526 0.13708,1.00746 -0.29818,1.27804c-0.43526,0.27058 -1.00745,0.13708 -1.27804,-0.29818z" fill="#d3cdbe" stroke="none" stroke-width="0"/><path d="M29.02526,41.6058c-0.27058,-0.43526 -0.13708,-1.00746 0.29818,-1.27804c0.43526,-0.27058 1.00746,-0.13708 1.27804,0.29818c0.27058,0.43526 0.13708,1.00746 -0.29818,1.27804c-0.43526,0.27058 -1.00745,0.13708 -1.27803,-0.29818z" fill="#d3cdbe" stroke="none" stroke-width="0"/><path d="M31.44092,43.01791c-0.27058,-0.43526 -0.13708,-1.00746 0.29818,-1.27804c0.43526,-0.27058 1.00745,-0.13708 1.27804,0.29818c0.27058,0.43526 0.13708,1.00745 -0.29818,1.27803c-0.43526,0.27058 -1.00746,0.13708 -1.27804,-0.29818z" fill="#d3cdbe" stroke="none" stroke-width="0"/><path d="M34.33626,44.94121c-0.27058,-0.43526 -0.13708,-1.00746 0.29818,-1.27804c0.43526,-0.27058 1.00745,-0.13708 1.27803,0.29818c0.27058,0.43526 0.13708,1.00746 -0.29818,1.27804c-0.43526,0.27058 -1.00746,0.13708 -1.27804,-0.29818z" fill="#d3cdbe" stroke="none" stroke-width="0"/><path d="M36.75193,46.3533c-0.27058,-0.43526 -0.13708,-1.00746 0.29818,-1.27804c0.43526,-0.27058 1.00746,-0.13708 1.27804,0.29818c0.27058,0.43526 0.13708,1.00746 -0.29818,1.27804c-0.43526,0.27058 -1.00746,0.13708 -1.27804,-0.29818z" fill="#d3cdbe" stroke="none" stroke-width="0"/></g><path d="M23.8883,38.52869l11.53209,15.28627l52.76661,86.84394" fill="none" stroke="#a6a6a6" stroke-width="0.5" stroke-linecap="round"/><path d="M26.41284,40.11592l9.70809,13.26354l53.23363,86.55361" fill="none" stroke="#a6a6a6" stroke-width="0.5" stroke-linecap="round"/><path d="M29.19298,41.46332l7.62849,11.48065l53.70066,86.26329" fill="none" stroke="#a6a6a6" stroke-width="0.5" stroke-linecap="round"/><path d="M91.6897,138.48144l-54.16769,-85.97296l-5.87707,-9.57469" fill="none" stroke="#a6a6a6" stroke-width="0.5" stroke-linecap="round"/><path d="M92.85727,137.75562l-54.63471,-85.68263l-3.73278,-7.42732" fill="none" stroke="#a6a6a6" stroke-width="0.5" stroke-linecap="round"/><path d="M94.02484,137.0298l-55.10175,-85.3923l-2.09023,-5.6965" fill="none" stroke="#a6a6a6" stroke-width="0.5" stroke-linecap="round"/></g></g></g></g></svg>