<svg version="1.1" xmlns="http://www.w3.org/2000/svg" xmlns:xlink="http://www.w3.org/1999/xlink" width="493.99399" height="433.87506" viewBox="0,0,493.99399,433.87506"><g transform="translate(7.82589,69.36189)"><g data-paper-data="{&quot;isPaintingLayer&quot;:true}" fill-rule="nonzero" stroke-linejoin="miter" stroke-miterlimit="10" stroke-dasharray="" stroke-dashoffset="0" style="mix-blend-mode: normal"><path d="M-7.82588,364.51317v-370.87087h493.99399v370.87087z" fill="#000000" stroke="none" stroke-width="0" stroke-linecap="butt"/><g><path d="M200.64903,-12.76668c-0.2896,-39.05422 15.89446,-54.19616 35.99587,-54.34521c20.10142,-0.14906 36.50824,14.75123 36.79785,53.80545c0.2896,39.05422 -15.77108,70.83473 -35.87251,70.98378c-20.10142,0.14905 -36.63162,-31.38978 -36.92122,-70.44401z" fill="#a5acba" stroke="none" stroke-width="0" stroke-linecap="butt"/><path d="M237.22495,11.11028l29.0148,10.61739l-3.51265,3.75527l-25.36438,4.20786l-24.58715,-3.65467l-4.40479,-3.87934z" fill="#efd2bb" stroke="#1a2443" stroke-width="3" stroke-linecap="butt"/><path d="M249.06823,24.52642c-0.40738,0.00302 -0.77921,-0.2121 -1.04959,-0.56161c-0.27012,-0.35133 -0.43857,-0.83522 -0.44255,-1.37207c-0.00397,-0.53659 0.15725,-1.02319 0.42216,-1.37822c0.26518,-0.35348 0.63376,-0.57408 1.04114,-0.5771c0.40764,-0.00302 0.77946,0.2121 1.04961,0.56159c0.27013,0.35107 0.43882,0.83521 0.44281,1.37182c0.00398,0.53684 -0.15752,1.02318 -0.42241,1.37848c-0.26491,0.35347 -0.63351,0.57409 -1.04116,0.57711z" fill="#000000" stroke="#192443" stroke-width="3.6" stroke-linecap="butt"/><path d="M225.58162,24.70057c-0.40738,0.00302 -0.77921,-0.2121 -1.0496,-0.5616c-0.27012,-0.35133 -0.43856,-0.83522 -0.44255,-1.37207c-0.00397,-0.53659 0.15725,-1.02319 0.42214,-1.37823c0.26518,-0.35348 0.63377,-0.57407 1.04115,-0.5771c0.40764,-0.00302 0.77946,0.21211 1.0496,0.56161c0.27013,0.35106 0.43881,0.83521 0.4428,1.37181c0.00398,0.53685 -0.15752,1.02319 -0.4224,1.37848c-0.26491,0.35347 -0.6335,0.57409 -1.04114,0.5771z" fill="#000000" stroke="#192443" stroke-width="3.6" stroke-linecap="butt"/><path d="M272.90752,-12.17251l-67.70425,-33.4702" data-paper-data="{&quot;index&quot;:null}" fill="none" stroke="#b8bfce" stroke-width="2.25" stroke-linecap="round"/><path d="M232.13148,-27.38717l-30.69415,15.74462" data-paper-data="{&quot;index&quot;:null}" fill="none" stroke="#b8bfce" stroke-width="2.25" stroke-linecap="round"/><path d="M205.23356,-41.55732l67.70423,33.47021" data-paper-data="{&quot;index&quot;:null}" fill="none" stroke="#1a2443" stroke-width="3" stroke-linecap="round"/><path d="M236.9283,-25.74677l-35.46066,18.18958" data-paper-data="{&quot;index&quot;:null}" fill="none" stroke="#1a2443" stroke-width="3" stroke-linecap="round"/><path d="M206.2188,18.81655l30.97535,-11.85856l31.1478,11.3979" fill="none" stroke="#b8bfce" stroke-width="2.25" stroke-linecap="butt"/><path d="M200.64903,-12.76668c-0.2896,-39.05422 15.89446,-54.19616 35.99587,-54.34521c20.10142,-0.14906 36.50824,14.75123 36.79785,53.80545c0.2896,39.05422 -15.77108,70.83473 -35.87251,70.98378c-20.10142,0.14905 -36.63162,-31.38978 -36.92122,-70.44401z" fill="none" stroke="#1a2443" stroke-width="4.5" stroke-linecap="butt"/><g fill="#3a5196" stroke="none" stroke-width="1"><path d="M262.57782,42.77697l-50.36249,1.95727l-5.28343,-8.40244l60.56487,0.70991z" stroke-linecap="butt"/><g stroke-linecap="round"><path d="M271.2164,42.29393l2.62412,9.10102l-8.61467,-2.13086l-4.63597,-11.00349z"/><path d="M273.73159,35.51432l7.99304,5.08158l-7.86649,4.10833l-10.76018,-5.1753z"/></g></g></g><text transform="translate(185.17501,132.61972) scale(0.5,0.5)" font-size="40" xml:space="preserve" fill="#ffffff" fill-rule="nonzero" stroke="none" stroke-width="1" stroke-linecap="butt" stroke-linejoin="miter" stroke-miterlimit="10" stroke-dasharray="" stroke-dashoffset="0" font-family="Sans Serif" font-weight="normal" text-anchor="start" style="mix-blend-mode: normal"><tspan x="0" dy="0">graphics by</tspan></text><text transform="translate(128.06852,166) scale(0.78169,0.78169)" font-size="40" xml:space="preserve" fill="#ffffff" fill-rule="nonzero" stroke="none" stroke-width="1" stroke-linecap="butt" stroke-linejoin="miter" stroke-miterlimit="10" stroke-dasharray="" stroke-dashoffset="0" font-family="Sans Serif" font-weight="normal" text-anchor="start" style="mix-blend-mode: normal"><tspan x="0" dy="0">TheGreenFlash</tspan></text><text transform="translate(135.20795,236) scale(0.78169,0.78169)" font-size="40" xml:space="preserve" fill="#ffffff" fill-rule="nonzero" stroke="none" stroke-width="1" stroke-linecap="butt" stroke-linejoin="miter" stroke-miterlimit="10" stroke-dasharray="" stroke-dashoffset="0" font-family="Sans Serif" font-weight="normal" text-anchor="start" style="mix-blend-mode: normal"><tspan x="0" dy="0">skyistumbling</tspan></text><text transform="translate(167.53083,201) scale(0.78169,0.78169)" font-size="40" xml:space="preserve" fill="#ffffff" fill-rule="nonzero" stroke="none" stroke-width="1" stroke-linecap="butt" stroke-linejoin="miter" stroke-miterlimit="10" stroke-dasharray="" stroke-dashoffset="0" font-family="Sans Serif" font-weight="normal" text-anchor="start" style="mix-blend-mode: normal"><tspan x="0" dy="0">Will_Wam</tspan></text><g data-paper-data="{&quot;index&quot;:null}"><g data-paper-data="{&quot;index&quot;:null}"><path d="M191.12881,291.53325c0.36306,2.65844 -0.67821,6.66262 -3.26116,7.36767c-5.7382,1.56323 -11.60485,-1.62674 -17.40008,-2.39778c-4.61197,-0.59705 -54.84395,-9.91605 -57.80016,-10.30424c-0.81342,-0.35839 -2.85528,-4.3576 -2.09116,-8.03868c0.91811,-4.42291 2.90986,-5.59937 4.99193,-6.70303c7.44419,0.80991 47.82317,8.63121 55.22791,9.85418c5.17262,0.8547 10.94035,0.58699 15.48134,2.83647c2.63739,1.30326 4.4275,4.32514 4.85137,7.38545z" fill="#660000" stroke="#450000" stroke-width="3.18812" stroke-linecap="round"/><g stroke="none" stroke-width="0" stroke-linecap="butt"><path d="M183.94045,285.31259c1.13393,0.2123 2.70801,4.52489 2.34983,6.43802c-0.35818,1.91313 -3.38576,5.36421 -4.51971,5.1519c-1.13395,-0.2123 -2.708,-4.5249 -2.34984,-6.43803c0.35818,-1.91313 3.38576,-5.3642 4.51971,-5.1519z" fill="#e6c65c"/><path d="M183.94047,285.31259c1.13393,0.2123 2.70799,4.52488 2.34981,6.43801c-0.00028,0.00146 -6.86982,-1.28456 -6.86953,-1.28611c0.35818,-1.91313 3.38576,-5.3642 4.51971,-5.1519z" data-paper-data="{&quot;index&quot;:null}" fill="#f2d061"/><path d="M179.42074,290.46447c0.35818,-1.91313 3.38577,-5.36421 4.51972,-5.15191c0.00092,0.00019 -2.16902,11.5901 -2.16989,11.58993c-1.13395,-0.2123 -2.70801,-4.52489 -2.34983,-6.43802z" data-paper-data="{&quot;index&quot;:null}" fill="#f2d061"/><path d="M183.94045,285.31259c0.00101,0.00019 -1.08513,5.80163 -1.08616,5.80144c-0.00108,-0.00023 -3.43373,-0.64846 -3.43353,-0.64954c0.35818,-1.91313 3.38576,-5.36421 4.51971,-5.1519z" fill="#ffdb66"/></g><g stroke="none" stroke-width="0" stroke-linecap="butt"><path d="M176.80246,290.04136c-0.35818,1.91313 -3.38576,5.36422 -4.51971,5.15191c-1.13394,-0.2123 -2.708,-4.52489 -2.34983,-6.43802c0.35818,-1.91313 3.38576,-5.36419 4.5197,-5.15189c1.13395,0.21229 2.708,4.52487 2.34983,6.43801z" fill="#e6c65c"/><path d="M174.45263,283.60335c1.13395,0.2123 2.70799,4.52488 2.34981,6.43802c-0.00027,0.00144 -6.86983,-1.28457 -6.86952,-1.28611c0.35818,-1.91313 3.38577,-5.36421 4.51971,-5.15191z" data-paper-data="{&quot;index&quot;:null}" fill="#f2d061"/><path d="M169.93293,288.75525c0.35818,-1.91313 3.38574,-5.36421 4.51969,-5.15192c0.00092,0.00019 -2.16901,11.5901 -2.16987,11.58992c-1.13395,-0.21229 -2.70799,-4.52488 -2.34981,-6.438z" data-paper-data="{&quot;index&quot;:null}" fill="#f2d061"/><path d="M174.45262,283.60336c0.001,0.00018 -1.08512,5.80163 -1.08616,5.80143c-0.0011,-0.00022 -3.43375,-0.64845 -3.43354,-0.64954c0.35818,-1.91313 3.38577,-5.36421 4.51971,-5.15191z" fill="#ffdb66"/></g><g stroke="none" stroke-width="0" stroke-linecap="butt"><path d="M164.96477,281.89412c1.13394,0.21231 2.70799,4.5249 2.34981,6.43804c-0.35818,1.91313 -3.38574,5.3642 -4.51968,5.1519c-1.13395,-0.21231 -2.70802,-4.5249 -2.34984,-6.43803c0.35818,-1.91313 3.38577,-5.36421 4.51971,-5.15191z" fill="#e6c65c"/><path d="M164.96479,281.89411c1.13392,0.2123 2.70798,4.5249 2.34979,6.43803c-0.00028,0.00146 -6.86981,-1.28456 -6.86953,-1.28612c0.35818,-1.91313 3.38576,-5.36421 4.51972,-5.15191z" data-paper-data="{&quot;index&quot;:null}" fill="#f2d061"/><path d="M162.7949,293.48401c-1.13393,-0.21231 -2.708,-4.52488 -2.34982,-6.43801c0.35818,-1.91313 3.38577,-5.36421 4.51971,-5.15191c0.00094,0.00017 -2.16902,11.5901 -2.16989,11.58993z" data-paper-data="{&quot;index&quot;:null}" fill="#f2d061"/><path d="M164.96477,281.89413c0.00101,0.00018 -1.08514,5.80162 -1.08616,5.80143c-0.0011,-0.00022 -3.43374,-0.64847 -3.43354,-0.64954c0.35818,-1.91313 3.38576,-5.36424 4.5197,-5.15192z" fill="#ffdb66"/></g><g stroke="none" stroke-width="0" stroke-linecap="butt"><path d="M157.82677,286.62286c-0.35818,1.91313 -3.38575,5.36424 -4.5197,5.15193c-1.13395,-0.21229 -2.70802,-4.5249 -2.34984,-6.43803c0.35818,-1.91313 3.38576,-5.36419 4.51971,-5.1519c1.13395,0.21229 2.708,4.52487 2.34982,6.43801z" fill="#e6c65c"/><path d="M157.82676,286.6229c-0.00027,0.00146 -6.86982,-1.28455 -6.86953,-1.28612c0.35818,-1.91313 3.38577,-5.3642 4.5197,-5.15189c1.13395,0.21229 2.70801,4.52489 2.34983,6.43802z" data-paper-data="{&quot;index&quot;:null}" fill="#f2d061"/><path d="M150.95723,285.33676c0.35818,-1.91313 3.38576,-5.36419 4.51971,-5.1519c0.00094,0.00016 -2.16901,11.59009 -2.16987,11.58992c-1.13394,-0.2123 -2.70801,-4.52489 -2.34983,-6.43802z" data-paper-data="{&quot;index&quot;:null}" fill="#f2d061"/><path d="M155.47694,280.18486c0.00101,0.00018 -1.08512,5.80165 -1.08615,5.80144c-0.0011,-0.0002 -3.43374,-0.64846 -3.43354,-0.64953c0.35818,-1.91313 3.38577,-5.36419 4.5197,-5.15191z" fill="#ffdb66"/></g><g stroke="none" stroke-width="0" stroke-linecap="butt"><path d="M145.98911,278.47566c1.13394,0.2123 2.708,4.52488 2.34982,6.43801c-0.35818,1.91313 -3.38576,5.36421 -4.51971,5.1519c-1.13394,-0.2123 -2.708,-4.52489 -2.34983,-6.43803c0.35818,-1.91313 3.38576,-5.36421 4.51971,-5.15191z" fill="#e6c65c"/><path d="M145.98913,278.47566c1.13393,0.21229 2.70799,4.5249 2.34982,6.43802c-0.00028,0.00144 -6.86982,-1.28455 -6.86954,-1.28611c0.35818,-1.91313 3.38578,-5.36421 4.51972,-5.15191z" data-paper-data="{&quot;index&quot;:null}" fill="#f2d061"/><path d="M141.46943,283.62754c0.35818,-1.91313 3.38575,-5.36421 4.51969,-5.15192c0.00092,0.00019 -2.16902,11.59008 -2.16988,11.58993c-1.13394,-0.21229 -2.70801,-4.52489 -2.34983,-6.43802z" data-paper-data="{&quot;index&quot;:null}" fill="#f2d061"/><path d="M145.98911,278.47566c0.00099,0.00018 -1.08512,5.80162 -1.08615,5.80143c-0.00112,-0.00022 -3.43376,-0.64847 -3.43356,-0.64954c0.35818,-1.91313 3.38576,-5.36421 4.5197,-5.15191z" fill="#ffdb66"/></g><g stroke="none" stroke-width="0" stroke-linecap="butt"><path d="M136.50126,276.7664c1.13394,0.21229 2.70799,4.5249 2.34981,6.43803c-0.35817,1.91313 -3.38576,5.36421 -4.51969,5.15191c-1.13395,-0.21229 -2.708,-4.5249 -2.34982,-6.43803c0.35818,-1.91313 3.38575,-5.36419 4.5197,-5.15189z" fill="#e6c65c"/><path d="M136.50128,276.7664c1.13394,0.21229 2.70799,4.5249 2.34981,6.43803c-0.00027,0.00145 -6.86981,-1.28457 -6.86952,-1.28614c0.35818,-1.91313 3.38575,-5.36419 4.5197,-5.1519z" data-paper-data="{&quot;index&quot;:null}" fill="#f2d061"/><path d="M134.33138,288.35631c-1.13395,-0.2123 -2.708,-4.5249 -2.34982,-6.43802c0.35818,-1.91313 3.38576,-5.3642 4.5197,-5.1519c0.00092,0.00019 -2.16902,11.59009 -2.16989,11.58993z" data-paper-data="{&quot;index&quot;:null}" fill="#f2d061"/><path d="M135.41512,282.56783c-0.0011,-0.0002 -3.43374,-0.64847 -3.43353,-0.64953c0.35818,-1.91313 3.38576,-5.36419 4.5197,-5.1519c0.00099,0.00018 -1.08513,5.80163 -1.08616,5.80143z" fill="#ffdb66"/></g><g stroke="none" stroke-width="0" stroke-linecap="butt"><path d="M127.01342,275.05717c1.13394,0.21229 2.70799,4.52489 2.34981,6.43802c-0.35817,1.91313 -3.38575,5.36421 -4.51968,5.15192c-1.13394,-0.2123 -2.70799,-4.52491 -2.34982,-6.43804c0.35818,-1.91313 3.38577,-5.36419 4.5197,-5.15189z" fill="#e6c65c"/><path d="M127.01345,275.05718c1.13394,0.21229 2.70799,4.52487 2.34981,6.438c-0.00027,0.00145 -6.8698,-1.28455 -6.86952,-1.28611c0.35818,-1.91313 3.38577,-5.36419 4.51971,-5.15189z" data-paper-data="{&quot;index&quot;:null}" fill="#f2d061"/><path d="M122.49373,280.20906c0.35818,-1.91313 3.38576,-5.36421 4.5197,-5.15191c0.00094,0.00017 -2.16901,11.59007 -2.16987,11.58993c-1.13394,-0.21229 -2.708,-4.52488 -2.34982,-6.43801z" data-paper-data="{&quot;index&quot;:null}" fill="#f2d061"/><path d="M127.01344,275.05718c0.00099,0.00018 -1.08514,5.80163 -1.08616,5.80144c-0.00111,-0.0002 -3.43375,-0.64847 -3.43355,-0.64955c0.35818,-1.91313 3.38579,-5.36419 4.51971,-5.15191z" fill="#ffdb66"/></g><g stroke="none" stroke-width="0" stroke-linecap="butt"><path d="M117.5256,273.34793c1.13394,0.2123 2.708,4.5249 2.34982,6.43803c-0.35818,1.91313 -3.38576,5.3642 -4.51969,5.1519c-1.13394,-0.21229 -2.708,-4.52489 -2.34982,-6.43802c0.35817,-1.91313 3.38575,-5.36419 4.51969,-5.15191z" fill="#e6c65c"/><path d="M117.5256,273.34794c1.13394,0.2123 2.70801,4.52489 2.34983,6.43803c-0.00028,0.00145 -6.86982,-1.28456 -6.86953,-1.28612c0.35818,-1.91313 3.38576,-5.36421 4.51969,-5.15192z" data-paper-data="{&quot;index&quot;:null}" fill="#f2d061"/><path d="M113.00591,278.49984c0.35818,-1.91313 3.38576,-5.36421 4.51969,-5.15192c0.00092,0.00017 -2.16902,11.5901 -2.16988,11.58993c-1.13394,-0.21229 -2.70799,-4.52489 -2.34981,-6.43801z" data-paper-data="{&quot;index&quot;:null}" fill="#f2d061"/><path d="M117.52561,273.34795c0.00101,0.00018 -1.08512,5.80164 -1.08616,5.80144c-0.0011,-0.0002 -3.43375,-0.64845 -3.43354,-0.64954c0.35818,-1.91313 3.38576,-5.36421 4.51969,-5.15192z" fill="#ffdb66"/></g></g><path d="M204.2446,291.0225c-0.01551,6.95923 -1.17148,13.26117 -3.02239,17.82352c-1.85389,4.56237 -4.40307,7.38296 -7.21156,7.37674c-2.8085,-0.00622 -5.34517,-2.83801 -7.17876,-7.40908c-1.83041,-4.57056 -2.95779,-10.87743 -2.94226,-17.83665c0.01553,-6.95922 1.17115,-13.26045 3.0226,-17.82303c1.85392,-4.56239 4.40308,-7.38298 7.21158,-7.37676c2.80797,0.00642 5.34465,2.83822 7.17804,7.40879c1.83113,4.57088 2.95851,10.87773 2.94278,17.83644z" data-paper-data="{&quot;index&quot;:null}" fill="#660000" stroke="#450000" stroke-width="3.18812" stroke-linecap="butt"/><path d="M366.30333,291.07357c-0.50689,1.60243 -1.51982,3.09396 -3.16105,3.98454c-6.87653,2.83365 -14.06691,5.27503 -21.31029,6.71368c-15.0721,2.99681 -30.38648,5.04714 -45.74487,6.10068c-13.20254,0.94778 -26.58866,0.62343 -39.82674,-0.11357c-11.80179,-0.657 -23.65491,-2.03717 -35.45695,-3.47327c-7.9238,-1.18543 -16.44919,-0.94927 -23.7383,-4.39671c-3.0182,-1.44205 -3.74632,-6.09632 -3.76249,-9.29763c0.00897,-2.18015 1.24704,-5.19185 3.42875,-5.68364c6.19442,-1.3963 12.46361,0.68808 18.63031,1.21239c13.62004,0.72919 27.33766,2.09325 40.82213,2.57484c10.63384,0.38159 21.3406,0.17967 31.9355,-0.51182c16.82186,-1.28222 33.78378,-2.41508 50.32199,-5.40625c8.53932,-1.53965 16.43552,-5.62623 24.78381,-7.96061c2.08691,-0.58398 5.56295,-2.81477 6.02231,-0.84632c1.26096,5.48261 -1.21911,11.59087 -2.94413,17.1037z" data-paper-data="{&quot;index&quot;:null}" fill="#b3b3b3" stroke="#808080" stroke-width="3.18812" stroke-linecap="round"/><path d="M327.88899,302.26639l16.82462,-11.90053l14.53485,4.46105z" data-paper-data="{&quot;index&quot;:null}" fill="#999999" stroke="none" stroke-width="0.53136" stroke-linecap="round"/><path d="M297.2786,304.78142l18.25004,-9.57255l13.81774,6.34316z" data-paper-data="{&quot;index&quot;:null}" fill="#999999" stroke="none" stroke-width="0.53136" stroke-linecap="round"/><path d="M266.23136,305.09067l19.16544,-7.57542l13.06421,7.77711z" data-paper-data="{&quot;index&quot;:null}" fill="#999999" stroke="none" stroke-width="0.53136" stroke-linecap="round"/><path d="M234.80144,302.87644l19.67697,-6.12338l12.44728,8.73168z" data-paper-data="{&quot;index&quot;:null}" fill="#999999" stroke="none" stroke-width="0.53136" stroke-linecap="round"/><path d="M204.90597,299.39678l19.88897,-5.39825l12.11845,9.18159z" data-paper-data="{&quot;index&quot;:null}" fill="#999999" stroke="none" stroke-width="0.53136" stroke-linecap="round"/></g></g></g></svg>