<svg version="1.1" xmlns="http://www.w3.org/2000/svg" xmlns:xlink="http://www.w3.org/1999/xlink" width="100" height="100" viewBox="0,0,100,100"><g transform="translate(-190,-130)"><g data-paper-data="{&quot;isPaintingLayer&quot;:true}" fill-rule="nonzero" stroke-linecap="butt" stroke-linejoin="miter" stroke-miterlimit="10" stroke-dasharray="" stroke-dashoffset="0" style="mix-blend-mode: normal"><path d="M190,180c0,-27.61424 22.38576,-50 50,-50c27.61424,0 50,22.38576 50,50c0,27.61424 -22.38576,50 -50,50c-27.61424,0 -50,-22.38576 -50,-50z" fill="none" stroke="none" stroke-width="0"/><path d="M236.91329,170.5351l6.08651,4.26079c0,0 -4.48683,1.74206 0.88935,2.42313c5.92679,0.75084 7.2926,-1.39806 7.2926,-1.39806l14.69071,-1.35968l-9.36885,3.62944c0,0 -7.44473,0.23928 -7.14876,1.45429c0.46451,1.90677 8.20155,1.37024 8.20155,1.37024l11.14404,3.04194l-15.07853,-0.61053c0,0 -2.80617,-2.04847 -7.92197,-1.06142c-4.65394,0.89794 0.02336,2.70188 0.02336,2.70188l-2.77816,4.47779l-6.25518,-4.30928c0,0 4.0644,-2.12535 -1.46148,-2.62672c-5.39779,-0.48974 -6.92412,1.63722 -6.92412,1.63722l-14.35463,1.36219l8.93395,-3.64892c0,0 7.89579,0.16412 7.34068,-1.65875c-0.52328,-1.71835 -7.95477,-1.14756 -7.95477,-1.14756l-10.97003,-3.00267l14.90651,0.47115c0,0 2.50627,2.0821 7.67073,1.16895c5.05082,-0.89305 -0.04345,-2.65932 -0.04345,-2.65932zM236.22974,180.80518c1.44118,0.60854 4.25388,0.75136 6.28233,0.31901c2.02846,-0.43236 2.50454,-1.27616 1.06337,-1.8847c-1.44118,-0.60854 -4.25389,-0.75136 -6.28234,-0.31901c-2.02846,0.43236 -2.50453,1.27617 -1.06337,1.8847z" fill="#595959" stroke="none" stroke-width="0"/><path d="M237.55488,172.29958l3.30825,2.46537c0,0 -2.35019,1.773 3.026,2.45408c5.92679,0.75084 8.44722,-0.8483 8.44722,-0.8483l8.93278,-0.92828l-5.80935,2.20752c0,0 -6.40094,0.68003 -6.10496,1.89503c0.46451,1.90677 7.33031,1.99808 7.33031,1.99808l6.53325,1.59289l-8.32066,-0.37077c0,0 -4.08204,-1.46702 -9.19784,-0.47997c-4.65394,0.89794 -2.30917,2.71268 -2.30917,2.71268l-1.22639,2.64373l-3.57489,-2.49297c0,0 2.16489,-2.11841 -3.36101,-2.61978c-5.39779,-0.48974 -8.80556,1.15394 -8.80556,1.15394l-7.18428,0.71817l4.74294,-1.87134c0,0 6.79788,-0.48617 6.24277,-2.30903c-0.52328,-1.71835 -7.55779,-1.85118 -7.55779,-1.85118l-6.42883,-1.58301l8.3574,0.31954c0,0 4.1172,1.51766 9.28167,0.60452c5.05082,-0.89305 2.06745,-2.88817 2.06745,-2.88817zM236.22974,180.80518c1.44118,0.60854 4.25388,0.75136 6.28233,0.31901c2.02846,-0.43236 2.50454,-1.27616 1.06337,-1.8847c-1.44118,-0.60854 -4.25389,-0.75136 -6.28234,-0.31901c-2.02846,0.43236 -2.50453,1.27617 -1.06337,1.8847z" fill="#464646" stroke="none" stroke-width="0"/><path d="M236.91329,170.5351l6.08651,4.26079c0,0 -4.48683,1.74206 0.88935,2.42313c5.92679,0.75084 7.2926,-1.39806 7.2926,-1.39806l14.69071,-1.35968l-9.36885,3.62944c0,0 -7.44473,0.23928 -7.14876,1.45429c0.46451,1.90677 8.20155,1.37024 8.20155,1.37024l11.14404,3.04194l-15.07853,-0.61053c0,0 -2.80617,-2.04847 -7.92197,-1.06142c-4.65394,0.89794 0.02336,2.70188 0.02336,2.70188l-2.77816,4.47779l-6.25518,-4.30928c0,0 4.0644,-2.12535 -1.46148,-2.62672c-5.39779,-0.48974 -6.92412,1.63722 -6.92412,1.63722l-14.35463,1.36219l8.93395,-3.64892c0,0 7.89579,0.16412 7.34068,-1.65875c-0.52328,-1.71835 -7.95477,-1.14756 -7.95477,-1.14756l-10.97003,-3.00267l14.90651,0.47115c0,0 2.50627,2.0821 7.67073,1.16895c5.05082,-0.89305 -0.04345,-2.65932 -0.04345,-2.65932zM236.22974,180.80518c1.44118,0.60854 4.25388,0.75136 6.28233,0.31901c2.02846,-0.43236 2.50454,-1.27616 1.06337,-1.8847c-1.44118,-0.60854 -4.25389,-0.75136 -6.28234,-0.31901c-2.02846,0.43236 -2.50453,1.27617 -1.06337,1.8847z" fill="none" stroke="#515151" stroke-width="0.75"/></g></g></svg>