<svg version="1.1" xmlns="http://www.w3.org/2000/svg" xmlns:xlink="http://www.w3.org/1999/xlink" width="493.99399" height="435.09897" viewBox="0,0,493.99399,435.09897"><g transform="translate(7.8259,70.5858)"><g data-paper-data="{&quot;isPaintingLayer&quot;:true}" fill-rule="nonzero" stroke-linejoin="miter" stroke-miterlimit="10" stroke-dasharray="" stroke-dashoffset="0" style="mix-blend-mode: normal"><path d="M-7.8259,364.51317v-370.87087h493.99399v370.87087z" fill="#000000" stroke="none" stroke-width="0" stroke-linecap="butt"/><g data-paper-data="{&quot;index&quot;:null}"><path d="M291.31457,2.40433c0.45452,-39.05266 17.11776,-70.5214 37.21837,-70.28747c20.10062,0.23394 36.02695,32.08199 35.57243,71.13464c-0.45452,39.05265 -16.92413,53.88352 -37.02474,53.64957c-20.10061,-0.23394 -36.22057,-15.44409 -35.76605,-54.49674z" fill="#a5acba" stroke="none" stroke-width="0" stroke-linecap="butt"/><path d="M299.18372,-32.4862l4.42113,-3.8607l24.60237,-3.55081l25.34639,4.31493l3.49676,3.77007l-29.05937,10.49477z" fill="#efd2bb" stroke="#1a2443" stroke-width="3" stroke-linecap="butt"/><path d="M339.89084,-34.68396c0.40764,0.00474 0.77529,0.22691 1.03871,0.5815c0.26339,0.35641 0.42283,0.84344 0.41659,1.38026c-0.00625,0.53659 -0.17699,1.02001 -0.4486,1.36994c-0.27162,0.34836 -0.64434,0.56189 -1.05196,0.55715c-0.40737,-0.00474 -0.77501,-0.22689 -1.0387,-0.58149c-0.26342,-0.35615 -0.42258,-0.84342 -0.41634,-1.37999c0.00624,-0.53683 0.17674,-1.02001 0.44834,-1.37019c0.27184,-0.34837 0.64458,-0.56191 1.05195,-0.55718z" fill="#000000" stroke="#192443" stroke-width="3.6" stroke-linecap="butt"/><path d="M317.44386,-34.37579c0.26338,0.3564 0.42282,0.84342 0.41658,1.38025c-0.00625,0.53658 -0.17697,1.02001 -0.44858,1.36993c-0.27161,0.34837 -0.64433,0.56192 -1.05196,0.55718c-0.40737,-0.00474 -0.77502,-0.22689 -1.0387,-0.58149c-0.2634,-0.35615 -0.42256,-0.84343 -0.41632,-1.38c0.00626,-0.53683 0.17674,-1.02001 0.44834,-1.3702c0.27186,-0.34836 0.64459,-0.5619 1.05196,-0.55716c0.40763,0.00473 0.77527,0.22691 1.03869,0.5815z" fill="#000000" stroke="#192443" stroke-width="3.6" stroke-linecap="butt"/><path d="M363.57493,2.11532l-67.84499,33.18399" data-paper-data="{&quot;index&quot;:null}" fill="none" stroke="#b8bfce" stroke-width="2.25" stroke-linecap="round"/><path d="M322.73501,17.15764l-30.62739,-15.87409" data-paper-data="{&quot;index&quot;:null}" fill="none" stroke="#b8bfce" stroke-width="2.25" stroke-linecap="round"/><path d="M363.62246,-1.96992l-67.84496,33.18401" data-paper-data="{&quot;index&quot;:null}" fill="none" stroke="#1a2443" stroke-width="3" stroke-linecap="round"/><path d="M327.53872,15.53752l-35.38354,-18.33917" data-paper-data="{&quot;index&quot;:null}" fill="none" stroke="#1a2443" stroke-width="3" stroke-linecap="round"/><path d="M359.13832,-28.43209l-31.19565,11.26626l-30.925,-11.98925" fill="none" stroke="#b8bfce" stroke-width="2.25" stroke-linecap="butt"/><path d="M291.31457,2.40433c0.45452,-39.05266 17.11776,-70.5214 37.21837,-70.28747c20.10062,0.23394 36.02695,32.08199 35.57243,71.13464c-0.45452,39.05265 -16.92413,53.88352 -37.02474,53.64957c-20.10061,-0.23394 -36.22057,-15.44409 -35.76605,-54.49674z" fill="none" stroke="#1a2443" stroke-width="4.5" stroke-linecap="butt"/><g fill="#3a5196" stroke="none" stroke-width="1"><path d="M358.37206,-47.12131l-60.56733,0.45414l5.31887,-8.38005l50.35377,2.16993z" stroke-linecap="butt"/><g stroke-linecap="round"><path d="M351.47038,-48.36937l4.6824,-10.98381l8.62359,-2.09446l-2.66253,9.08986z"/><path d="M353.9838,-49.62709l10.78194,-5.12981l7.84907,4.14152l-8.01443,5.04777z"/></g></g></g><g data-paper-data="{&quot;index&quot;:null}"><path d="M107.39479,2.80118c-0.45709,-39.05262 15.46715,-70.90172 35.56774,-71.13698c20.10059,-0.23526 36.76593,31.23238 37.22302,70.28501c0.4571,39.05263 -15.66188,54.26384 -35.76247,54.4991c-20.1006,0.23525 -36.57118,-14.5945 -37.02827,-53.64713z" fill="#a5acba" stroke="none" stroke-width="0" stroke-linecap="butt"/><path d="M114.44746,-32.2635l4.32982,-3.96284l24.51279,-4.12407l25.4402,3.7222l3.5838,3.68742l-28.80652,11.17013z" fill="#efd2bb" stroke="#1a2443" stroke-width="3" stroke-linecap="butt"/><path d="M155.0922,-35.41076c0.40764,-0.00478 0.78041,0.20875 1.05202,0.55709c0.27163,0.35016 0.4424,0.83333 0.44868,1.37016c0.00627,0.53659 -0.15313,1.02387 -0.41648,1.38004c-0.26341,0.35459 -0.63106,0.57679 -1.03868,0.58156c-0.40736,0.00478 -0.78008,-0.20876 -1.05197,-0.5571c-0.27165,-0.3499 -0.44215,-0.83332 -0.44842,-1.3699c-0.00629,-0.53683 0.15286,-1.02387 0.41622,-1.3803c0.26365,-0.35462 0.63128,-0.5768 1.03865,-0.58156z" fill="#000000" stroke="#192443" stroke-width="3.6" stroke-linecap="butt"/><path d="M131.60655,-35.13586c0.40762,-0.00479 0.78037,0.20875 1.05199,0.55709c0.27164,0.35017 0.44242,0.83331 0.44869,1.37015c0.00627,0.53658 -0.15312,1.02387 -0.41648,1.38004c-0.2634,0.3546 -0.63105,0.5768 -1.03867,0.58157c-0.40738,0.00477 -0.7801,-0.20877 -1.052,-0.5571c-0.27165,-0.3499 -0.44214,-0.83333 -0.44842,-1.3699c-0.00628,-0.53683 0.15287,-1.02386 0.41624,-1.38029c0.26367,-0.35461 0.6313,-0.5768 1.03867,-0.58156z" fill="#000000" stroke="#192443" stroke-width="3.6" stroke-linecap="butt"/><path d="M112.57675,35.58414l67.05199,-34.75845" data-paper-data="{&quot;index&quot;:null}" fill="none" stroke="#b8bfce" stroke-width="2.25" stroke-linecap="round"/><path d="M108.16151,1.6622l30.98954,15.15494" data-paper-data="{&quot;index&quot;:null}" fill="none" stroke="#b8bfce" stroke-width="2.25" stroke-linecap="round"/><path d="M179.58091,-3.25952l-67.05198,34.75846" data-paper-data="{&quot;index&quot;:null}" fill="none" stroke="#1a2443" stroke-width="3" stroke-linecap="round"/><path d="M143.91561,15.08534l-35.80192,-17.50834" data-paper-data="{&quot;index&quot;:null}" fill="none" stroke="#1a2443" stroke-width="3" stroke-linecap="round"/><path d="M174.48036,-29.60984l-30.92418,11.99128l-31.19641,-11.2642" fill="none" stroke="#b8bfce" stroke-width="2.25" stroke-linecap="butt"/><path d="M107.39479,2.80118c-0.45709,-39.05262 15.46715,-70.90172 35.56774,-71.13698c20.10059,-0.23526 36.76593,31.23238 37.22302,70.28501c0.4571,39.05263 -15.66188,54.26384 -35.76247,54.4991c-20.1006,0.23525 -36.57118,-14.5945 -37.02827,-53.64713z" fill="none" stroke="#1a2443" stroke-width="4.5" stroke-linecap="butt"/><g fill="#3a5196" stroke="none" stroke-width="1"><path d="M173.27808,-48.27607l-60.54021,1.86765l5.12184,-8.50191l50.39072,0.99409z" stroke-linecap="butt"/><g stroke-linecap="round"><path d="M166.34918,-49.36268l4.42478,-11.09012l8.57235,-2.29516l-2.44964,9.14953z"/><path d="M168.83257,-50.67874l10.65928,-5.38007l7.94359,3.95719l-7.89443,5.23345z"/></g></g></g><text transform="translate(182.25417,173.22114) scale(0.5,0.5)" font-size="40" xml:space="preserve" fill="#ffffff" fill-rule="nonzero" stroke="none" stroke-width="1" stroke-linecap="butt" stroke-linejoin="miter" stroke-miterlimit="10" stroke-dasharray="" stroke-dashoffset="0" font-family="Sans Serif" font-weight="normal" text-anchor="start" style="mix-blend-mode: normal"><tspan x="0" dy="0">beta-testers</tspan></text><text transform="translate(11.6776,198.11563) scale(0.55527,0.55527)" font-size="40" xml:space="preserve" fill="#ffffff" fill-rule="nonzero" stroke="none" stroke-width="1" stroke-linecap="butt" stroke-linejoin="miter" stroke-miterlimit="10" stroke-dasharray="" stroke-dashoffset="0" font-family="Sans Serif" font-weight="normal" text-anchor="start" style="mix-blend-mode: normal"><tspan x="0" dy="0">skyistumbling  Project_1001  oli4scratcher7</tspan><tspan x="0" dy="48px">  th3ch33z1t    EliptikaWarrior  BobzGames</tspan></text></g></g></svg>