<svg version="1.1" xmlns="http://www.w3.org/2000/svg" xmlns:xlink="http://www.w3.org/1999/xlink" width="563.48955" height="382.4224" viewBox="0,0,563.48955,382.4224"><defs><linearGradient x1="-38.23882" y1="316.69412" x2="-38.23882" y2="370.07541" gradientUnits="userSpaceOnUse" id="color-1"><stop offset="0" stop-color="#ffee7a" stop-opacity="0"/><stop offset="1" stop-color="#ffee7a"/></linearGradient><linearGradient x1="37.68869" y1="325.86324" x2="37.68869" y2="365.33251" gradientUnits="userSpaceOnUse" id="color-2"><stop offset="0" stop-color="#d8641f" stop-opacity="0"/><stop offset="1" stop-color="#d8641f"/></linearGradient><linearGradient x1="-21.38582" y1="339.38446" x2="95.01263" y2="339.38446" gradientUnits="userSpaceOnUse" id="color-3"><stop offset="0" stop-color="#d8631f" stop-opacity="0"/><stop offset="1" stop-color="#d8631f"/></linearGradient></defs><g transform="translate(77.32145,6.35771)"><g data-paper-data="{&quot;isPaintingLayer&quot;:true}" fill-rule="nonzero" stroke-linejoin="miter" stroke-miterlimit="10" stroke-dasharray="" stroke-dashoffset="0" style="mix-blend-mode: normal"><path d="M-7.82589,364.51317v-370.87087h493.99399v370.87087z" fill="#000000" stroke="none" stroke-width="0" stroke-linecap="butt"/><text transform="translate(145.575,142.61972) scale(0.5,0.5)" font-size="40" xml:space="preserve" fill="#ffffff" fill-rule="nonzero" stroke="none" stroke-width="1" stroke-linecap="butt" stroke-linejoin="miter" stroke-miterlimit="10" stroke-dasharray="" stroke-dashoffset="0" font-family="Sans Serif" font-weight="normal" text-anchor="start" style="mix-blend-mode: normal"><tspan x="0" dy="0">depth sorting script</tspan></text><text transform="translate(166.07818,226) scale(0.78169,0.78169)" font-size="40" xml:space="preserve" fill="#ffffff" fill-rule="nonzero" stroke="none" stroke-width="1" stroke-linecap="butt" stroke-linejoin="miter" stroke-miterlimit="10" stroke-dasharray="" stroke-dashoffset="0" font-family="Sans Serif" font-weight="normal" text-anchor="start" style="mix-blend-mode: normal"><tspan x="0" dy="0">griffpatch</tspan></text><text transform="translate(171.47917,167.61972) scale(0.5,0.5)" font-size="40" xml:space="preserve" fill="#ffffff" fill-rule="nonzero" stroke="none" stroke-width="1" stroke-linecap="butt" stroke-linejoin="miter" stroke-miterlimit="10" stroke-dasharray="" stroke-dashoffset="0" font-family="Sans Serif" font-weight="normal" text-anchor="start" style="mix-blend-mode: normal"><tspan x="0" dy="0">modified from</tspan></text><text transform="translate(191.04583,192.61972) scale(0.5,0.5)" font-size="40" xml:space="preserve" fill="#ffffff" fill-rule="nonzero" stroke="none" stroke-width="1" stroke-linecap="butt" stroke-linejoin="miter" stroke-miterlimit="10" stroke-dasharray="" stroke-dashoffset="0" font-family="Sans Serif" font-weight="normal" text-anchor="start" style="mix-blend-mode: normal"><tspan x="0" dy="0">a script by</tspan></text><g><path d="M54.32021,274.85594c14.09489,-3.00833 29.01453,-3.98982 42.63848,0c9.09502,2.65875 18.26659,9.77062 21.52016,18.70475c3.33947,10.00823 -4.07401,20.99364 -4.02175,31.57641c0.01176,2.64695 2.07908,-6.1018 4.02175,-5.43036c3.58878,1.54085 8.36711,6.15822 7.03947,9.85572c-4.52141,12.60629 -10.02756,28.37845 -22.32468,33.45418c-23.88571,9.86329 -51.41081,8.91048 -77.23166,7.57437c-13.33078,-0.63099 -25.78795,-7.31662 -37.00671,-14.27939c-11.11852,-6.90297 -18.66008,-19.1352 -28.96232,-27.55374c-2.93167,-2.36558 -8.45897,-1.77419 -8.64767,-4.62582c-0.81715,-2.47843 3.12125,-4.01846 6.63677,-6.0344c13.51529,-7.81111 27.36086,-15.81602 41.2308,-22.32468c17.75107,-8.33848 35.91241,-16.82187 55.10743,-20.91697z" fill="#908880" stroke="#19282b" stroke-width="2" stroke-linecap="round"/><path d="M77.66338,303.62282c0.23333,-3.15915 2.98985,-5.59551 5.66373,-7.64094c2.7253,-2.06732 6.05629,-3.24 9.82961,-3.053c3.77244,0.18704 7.11019,1.70256 9.47917,4.01002c2.36895,2.30743 3.7438,5.40679 3.57871,8.7353c-0.1643,3.32767 -1.83906,6.27618 -4.42452,8.33848c-2.58546,2.06228 -6.41185,3.20973 -9.82961,3.053c-3.55678,-0.17606 -7.19363,-1.31168 -9.68723,-3.66378c-2.64104,-2.4734 -4.85752,-6.32756 -4.60983,-9.77906z" fill="#ff923e" stroke="none" stroke-width="1.50979" stroke-linecap="butt"/><path d="M92.80372,293.35854c0.78853,0 1.50879,1.34872 2.02944,3.53911c0.52149,2.18361 0.84327,5.19366 0.84327,8.52549c0,3.33268 -0.32181,6.34273 -0.84327,8.52549c-0.52061,2.19121 -1.24094,3.53911 -2.02944,3.53911c-0.78935,0 -1.50886,-1.34787 -2.03032,-3.53911c-0.52062,-2.18276 -0.84243,-5.19278 -0.84243,-8.52549c0,-3.33183 0.32181,-6.34189 0.84243,-8.52549c0.52149,-2.19033 1.24096,-3.53911 2.03032,-3.53911z" fill="#000000" stroke="none" stroke-width="0.90927" stroke-linecap="butt"/><path d="M45.96399,275.39263c0.02362,1.12383 -0.35893,-0.00169 -3.52143,1.30999c-12.23137,5.06308 -24.52599,10.09919 -36.88038,14.86153c-3.08752,1.18867 -5.69991,4.15321 -6.84226,2.60398c-1.64864,-2.75395 0.11876,-7.8667 1.26192,-11.21039c0.46838,-1.36811 1.63012,-1.10022 3.4018,-2.71348c7.08238,-6.45139 14.23135,-13.06539 21.33653,-19.58762c1.77419,-1.62928 2.0185,-2.68823 3.41863,-2.51299c4.88113,0.61248 10.49935,1.63349 14.15806,5.04706c2.95776,2.77081 3.631,7.85663 3.66719,12.20197z" fill="#6d6761" stroke="#19282b" stroke-width="0.47748" stroke-linecap="round"/><path d="M-31.73686,329.78399c0.66805,-4.32086 -12.881,-15.39729 -2.69333,-12.66019c40.74891,10.94666 80.00081,28.44503 119.32765,44.71424c9.64342,3.91144 3.09766,3.8036 0.26955,4.57868c-11.04943,2.93676 -22.94472,3.02775 -34.209,3.50204c-8.96447,0.37743 -18.07458,0.05899 -26.93624,-0.80789c-6.23322,-0.60907 -12.76806,-0.9966 -18.58592,-3.23244c-6.77746,-2.69327 -12.94072,-6.78753 -18.58593,-11.31316c-8.60891,-6.90632 -17.18076,-14.52455 -23.70462,-23.16546c-1.63184,-2.16003 4.84907,0.14572 5.11784,-1.61585z" fill="url(#color-1)" stroke="none" stroke-width="0.63948" stroke-linecap="round"/><path d="M40.78885,338.37436c18.80162,-1.29316 37.64618,1.23922 56.56659,-1.61586c7.81112,-1.18025 16.30714,-13.18843 21.2792,-10.50523c4.59047,2.70422 0.76577,15.01988 -2.15414,21.2792c-3.06563,6.55673 -8.80856,11.74955 -14.54557,16.16224c-2.01005,1.54085 -3.44813,2.35376 -8.08154,0.8079c-17.89595,-6.33013 -35.04893,-14.65344 -52.79493,-22.08794c-4.43883,-1.85844 -3.00077,-0.61417 -2.96285,-1.61586c0.04888,-1.09349 -2.00923,-2.10106 2.69328,-2.42456z" fill="url(#color-2)" stroke="none" stroke-width="0.63948" stroke-linecap="round"/><path d="M-17.76076,349.74735c4.16501,-1.23922 7.85991,-1.78848 11.58271,-2.69327c13.14543,-2.32767 26.41393,-4.85916 39.05816,-7.00407c3.16168,-0.53832 -1.74052,-1.40601 2.96283,0.53917c18.81254,7.78415 37.9958,15.44526 56.56571,24.24295c4.60139,2.05724 2.31669,1.34625 -0.8079,1.88538c-12.5094,2.16506 -24.50075,4.83225 -36.90231,5.11784c-13.31733,0.30161 -26.67757,0.18276 -39.32684,-3.23244c-12.77395,-3.2375 -24.59843,-9.98797 -35.82564,-16.43097c-2.807,-1.61076 1.50885,-2.06316 2.69333,-2.42457z" fill="url(#color-3)" stroke="none" stroke-width="0.63948" stroke-linecap="round"/><path d="M-28.7176,342.61183c0.90561,-0.66724 0.20637,0.29485 3.10104,2.12212c11.18762,7.07734 22.38955,14.2204 33.40198,21.57073c2.75139,1.83824 6.67974,2.26449 6.07233,4.09091c-1.29989,2.93424 -6.4969,4.43715 -9.88772,5.43037c-1.38831,0.40605 -1.83905,-0.69755 -4.17767,-1.21563c-9.35447,-2.06904 -18.88078,-4.09851 -28.306,-6.14478c-2.35376,-0.51051 -3.35967,-0.10027 -4.0235,-1.3454c-2.31332,-4.34109 -4.71684,-9.52042 -4.03693,-14.47819c0.55939,-4.01422 4.32762,-7.49606 7.85662,-10.03012z" fill="#6d6761" stroke="#19282b" stroke-width="0.47748" stroke-linecap="round"/><path d="M66.75374,299.9043c0.57116,0.17778 -0.8728,2.47255 -1.21228,3.77078c-0.24766,3.30237 -0.70006,6.64856 -0.53832,9.96695c0.17187,3.53407 0.60823,7.00322 0.8079,10.50523c0.3875,1.44396 1.67563,4.29897 0.9427,4.30994c-0.81884,0.01013 -2.78007,-2.57533 -3.63601,-4.30994c-1.01849,-3.33522 -1.86939,-6.8853 -1.88622,-10.50523c0.01686,-3.64693 1.20722,-7.29973 2.42457,-10.77481c0.66299,-1.24935 2.50545,-3.14567 3.09766,-2.96285z" fill="#19272a" stroke="none" stroke-width="0.63948" stroke-linecap="round"/><path d="M57.06572,300.74673c0.57116,0.17778 -0.8728,2.47255 -1.21228,3.77078c-0.24766,3.30237 -0.70005,6.64856 -0.53832,9.96695c0.17187,3.53407 0.60822,7.00322 0.8079,10.50524c0.3875,1.44395 1.67563,4.29896 0.9427,4.30994c-0.81884,0.01013 -2.78007,-2.57533 -3.63601,-4.30994c-1.01849,-3.33522 -1.86939,-6.8853 -1.88622,-10.50524c0.01686,-3.64692 1.20721,-7.29973 2.42457,-10.77481c0.66299,-1.24935 2.50545,-3.14567 3.09766,-2.96285z" fill="#19272a" stroke="none" stroke-width="0.63948" stroke-linecap="round"/><path d="M47.80811,306.17881c0.42797,0.13311 -0.65458,1.85419 -0.90899,2.82808c-0.18617,2.4768 -0.52565,4.98641 -0.40439,7.475c0.12974,2.65033 0.45662,5.25262 0.60654,7.87852c0.29063,1.08336 1.25613,3.2249 0.70683,3.23244c-0.61416,0.00844 -2.08505,-1.93089 -2.72781,-3.23244c-0.76323,-2.50036 -1.40182,-5.16332 -1.41361,-7.87852c0.01176,-2.73537 0.90479,-5.475 1.818,-8.08067c0.49703,-0.9376 1.8786,-2.35969 2.32345,-2.22233z" fill="#19272a" stroke="none" stroke-width="0.47961" stroke-linecap="round"/><path d="M54.32021,274.85594c14.09489,-3.00833 29.01453,-3.98982 42.63848,0c9.09502,2.65875 18.26659,9.77062 21.52016,18.70475c3.33947,10.00823 -4.07401,20.99364 -4.02175,31.57641c0.01176,2.64695 2.07908,-6.1018 4.02175,-5.43036c3.58878,1.54085 8.36711,6.15822 7.03947,9.85572c-4.52141,12.60629 -10.02756,28.37845 -22.32468,33.45418c-23.88571,9.86329 -51.41081,8.91048 -77.23166,7.57437c-13.33078,-0.63099 -25.78795,-7.31662 -37.00671,-14.27939c-11.11852,-6.90297 -18.66008,-19.1352 -28.96232,-27.55374c-2.93167,-2.36558 -8.45897,-1.77419 -8.64767,-4.62582c-0.81715,-2.47843 3.12125,-4.01846 6.63677,-6.0344c13.51529,-7.81111 27.36086,-15.81602 41.2308,-22.32468c17.75107,-8.33848 35.91241,-16.82187 55.10743,-20.91697z" fill="none" stroke="#13152e" stroke-width="0.95496" stroke-linecap="round"/><g fill="#6d6761" stroke-linecap="round"><path d="M-37.7746,320.98805c-0.83823,1.55095 -3.47595,1.18276 -5.17429,1.86771c-2.34872,0.94689 -4.26269,3.5829 -6.53308,2.88028c-8.14135,-2.52394 -15.48832,-7.01332 -22.44097,-11.63832c-1.85081,-1.21229 -1.61158,-2.47512 -1.92835,-4.5121c-1.27124,-8.14804 -1.96206,-16.28947 -2.78088,-24.61109c-0.20556,-2.08083 -0.86264,-2.94093 -0.02609,-4.1406c0.97889,-1.41193 1.11204,-5.77999 4.27035,-2.95106c12.64505,11.32745 24.03988,24.94805 34.15342,37.85761c2.52982,3.22906 1.64025,3.75308 0.45999,5.24755z" stroke="#19282b" stroke-width="0.49901"/><path d="M-36.97098,326.25921c-10.11348,12.90956 -21.50834,26.53015 -34.15342,37.85761c-3.15833,2.82889 -3.29139,-1.53916 -4.27034,-2.95106c-0.83655,-1.19964 -0.17944,-2.05975 0.02612,-4.14061c0.81884,-8.32163 1.09008,-16.54135 2.78085,-24.6111c0.42713,-2.02606 1.66805,-2.38916 3.48096,-3.58461c6.689,-4.44049 13.09156,-9.77906 20.88832,-12.56585c2.23832,-0.79861 4.1844,1.93338 6.53312,2.88028c1.69834,0.68491 4.33606,0.31678 5.17427,1.86771c1.18026,1.49447 2.06994,2.01849 -0.45991,5.24755z" stroke="#19282b" stroke-width="0.49901"/><path d="M-58.96372,313.011l13.79412,-1.12636l8.72683,10.41594l-21.67599,5.91141z" stroke="none" stroke-width="0.66831"/></g></g></g></g></svg>