<svg version="1.1" xmlns="http://www.w3.org/2000/svg" xmlns:xlink="http://www.w3.org/1999/xlink" width="58.5" height="58.5" viewBox="0,0,58.5,58.5"><defs><radialGradient cx="240" cy="180" r="29.25" gradientUnits="userSpaceOnUse" id="color-1"><stop offset="0" stop-color="#e1ffd8"/><stop offset="1" stop-color="#e1ffd8" stop-opacity="0"/></radialGradient><radialGradient cx="240" cy="180.3994" r="18.8022" gradientUnits="userSpaceOnUse" id="color-2"><stop offset="0" stop-color="#ffffff"/><stop offset="1" stop-color="#ffffff" stop-opacity="0"/></radialGradient></defs><g transform="translate(-210.75,-150.75)"><g data-paper-data="{&quot;isPaintingLayer&quot;:true}" fill-rule="nonzero" stroke="none" stroke-linecap="butt" stroke-linejoin="miter" stroke-miterlimit="10" stroke-dasharray="" stroke-dashoffset="0" style="mix-blend-mode: normal"><path d="M210.75,180c0,-16.15433 13.09567,-29.25 29.25,-29.25c16.15433,0 29.25,13.09567 29.25,29.25c0,16.15433 -13.09567,29.25 -29.25,29.25c-16.15433,0 -29.25,-13.09567 -29.25,-29.25z" fill="url(#color-1)" stroke-width="0"/><path d="M240,165.9362c0,0 3.3976,5.5751 5.9411,8.1227c2.5476,2.5435 8.1227,5.9411 8.1227,5.9411c0,0 -5.5751,3.3976 -8.1227,5.9411c-2.5435,2.5476 -5.9411,8.1227 -5.9411,8.1227c0,0 -3.3975,-5.5751 -5.9411,-8.1227c-2.5475,-2.5435 -8.1227,-5.9411 -8.1227,-5.9411c0,0 5.5752,-3.3976 8.1227,-5.9411c2.5436,-2.5476 5.9411,-8.1227 5.9411,-8.1227z" fill="url(#color-2)" stroke-width="4.01823"/></g></g></svg>