<svg version="1.1" xmlns="http://www.w3.org/2000/svg" xmlns:xlink="http://www.w3.org/1999/xlink" width="77.40818" height="40.90306" viewBox="0,0,77.40818,40.90306"><defs><linearGradient x1="215.00624" y1="179.89755" x2="215.00624" y2="198.23185" gradientUnits="userSpaceOnUse" id="color-1"><stop offset="0" stop-color="#ffee7a" stop-opacity="0"/><stop offset="1" stop-color="#ffee7a"/></linearGradient><linearGradient x1="241.08425" y1="183.04677" x2="241.08425" y2="196.60284" gradientUnits="userSpaceOnUse" id="color-2"><stop offset="0" stop-color="#d8641f" stop-opacity="0"/><stop offset="1" stop-color="#d8641f"/></linearGradient><linearGradient x1="220.79458" y1="187.69074" x2="260.77269" y2="187.69074" gradientUnits="userSpaceOnUse" id="color-3"><stop offset="0" stop-color="#d8631f" stop-opacity="0"/><stop offset="1" stop-color="#d8631f"/></linearGradient></defs><g transform="translate(-201.57017,-159.54259)"><g data-paper-data="{&quot;isPaintingLayer&quot;:true}" fill-rule="nonzero" stroke-linejoin="miter" stroke-miterlimit="10" stroke-dasharray="" stroke-dashoffset="0" style="mix-blend-mode: normal"><g><path d="M246.79649,165.52785c4.84102,-1.03324 9.91409,-1.18255 14.64458,0c3.52161,0.88019 6.18386,3.59627 8.77291,6.00997c0.64813,0.60358 0.33159,1.36484 0,2.34861c-1.35529,3.93045 -3.81992,7.48939 -4.76637,11.53587c-0.23611,1.01127 0.65479,2.69959 1.65795,2.55606c3.48024,-0.50983 6.36066,-4.66567 9.94736,-4.69751c1.5043,-0.00811 1.46148,3.47618 0.34517,4.49033c-3.88358,3.63764 -8.71217,6.70324 -13.81563,8.03625c-8.58773,2.24241 -17.65751,3.06039 -26.52592,2.60149c-4.57859,-0.21672 -8.85711,-2.51295 -12.71031,-4.90439c-3.81876,-2.37089 -6.40897,-6.57217 -9.94736,-9.4636c-1.00691,-0.81248 -2.90531,-0.60936 -2.97012,-1.58878c-0.28066,-0.85125 1.07201,-1.38017 2.27946,-2.07257c4.64195,-2.6828 9.39732,-5.43215 14.16109,-7.66762c6.09677,-2.86393 12.33446,-5.77762 18.92716,-7.18413z" id="ID0.32891670893877745" fill="#908880" stroke="#19282b" stroke-width="0.47748" stroke-linecap="round"/><path d="M243.92649,165.71216c0.00811,0.386 -0.12327,-0.00057 -1.20945,0.44993c-4.20099,1.73896 -8.42369,3.46865 -12.66691,5.10432c-1.06044,0.40825 -1.95771,1.42646 -2.35006,0.89436c-0.56625,-0.94586 0.0408,-2.70189 0.43342,-3.85031c0.16087,-0.4699 0.55988,-0.37788 1.16837,-0.93197c2.43251,-2.21579 4.88789,-4.48743 7.32823,-6.72755c0.60935,-0.55958 0.69327,-0.9233 1.17416,-0.86311c1.67647,0.21035 3.6061,0.56104 4.86272,1.73346c1.01587,0.95165 1.24707,2.69843 1.25951,4.19088z" id="ID0.32891670893877745" fill="#6d6761" stroke="#19282b" stroke-width="0.47748" stroke-linecap="round"/><path d="M217.23941,184.39338c0.22945,-1.48405 -4.42408,-5.28835 -0.92504,-4.34826c13.99559,3.75974 27.47701,9.7697 40.98417,15.35752c3.31212,1.34342 1.06392,1.30639 0.09258,1.57259c-3.79504,1.00866 -7.88058,1.03991 -11.74941,1.20281c-3.07892,0.12963 -6.20788,0.02026 -9.25149,-0.27748c-2.14086,-0.20919 -4.38531,-0.34229 -6.38351,-1.11022c-2.32778,-0.92504 -4.44461,-2.33124 -6.38351,-3.88561c-2.95681,-2.37204 -5.90089,-4.98859 -8.14157,-7.95639c-0.56047,-0.74188 1.66546,0.05006 1.75777,-0.55497z" id="ID0.1035886537283659" fill="url(#color-1)" stroke="none" stroke-width="0.63948" stroke-linecap="round"/><path d="M242.14906,187.34383c6.45759,-0.44414 12.92993,0.42562 19.42832,-0.55498c2.6828,-0.40537 5.60084,-4.52969 7.30854,-3.60812c1.57664,0.9288 0.26301,5.15872 -0.73986,7.30854c-1.05293,2.25197 -3.02538,4.03549 -4.99581,5.55107c-0.69037,0.52921 -1.18429,0.80843 -2.77569,0.27748c-6.14653,-2.17414 -12.03788,-5.03286 -18.13291,-7.58631c-1.52455,-0.63829 -1.03064,-0.21093 -1.01763,-0.55497c0.01678,-0.37557 -0.69009,-0.72162 0.92504,-0.83274z" id="ID0.1035886537283659" fill="url(#color-2)" stroke="none" stroke-width="0.63948" stroke-linecap="round"/><path d="M222.03962,191.24996c1.43052,-0.42562 2.69959,-0.61427 3.97819,-0.92503c4.51493,-0.79946 9.0721,-1.66892 13.41486,-2.40561c1.0859,-0.1849 -0.59779,-0.48292 1.01763,0.18517c6.46134,2.67354 13.05,5.30483 19.42801,8.32647c1.58039,0.70658 0.79569,0.46238 -0.27748,0.64755c-4.29647,0.74361 -8.41501,1.65968 -12.67444,1.75776c-4.57396,0.1036 -9.16266,0.06278 -13.50717,-1.11021c-4.38733,-1.11195 -8.44855,-3.43046 -12.30465,-5.64336c-0.96409,-0.55322 0.51821,-0.70862 0.92504,-0.83275z" id="ID0.1035886537283659" fill="url(#color-3)" stroke="none" stroke-width="0.63948" stroke-linecap="round"/><path d="M218.27641,188.79922c0.31105,-0.22916 0.07089,0.10126 1.06508,0.72886c3.84249,2.43078 7.6899,4.88413 11.47222,7.40867c0.94499,0.63136 2.29421,0.77776 2.08559,1.40506c-0.44646,1.00779 -2.23142,1.52398 -3.39603,1.8651c-0.47683,0.13946 -0.63164,-0.23958 -1.43486,-0.41752c-3.21288,-0.71063 -6.48478,-1.40768 -9.72196,-2.11049c-0.80842,-0.17534 -1.15391,-0.03444 -1.38191,-0.46209c-0.79453,-1.49099 -1.62004,-3.26989 -1.38653,-4.97267c0.19213,-1.37872 1.48636,-2.5746 2.69843,-3.44494z" id="ID0.32891670893877745" fill="#6d6761" stroke="#19282b" stroke-width="0.47748" stroke-linecap="round"/><path d="M251.06693,174.13092c0.19617,0.06106 -0.29976,0.84922 -0.41636,1.29511c-0.08506,1.13423 -0.24044,2.28351 -0.18489,3.42324c0.05902,1.21381 0.2089,2.40532 0.27748,3.60812c0.13309,0.49594 0.57551,1.47652 0.32377,1.48029c-0.28124,0.00348 -0.95484,-0.88452 -1.24882,-1.48029c-0.34981,-1.14551 -0.64206,-2.36481 -0.64784,-3.60812c0.00579,-1.25257 0.41463,-2.50716 0.83274,-3.70071c0.22771,-0.42909 0.86052,-1.08041 1.06392,-1.01763z" id="ID0.4455803711898625" fill="#19272a" stroke="none" stroke-width="0.63948" stroke-linecap="round"/><path d="M247.73947,174.42027c0.19617,0.06106 -0.29977,0.84922 -0.41637,1.29511c-0.08506,1.13423 -0.24045,2.28351 -0.1849,3.42324c0.05902,1.21381 0.20891,2.40532 0.27749,3.60812c0.13309,0.49594 0.57551,1.47652 0.32378,1.48029c-0.28124,0.00348 -0.95484,-0.88452 -1.24882,-1.48029c-0.34981,-1.14551 -0.64206,-2.36482 -0.64784,-3.60812c0.00579,-1.25257 0.41463,-2.50716 0.83274,-3.70071c0.22771,-0.42909 0.86053,-1.08041 1.06392,-1.01762z" id="ID0.4455803711898625" fill="#19272a" stroke="none" stroke-width="0.63948" stroke-linecap="round"/><path d="M244.55986,176.28596c0.14699,0.04572 -0.22482,0.63684 -0.3122,0.97133c-0.06394,0.85067 -0.18055,1.71263 -0.1389,2.56735c0.04456,0.91028 0.15683,1.80406 0.20833,2.70595c0.09983,0.3721 0.43143,1.10762 0.24277,1.11021c-0.21094,0.00289 -0.71613,-0.66318 -0.93689,-1.11021c-0.26214,-0.85878 -0.48146,-1.77339 -0.48552,-2.70595c0.00404,-0.93949 0.31076,-1.88044 0.6244,-2.77537c0.17071,-0.32203 0.64522,-0.81046 0.79801,-0.76328z" id="ID0.4455803711898625" fill="#19272a" stroke="none" stroke-width="0.47961" stroke-linecap="round"/><path d="M275.81831,175.08314l1.30205,7.66762h-2.74876z" id="ID0.20037907687947154" fill="#ffffff" stroke="none" stroke-width="1" stroke-linecap="round"/><path d="M272.32708,178.03678l1.10559,6.51023h-2.33384z" id="ID0.20037907687947154" fill="#ffffff" stroke="none" stroke-width="0.84906" stroke-linecap="round"/><path d="M268.57283,182.6255l0.69097,4.06904h-1.45888z" id="ID0.20037907687947154" fill="#ffffff" stroke="none" stroke-width="0.53066" stroke-linecap="round"/><path d="M273.13377,177.28507l-3.25164,-2.54131l1.0781,-0.98291z" id="ID0.20037907687947154" fill="#ffffff" stroke="none" stroke-width="0.53066" stroke-linecap="round"/><path d="M269.34943,180.14667l-2.09052,-1.63393l0.69298,-0.63192z" id="ID0.20037907687947154" fill="#ffffff" stroke="none" stroke-width="0.34114" stroke-linecap="round"/><path d="M247.08584,165.38317c4.84102,-1.03324 9.91409,-1.18255 14.64459,0c3.52161,0.88019 6.18385,3.59627 8.77291,6.00997c0.64813,0.60358 0.33159,1.36485 0,2.34861c-1.35529,3.93045 -3.81992,7.48939 -4.76636,11.53587c-0.23611,1.01127 0.65479,2.69958 1.65794,2.55605c3.48024,-0.50983 6.36066,-4.66567 9.94736,-4.69751c1.5043,-0.00811 1.46148,3.47618 0.34517,4.49033c-3.88358,3.63764 -8.71216,6.70324 -13.81562,8.03625c-8.58773,2.24241 -17.65752,3.06039 -26.52593,2.60149c-4.57859,-0.21672 -8.85711,-2.51296 -12.7103,-4.9044c-3.81876,-2.37089 -6.40897,-6.57216 -9.94737,-9.46359c-1.00691,-0.81248 -2.90531,-0.60936 -2.97012,-1.58879c-0.28066,-0.85125 1.07201,-1.38017 2.27946,-2.07256c4.64195,-2.6828 9.39732,-5.43215 14.16109,-7.66762c6.09677,-2.86393 12.33445,-5.77762 18.92716,-7.18413z" id="ID0.32891670893877745" fill="none" stroke="#13152e" stroke-width="0.95496" stroke-linecap="round"/><g id="ID0.41052951384335756" fill="#6d6761" stroke-linecap="round"><path d="M215.16567,181.37235c-0.28789,0.53269 -1.19384,0.40624 -1.77715,0.64148c-0.80668,0.32522 -1.46409,1.23058 -2.24386,0.98926c-2.79622,-0.86687 -5.31959,-2.40879 -7.70755,-3.9973c-0.63568,-0.41637 -0.55351,-0.85009 -0.66231,-1.54972c-0.43661,-2.79853 -0.67389,-5.59476 -0.95512,-8.4529c-0.0706,-0.71467 -0.29629,-1.0101 -0.00897,-1.42213c0.33622,-0.48495 0.38194,-1.98519 1.46669,-1.01357c4.34306,3.89052 8.25672,8.56864 11.73031,13.00255c0.8689,1.10906 0.56336,1.28903 0.15799,1.80232z" id="ID0.32891670893877745" stroke="#19282b" stroke-width="0.49901"/><path d="M215.44171,183.18277c-3.47358,4.43391 -7.38724,9.11203 -11.73031,13.00256c-1.08476,0.97162 -1.13046,-0.52864 -1.46669,-1.01357c-0.28732,-0.41202 -0.06163,-0.70744 0.00897,-1.42213c0.28124,-2.85814 0.37441,-5.68128 0.95512,-8.45291c0.14669,-0.69587 0.57291,-0.82057 1.19556,-1.23117c2.29739,-1.52514 4.49642,-3.35871 7.1743,-4.31586c0.76878,-0.27429 1.43717,0.66404 2.24385,0.98926c0.58331,0.23524 1.48926,0.10879 1.77715,0.64147c0.40537,0.51329 0.71092,0.69327 -0.15799,1.80233z" id="ID0.32891670893877745" stroke="#19282b" stroke-width="0.49901"/><path d="M207.88808,178.63253l4.73772,-0.38686l2.99731,3.57746l-7.44483,2.03033z" id="ID0.5711194332689047" stroke="none" stroke-width="0.66831"/></g><g id="ID0.2766469609923661" stroke="none" stroke-linecap="butt"><path d="M253.72282,174.79872c0.20861,-1.34401 1.62843,-2.22128 2.68713,-3.07399c1.05813,-0.84749 2.36568,-1.6238 3.70592,-1.59748c1.63277,0.02084 3.19002,0.74738 4.15469,1.91981c1.13104,1.20541 1.79914,2.96115 1.59949,4.61476c-0.15249,1.33474 -1.00344,2.62234 -2.18108,3.41571c-1.17763,0.79339 -2.85466,1.15247 -4.31181,0.96728c-1.51616,-0.19819 -3.03319,-0.80929 -4.01928,-1.90216c-1.04483,-1.14986 -1.86019,-2.87551 -1.63509,-4.34392z" id="ID0.7117022019810975" fill="#ff0000" stroke-width="1.88724"/><path d="M261.13611,170.3434c0.33765,0.02719 0.59924,0.62904 0.7468,1.58445c0.14727,0.95224 0.18114,2.25169 0.06628,3.67757c-0.11516,1.42589 -0.35648,2.70306 -0.65479,3.61941c-0.29861,0.91954 -0.65333,1.4716 -0.99101,1.4444c-0.33737,-0.02719 -0.59924,-0.62904 -0.74652,-1.58445c-0.14756,-0.95224 -0.18113,-2.25168 -0.06627,-3.67756c0.11487,-1.42589 0.35647,-2.70307 0.65479,-3.61941c0.29861,-0.91954 0.65334,-1.4716 0.99071,-1.4444z" id="ID0.9093607822433114" fill="#000000" stroke-width="1.13658"/></g></g></g></g></svg>