<svg version="1.1" xmlns="http://www.w3.org/2000/svg" xmlns:xlink="http://www.w3.org/1999/xlink" width="100" height="100" viewBox="0,0,100,100"><g transform="translate(-190,-130)"><g data-paper-data="{&quot;isPaintingLayer&quot;:true}" fill-rule="nonzero" stroke-linecap="butt" stroke-linejoin="miter" stroke-miterlimit="10" stroke-dasharray="" stroke-dashoffset="0" style="mix-blend-mode: normal"><path d="M190,180c0,-27.61424 22.38576,-50 50,-50c27.61424,0 50,22.38576 50,50c0,27.61424 -22.38576,50 -50,50c-27.61424,0 -50,-22.38576 -50,-50z" fill="none" stroke="none" stroke-width="0"/><path d="M227.46627,171.25657l10.11125,3.5053c0,0 -2.51203,2.06849 3.29965,2.22775c6.40689,0.17557 5.53349,-1.9963 5.53349,-1.9963l12.62123,-2.63356l-5.25351,4.31145c0,0 -6.85116,0.90607 -5.33953,2.03677c2.37229,1.77445 9.20113,0.55854 9.20113,0.55854l13.69654,1.88332l-14.98465,0.79168c0,0 -4.74682,-1.69618 -8.62222,-0.28976c-3.52551,1.27944 2.75664,2.57222 2.75664,2.57222l1.88463,4.51946l-10.32104,-3.53613c0,0 1.72163,-2.39522 -4.05081,-2.36961c-5.63862,0.02502 -4.94037,2.1906 -4.94037,2.1906l-12.29846,2.60535l4.81941,-4.29041c0,0 7.68917,-0.5628 5.31546,-2.24906c-2.23759,-1.58957 -8.74063,-0.36885 -8.74063,-0.36885l-13.491,-1.86175l14.6797,-0.90881c0,0 4.49511,1.75554 8.49166,0.4151c3.90862,-1.31094 -2.73271,-2.52984 -2.73271,-2.52984zM237.20862,181.10414c1.989,0.44854 4.81349,0.32844 6.30864,-0.26826c1.49515,-0.5967 1.0948,-1.44405 -0.8942,-1.89259c-1.989,-0.44854 -4.8135,-0.32844 -6.30865,0.26826c-1.49515,0.5967 -1.0948,1.44405 0.8942,1.89259z" fill="#595959" stroke="none" stroke-width="0"/><path d="M229.86328,172.87933l5.64713,2.04767c0,0 -0.44493,1.90337 5.36676,2.06263c6.40689,0.17557 7.18998,-1.57765 7.18998,-1.57765l7.57168,-1.69808l-3.30104,2.63245c0,0 -5.41058,1.23094 -3.89897,2.36164c2.37229,1.77445 9.00642,1.2361 9.00642,1.2361l7.83691,0.92264l-8.30313,0.4046c0,0 -5.37403,-1.02597 -9.24942,0.38045c-3.52551,1.27944 0.54514,2.79496 0.54514,2.79496l1.50703,2.63064l-5.92911,-2.04968c0,0 -0.0812,-2.21559 -5.85365,-2.18998c-5.63862,0.02502 -7.22209,1.9015 -7.22209,1.9015l-6.11835,1.33864l2.62521,-2.21501c0,0 5.98498,-1.08239 3.61128,-2.76865c-2.23759,-1.58957 -9.07448,-1.07542 -9.07448,-1.07542l-7.72741,-0.92273l8.28629,-0.45675c0,0 5.45876,1.07102 9.45532,-0.26942c3.90862,-1.31094 -0.95306,-2.94015 -0.95306,-2.94015zM237.20862,181.10414c1.989,0.44854 4.81349,0.32844 6.30864,-0.26826c1.49515,-0.5967 1.0948,-1.44405 -0.8942,-1.89259c-1.989,-0.44854 -4.8135,-0.32844 -6.30865,0.26826c-1.49515,0.5967 -1.0948,1.44405 0.8942,1.89259z" fill="#464646" stroke="none" stroke-width="0"/><path d="M227.46627,171.25657l10.11125,3.5053c0,0 -2.51203,2.06849 3.29965,2.22775c6.40689,0.17557 5.53349,-1.9963 5.53349,-1.9963l12.62123,-2.63356l-5.25351,4.31145c0,0 -6.85116,0.90607 -5.33953,2.03677c2.37229,1.77445 9.20113,0.55854 9.20113,0.55854l13.69654,1.88332l-14.98465,0.79168c0,0 -4.74682,-1.69618 -8.62222,-0.28976c-3.52551,1.27944 2.75664,2.57222 2.75664,2.57222l1.88463,4.51946l-10.32104,-3.53613c0,0 1.72163,-2.39522 -4.05081,-2.36961c-5.63862,0.02502 -4.94037,2.1906 -4.94037,2.1906l-12.29846,2.60535l4.81941,-4.29041c0,0 7.68917,-0.5628 5.31546,-2.24906c-2.23759,-1.58957 -8.74063,-0.36885 -8.74063,-0.36885l-13.491,-1.86175l14.6797,-0.90881c0,0 4.49511,1.75554 8.49166,0.4151c3.90862,-1.31094 -2.73271,-2.52984 -2.73271,-2.52984zM237.20862,181.10414c1.989,0.44854 4.81349,0.32844 6.30864,-0.26826c1.49515,-0.5967 1.0948,-1.44405 -0.8942,-1.89259c-1.989,-0.44854 -4.8135,-0.32844 -6.30865,0.26826c-1.49515,0.5967 -1.0948,1.44405 0.8942,1.89259z" fill="none" stroke="#515151" stroke-width="0.75"/></g></g></svg>