<svg version="1.1" xmlns="http://www.w3.org/2000/svg" xmlns:xlink="http://www.w3.org/1999/xlink" width="100" height="100" viewBox="0,0,100,100"><g transform="translate(-190,-130)"><g data-paper-data="{&quot;isPaintingLayer&quot;:true}" fill-rule="nonzero" stroke-linecap="butt" stroke-linejoin="miter" stroke-miterlimit="10" stroke-dasharray="" stroke-dashoffset="0" style="mix-blend-mode: normal"><path d="M190,180c0,-27.61424 22.38576,-50 50,-50c27.61424,0 50,22.38576 50,50c0,27.61424 -22.38576,50 -50,50c-27.61424,0 -50,-22.38576 -50,-50z" fill="none" stroke="none" stroke-width="0"/><path d="M224.41393,171.70707l11.30473,3.16018c0,0 -1.75895,2.13732 4.07615,2.10889c6.43272,-0.03134 4.7888,-2.16265 4.7888,-2.16265l11.60822,-3.02402l-3.68376,4.45548c0,0 -6.48821,1.12103 -4.58153,2.19665c2.99225,1.688 9.34763,0.25963 9.34763,0.25963l14.29021,1.43231l-14.61573,1.26869c0,0 -5.32517,-1.53388 -8.67607,-0.01101c-3.04837,1.38538 3.65925,2.46883 3.65925,2.46883l3.48759,4.43289l-11.52432,-3.18409c0,0 0.85645,-2.43677 -4.87363,-2.22579c-5.59725,0.20609 -4.12973,2.33677 -4.12973,2.33677l-11.29738,2.9856l3.25968,-4.42061c0,0 7.44396,-0.80666 4.48179,-2.40694c-2.79232,-1.50852 -8.82205,-0.08583 -8.82205,-0.08583l-14.07816,-1.41748l14.27071,-1.37534c0,0 5.09611,1.60098 8.59102,0.13982c3.41802,-1.429 -3.62033,-2.42746 -3.62033,-2.42746zM237.61656,181.18488c2.13773,0.38204 4.90306,0.17186 6.17654,-0.46946c1.27348,-0.64132 0.57285,-1.47092 -1.56486,-1.85296c-2.13773,-0.38204 -4.90307,-0.17186 -6.17654,0.46946c-1.27348,0.64132 -0.57285,1.47092 1.56486,1.85296z" fill="#595959" stroke="none" stroke-width="0"/><path d="M227.3766,173.24346l6.3458,1.85441c0,0 0.23728,1.90672 6.07239,1.87828c6.43272,-0.03134 6.58526,-1.79964 6.58526,-1.79964l6.92177,-1.93164l-2.34207,2.72338c0,0 -4.93992,1.39774 -3.03324,2.47335c2.99225,1.688 9.39597,0.93955 9.39597,0.93955l8.12127,0.66547l-8.11087,0.66911c0,0 -5.70946,-0.84736 -9.06034,0.6755c-3.04837,1.38538 1.54002,2.76136 1.54002,2.76136l2.43771,2.56708l-6.62689,-1.84735c0,0 -0.87187,-2.20024 -6.60196,-1.98926c-5.59725,0.20609 -6.50155,2.12266 -6.50155,2.12266l-5.60514,1.52756l1.81917,-2.28663c0,0 5.56405,-1.2685 2.60188,-2.86877c-2.79232,-1.50852 -9.40627,-0.77761 -9.40627,-0.77761l-8.01244,-0.66908l8.07551,-0.72042c0,0 5.80979,0.88943 9.30471,-0.57173c3.41802,-1.429 -1.99744,-2.89261 -1.99744,-2.89261zM237.61656,181.18488c2.13773,0.38204 4.90306,0.17186 6.17654,-0.46946c1.27348,-0.64132 0.57285,-1.47092 -1.56486,-1.85296c-2.13773,-0.38204 -4.90307,-0.17186 -6.17654,0.46946c-1.27348,0.64132 -0.57285,1.47092 1.56486,1.85296z" fill="#464646" stroke="none" stroke-width="0"/><path d="M224.41393,171.70707l11.30473,3.16018c0,0 -1.75895,2.13732 4.07615,2.10889c6.43272,-0.03134 4.7888,-2.16265 4.7888,-2.16265l11.60822,-3.02402l-3.68376,4.45548c0,0 -6.48821,1.12103 -4.58153,2.19665c2.99225,1.688 9.34763,0.25963 9.34763,0.25963l14.29021,1.43231l-14.61573,1.26869c0,0 -5.32517,-1.53388 -8.67607,-0.01101c-3.04837,1.38538 3.65925,2.46883 3.65925,2.46883l3.48759,4.43289l-11.52432,-3.18409c0,0 0.85645,-2.43677 -4.87363,-2.22579c-5.59725,0.20609 -4.12973,2.33677 -4.12973,2.33677l-11.29738,2.9856l3.25968,-4.42061c0,0 7.44396,-0.80666 4.48179,-2.40694c-2.79232,-1.50852 -8.82205,-0.08583 -8.82205,-0.08583l-14.07816,-1.41748l14.27071,-1.37534c0,0 5.09611,1.60098 8.59102,0.13982c3.41802,-1.429 -3.62033,-2.42746 -3.62033,-2.42746zM237.61656,181.18488c2.13773,0.38204 4.90306,0.17186 6.17654,-0.46946c1.27348,-0.64132 0.57285,-1.47092 -1.56486,-1.85296c-2.13773,-0.38204 -4.90307,-0.17186 -6.17654,0.46946c-1.27348,0.64132 -0.57285,1.47092 1.56486,1.85296z" fill="none" stroke="#515151" stroke-width="0.75"/></g></g></svg>