<svg version="1.1" xmlns="http://www.w3.org/2000/svg" xmlns:xlink="http://www.w3.org/1999/xlink" width="533.99004" height="444.71815" viewBox="0,0,533.99004,444.71815"><g transform="translate(7.8259,6.35771)"><g data-paper-data="{&quot;isPaintingLayer&quot;:true}" fill-rule="nonzero" stroke-linejoin="miter" stroke-miterlimit="10" stroke-dasharray="" stroke-dashoffset="0" style="mix-blend-mode: normal"><path d="M-7.8259,364.51317v-370.87087h493.99399v370.87087z" fill="#000000" stroke="none" stroke-width="0" stroke-linecap="butt"/><text transform="translate(144.3375,167.68486) scale(0.5,0.5)" font-size="40" xml:space="preserve" fill="#ffffff" fill-rule="nonzero" stroke="none" stroke-width="1" stroke-linecap="butt" stroke-linejoin="miter" stroke-miterlimit="10" stroke-dasharray="" stroke-dashoffset="0" font-family="Sans Serif" font-weight="normal" text-anchor="start" style="mix-blend-mode: normal"><tspan x="0" dy="0">based on a game by</tspan></text><text transform="translate(167.53081,200.93486) scale(0.78169,0.78169)" font-size="40" xml:space="preserve" fill="#ffffff" fill-rule="nonzero" stroke="none" stroke-width="1" stroke-linecap="butt" stroke-linejoin="miter" stroke-miterlimit="10" stroke-dasharray="" stroke-dashoffset="0" font-family="Sans Serif" font-weight="normal" text-anchor="start" style="mix-blend-mode: normal"><tspan x="0" dy="0">Will_Wam</tspan></text><g><g stroke-linecap="round"><path d="M441.40288,203.31872l25.91582,-14.7063l4.58398,24.32575l-34.92559,26.52463z" fill="#990000" stroke="#660000" stroke-width="8.56233"/><path d="M464.55753,214.34651l29.78526,-0.86447l-7.33614,23.64183l-43.27904,7.09059z" fill="#990000" stroke="#660000" stroke-width="8.56233"/><path d="M447.78564,225.17103l2.2307,-17.34797l12.79258,-7.38104" fill="none" stroke="#cc0000" stroke-width="7.61097"/><path d="M461.03375,234.47397l10.07205,-13.21408l14.65548,-1.8297" fill="none" stroke="#cc0000" stroke-width="7.61097"/></g><path d="M318.07283,275.88587l138.73234,-56.87721l64.7016,157.81721l-138.73234,56.87721z" fill="#990000" stroke="#660000" stroke-width="7.13995" stroke-linecap="butt"/><path d="M332.85776,310.09619l137.91738,-57.54458l17.46131,43.23392l-138.25556,56.65531z" fill="#ffe9cc" stroke="#660000" stroke-width="8.56233" stroke-linecap="round"/><path d="M465.59452,265.65909l10.0208,23.67087l-120.13288,50.78046" fill="none" stroke="#ffd499" stroke-width="8.56233" stroke-linecap="round"/><path d="M353.79791,314.34404l24.81092,-4.34726" fill="none" stroke="#000000" stroke-width="8.56233" stroke-linecap="round"/><path d="M436.37343,280.91724l-19.4911,15.95552" fill="none" stroke="#000000" stroke-width="8.56233" stroke-linecap="round"/><path d="M423.95511,290.16442c2.08556,-0.79314 4.2973,-0.66463 6.18598,0.1826c1.8881,0.84821 3.45404,2.41565 4.24723,4.50108c0.7932,2.08543 0.66463,4.2973 -0.18263,6.18589c-0.84816,1.88821 -2.41561,3.45414 -4.50104,4.24734c-2.08543,0.7932 -4.2973,0.66463 -6.18589,-0.18264c-1.88821,-0.84816 -3.45413,-2.4156 -4.24723,-4.50108c-0.7932,-2.08543 -0.66472,-4.29725 0.18254,-6.18584c0.84826,-1.88825 2.41561,-3.45414 4.50104,-4.24734z" fill="#000000" stroke="none" stroke-width="0.70319" stroke-linecap="butt"/><path d="M494.65373,312.62467l-63.57203,49.6254" fill="none" stroke="#660000" stroke-width="7.61097" stroke-linecap="round"/><path d="M387.48668,421.58098l-18.47597,-45.90149l138.14523,-8.77409" fill="none" stroke="#cc0000" stroke-width="7.61097" stroke-linecap="round"/><path d="M445.0377,361.87866l47.41045,-37.52395" fill="none" stroke="#cc0000" stroke-width="7.61097" stroke-linecap="round"/><path d="M360.12989,357.68219l2.5803,4.10784z" fill="none" stroke="#cc0000" stroke-width="7.61097" stroke-linecap="round"/><path d="M484.49606,307.3273l-124.36615,50.3549" fill="none" stroke="#cc0000" stroke-width="7.61097" stroke-linecap="round"/><path d="M337.80823,298.99323l-8.88074,-17.99733l122.58768,-49.67834" fill="none" stroke="#cc0000" stroke-width="7.61097" stroke-linecap="round"/><path d="M369.75711,310.85013c2.08556,-0.79314 4.29729,-0.66463 6.18597,0.18259c1.88812,0.84821 3.45404,2.41565 4.24723,4.50108c0.7932,2.08543 0.66463,4.2973 -0.18263,6.18589c-0.84816,1.88821 -2.41561,3.45413 -4.50104,4.24733c-2.08543,0.7932 -4.29729,0.66463 -6.18588,-0.18263c-1.88821,-0.84816 -3.45413,-2.4156 -4.24723,-4.50108c-0.7932,-2.08543 -0.66472,-4.29725 0.18254,-6.18584c0.84826,-1.88825 2.41561,-3.45414 4.50104,-4.24734z" fill="#000000" stroke="none" stroke-width="0.70319" stroke-linecap="butt"/><path d="M512.24055,358.86443l-154.06394,9.73924" fill="none" stroke="#660000" stroke-width="7.61097" stroke-linecap="round"/></g></g></g></svg>