<svg version="1.1" xmlns="http://www.w3.org/2000/svg" xmlns:xlink="http://www.w3.org/1999/xlink" width="76.66075" height="82.85976"><g transform="translate(-211.64306,-134.49007)"><g data-paper-data="{&quot;isPaintingLayer&quot;:true}" fill-rule="nonzero" stroke="none" stroke-width="0" stroke-linecap="butt" stroke-linejoin="miter" stroke-miterlimit="10" stroke-dasharray="" stroke-dashoffset="0" style="mix-blend-mode: normal"><path d="M211.64307,157.00925c0,-5.34689 4.10272,-9.6879 9.6879,-9.6879c5.58518,0 9.6879,4.08525 9.6879,9.6879c0,5.60264 -4.08394,9.6879 -9.6879,9.6879c-5.60395,0 -9.6879,-4.34101 -9.6879,-9.6879z" data-paper-data="{&quot;origPos&quot;:null}" fill="#cc5252"/><path d="M213.38977,198.12856c0,-5.34689 4.10272,-9.6879 9.6879,-9.6879c5.58518,0 9.6879,4.08525 9.6879,9.6879c0,5.60264 -4.08394,9.6879 -9.6879,9.6879c-5.60395,0 -9.6879,-4.34101 -9.6879,-9.6879z" data-paper-data="{&quot;origPos&quot;:null}" fill="#cc5252"/><path d="M235.06208,142.62204c0,-4.48816 3.44379,-8.13197 8.13198,-8.13197c4.68817,0 8.13197,3.42914 8.13197,8.13197c0,4.70283 -3.42804,8.13197 -8.13197,8.13197c-4.70393,0 -8.13198,-3.64382 -8.13198,-8.13197z" data-paper-data="{&quot;origPos&quot;:null}" fill="#e6e6e6"/><path d="M261.35452,184.51175c0,-4.48815 3.44379,-8.13197 8.13197,-8.13197c4.68818,0 8.13197,3.42914 8.13197,8.13197c0,4.70283 -3.42804,8.13197 -8.13197,8.13197c-4.70393,0 -8.13197,-3.64382 -8.13197,-8.13197z" data-paper-data="{&quot;origPos&quot;:null}" fill="#e6e6e6"/><path d="M234.1987,171.72082c0,-4.48815 3.44379,-8.13197 8.13197,-8.13197c4.68818,0 8.13197,3.42914 8.13197,8.13197c0,4.70283 -3.42804,8.13197 -8.13197,8.13197c-4.70393,0 -8.13197,-3.64382 -8.13197,-8.13197z" data-paper-data="{&quot;origPos&quot;:null}" fill="#e6e6e6"/><path d="M268.928,160.80034c0,-5.34689 4.10271,-9.68791 9.68791,-9.68791c5.58519,0 9.68791,4.08525 9.68791,9.68791c0,5.60264 -4.08394,9.68791 -9.68791,9.68791c-5.60396,0 -9.68791,-4.34101 -9.68791,-9.68791z" data-paper-data="{&quot;origPos&quot;:null}" fill="#cc5252"/><path d="M246.79892,207.66194c0,-5.34689 4.10271,-9.6879 9.6879,-9.6879c5.58519,0 9.6879,4.08526 9.6879,9.6879c0,5.60264 -4.08395,9.68789 -9.6879,9.68789c-5.60396,0 -9.6879,-4.34101 -9.6879,-9.68789z" data-paper-data="{&quot;origPos&quot;:null}" fill="#cc5252"/></g></g></svg>