<svg version="1.1" xmlns="http://www.w3.org/2000/svg" xmlns:xlink="http://www.w3.org/1999/xlink" width="100" height="100" viewBox="0,0,100,100"><g transform="translate(-190,-130)"><g data-paper-data="{&quot;isPaintingLayer&quot;:true}" fill-rule="nonzero" stroke-linecap="butt" stroke-linejoin="miter" stroke-miterlimit="10" stroke-dasharray="" stroke-dashoffset="0" style="mix-blend-mode: normal"><path d="M190,180c0,-27.61424 22.38576,-50 50,-50c27.61424,0 50,22.38576 50,50c0,27.61424 -22.38576,50 -50,50c-27.61424,0 -50,-22.38576 -50,-50z" fill="none" stroke="none" stroke-width="0"/><path d="M230.68822,170.90439l8.7908,3.81228c0,0 -3.24169,1.97505 2.47872,2.32159c6.30628,0.38204 6.21951,-1.80543 6.21951,-1.80543l13.49514,-2.20942l-6.77427,4.11611c0,0 -7.13717,0.67889 -6.04125,1.85194c1.71989,1.84091 8.94636,0.85326 8.94636,0.85326l12.93879,2.31589l-15.18196,0.30176c0,0 -4.10872,-1.84 -8.46756,-0.56731c-3.96532,1.15779 1.81492,2.64646 1.81492,2.64646l0.2473,4.55409l-8.98825,-3.84972c0,0 2.57349,-2.32547 -3.17443,-2.48695c-5.61468,-0.15774 -5.69977,2.0178 -5.69977,2.0178l-13.16412,2.19183l6.33514,-4.10925c0,0 7.84676,-0.31049 6.09372,-2.06377c-1.65251,-1.65275 -8.55683,-0.64977 -8.55683,-0.64977l-12.74221,-2.28779l14.92094,-0.42808c0,0 3.83712,1.89086 8.29266,0.68769c4.35751,-1.17669 -1.80639,-2.60355 -1.80639,-2.60355zM236.83003,181.00993c1.81598,0.51034 4.66716,0.48241 6.36829,-0.06238c1.70114,-0.54479 1.60803,-1.40015 -0.20793,-1.91049c-1.81598,-0.51034 -4.66717,-0.48241 -6.36831,0.06238c-1.70114,0.54479 -1.60803,1.40015 0.20794,1.91049z" fill="#595959" stroke="none" stroke-width="0"/><path d="M232.48729,172.5953l4.87726,2.21859c0,0 -1.12725,1.87784 4.59317,2.22438c6.30628,0.38204 7.71567,-1.33558 7.71567,-1.33558l8.13848,-1.44294l-4.22904,2.51016c0,0 -5.82192,1.04852 -4.726,2.22156c1.71989,1.84091 8.50897,1.52056 8.50897,1.52056l7.4591,1.17105l-8.40019,0.13333c0,0 -4.97343,-1.19402 -9.33226,0.07867c-3.96532,1.15779 -0.4638,2.79629 -0.4638,2.79629l0.5516,2.66408l-5.15689,-2.22973c0,0 0.71656,-2.20528 -5.03138,-2.36676c-5.61468,-0.15774 -7.86414,1.6565 -7.86414,1.6565l-6.56429,1.13267l3.40693,-2.11704c0,0 6.3395,-0.88224 4.58647,-2.63551c-1.65251,-1.65275 -8.63447,-1.36302 -8.63447,-1.36302l-7.35022,-1.1676l8.40222,-0.18572c0,0 5.04146,1.24155 9.49702,0.03838c4.35751,-1.17669 0.11052,-2.95383 0.11052,-2.95383zM236.83004,181.00993c1.81598,0.51034 4.66716,0.48241 6.36829,-0.06238c1.70114,-0.54479 1.60803,-1.40015 -0.20793,-1.91049c-1.81598,-0.51034 -4.66717,-0.48241 -6.36831,0.06238c-1.70114,0.54479 -1.60803,1.40015 0.20794,1.91049z" fill="#464646" stroke="none" stroke-width="0"/><path d="M230.68822,170.90439l8.7908,3.81228c0,0 -3.24169,1.97505 2.47872,2.32159c6.30628,0.38204 6.21951,-1.80543 6.21951,-1.80543l13.49514,-2.20942l-6.77427,4.11611c0,0 -7.13717,0.67889 -6.04125,1.85194c1.71989,1.84091 8.94636,0.85326 8.94636,0.85326l12.93879,2.31589l-15.18196,0.30176c0,0 -4.10872,-1.84 -8.46756,-0.56731c-3.96532,1.15779 1.81492,2.64646 1.81492,2.64646l0.2473,4.55409l-8.98825,-3.84972c0,0 2.57349,-2.32547 -3.17443,-2.48695c-5.61468,-0.15774 -5.69977,2.0178 -5.69977,2.0178l-13.16412,2.19183l6.33514,-4.10925c0,0 7.84676,-0.31049 6.09372,-2.06377c-1.65251,-1.65275 -8.55683,-0.64977 -8.55683,-0.64977l-12.74221,-2.28779l14.92094,-0.42808c0,0 3.83712,1.89086 8.29266,0.68769c4.35751,-1.17669 -1.80639,-2.60355 -1.80639,-2.60355zM236.83003,181.00993c1.81598,0.51034 4.66716,0.48241 6.36829,-0.06238c1.70114,-0.54479 1.60803,-1.40015 -0.20793,-1.91049c-1.81598,-0.51034 -4.66717,-0.48241 -6.36831,0.06238c-1.70114,0.54479 -1.60803,1.40015 0.20794,1.91049z" fill="none" stroke="#515151" stroke-width="0.75"/></g></g></svg>