<svg version="1.1" xmlns="http://www.w3.org/2000/svg" xmlns:xlink="http://www.w3.org/1999/xlink" width="493.99399" height="436.022" viewBox="0,0,493.99399,436.022"><g transform="translate(7.82589,6.3577)"><g data-paper-data="{&quot;isPaintingLayer&quot;:true}" fill-rule="nonzero" stroke-linejoin="miter" stroke-miterlimit="10" stroke-dasharray="" stroke-dashoffset="0" style="mix-blend-mode: normal"><path d="M-7.82589,364.51318v-370.87087h493.99399v370.87087z" data-paper-data="{&quot;index&quot;:null}" fill="#000000" stroke="none" stroke-width="0" stroke-linecap="butt"/><g data-paper-data="{&quot;index&quot;:null}"><path d="M439.71394,373.90578c-0.60796,39.05058 -17.13571,53.81659 -37.23525,53.50367c-20.09953,-0.31292 -36.15962,-15.58629 -35.55165,-54.63686c0.60796,-39.05058 17.39475,-70.4536 37.49428,-70.14068c20.09953,0.31292 35.9006,32.2233 35.29264,71.27386z" fill="#a5acba" stroke="none" stroke-width="0" stroke-linecap="butt"/><path d="M403.6964,349.1946l-28.76315,-11.28134l3.59802,-3.67355l25.45439,-3.62389l24.49667,4.21874l4.31448,3.97954z" fill="#efd2bb" stroke="#1a2443" stroke-width="3" stroke-linecap="butt"/><path d="M392.16454,335.50985c0.40735,0.00633 0.77411,0.22994 1.03639,0.58557c0.26198,0.35744 0.41926,0.84508 0.41089,1.38189c-0.00835,0.53655 -0.18072,1.01931 -0.45372,1.36816c-0.27323,0.34728 -0.64678,0.55938 -1.05412,0.55302c-0.40759,-0.00635 -0.77439,-0.22996 -1.03642,-0.58556c-0.26198,-0.35718 -0.4195,-0.84508 -0.41115,-1.38165c0.00835,-0.53681 0.18099,-1.01931 0.45397,-1.36842c0.27296,-0.34729 0.64655,-0.55937 1.05417,-0.55302z" fill="#000000" stroke="#192443" stroke-width="3.6" stroke-linecap="butt"/><path d="M415.64894,335.87548c0.40735,0.00633 0.77412,0.22995 1.03641,0.58557c0.26198,0.35744 0.41926,0.84508 0.4109,1.38188c-0.00835,0.53655 -0.18072,1.01931 -0.45371,1.36815c-0.27324,0.34728 -0.64679,0.55938 -1.05414,0.55304c-0.4076,-0.00634 -0.77439,-0.22996 -1.03642,-0.58558c-0.26199,-0.35718 -0.41949,-0.84508 -0.41115,-1.38164c0.00834,-0.5368 0.181,-1.01929 0.45398,-1.3684c0.27296,-0.34729 0.64653,-0.55939 1.05413,-0.55302z" fill="#000000" stroke="#192443" stroke-width="3.6" stroke-linecap="butt"/><path d="M367.4882,371.65123l66.91721,35.01724" data-paper-data="{&quot;index&quot;:null}" fill="none" stroke="#b8bfce" stroke-width="2.25" stroke-linecap="round"/><path d="M438.95167,372.76384l-31.04786,15.03511" data-paper-data="{&quot;index&quot;:null}" fill="none" stroke="#b8bfce" stroke-width="2.25" stroke-linecap="round"/><path d="M367.55181,367.56624l66.9172,35.01724" data-paper-data="{&quot;index&quot;:null}" fill="none" stroke="#1a2443" stroke-width="3" stroke-linecap="round"/><path d="M439.01527,368.67885l-35.8693,17.3699" data-paper-data="{&quot;index&quot;:null}" fill="none" stroke="#1a2443" stroke-width="3" stroke-linecap="round"/><path d="M434.87145,342.2029l-31.23969,11.14359l-30.87763,-12.11067" fill="none" stroke="#b8bfce" stroke-width="2.25" stroke-linecap="butt"/><path d="M439.71394,373.90578c-0.60796,39.05058 -17.13571,53.81659 -37.23525,53.50367c-20.09953,-0.31292 -36.15962,-15.58629 -35.55165,-54.63686c0.60796,-39.05058 17.39475,-70.4536 37.49428,-70.14068c20.09953,0.31292 35.9006,32.2233 35.29264,71.27386z" fill="none" stroke="#1a2443" stroke-width="4.5" stroke-linecap="butt"/><g fill="#3a5196" stroke="none" stroke-width="1"><path d="M379.07793,316.95366l50.39418,-0.7994l5.08895,8.52164l-60.53255,-2.10152z" stroke-linecap="butt"/><g stroke-linecap="round"><path d="M370.43051,317.23805l-2.41427,-9.15892l8.56342,2.32827l4.38189,11.10713z"/><path d="M367.76019,323.95806l-7.87415,-5.26391l7.95882,-3.92648l10.63842,5.42121z"/></g></g></g><text transform="translate(190.275,146) scale(0.5,0.5)" font-size="40" xml:space="preserve" fill="#ffffff" fill-rule="nonzero" stroke="none" stroke-width="1" stroke-linecap="butt" stroke-linejoin="miter" stroke-miterlimit="10" stroke-dasharray="" stroke-dashoffset="0" font-family="Sans Serif" font-weight="normal" text-anchor="start" style="mix-blend-mode: normal"><tspan x="0" dy="0">non-menu</tspan></text><text transform="translate(175.64167,166) scale(0.5,0.5)" font-size="40" xml:space="preserve" fill="#ffffff" fill-rule="nonzero" stroke="none" stroke-width="1" stroke-linecap="butt" stroke-linejoin="miter" stroke-miterlimit="10" stroke-dasharray="" stroke-dashoffset="0" font-family="Sans Serif" font-weight="normal" text-anchor="start" style="mix-blend-mode: normal"><tspan x="0" dy="0">sounds taken</tspan></text><text transform="translate(161.02917,186.00001) scale(0.5,0.5)" font-size="40" xml:space="preserve" fill="#ffffff" fill-rule="nonzero" stroke="none" stroke-width="1" stroke-linecap="butt" stroke-linejoin="miter" stroke-miterlimit="10" stroke-dasharray="" stroke-dashoffset="0" font-family="Sans Serif" font-weight="normal" text-anchor="start" style="mix-blend-mode: normal"><tspan x="0" dy="0">from Will_Wam's</tspan></text><text transform="translate(163.8125,206.00001) scale(0.5,0.5)" font-size="40" xml:space="preserve" fill="#ffffff" fill-rule="nonzero" stroke="none" stroke-width="1" stroke-linecap="butt" stroke-linejoin="miter" stroke-miterlimit="10" stroke-dasharray="" stroke-dashoffset="0" font-family="Sans Serif" font-weight="normal" text-anchor="start" style="mix-blend-mode: normal"><tspan x="0" dy="0">The Ninja series</tspan></text><text transform="translate(181.81667,226.00001) scale(0.5,0.5)" font-size="40" xml:space="preserve" fill="#ffffff" fill-rule="nonzero" stroke="none" stroke-width="1" stroke-linecap="butt" stroke-linejoin="miter" stroke-miterlimit="10" stroke-dasharray="" stroke-dashoffset="0" font-family="Sans Serif" font-weight="normal" text-anchor="start" style="mix-blend-mode: normal"><tspan x="0" dy="0">(uncredited)</tspan></text><g data-paper-data="{&quot;index&quot;:null}" stroke="none" stroke-width="1" stroke-linecap="butt" font-family="Sans Serif" font-weight="normal" font-size="40" text-anchor="start"><text transform="translate(392.20587,285.37138) scale(1.70833,1.70833)" font-size="40" xml:space="preserve" fill="#273663" fill-rule="nonzero" stroke="none" stroke-width="1" stroke-linecap="butt" stroke-linejoin="miter" stroke-miterlimit="10" stroke-dasharray="" stroke-dashoffset="0" font-family="Sans Serif" font-weight="normal" text-anchor="start" style="mix-blend-mode: normal"><tspan x="0" dy="0">?</tspan></text><text transform="translate(389.20587,287.37138) scale(1.70834,1.70834)" font-size="40" xml:space="preserve" fill="#737882" fill-rule="nonzero" stroke="none" stroke-width="1" stroke-linecap="butt" stroke-linejoin="miter" stroke-miterlimit="10" stroke-dasharray="" stroke-dashoffset="0" font-family="Sans Serif" font-weight="normal" text-anchor="start" style="mix-blend-mode: normal"><tspan x="0" dy="0">?</tspan></text></g></g></g></svg>