<svg version="1.1" xmlns="http://www.w3.org/2000/svg" xmlns:xlink="http://www.w3.org/1999/xlink" width="480" height="360" viewBox="0,0,480,360"><defs><radialGradient cx="240" cy="180" r="240" gradientUnits="userSpaceOnUse" id="color-1"><stop offset="0" stop-color="#1a1a1a"/><stop offset="1" stop-color="#000000"/></radialGradient></defs><g data-paper-data="{&quot;isPaintingLayer&quot;:true}" fill="url(#color-1)" fill-rule="nonzero" stroke="none" stroke-width="0" stroke-linecap="butt" stroke-linejoin="miter" stroke-miterlimit="10" stroke-dasharray="" stroke-dashoffset="0" style="mix-blend-mode: normal"><path d="M0,360v-360h480v360zM283.85201,224.48959l-0.29912,-0.00373c-0.59743,-0.29843 -1.19396,-0.5984 -1.79533,-0.88884c-3.16069,-1.52647 -6.47847,-2.57297 -9.59255,-4.20937c-2.93178,-1.54061 -5.84548,-4.08115 -7.88206,-6.66038c-2.07049,-2.62217 -2.77758,-6.38401 -3.79951,-9.55676c-0.36028,-1.11737 -0.936,-2.45372 -1.65016,-3.77601c2.54239,0.36354 4.82802,2.02928 6.97317,3.40939c2.99049,1.54275 6.26276,3.54911 9.38106,4.6428c3.54434,1.21591 5.02328,4.44693 7.32436,7.07093c2.33379,2.66129 4.86065,5.09976 7.84806,7.0036c2.62746,1.66787 6.13041,2.43172 9.20113,2.46475l0.26958,0.0029c0,0 0.24999,0.00269 0.25267,-0.2473c0.00269,-0.24999 -0.2473,-0.25267 -0.2473,-0.25267l-0.26958,-0.0029c-2.97061,-0.03195 -6.39915,-0.76163 -8.93779,-2.38644c-2.94739,-1.87834 -5.43819,-4.28583 -7.74084,-6.91161c-2.37437,-2.70757 -3.89001,-5.94277 -7.53683,-7.21379c-3.079,-1.04821 -6.34463,-3.08582 -9.29435,-4.60319c-2.30963,-1.48974 -4.76157,-3.25152 -7.52248,-3.51509c-1.02507,-1.7951 -2.2889,-3.50479 -3.59523,-4.53509c-2.72654,-2.11424 -5.27305,-4.58648 -7.17307,-7.47226c-1.79259,-2.72208 -3.56078,-6.2431 -4.32263,-9.41748c-0.82977,-3.45739 -0.69322,-6.81042 -0.69322,-10.35882c0,-1.00272 0,-2.00545 0,-3.00818c4.4918,-0.79282 11.92667,-8.49321 12.54249,-9.13781c2.61541,0.15541 4.93973,0.82554 7.56241,1.24201c1.55969,0.24627 3.28451,0.4113 4.98109,0.66757c0.08475,0.21523 0.30975,0.14023 0.30975,0.14023c0.06197,-0.02066 0.1241,-0.04144 0.18639,-0.06236c1.50351,0.24543 2.96969,0.57648 4.26218,1.11479l0.10959,0.04564c0,0 0.23078,0.09612 0.3269,-0.13466c0.09612,-0.23078 -0.13466,-0.3269 -0.13466,-0.3269l-0.10959,-0.04564c-1.07083,-0.44599 -2.25684,-0.75258 -3.48426,-0.98638c2.43163,-0.85494 5.00254,-1.92044 7.07809,-3.30553c2.94362,-1.96464 5.12921,-4.7679 8.10679,-6.63088c0.58778,-0.56461 1.12645,-1.13517 1.94042,-1.32147l0.03034,-0.00723c0,0 0.2432,-0.0579 0.1853,-0.3011c-0.0579,-0.2432 -0.3011,-0.1853 -0.3011,-0.1853l-0.03035,0.00722c-0.8935,0.21963 -1.48541,0.78544 -2.13203,1.41356c-2.97713,1.83956 -5.14502,4.653 -8.07691,6.60931c-2.28861,1.52728 -5.18526,2.6547 -7.82042,3.54377c-1.81437,-0.28984 -3.67371,-0.46389 -5.34953,-0.7285c-2.6649,-0.41823 -5.02842,-1.10139 -7.69179,-1.25134l-1.37891,-6.88011c0.24293,-0.23333 0.51179,-0.4499 0.71342,-0.65657c1.52957,-1.56781 3.05506,-2.98568 4.77347,-4.34446c2.23432,-1.76672 4.47618,-3.53437 6.77479,-5.21967c2.86982,0 5.73966,0 8.60948,0c3.39614,0 7.10127,-0.41604 10.45962,0.0682c1.75189,0.25027 3.69801,0.3571 5.36199,0.88734l0.10249,0.03266c0,0 0.2382,0.07591 0.3141,-0.1623c0.0759,-0.2382 -0.16229,-0.31411 -0.16229,-0.31411l-0.10249,-0.03266c-1.69027,-0.53861 -3.66499,-0.6519 -5.44308,-0.90592c-3.38779,-0.47977 -7.10599,-0.07323 -10.53033,-0.07323c-2.64078,0 -5.28157,0 -7.92236,0c0.29293,-0.2115 0.58684,-0.42154 0.88185,-0.62994c2.87619,-2.03191 5.726,-3.83316 8.8227,-5.51054c1.34123,-0.73248 3.11649,-0.98943 4.60298,-1.31976l0.33572,-0.0746c0,0 0.24405,-0.05424 0.18981,-0.29828c-0.05424,-0.24404 -0.29828,-0.18982 -0.29828,-0.18982l-0.33571,0.07461c-1.53906,0.34202 -3.33904,0.61883 -4.73266,1.3682c-3.11354,1.68651 -5.98127,3.49887 -8.87306,5.54181c-0.48409,0.34199 -0.96525,0.68834 -1.44393,1.03832c-0.07569,0 -0.15138,0 -0.22707,0c0,0 -0.25,0 -0.25,0.25c0,0.03491 0.00488,0.06494 0.01326,0.09078c-2.18773,1.61513 -4.32614,3.30128 -6.45765,4.9867c-1.31514,1.03991 -4.62358,3.27903 -5.8356,5.23054c-1.81662,-0.44694 -6.84285,-1.70696 -8.02446,-2.25122c0.88049,-1.50605 1.76278,-3.01507 2.64235,-4.53722c1.47952,-3.20921 3.50312,-5.97452 5.22606,-9.05665c0.99463,-1.74068 2.64464,-5.5292 4.93126,-5.53871l0.19786,-0.00773c0,0 0.24981,-0.00976 0.24005,-0.25957c-0.00976,-0.24981 -0.25957,-0.24005 -0.25957,-0.24005l-0.19786,0.00773c-2.59384,0.16602 -4.18806,3.76396 -5.34703,5.79231c-1.72548,3.0866 -3.75613,5.85631 -5.23473,9.07268c-0.88678,1.53079 -1.77806,3.04951 -2.66566,4.56631c-0.96714,-0.38681 -2.00881,-0.62695 -3.09749,-0.6929c-0.10145,-0.79323 -0.21368,-1.59726 -0.33078,-2.42807c-0.5073,-3.5991 -1.79245,-7.04819 -5.15378,-8.85924c-0.45298,-0.22855 -0.78638,-0.51081 -1.17877,-0.8307l-0.29283,-0.23873c0,0 -0.19377,-0.15797 -0.35174,0.0358c-0.15797,0.19377 0.0358,0.35174 0.0358,0.35174l0.29283,0.23873c0.41794,0.34073 0.78119,0.63971 1.26283,0.88614c3.21655,1.73334 4.40605,5.04864 4.89056,8.48604c0.11295,0.80133 0.22133,1.57638 0.31977,2.34031c-0.03597,-0.00038 -0.07198,-0.00057 -0.10804,-0.00057c-2.39097,0 -10.23978,-0.00011 -10.23978,-0.00011l-0.05831,0.28035c-1.76604,-1.25988 -3.40015,-2.67737 -5.02305,-4.14663c-2.55787,-2.31571 -5.57813,-4.30424 -7.64128,-7.06734c-1.24585,-1.66853 -2.54306,-3.78285 -4.38758,-4.87743c0,-2.88887 0,-5.77774 0,-8.66661c0,-3.48596 -0.13267,-7.00168 0.09922,-10.48005c0.23306,-3.49595 0.289,-6.97688 0.63347,-10.4664c0.34361,-3.48084 0.83297,-6.94323 1.295,-10.41018c0.46247,-3.47027 1.43705,-6.82764 2.15781,-10.24894c0.06401,-0.30804 0.16094,-0.61099 0.28763,-0.89899l0.17265,-0.39542c0,0 0.10004,-0.22911 -0.12908,-0.32915c-0.22911,-0.10004 -0.32915,0.12908 -0.32915,0.12908l-0.17265,0.39542c-0.13869,0.3198 -0.24596,0.65508 -0.31866,0.99599c-0.72338,3.43373 -1.7,6.80297 -2.16417,10.28596c-0.42198,3.16638 -0.86659,6.32897 -1.20263,9.50522c-2.95418,-0.05328 -4.90089,-2.80604 -6.64452,-4.98338c-1.62998,-2.03542 -3.29818,-5.88689 -5.477,-7.1263l-0.33431,-0.19017c0,0 -0.2173,-0.12361 -0.34091,0.09369c-0.12361,0.2173 0.09369,0.34091 0.09369,0.34091l0.33431,0.19017c2.09372,1.191 3.75702,5.03507 5.33394,7.00424c1.8406,2.29842 3.87029,5.08882 6.98294,5.16982c-0.01438,0.14094 -0.02854,0.28191 -0.04246,0.42291c-0.34498,3.49479 -0.40137,6.98108 -0.63478,10.48225c-0.23263,3.48952 -0.10033,7.0162 -0.10033,10.51331c0,2.82238 0,5.64476 0,8.46714l-0.15,-0.0127c0,0 -0.25,0 -0.25,0.25c0,0.01621 0.00105,0.03138 0.00302,0.04556c-2.78434,0 -5.56868,0 -8.35302,0c-3.5,0 -7,0 -10.5,0c-1.95037,0 -4.03585,0.21411 -5.97272,0.00149c-1.52108,-0.16697 -2.76653,-1.12503 -4.24135,-1.38819c-0.82887,-0.14526 -1.61785,-0.41758 -2.43395,-0.54039l-0.48262,-0.07029c0,0 -0.24739,-0.03603 -0.28342,0.21136c-0.03603,0.24739 0.21136,0.28342 0.21136,0.28342l0.48262,0.07029c0.8061,0.11292 1.59964,0.39439 2.4197,0.53811c1.48386,0.25475 2.73689,1.22408 4.2731,1.39271c1.95582,0.21469 4.05815,0.00149 6.02728,0.00149c3.5,0 7,0 10.5,0c3,0 6,0 9,0c0.07527,0 0.12787,-0.02266 0.16464,-0.05434c1.69404,1.0685 2.91873,3.10259 4.0723,4.64753c2.08468,2.79194 5.12267,4.79979 7.70634,7.13885c1.6921,1.5319 3.39703,3.00718 5.24755,4.3099l-2.17038,10.43366c-2.10913,0.12816 -4.02069,0.4445 -6.30375,1.06822c-3.40086,0.92909 -6.62189,2.24814 -9.90332,3.53243c-3.26262,1.27693 -6.39686,2.8469 -9.62398,4.20933c-0.54258,0.22907 -1.08486,0.458 -1.62664,0.6875c-0.0598,-0.13975 -0.22944,-0.13975 -0.22944,-0.13975c-2.87272,0 -5.62007,-2.09618 -7.71164,-3.88139c-2.52272,-2.14963 -5.73576,-4.42023 -8.59872,-6.09161c-3.00564,-1.75162 -6.11472,-3.42445 -8.97613,-5.40688c-2.85711,-1.97864 -5.97305,-3.9107 -9.36668,-4.78617c-0.52911,-0.13503 -0.99667,-0.15336 -1.54093,-0.16449l-0.13414,-0.00274c0,0 -0.24995,-0.0051 -0.25505,0.24484c-0.0051,0.24995 0.24484,0.25505 0.24484,0.25505l0.13414,0.00274c0.50617,0.01032 0.93536,0.0206 1.42624,0.14874c3.33663,0.86077 6.39785,2.76771 9.20691,4.71308c2.87313,1.98893 5.99187,3.66948 9.00904,5.42782c2.83501,1.64913 6.03372,3.90909 8.52587,6.03993c2.04913,1.74898 4.68193,3.73473 7.47459,3.97655c-2.41856,1.0286 -4.82555,2.07502 -7.2045,3.20069c-1.94837,0.92198 -3.88012,1.86982 -5.78357,2.87107l-0.10004,0.05265c0,0 -0.22124,0.11642 -0.1048,0.33766c0.11643,0.22124 0.33766,0.1048 0.33766,0.1048l0.10004,-0.05264c1.89681,-0.9987 3.82252,-1.9427 5.76457,-2.86158c3.16421,-1.49723 6.37814,-2.85383 9.60285,-4.21524c3.22303,-1.3607 6.35328,-2.92906 9.61174,-4.20436c3.26489,-1.27782 6.46928,-2.59134 9.85286,-3.51571c2.24293,-0.61275 4.10307,-0.92266 6.15981,-1.04958c0.59655,0.65141 4.61824,5.0002 7.1572,6.64702c-0.15222,0.11997 -0.30317,0.23938 -0.4526,0.35823c-2.73924,2.17866 -5.47847,4.35733 -8.21771,6.53599c-2.7151,2.15947 -5.07332,4.89947 -7.53006,7.34964c-2.47774,2.47112 -4.82632,5.08128 -7.2248,7.62946c-2.39851,2.54821 -4.80601,5.0851 -7.24077,7.59872c-2.38828,2.46563 -4.67305,5.30251 -7.32282,7.48172c-2.7115,2.23366 -5.40019,4.39573 -8.29387,6.38909c-2.90766,2.003 -6.02137,3.46049 -9.04976,5.25592c-2.28154,1.35313 -4.52209,2.99142 -6.40941,4.8527l-0.1659,0.16361c0,0 -0.178,0.17555 -0.00245,0.35354c0.17555,0.178 0.35354,0.00245 0.35354,0.00245l0.1659,-0.16361c1.85854,-1.83297 4.066,-3.44673 6.31331,-4.7786c3.03795,-1.8011 6.16123,-3.26469 9.07842,-5.27426c2.9054,-2.00144 5.60571,-4.17226 8.32813,-6.41493c0.22993,-0.18971 0.45715,-0.38423 0.68196,-0.58292c-0.12604,2.78495 -1.99638,5.25321 -3.60408,7.54734c-1.33442,3.25464 -2.23183,6.63723 -3.42064,9.93917c-0.69552,1.95308 -0.5964,4.18153 -0.63243,6.3794c-0.11775,-0.14328 -0.29792,-0.0532 -0.29792,-0.0532c-2.70574,1.35287 -5.28524,2.8212 -7.87307,4.3872c-2.97423,1.80283 -5.64131,4.13375 -8.61885,5.97826c-2.99851,1.85749 -5.86518,3.8441 -8.52965,6.16244c-2.65515,2.31024 -5.20088,4.67768 -7.69035,7.16625c-1.71107,1.71046 -2.98233,3.58749 -4.06313,5.74418l-0.29078,0.27604c0,0 -0.17591,0.17764 0.00172,0.35355c0.17764,0.17591 0.35355,-0.00172 0.35355,-0.00172l0.38252,-0.40385c1.05706,-2.1093 2.29598,-3.94154 3.96961,-5.61457c2.48139,-2.4805 5.01853,-4.83993 7.66506,-7.14266c2.64419,-2.30069 5.48911,-4.27126 8.46476,-6.11459c2.97478,-1.84279 5.64082,-4.17928 8.6144,-5.97553c2.57652,-1.55915 5.14395,-3.02082 7.83782,-4.36776c0,0 0.03307,-0.01654 0.06742,-0.04961c-0.03006,1.25144 -0.11993,2.48773 -0.44217,3.65208c-0.6776,2.5092 -0.14977,5.41505 -0.87696,7.89205c-0.27688,0.94313 -1.06864,0.95934 -1.24664,1.94558c-0.00367,0.17694 -0.1892,0.37219 -0.36572,0.38489l-0.36877,0.5013c0,0 -0.11678,0.22105 0.10427,0.33783c0.22105,0.11678 0.33783,-0.10427 0.33783,-0.10427l0.02533,-0.24469c0.35531,-0.09797 0.68192,-0.44171 0.76163,-0.80156c0.07969,-0.7776 0.98892,-0.98991 1.23321,-1.88306c0.68307,-2.49727 0.18552,-5.39056 0.87816,-7.89637c0.88454,-3.27901 -0.06219,-7.22392 1.06966,-10.33842c1.17746,-3.27937 2.08551,-6.62955 3.38888,-9.86855c1.7291,-2.43339 3.67207,-5.08882 3.67207,-8.08414c0,0 0,-0.06591 -0.03384,-0.13004c2.18746,-2.01665 4.16038,-4.39461 6.20919,-6.50978c2.43643,-2.51533 4.84557,-5.05395 7.24572,-7.6039c2.39487,-2.54434 4.73979,-5.15074 7.21379,-7.61813c2.44324,-2.4367 4.78812,-5.16481 7.48822,-7.31235c2.73924,-2.17866 5.47847,-4.35733 8.21771,-6.53599c0.19643,-0.15623 0.39532,-0.31341 0.5961,-0.47152c1.46628,0.84364 3.16668,1.32616 4.97977,1.32616c0.42333,0 0.84052,-0.02631 1.25001,-0.07737c0,0.97764 0,1.9553 0,2.93294c0,3.58802 -0.13234,6.97818 0.70702,10.47551c0.77485,3.22853 2.56917,6.80895 4.39124,9.57579c1.93041,2.93079 4.51464,5.44475 7.28426,7.59239c0.78405,0.59556 1.02837,1.64363 1.61468,2.41603c0.49307,0.64957 0.95197,1.23054 1.37548,1.79532c-0.0236,0.0352 -0.03935,0.08221 -0.03935,0.14496c0,0.25 0.25,0.25 0.25,0.25c0.0272,0 0.05438,0.00016 0.08152,0.00049c0.86114,1.18545 1.5625,2.35347 2.09266,4.00108c1.04131,3.23292 1.77167,7.03941 3.88302,9.71332c1.3457,1.70425 3.06726,3.39145 4.92613,4.79582c0,2.96865 0,5.9373 0,8.90594c0,3.58127 0.7274,6.91723 1.59229,10.3892c0.84321,3.38495 1.57296,6.80152 1.96039,10.27075c0.3979,3.56293 1.4579,6.82661 2.59596,10.17347c0.05381,0.15774 0.14427,0.42289 0.19808,0.58063c0,0 0.08072,0.23661 0.31733,0.15589c0.23661,-0.08072 0.15589,-0.31733 0.15589,-0.31733c-0.05381,-0.15774 -0.14427,-0.42289 -0.19808,-0.58063c-1.13245,-3.30954 -2.17856,-6.54211 -2.57227,-10.06753c-0.3899,-3.49126 -1.12357,-6.92968 -1.97213,-10.33612c-0.85504,-3.43243 -1.57746,-6.72851 -1.57746,-10.26834c0,-2.84582 0,-5.69164 0,-8.53746c0.85541,0.61463 1.7348,1.1659 2.61576,1.62884c3.11938,1.63919 6.44207,2.68815 9.60769,4.217c0.59937,0.28946 1.1939,0.58846 1.78934,0.8859l0.4852,0.05504c0,0 0.2493,0.01868 0.26798,-0.23062c0.01868,-0.2493 -0.23062,-0.26798 -0.23062,-0.26798zM278.31658,198.06583l-0.0033,-0.12887c-0.03621,-1.41215 -0.60497,-2.59486 -1.12782,-3.89043c-1.37061,-3.218 -2.63263,-6.47497 -3.8881,-9.73928c-1.06585,-3.20748 -1.76804,-7.00317 -3.34533,-9.98305c-1.67063,-3.14166 -2.77739,-6.34563 -4.23628,-9.562c-1.23083,-2.71061 -2.73243,-5.31593 -2.73243,-8.35664c0,0 0,-0.25 -0.25,-0.25c-0.25,0 -0.25,0.25 -0.25,0.25c0,3.1207 1.5144,5.78243 2.77716,8.56336c1.46517,3.22305 2.5751,6.4402 4.25008,9.59004c1.57346,2.94403 2.25968,6.7407 3.31608,9.91692c1.25752,3.27226 2.52299,6.53677 3.89695,9.76219c0.49854,1.23549 1.05551,2.36725 1.08984,3.71169l0.0033,0.12886c0,0 0.00639,0.24992 0.25631,0.24353c0.24992,-0.00639 0.24352,-0.25632 0.24352,-0.25632zM164.1838,209.65571c0.94886,0.00828 1.3588,0.45231 2.25876,0.65982c1.80547,0.41631 4.19854,0.00669 6.05744,0.00669c3,0 6,0 9,0c0,0 0.25,0 0.25,-0.25c0,-0.25 -0.25,-0.25 -0.25,-0.25c-3,0 -6,0 -9,0c-1.80026,0 -4.20251,0.42879 -5.94256,0.00669c-0.91944,-0.22304 -1.36292,-0.66437 -2.36926,-0.67318l-0.35472,-0.00018c0,0 -0.25,-0.00012 -0.25012,0.24988c-0.00012,0.25 0.24988,0.25012 0.24988,0.25012zM244.48573,126.10676l0.11882,0.52775c0.11317,0.12236 0.22633,0.24471 0.3395,0.36707c0.79908,0.85622 0.99982,2.11723 1.73433,3.00753c1.12265,1.36076 2.67475,2.53207 3.8668,3.89442c0,0 0.16463,0.18814 0.35277,0.02352c0.18814,-0.16463 0.02352,-0.35277 0.02352,-0.35277c-1.18797,-1.35767 -2.74019,-2.52919 -3.85741,-3.88336c-0.73955,-0.8964 -0.95077,-2.15463 -1.75295,-3.02883c-0.11317,-0.12236 -0.22633,-0.24471 -0.3395,-0.36707l0.00932,-0.25732c0,0 -0.03454,-0.2476 -0.28214,-0.21307c-0.2476,0.03454 -0.21307,0.28214 -0.21307,0.28214z"/></g></svg>