<svg version="1.1" xmlns="http://www.w3.org/2000/svg" xmlns:xlink="http://www.w3.org/1999/xlink" width="100" height="100" viewBox="0,0,100,100"><g transform="translate(-190,-130)"><g data-paper-data="{&quot;isPaintingLayer&quot;:true}" fill-rule="nonzero" stroke-linecap="butt" stroke-linejoin="miter" stroke-miterlimit="10" stroke-dasharray="" stroke-dashoffset="0" style="mix-blend-mode: normal"><path d="M190,180c0,-27.61424 22.38576,-50 50,-50c27.61424,0 50,22.38576 50,50c0,27.61424 -22.38576,50 -50,50c-27.61424,0 -50,-22.38576 -50,-50z" fill="none" stroke="none" stroke-width="0"/><path d="M212.52201,175.2605l15.10564,0.97583c0,0 2.14037,2.10577 7.10254,1.18432c5.47038,-1.01583 0.41818,-2.59331 0.41818,-2.59331l4.80283,-4.38135l4.4472,4.39233c0,0 -3.65669,1.9601 -0.1821,2.59064c5.45284,0.98952 8.4705,-1.21408 8.4705,-1.21408l14.71794,-0.96689l-10.38379,3.33635c0,0 -7.19291,-0.49852 -7.46914,1.32434c-0.25129,1.65829 7.35936,1.55749 7.35936,1.55749l10.56682,3.27048l-15.33505,-0.9626c0,0 -3.42686,-2.22417 -7.98704,-1.1621c-4.45447,1.03745 0.4452,2.6415 0.4452,2.6415l-4.60153,4.30057l-4.75181,-4.29719c0,0 5.01442,-1.83707 -0.26275,-2.75589c-4.97457,-0.86613 -7.72231,1.28252 -7.72231,1.28252l-14.5105,0.94704l9.90533,-3.3749c0,0 7.11081,0.59136 7.61614,-1.20065c0.4942,-1.75258 -7.25528,-1.52796 -7.25528,-1.52796zM240.04876,181.36966c2.4883,-0.00057 4.50394,-0.60618 4.50205,-1.35267c-0.00188,-0.74649 -2.02059,-1.35118 -4.50889,-1.35062c-2.4883,0.00057 -4.50394,0.60618 -4.50205,1.35267c0.00188,0.74649 2.02059,1.35118 4.50889,1.35062z" fill="#595959" stroke="none" stroke-width="0"/><path d="M217.69046,176.12437l8.61685,0.61687c0,0 3.46068,1.60086 8.42286,0.67941c5.47038,-1.01583 2.5809,-2.55775 2.5809,-2.55775l2.6444,-2.72284l2.64073,2.69869c0,0 -1.85451,1.95969 1.62008,2.59023c5.45284,0.98952 9.67342,-0.63765 9.67342,-0.63765l8.11064,-0.67704l-5.82207,1.82148c0,0 -6.35025,0.15007 -6.62648,1.97293c-0.25129,1.65829 6.03922,2.13449 6.03922,2.13449l6.47822,1.82966l-8.84617,-0.5676c0,0 -4.50699,-1.75536 -9.06717,-0.69329c-4.45447,1.03745 -1.95726,2.82227 -1.95726,2.82227l-2.20399,2.17344l-2.3437,-2.24325c0,0 2.61122,-1.94466 -2.66594,-2.86348c-4.97457,-0.86613 -9.40563,0.77829 -9.40563,0.77829l-8.02335,0.65721l5.70406,-1.8601c0,0 6.50825,-0.12938 7.01358,-1.92139c0.4942,-1.75258 -6.65619,-2.17688 -6.65619,-2.17688zM240.04876,181.36966c2.4883,-0.00057 4.50394,-0.60618 4.50205,-1.35267c-0.00188,-0.74649 -2.02059,-1.35118 -4.50889,-1.35062c-2.4883,0.00057 -4.50394,0.60618 -4.50205,1.35267c0.00188,0.74649 2.02059,1.35118 4.50889,1.35062z" fill="#464646" stroke="none" stroke-width="0"/><path d="M212.52201,175.2605l15.10564,0.97583c0,0 2.14037,2.10577 7.10254,1.18432c5.47038,-1.01583 0.41818,-2.59331 0.41818,-2.59331l4.80283,-4.38135l4.4472,4.39233c0,0 -3.65669,1.9601 -0.1821,2.59064c5.45284,0.98952 8.4705,-1.21408 8.4705,-1.21408l14.71794,-0.96689l-10.38379,3.33635c0,0 -7.19291,-0.49852 -7.46914,1.32434c-0.25129,1.65829 7.35936,1.55749 7.35936,1.55749l10.56682,3.27048l-15.33505,-0.9626c0,0 -3.42686,-2.22417 -7.98704,-1.1621c-4.45447,1.03745 0.4452,2.6415 0.4452,2.6415l-4.60153,4.30057l-4.75181,-4.29719c0,0 5.01442,-1.83707 -0.26275,-2.75589c-4.97457,-0.86613 -7.72231,1.28252 -7.72231,1.28252l-14.5105,0.94704l9.90533,-3.3749c0,0 7.11081,0.59136 7.61614,-1.20065c0.4942,-1.75258 -7.25528,-1.52796 -7.25528,-1.52796zM240.04876,181.36966c2.4883,-0.00057 4.50394,-0.60618 4.50205,-1.35267c-0.00188,-0.74649 -2.02059,-1.35118 -4.50889,-1.35062c-2.4883,0.00057 -4.50394,0.60618 -4.50205,1.35267c0.00188,0.74649 2.02059,1.35118 4.50889,1.35062z" fill="none" stroke="#515151" stroke-width="0.75"/></g></g></svg>