<svg version="1.1" xmlns="http://www.w3.org/2000/svg" xmlns:xlink="http://www.w3.org/1999/xlink" width="480" height="360" viewBox="0,0,480,360"><defs><radialGradient cx="240" cy="180" r="240" gradientUnits="userSpaceOnUse" id="color-1"><stop offset="0" stop-color="#1a1a1a"/><stop offset="1" stop-color="#000000"/></radialGradient></defs><g data-paper-data="{&quot;isPaintingLayer&quot;:true}" fill="url(#color-1)" fill-rule="nonzero" stroke="none" stroke-width="0" stroke-linecap="butt" stroke-linejoin="miter" stroke-miterlimit="10" stroke-dasharray="" stroke-dashoffset="0" style="mix-blend-mode: normal"><path d="M0,360v-360h480v360zM283.85201,224.48959l-0.29912,-0.00373c-0.59743,-0.29843 -1.19396,-0.5984 -1.79533,-0.88884c-3.16069,-1.52647 -6.47847,-2.57297 -9.59255,-4.20937c-2.93178,-1.54061 -5.84548,-4.08115 -7.88206,-6.66038c-2.07049,-2.62217 -2.77758,-6.38401 -3.79951,-9.55676c-0.36028,-1.11737 -0.936,-2.45372 -1.65016,-3.77601c2.54239,0.36354 4.82802,2.02928 6.97317,3.40939c2.99049,1.54275 6.26276,3.54911 9.38106,4.6428c3.54434,1.21591 5.02328,4.44693 7.32436,7.07093c2.33379,2.66129 4.86065,5.09976 7.84806,7.0036c2.62746,1.66787 6.13041,2.43172 9.20113,2.46475l0.26958,0.0029c0,0 0.24999,0.00269 0.25267,-0.2473c0.00269,-0.24999 -0.2473,-0.25267 -0.2473,-0.25267l-0.26958,-0.0029c-2.97061,-0.03195 -6.39915,-0.76163 -8.93779,-2.38644c-2.94739,-1.87834 -5.43819,-4.28583 -7.74084,-6.91161c-2.37437,-2.70757 -3.89001,-5.94277 -7.53683,-7.21379c-3.079,-1.04821 -6.34463,-3.08582 -9.29435,-4.60319c-2.30963,-1.48974 -4.76157,-3.25152 -7.52248,-3.51509c-1.02507,-1.7951 -2.2889,-3.50479 -3.59523,-4.53509c-2.72654,-2.11424 -5.27305,-4.58648 -7.17307,-7.47226c-1.79259,-2.72208 -3.56078,-6.2431 -4.32263,-9.41748c-0.82977,-3.45739 -0.69322,-6.81042 -0.69322,-10.35882c0,-2.80921 0,-5.61843 0,-8.42764c0.02412,0.00698 0.05173,0.01098 0.08333,0.01098c0.25,0 0.25,-0.25 0.25,-0.25c-0.02253,-2.73355 -1.54777,-6.03999 -0.51789,-8.78862c1.73897,-3.00981 3.50276,-5.99143 5.25581,-9.02515c1.47952,-3.20921 3.50312,-5.97452 5.22606,-9.05665c0.99463,-1.74068 2.64464,-5.5292 4.93126,-5.53871l0.19786,-0.00773c0,0 0.24981,-0.00976 0.24005,-0.25957c-0.00976,-0.24981 -0.25957,-0.24005 -0.25957,-0.24005l-0.19786,0.00773c-2.59384,0.16602 -4.18806,3.76396 -5.34703,5.79231c-1.72548,3.0866 -3.75613,5.85631 -5.23473,9.07268c-1.75853,3.03563 -3.53477,6.02385 -5.26488,9.04359c-0.01619,0.04485 -0.03176,0.08978 -0.04673,0.13479c-0.07805,-2.65591 -0.4049,-5.05542 -0.78231,-7.73305c-0.5073,-3.5991 -1.79245,-7.04819 -5.15378,-8.85924c-0.45298,-0.22855 -0.78638,-0.51081 -1.17877,-0.8307l-0.29283,-0.23873c0,0 -0.19377,-0.15797 -0.35174,0.0358c-0.15797,0.19377 0.0358,0.35174 0.0358,0.35174l0.29283,0.23873c0.41794,0.34073 0.78119,0.63971 1.26283,0.88614c3.21655,1.73334 4.40605,5.04864 4.89056,8.48604c0.43074,3.05596 0.79508,5.72974 0.79508,8.86198c0,0 0,0.21046 0.1931,0.24518c-0.19193,2.26312 0.67019,4.64935 0.79291,6.84551c-0.02066,-0.00473 -0.04369,-0.00736 -0.06934,-0.00736c-0.25,0 -0.25,0.25 -0.25,0.25c0,3 0,6 0,9c0,3.58802 -0.13234,6.97818 0.70702,10.47551c0.77485,3.22853 2.56917,6.80895 4.39124,9.57579c1.93041,2.93079 4.51464,5.44475 7.28426,7.59239c0.78405,0.59556 1.02837,1.64363 1.61468,2.41603c0.49307,0.64957 0.95197,1.23054 1.37548,1.79532c-0.0236,0.0352 -0.03935,0.08221 -0.03935,0.14496c0,0.25 0.25,0.25 0.25,0.25c0.0272,0 0.05438,0.00016 0.08152,0.00049c0.86114,1.18545 1.5625,2.35347 2.09266,4.00108c1.04131,3.23292 1.77167,7.03941 3.88302,9.71332c2.07744,2.63096 5.05063,5.22127 8.04189,6.79314c3.11938,1.63919 6.44207,2.68815 9.60769,4.217c0.59937,0.28946 1.1939,0.58846 1.78934,0.8859l0.4852,0.05504c0,0 0.2493,0.01868 0.26798,-0.23062c0.01868,-0.2493 -0.23062,-0.26798 -0.23062,-0.26798zM174.00888,216.58355l0.1659,-0.16361c1.85854,-1.83297 4.066,-3.44673 6.31331,-4.7786c3.03795,-1.8011 6.16123,-3.26469 9.07842,-5.27426c2.9054,-2.00144 5.60571,-4.17226 8.32813,-6.41493c0.22993,-0.18971 0.45715,-0.38423 0.68196,-0.58292c-0.12604,2.78495 -1.99638,5.25321 -3.60408,7.54734c-1.33442,3.25464 -2.23183,6.63723 -3.42064,9.93917c-1.12863,3.16929 -0.16481,7.06365 -1.08149,10.37589c-0.6776,2.5092 -0.14977,5.41505 -0.87696,7.89205c-0.27688,0.94313 -1.06864,0.95934 -1.24664,1.94558c-0.00367,0.17694 -0.1892,0.37219 -0.36572,0.38489l-0.36877,0.5013c0,0 -0.11678,0.22105 0.10427,0.33783c0.22105,0.11678 0.33783,-0.10427 0.33783,-0.10427l0.02533,-0.24469c0.35531,-0.09797 0.68192,-0.44171 0.76163,-0.80156c0.07969,-0.7776 0.98892,-0.98991 1.23321,-1.88306c0.68307,-2.49727 0.18552,-5.39056 0.87816,-7.89637c0.88454,-3.27901 -0.06219,-7.22392 1.06966,-10.33842c1.17746,-3.27937 2.08551,-6.62955 3.38888,-9.86855c1.7291,-2.43339 3.67207,-5.08882 3.67207,-8.08414c0,0 0,-0.06591 -0.03384,-0.13004c2.18746,-2.01665 4.16038,-4.39461 6.20919,-6.50978c2.43643,-2.51533 4.84557,-5.05395 7.24572,-7.6039c2.39487,-2.54434 4.73979,-5.15074 7.21379,-7.61813c2.44324,-2.4367 4.78812,-5.16481 7.48822,-7.31235c2.73924,-2.17866 5.47847,-4.35733 8.21771,-6.53599c2.27364,-1.80835 4.87661,-3.74379 6.91932,-5.7797c0,0 0.17678,-0.17678 0,-0.35355c-0.17678,-0.17678 -0.35355,0 -0.35355,0c-2.01806,2.02539 -4.6216,3.94808 -6.87701,5.74193c-2.73924,2.17866 -5.47847,4.35733 -8.21771,6.53599c-2.7151,2.15947 -5.07332,4.89947 -7.53006,7.34964c-2.47774,2.47112 -4.82632,5.08128 -7.2248,7.62946c-2.39851,2.54821 -4.80601,5.0851 -7.24077,7.59872c-2.38828,2.46563 -4.67305,5.30251 -7.32282,7.48172c-2.7115,2.23366 -5.40019,4.39573 -8.29387,6.38909c-2.90766,2.003 -6.02137,3.46049 -9.04976,5.25592c-2.28154,1.35313 -4.52209,2.99142 -6.40941,4.8527l-0.1659,0.16361c0,0 -0.178,0.17555 -0.00245,0.35354c0.17555,0.178 0.35354,0.00245 0.35354,0.00245zM163.83321,209.65555l0.35059,0.00016c0.94886,0.00828 1.3588,0.45231 2.25876,0.65982c1.80547,0.41631 4.19854,0.00669 6.05744,0.00669c3,0 6,0 9,0c0,0 0.25,0 0.25,-0.25c0,-0.25 -0.25,-0.25 -0.25,-0.25c-3,0 -6,0 -9,0c-1.80026,0 -4.20251,0.42879 -5.94256,0.00669c-0.91944,-0.22304 -1.36292,-0.66437 -2.36926,-0.67318l-0.35472,-0.00018c0,0 -0.25,-0.00012 -0.25012,0.24988c-0.00012,0.25 0.24988,0.25012 0.24988,0.25012z"/></g></svg>