<svg version="1.1" xmlns="http://www.w3.org/2000/svg" xmlns:xlink="http://www.w3.org/1999/xlink" width="100" height="100" viewBox="0,0,100,100"><g transform="translate(-190,-130)"><g data-paper-data="{&quot;isPaintingLayer&quot;:true}" fill-rule="nonzero" stroke-linecap="butt" stroke-linejoin="miter" stroke-miterlimit="10" stroke-dasharray="" stroke-dashoffset="0" style="mix-blend-mode: normal"><path d="M190,180c0,-27.61424 22.38576,-50 50,-50c27.61424,0 50,22.38576 50,50c0,27.61424 -22.38576,50 -50,50c-27.61424,0 -50,-22.38576 -50,-50z" fill="none" stroke="none" stroke-width="0"/><path d="M218.88138,172.8888l13.28883,2.3654c0,0 -0.20129,2.20067 5.47976,1.80008c6.26289,-0.44162 3.14365,-2.419 3.14365,-2.419l9.19511,-3.69631l-0.43625,4.58862c0,0 -5.54351,1.50986 -2.91699,2.43898c4.12194,1.45809 9.31748,-0.34357 9.31748,-0.34357l14.97919,0.48643l-13.37977,2.17341c0,0 -6.29192,-1.15844 -8.48483,0.54358c-1.99493,1.54837 5.32795,2.17839 5.32795,2.17839l6.55454,4.10836l-13.52035,-2.37473c0,0 -0.89309,-2.43559 -6.34193,-1.86334c-5.32254,0.55898 -2.37608,2.54701 -2.37608,2.54701l-8.91868,3.63892l0.04665,-4.52745c0,0 6.70052,-1.26377 2.67025,-2.63807c-3.79917,-1.2955 -8.68059,0.47979 -8.68059,0.47979l-14.76147,-0.48548l12.96694,-2.25557c0,0 6.11574,1.23864 8.49318,-0.41229c2.32513,-1.6146 -5.26056,-2.14046 -5.26056,-2.14046zM238.50953,181.30563c2.3599,0.2367 4.91258,-0.14535 5.70156,-0.85332c0.78899,-0.70797 -0.48451,-1.47378 -2.8444,-1.71047c-2.3599,-0.2367 -4.91259,0.14536 -5.70157,0.85332c-0.78899,0.70797 0.48451,1.47377 2.8444,1.71047z" fill="#595959" stroke="none" stroke-width="0"/><path d="M222.86678,174.20065l7.51668,1.40642c0,0 1.58544,1.84781 7.2665,1.44722c6.26289,-0.44162 5.15659,-2.1791 5.15659,-2.1791l5.39167,-2.32957l-0.35496,2.81055c0,0 -3.83431,1.68129 -1.20779,2.6104c4.12194,1.45809 9.8474,0.31766 9.8474,0.31766l8.40737,0.13132l-7.44978,1.17198c0,0 -6.18002,-0.46313 -8.37293,1.23889c-1.99493,1.54837 3.46502,2.59961 3.46502,2.59961l4.20418,2.35244l-7.78631,-1.38156c0,0 -2.41384,-2.09406 -7.8627,-1.52181c-5.32254,0.55898 -4.84549,2.48936 -4.84549,2.48936l-4.39211,1.85064l0.15413,-2.3504c0,0 4.53587,-1.5949 0.50561,-2.9692c-3.79917,-1.2955 -9.7425,-0.15878 -9.7425,-0.15878l-8.3036,-0.1418l7.3788,-1.21986c0,0 6.30792,0.49782 8.68537,-1.15311c2.32513,-1.6146 -4.00511,-2.69862 -4.00511,-2.69862zM238.50953,181.30563c2.3599,0.2367 4.91258,-0.14535 5.70156,-0.85332c0.78899,-0.70797 -0.48451,-1.47378 -2.8444,-1.71047c-2.3599,-0.2367 -4.91259,0.14536 -5.70157,0.85332c-0.78899,0.70797 0.48451,1.47377 2.8444,1.71047z" fill="#464646" stroke="none" stroke-width="0"/><path d="M218.88138,172.8888l13.28883,2.3654c0,0 -0.20129,2.20067 5.47976,1.80008c6.26289,-0.44162 3.14365,-2.419 3.14365,-2.419l9.19511,-3.69631l-0.43625,4.58862c0,0 -5.54351,1.50986 -2.91699,2.43898c4.12194,1.45809 9.31748,-0.34357 9.31748,-0.34357l14.97919,0.48643l-13.37977,2.17341c0,0 -6.29192,-1.15844 -8.48483,0.54358c-1.99493,1.54837 5.32795,2.17839 5.32795,2.17839l6.55454,4.10836l-13.52035,-2.37473c0,0 -0.89309,-2.43559 -6.34193,-1.86334c-5.32254,0.55898 -2.37608,2.54701 -2.37608,2.54701l-8.91868,3.63892l0.04665,-4.52745c0,0 6.70052,-1.26377 2.67025,-2.63807c-3.79917,-1.2955 -8.68059,0.47979 -8.68059,0.47979l-14.76147,-0.48548l12.96694,-2.25557c0,0 6.11574,1.23864 8.49318,-0.41229c2.32513,-1.6146 -5.26056,-2.14046 -5.26056,-2.14046zM238.50953,181.30563c2.3599,0.2367 4.91258,-0.14535 5.70156,-0.85332c0.78899,-0.70797 -0.48451,-1.47378 -2.8444,-1.71047c-2.3599,-0.2367 -4.91259,0.14536 -5.70157,0.85332c-0.78899,0.70797 0.48451,1.47377 2.8444,1.71047z" fill="none" stroke="#515151" stroke-width="0.75"/></g></g></svg>