<svg version="1.1" xmlns="http://www.w3.org/2000/svg" xmlns:xlink="http://www.w3.org/1999/xlink" width="197.67256" height="184.62875" viewBox="0,0,197.67256,184.62875"><defs><linearGradient x1="141.1657" y1="180.00068" x2="338.83608" y2="180.00068" gradientUnits="userSpaceOnUse" id="color-1"><stop offset="0.012" stop-color="#a7a9ac"/><stop offset="1" stop-color="#414042"/></linearGradient><linearGradient x1="148.57964" y1="181.12023" x2="331.42017" y2="181.12023" gradientUnits="userSpaceOnUse" id="color-2"><stop offset="0" stop-color="#d1d2d3"/><stop offset="1" stop-color="#a4a5a8"/></linearGradient></defs><g transform="translate(-141.16373,-87.68562)"><g data-paper-data="{&quot;isPaintingLayer&quot;:true}" fill-rule="nonzero" stroke="none" stroke-width="1" stroke-linecap="butt" stroke-linejoin="miter" stroke-miterlimit="10" stroke-dasharray="" stroke-dashoffset="0" style="mix-blend-mode: normal"><path d="M338.8363,243.25506c0,16.04762 -8.37166,29.05931 -18.6918,29.05931h-160.29113c-10.3223,0 -18.68963,-13.01506 -18.68963,-29.05931v-126.51351c0,-16.04762 8.36732,-29.05593 18.68963,-29.05593h160.28896c10.32665,0 18.6918,13.00831 18.6918,29.05593v126.51351z" fill="url(#color-1)"/><path d="M331.41821,117.86415v126.51014c0,9.66505 -5.05471,17.52676 -11.2759,17.52676h-160.28896c-6.21467,0 -11.27373,-7.86171 -11.27373,-17.52676v-126.51351c0,-9.66505 5.05905,-17.52676 11.27373,-17.52676h160.28896c6.22118,0 11.2759,7.86509 11.2759,17.53014z" fill="url(#color-2)"/><text transform="translate(216.0545,119.94728) scale(0.5,0.5)" font-size="40" xml:space="preserve" fill="#000000" fill-rule="nonzero" stroke="none" stroke-width="1" stroke-linecap="butt" stroke-linejoin="miter" stroke-miterlimit="10" stroke-dasharray="" stroke-dashoffset="0" font-family="Sans Serif" font-weight="normal" text-anchor="start" style="mix-blend-mode: normal"><tspan x="0" dy="0">GG...</tspan></text></g></g></svg>