<svg version="1.1" xmlns="http://www.w3.org/2000/svg" xmlns:xlink="http://www.w3.org/1999/xlink" width="100" height="100" viewBox="0,0,100,100"><g transform="translate(-190,-130)"><g data-paper-data="{&quot;isPaintingLayer&quot;:true}" fill-rule="nonzero" stroke-linecap="butt" stroke-linejoin="miter" stroke-miterlimit="10" stroke-dasharray="" stroke-dashoffset="0" style="mix-blend-mode: normal"><path d="M190,180c0,-27.61424 22.38576,-50 50,-50c27.61424,0 50,22.38576 50,50c0,27.61424 -22.38576,50 -50,50c-27.61424,0 -50,-22.38576 -50,-50z" fill="none" stroke="none" stroke-width="0"/><path d="M221.54202,172.25457l12.36773,2.77885c0,0 -0.98595,2.18154 4.80546,1.96581c6.38454,-0.23781 3.98933,-2.30405 3.98933,-2.30405l10.46207,-3.37954l-2.07223,4.5482c0,0 -6.05075,1.32302 -3.77111,2.3312c3.57756,1.58217 9.38654,-0.04216 9.38654,-0.04216l14.71931,0.96501l-14.07885,1.73092c0,0 -5.84206,-1.35398 -8.63011,0.26778c-2.53634,1.47534 4.51944,2.33707 4.51944,2.33707l5.04982,4.29537l-12.59459,-2.79557c0,0 -0.01826,-2.45027 -5.64009,-2.05643c-5.4915,0.38471 -3.27189,2.45599 -3.27189,2.45599l-10.16673,3.33135l1.66303,-4.4999c0,0 7.11323,-1.04116 3.59688,-2.53708c-3.31472,-1.41014 -8.80196,0.19807 -8.80196,0.19807l-14.50318,-0.95707l13.69774,-1.82588c0,0 5.63826,1.42806 8.59153,-0.13697c2.88829,-1.53059 -4.46598,-2.29719 -4.46598,-2.29719zM238.05176,181.25374c2.2618,0.31117 4.93622,0.01336 5.97347,-0.66518c1.03725,-0.67854 0.04454,-1.48086 -2.21726,-1.79204c-2.2618,-0.31117 -4.93623,-0.01336 -5.97347,0.66518c-1.03725,0.67854 -0.04454,1.48086 2.21726,1.79204z" fill="#595959" stroke="none" stroke-width="0"/><path d="M225.03604,173.68693l6.97123,1.63988c0,0 0.9165,1.88813 6.70792,1.67241c6.38454,-0.23781 5.90503,-2.00084 5.90503,-2.00084l6.19248,-2.14289l-1.3565,2.78297c0,0 -4.41259,1.54839 -2.13296,2.55657c3.57756,1.58217 9.67731,0.6323 9.67731,0.6323l8.31211,0.40075l-7.82541,0.92582c0,0 -5.97908,-0.65908 -8.76713,0.96268c-2.53634,1.47534 2.51682,2.69601 2.51682,2.69601l3.33998,2.474l-7.24818,-1.62384c0,0 -1.65221,-2.15958 -7.27405,-1.76574c-5.4915,0.38471 -5.7065,2.31931 -5.7065,2.31931l-5.02766,1.69884l0.99252,-2.33192c0,0 5.07927,-1.43995 1.56293,-2.93586c-3.31472,-1.41014 -9.62974,-0.47096 -9.62974,-0.47096l-8.20518,-0.40784l7.77193,-0.9757c0,0 6.09386,0.69767 9.04713,-0.86736c2.88829,-1.53059 -3.01844,-2.8118 -3.01844,-2.8118zM238.05175,181.25374c2.2618,0.31117 4.93622,0.01336 5.97347,-0.66518c1.03725,-0.67854 0.04454,-1.48086 -2.21726,-1.79204c-2.2618,-0.31117 -4.93623,-0.01336 -5.97347,0.66518c-1.03725,0.67854 -0.04454,1.48086 2.21726,1.79204z" fill="#464646" stroke="none" stroke-width="0"/><path d="M221.54202,172.25457l12.36773,2.77885c0,0 -0.98595,2.18154 4.80546,1.96581c6.38454,-0.23781 3.98933,-2.30405 3.98933,-2.30405l10.46207,-3.37954l-2.07223,4.5482c0,0 -6.05075,1.32302 -3.77111,2.3312c3.57756,1.58217 9.38654,-0.04216 9.38654,-0.04216l14.71931,0.96501l-14.07885,1.73092c0,0 -5.84206,-1.35398 -8.63011,0.26778c-2.53634,1.47534 4.51944,2.33707 4.51944,2.33707l5.04982,4.29537l-12.59459,-2.79557c0,0 -0.01826,-2.45027 -5.64009,-2.05643c-5.4915,0.38471 -3.27189,2.45599 -3.27189,2.45599l-10.16673,3.33135l1.66303,-4.4999c0,0 7.11323,-1.04116 3.59688,-2.53708c-3.31472,-1.41014 -8.80196,0.19807 -8.80196,0.19807l-14.50318,-0.95707l13.69774,-1.82588c0,0 5.63826,1.42806 8.59153,-0.13697c2.88829,-1.53059 -4.46598,-2.29719 -4.46598,-2.29719zM238.05176,181.25374c2.2618,0.31117 4.93622,0.01336 5.97347,-0.66518c1.03725,-0.67854 0.04454,-1.48086 -2.21726,-1.79204c-2.2618,-0.31117 -4.93623,-0.01336 -5.97347,0.66518c-1.03725,0.67854 -0.04454,1.48086 2.21726,1.79204z" fill="none" stroke="#515151" stroke-width="0.75"/></g></g></svg>